<?xml version="1.0" encoding="UTF-8"?>
<svg id="Layer_2" data-name="Layer 2" xmlns="http://www.w3.org/2000/svg" xmlns:xlink="http://www.w3.org/1999/xlink" viewBox="0 0 1909.61 2168.25">
  <defs>
    <style>
      .cls-1 {
        fill: url(#linear-gradient-41);
        filter: url(#drop-shadow-4);
      }

      .cls-2 {
        fill: url(#linear-gradient-2);
      }

      .cls-3 {
        fill: url(#linear-gradient-51);
      }

      .cls-4 {
        fill: url(#linear-gradient-80);
      }

      .cls-5 {
        fill: url(#linear-gradient-43);
      }

      .cls-6 {
        fill: #dc8a2d;
      }

      .cls-7 {
        fill: url(#linear-gradient-15);
      }

      .cls-8 {
        fill: url(#linear-gradient-58);
      }

      .cls-9 {
        fill: url(#linear-gradient-69);
      }

      .cls-10 {
        fill: url(#linear-gradient-81);
      }

      .cls-11 {
        fill: url(#linear-gradient-75);
        filter: url(#drop-shadow-9);
      }

      .cls-12 {
        fill: url(#linear-gradient-18);
      }

      .cls-13 {
        fill: url(#linear-gradient-56);
      }

      .cls-14 {
        fill: url(#linear-gradient-64);
        filter: url(#drop-shadow-7);
      }

      .cls-15 {
        fill: url(#linear-gradient-40);
      }

      .cls-16 {
        fill: url(#linear-gradient-52);
      }

      .cls-17 {
        fill: url(#linear-gradient-28);
      }

      .cls-18 {
        fill: url(#linear-gradient-14);
      }

      .cls-19 {
        fill: url(#linear-gradient-36);
      }

      .cls-20 {
        fill: url(#linear-gradient-78);
      }

      .cls-21 {
        fill: url(#linear-gradient-20);
      }

      .cls-22 {
        fill: url(#linear-gradient-6);
      }

      .cls-23 {
        fill: url(#linear-gradient-53);
      }

      .cls-24 {
        fill: #dad6c8;
      }

      .cls-25 {
        fill: #ac4a42;
      }

      .cls-26 {
        fill: url(#linear-gradient-60);
      }

      .cls-27 {
        filter: url(#drop-shadow-8);
      }

      .cls-28 {
        fill: url(#linear-gradient-63);
        filter: url(#drop-shadow-6);
      }

      .cls-29 {
        fill: url(#linear-gradient-35);
      }

      .cls-30 {
        fill: url(#linear-gradient-32);
      }

      .cls-31 {
        fill: url(#linear-gradient-11);
      }

      .cls-32 {
        filter: url(#drop-shadow-3);
      }

      .cls-33 {
        fill: url(#linear-gradient-50);
      }

      .cls-34 {
        fill: url(#linear-gradient-67);
      }

      .cls-35 {
        filter: url(#drop-shadow-1);
      }

      .cls-36 {
        fill: url(#linear-gradient-39);
      }

      .cls-37 {
        fill: url(#linear-gradient-24);
      }

      .cls-37, .cls-38 {
        opacity: .2;
      }

      .cls-39 {
        fill: url(#linear-gradient-10);
      }

      .cls-40 {
        fill: url(#linear-gradient-49);
      }

      .cls-41 {
        fill: url(#linear-gradient-37);
      }

      .cls-42 {
        fill: url(#linear-gradient-16);
      }

      .cls-43 {
        fill: url(#linear-gradient-31);
      }

      .cls-44 {
        fill: url(#linear-gradient-61);
      }

      .cls-45 {
        fill: url(#linear-gradient-68);
      }

      .cls-46 {
        fill: url(#linear-gradient-62);
      }

      .cls-47 {
        fill: url(#linear-gradient-76);
      }

      .cls-48 {
        fill: url(#linear-gradient-21);
      }

      .cls-49 {
        fill: url(#linear-gradient-72);
      }

      .cls-50 {
        fill: url(#linear-gradient-25);
      }

      .cls-51 {
        fill: url(#linear-gradient-5);
      }

      .cls-52 {
        fill: url(#linear-gradient-17);
        filter: url(#drop-shadow-2);
      }

      .cls-53 {
        fill: url(#linear-gradient-54);
      }

      .cls-54 {
        fill: url(#linear-gradient-45);
      }

      .cls-55 {
        fill: url(#linear-gradient-55);
      }

      .cls-56 {
        clip-path: url(#clippath);
      }

      .cls-57 {
        fill: url(#linear-gradient-34);
      }

      .cls-58 {
        fill: url(#linear-gradient-65);
      }

      .cls-59 {
        fill: url(#linear-gradient-70);
      }

      .cls-60 {
        fill: none;
      }

      .cls-61 {
        fill: url(#linear-gradient-79);
      }

      .cls-62 {
        fill: url(#linear-gradient-7);
      }

      .cls-63 {
        fill: url(#linear-gradient-66);
      }

      .cls-38 {
        fill: url(#linear-gradient-48);
      }

      .cls-64 {
        fill: #f39c30;
      }

      .cls-65 {
        fill: url(#linear-gradient-59);
        filter: url(#drop-shadow-5);
      }

      .cls-66 {
        fill: url(#linear-gradient-73);
      }

      .cls-67 {
        fill: url(#linear-gradient-9);
      }

      .cls-68 {
        fill: url(#linear-gradient-22);
      }

      .cls-69 {
        fill: url(#linear-gradient-74);
      }

      .cls-70 {
        fill: url(#linear-gradient-42);
      }

      .cls-71 {
        fill: url(#linear-gradient-3);
      }

      .cls-72 {
        fill: url(#linear-gradient);
      }

      .cls-73 {
        fill: url(#linear-gradient-27);
      }

      .cls-74 {
        fill: url(#linear-gradient-33);
      }

      .cls-75 {
        fill: url(#linear-gradient-38);
      }

      .cls-76 {
        fill: #9a433f;
      }

      .cls-77 {
        fill: url(#linear-gradient-29);
      }

      .cls-78 {
        fill: url(#linear-gradient-30);
      }

      .cls-79 {
        fill: url(#linear-gradient-23);
      }

      .cls-80 {
        fill: url(#linear-gradient-19);
      }

      .cls-81 {
        fill: url(#linear-gradient-71);
      }

      .cls-82 {
        fill: url(#linear-gradient-4);
      }

      .cls-83 {
        fill: url(#linear-gradient-77);
      }

      .cls-84 {
        fill: url(#linear-gradient-8);
      }

      .cls-85 {
        fill: url(#linear-gradient-44);
      }

      .cls-86 {
        fill: url(#linear-gradient-57);
      }

      .cls-87 {
        fill: url(#linear-gradient-47);
      }

      .cls-88 {
        fill: url(#linear-gradient-46);
      }

      .cls-89 {
        fill: #ff9800;
      }

      .cls-90 {
        fill: url(#linear-gradient-12);
      }

      .cls-91 {
        fill: url(#linear-gradient-13);
      }

      .cls-92 {
        fill: url(#linear-gradient-26);
      }
    </style>
    <clipPath id="clippath">
      <rect class="cls-60" width="1909.61" height="2168.25"/>
    </clipPath>
    <linearGradient id="linear-gradient" x1="1127.75" y1="809.59" x2="1297.83" y2="1734.56" gradientTransform="translate(-805.8 -99.58) rotate(4.7)" gradientUnits="userSpaceOnUse">
      <stop offset="0" stop-color="#ae5243"/>
      <stop offset=".27" stop-color="#b35343"/>
      <stop offset=".6" stop-color="#c25845"/>
      <stop offset=".64" stop-color="#c55946"/>
      <stop offset="1" stop-color="#ae5243"/>
    </linearGradient>
    <linearGradient id="linear-gradient-2" x1="1518.91" y1="776.75" x2="1639.83" y2="1676.52" gradientTransform="translate(-811.19 -34.06) rotate(4.7) scale(1 1.03)" gradientUnits="userSpaceOnUse">
      <stop offset="0" stop-color="#dfdaca"/>
      <stop offset=".3" stop-color="#e7e6db"/>
      <stop offset=".52" stop-color="#ebebe2"/>
      <stop offset=".72" stop-color="#e8e7dc"/>
      <stop offset=".95" stop-color="#e1dcce"/>
      <stop offset="1" stop-color="#dfdaca"/>
    </linearGradient>
    <linearGradient id="linear-gradient-3" x1="1372.37" y1="1530.14" x2="1372.37" y2="695.26" gradientTransform="translate(-818.23 51.56) rotate(4.7) scale(1 1.07)" xlink:href="#linear-gradient-2"/>
    <linearGradient id="linear-gradient-4" x1="1748.19" y1="1635.92" x2="1748.19" y2="852.66" gradientTransform="translate(-805.8 -99.58) rotate(4.7)" xlink:href="#linear-gradient-2"/>
    <linearGradient id="linear-gradient-5" x1="6958.91" y1="840.11" x2="7079.59" y2="1738.12" gradientTransform="translate(7115.93 551.74) rotate(-175.3) scale(1 -1)" xlink:href="#linear-gradient-2"/>
    <linearGradient id="linear-gradient-6" x1="6793.76" y1="1479.63" x2="6793.76" y2="632.68" gradientTransform="translate(7101.46 727.77) rotate(-175.3) scale(1 -1.08)" xlink:href="#linear-gradient-2"/>
    <filter id="drop-shadow-1" filterUnits="userSpaceOnUse">
      <feOffset dx="17.49" dy="17.49"/>
      <feGaussianBlur result="blur" stdDeviation="12.49"/>
      <feFlood flood-color="#000" flood-opacity=".15"/>
      <feComposite in2="blur" operator="in"/>
      <feComposite in="SourceGraphic"/>
    </filter>
    <linearGradient id="linear-gradient-7" x1="1326.95" y1="855.75" x2="1326.95" y2="952.23" gradientTransform="translate(-805.8 -99.58) rotate(4.7)" gradientUnits="userSpaceOnUse">
      <stop offset="0" stop-color="#dfdaca"/>
      <stop offset=".57" stop-color="#e7e6db"/>
      <stop offset="1" stop-color="#ebebe2"/>
    </linearGradient>
    <linearGradient id="linear-gradient-8" x1="1703.48" y1="756.26" x2="1703.48" y2="862.22" xlink:href="#linear-gradient-7"/>
    <linearGradient id="linear-gradient-9" x1="1526.06" y1="838.34" x2="1526.06" y2="932.67" xlink:href="#linear-gradient-7"/>
    <linearGradient id="linear-gradient-10" x1="1425.72" y1="854.72" x2="1425.72" y2="945.6" gradientTransform="translate(-805.8 -99.58) rotate(4.7)" gradientUnits="userSpaceOnUse">
      <stop offset=".13" stop-color="#ae5243"/>
      <stop offset=".49" stop-color="#b35343"/>
      <stop offset=".93" stop-color="#c15845"/>
      <stop offset="1" stop-color="#c55946"/>
    </linearGradient>
    <linearGradient id="linear-gradient-11" x1="1627.73" y1="798.15" x2="1627.73" y2="909.93" xlink:href="#linear-gradient-10"/>
    <linearGradient id="linear-gradient-12" x1="6808.58" y1="856.68" x2="6808.58" y2="952.81" gradientTransform="translate(7115.93 551.74) rotate(-175.3) scale(1 -1)" xlink:href="#linear-gradient-7"/>
    <linearGradient id="linear-gradient-13" x1="1233.37" y1="864.09" x2="1233.37" y2="954.39" xlink:href="#linear-gradient-10"/>
    <linearGradient id="linear-gradient-14" x1="7007.48" y1="840.67" x2="7007.48" y2="934.6" gradientTransform="translate(7115.93 551.74) rotate(-175.3) scale(1 -1)" xlink:href="#linear-gradient-7"/>
    <linearGradient id="linear-gradient-15" x1="6907.25" y1="856.34" x2="6907.25" y2="946.89" gradientTransform="translate(7115.93 551.74) rotate(-175.3) scale(1 -1)" xlink:href="#linear-gradient-10"/>
    <linearGradient id="linear-gradient-16" x1="7109.01" y1="801.17" x2="7109.01" y2="912.55" gradientTransform="translate(7115.93 551.74) rotate(-175.3) scale(1 -1)" xlink:href="#linear-gradient-10"/>
    <linearGradient id="linear-gradient-17" x1="1516.8" y1="969.44" x2="981.82" y2="464.8" gradientTransform="translate(-805.8 -99.58) rotate(4.7)" gradientUnits="userSpaceOnUse">
      <stop offset="0" stop-color="#ae5243"/>
      <stop offset=".3" stop-color="#b35343"/>
      <stop offset=".66" stop-color="#c15845"/>
      <stop offset=".73" stop-color="#c55946"/>
    </linearGradient>
    <filter id="drop-shadow-2" filterUnits="userSpaceOnUse">
      <feOffset dx="17.49" dy="17.49"/>
      <feGaussianBlur result="blur-2" stdDeviation="12.49"/>
      <feFlood flood-color="#000" flood-opacity=".08"/>
      <feComposite in2="blur-2" operator="in"/>
      <feComposite in="SourceGraphic"/>
    </filter>
    <linearGradient id="linear-gradient-18" x1="1182.5" y1="197.75" x2="1714.55" y2="762.62" gradientTransform="translate(-805.8 -99.58) rotate(4.7)" xlink:href="#linear-gradient-2"/>
    <linearGradient id="linear-gradient-19" x1="1178.59" y1="188.88" x2="1541.4" y2="860.21" gradientTransform="translate(-805.8 -99.58) rotate(4.7)" xlink:href="#linear-gradient-2"/>
    <linearGradient id="linear-gradient-20" x1="1191.53" y1="166.81" x2="1342.36" y2="948.06" gradientTransform="translate(-805.8 -99.58) rotate(4.7)" xlink:href="#linear-gradient-2"/>
    <linearGradient id="linear-gradient-21" x1="6660.43" y1="197.53" x2="7195.82" y2="765.95" gradientTransform="translate(7115.93 551.74) rotate(-175.3) scale(1 -1)" xlink:href="#linear-gradient-2"/>
    <linearGradient id="linear-gradient-22" x1="6657.53" y1="188.23" x2="7022.24" y2="863.06" gradientTransform="translate(7115.93 551.74) rotate(-175.3) scale(1 -1)" xlink:href="#linear-gradient-2"/>
    <linearGradient id="linear-gradient-23" x1="6673.01" y1="166.09" x2="6824.21" y2="949.25" gradientTransform="translate(7115.93 551.74) rotate(-175.3) scale(1 -1)" xlink:href="#linear-gradient-2"/>
    <linearGradient id="linear-gradient-24" x1="462.36" y1="181.13" x2="303.44" y2="1073.28" gradientTransform="translate(87.34 -34.88) rotate(5.53)" gradientUnits="userSpaceOnUse">
      <stop offset="0" stop-color="#dfdaca"/>
      <stop offset=".11" stop-color="#9fa590"/>
      <stop offset=".21" stop-color="#66765d"/>
      <stop offset=".31" stop-color="#3a5134"/>
      <stop offset=".4" stop-color="#1a3617"/>
      <stop offset=".47" stop-color="#072606"/>
      <stop offset=".52" stop-color="#002100"/>
      <stop offset=".58" stop-color="#052504"/>
      <stop offset=".64" stop-color="#133112"/>
      <stop offset=".71" stop-color="#2c4528"/>
      <stop offset=".78" stop-color="#4e6247"/>
      <stop offset=".86" stop-color="#7a866e"/>
      <stop offset=".94" stop-color="#afb29e"/>
      <stop offset="1" stop-color="#dfdaca"/>
    </linearGradient>
    <linearGradient id="linear-gradient-25" x1="2335.27" y1="678.1" x2="2505.36" y2="1603.07" gradientTransform="translate(-996.91 691.23) rotate(-13.43)" xlink:href="#linear-gradient"/>
    <linearGradient id="linear-gradient-26" x1="2726.44" y1="649.17" x2="2847.35" y2="1548.94" gradientTransform="translate(-981.64 755.17) rotate(-13.43) scale(1 1.03)" xlink:href="#linear-gradient-2"/>
    <linearGradient id="linear-gradient-27" x1="2579.9" y1="1407.37" x2="2579.9" y2="572.49" gradientTransform="translate(-961.69 838.73) rotate(-13.43) scale(1 1.07)" xlink:href="#linear-gradient-2"/>
    <linearGradient id="linear-gradient-28" x1="5751.38" y1="708.62" x2="5872.06" y2="1606.63" gradientTransform="translate(6734.2 -1154.89) rotate(166.57) scale(1 -1)" xlink:href="#linear-gradient-2"/>
    <linearGradient id="linear-gradient-29" x1="5586.23" y1="1358.16" x2="5586.23" y2="511.22" gradientTransform="translate(6775.22 -983.09) rotate(166.57) scale(1 -1.08)" xlink:href="#linear-gradient-2"/>
    <linearGradient id="linear-gradient-30" x1="5980.67" y1="1414.74" x2="5980.67" y2="742.7" gradientTransform="translate(6734.2 -1154.89) rotate(166.57) scale(1 -1)" xlink:href="#linear-gradient-2"/>
    <filter id="drop-shadow-3" filterUnits="userSpaceOnUse">
      <feOffset dx="17.49" dy="17.49"/>
      <feGaussianBlur result="blur-3" stdDeviation="12.49"/>
      <feFlood flood-color="#000" flood-opacity=".15"/>
      <feComposite in2="blur-3" operator="in"/>
      <feComposite in="SourceGraphic"/>
    </filter>
    <linearGradient id="linear-gradient-31" x1="2534.48" y1="724.26" x2="2534.48" y2="820.74" gradientTransform="translate(-996.91 691.23) rotate(-13.43)" xlink:href="#linear-gradient-7"/>
    <linearGradient id="linear-gradient-32" x1="2733.59" y1="706.85" x2="2733.59" y2="801.18" gradientTransform="translate(-996.91 691.23) rotate(-13.43)" xlink:href="#linear-gradient-7"/>
    <linearGradient id="linear-gradient-33" x1="2633.25" y1="723.23" x2="2633.25" y2="814.11" gradientTransform="translate(-996.91 691.23) rotate(-13.43)" xlink:href="#linear-gradient-10"/>
    <linearGradient id="linear-gradient-34" x1="2835.25" y1="666.66" x2="2835.25" y2="778.44" gradientTransform="translate(-996.91 691.23) rotate(-13.43)" xlink:href="#linear-gradient-10"/>
    <linearGradient id="linear-gradient-35" x1="5601.05" y1="725.19" x2="5601.05" y2="821.32" gradientTransform="translate(6734.2 -1154.89) rotate(166.57) scale(1 -1)" xlink:href="#linear-gradient-7"/>
    <linearGradient id="linear-gradient-36" x1="2440.9" y1="732.61" x2="2440.9" y2="822.9" gradientTransform="translate(-996.91 691.23) rotate(-13.43)" xlink:href="#linear-gradient-10"/>
    <linearGradient id="linear-gradient-37" x1="5976.99" y1="628.19" x2="5976.99" y2="733.98" gradientTransform="translate(6734.2 -1154.89) rotate(166.57) scale(1 -1)" xlink:href="#linear-gradient-7"/>
    <linearGradient id="linear-gradient-38" x1="5799.95" y1="709.18" x2="5799.95" y2="803.12" gradientTransform="translate(6734.2 -1154.89) rotate(166.57) scale(1 -1)" xlink:href="#linear-gradient-7"/>
    <linearGradient id="linear-gradient-39" x1="5699.72" y1="724.85" x2="5699.72" y2="815.41" gradientTransform="translate(6734.2 -1154.89) rotate(166.57) scale(1 -1)" xlink:href="#linear-gradient-10"/>
    <linearGradient id="linear-gradient-40" x1="5901.48" y1="669.68" x2="5901.48" y2="781.06" gradientTransform="translate(6734.2 -1154.89) rotate(166.57) scale(1 -1)" xlink:href="#linear-gradient-10"/>
    <linearGradient id="linear-gradient-41" x1="2724.33" y1="837.95" x2="2189.35" y2="333.31" gradientTransform="translate(-996.91 691.23) rotate(-13.43)" xlink:href="#linear-gradient-17"/>
    <filter id="drop-shadow-4" filterUnits="userSpaceOnUse">
      <feOffset dx="17.49" dy="17.49"/>
      <feGaussianBlur result="blur-4" stdDeviation="12.49"/>
      <feFlood flood-color="#000" flood-opacity=".08"/>
      <feComposite in2="blur-4" operator="in"/>
      <feComposite in="SourceGraphic"/>
    </filter>
    <linearGradient id="linear-gradient-42" x1="2390.03" y1="66.27" x2="2922.08" y2="631.13" gradientTransform="translate(-996.91 691.23) rotate(-13.43)" xlink:href="#linear-gradient-2"/>
    <linearGradient id="linear-gradient-43" x1="2386.12" y1="57.39" x2="2748.93" y2="728.72" gradientTransform="translate(-996.91 691.23) rotate(-13.43)" xlink:href="#linear-gradient-2"/>
    <linearGradient id="linear-gradient-44" x1="2399.06" y1="35.32" x2="2549.89" y2="816.57" gradientTransform="translate(-996.91 691.23) rotate(-13.43)" xlink:href="#linear-gradient-2"/>
    <linearGradient id="linear-gradient-45" x1="5452.9" y1="66.05" x2="5988.29" y2="634.46" gradientTransform="translate(6734.2 -1154.89) rotate(166.57) scale(1 -1)" xlink:href="#linear-gradient-2"/>
    <linearGradient id="linear-gradient-46" x1="5450.01" y1="56.74" x2="5814.71" y2="731.57" gradientTransform="translate(6734.2 -1154.89) rotate(166.57) scale(1 -1)" xlink:href="#linear-gradient-2"/>
    <linearGradient id="linear-gradient-47" x1="5465.48" y1="34.61" x2="5616.68" y2="817.77" gradientTransform="translate(6734.2 -1154.89) rotate(166.57) scale(1 -1)" xlink:href="#linear-gradient-2"/>
    <linearGradient id="linear-gradient-48" x1="1667.87" y1="32.22" x2="1508.94" y2="924.38" gradientTransform="translate(-127.98 474.79) rotate(-12.6)" xlink:href="#linear-gradient-24"/>
    <linearGradient id="linear-gradient-49" x1="956.74" y1="107.02" x2="1083.17" y2="107.02" gradientUnits="userSpaceOnUse">
      <stop offset="0" stop-color="#ac5243"/>
      <stop offset=".3" stop-color="#b15343"/>
      <stop offset=".66" stop-color="#bf5845"/>
      <stop offset=".73" stop-color="#c35946"/>
    </linearGradient>
    <linearGradient id="linear-gradient-50" x1="-868.07" y1="1434.15" x2="1676.53" y2="1434.15" gradientTransform="translate(538.94 564.04)" gradientUnits="userSpaceOnUse">
      <stop offset="0" stop-color="#900000"/>
      <stop offset=".19" stop-color="#8a0000"/>
      <stop offset=".42" stop-color="#7c0002"/>
      <stop offset=".52" stop-color="#740103"/>
      <stop offset=".9" stop-color="#4a0103"/>
    </linearGradient>
    <linearGradient id="linear-gradient-51" x1="7408.03" y1="1260.98" x2="7495.76" y2="1260.98" gradientTransform="translate(9287.43) rotate(-180) scale(1 -1)" gradientUnits="userSpaceOnUse">
      <stop offset=".13" stop-color="#ac5243"/>
      <stop offset=".49" stop-color="#b15343"/>
      <stop offset=".93" stop-color="#bf5845"/>
      <stop offset="1" stop-color="#c35946"/>
    </linearGradient>
    <linearGradient id="linear-gradient-52" x1="9265.7" y1="1123.38" x2="9502.91" y2="1123.38" gradientTransform="translate(11022.82) rotate(-180) scale(1 -1)" xlink:href="#linear-gradient-51"/>
    <linearGradient id="linear-gradient-53" x1="7516.52" y1="995.62" x2="7667.55" y2="995.62" gradientTransform="translate(9179.01) rotate(-180) scale(1 -1)" gradientUnits="userSpaceOnUse">
      <stop offset="0" stop-color="#ddd8c8"/>
      <stop offset=".3" stop-color="#e5e4d9"/>
      <stop offset=".52" stop-color="#e9e9e0"/>
      <stop offset=".72" stop-color="#e6e5da"/>
      <stop offset=".95" stop-color="#dfdacc"/>
      <stop offset="1" stop-color="#ddd8c8"/>
    </linearGradient>
    <linearGradient id="linear-gradient-54" x1="8297.79" y1="1324.4" x2="8384.93" y2="1324.4" gradientTransform="translate(10264.33) rotate(-180) scale(1 -1)" xlink:href="#linear-gradient-53"/>
    <linearGradient id="linear-gradient-55" x1="7363.88" y1="1270.93" x2="7487.74" y2="1270.93" xlink:href="#linear-gradient-53"/>
    <linearGradient id="linear-gradient-56" x1="49.7" y1="1275.82" x2="137.43" y2="1275.82" gradientTransform="matrix(1, 0, 0, 1, 0, 0)" xlink:href="#linear-gradient-51"/>
    <linearGradient id="linear-gradient-57" x1="291.7" y1="954.23" x2="396.71" y2="954.23" gradientTransform="matrix(1, 0, 0, 1, 0, 0)" xlink:href="#linear-gradient-53"/>
    <linearGradient id="linear-gradient-58" x1="219.64" y1="1131.51" x2="308.98" y2="1131.51" gradientTransform="matrix(1, 0, 0, 1, 0, 0)" xlink:href="#linear-gradient-51"/>
    <linearGradient id="linear-gradient-59" x1="8250.65" y1="719.43" x2="8390.86" y2="1762.74" gradientTransform="translate(10025.75) rotate(-180) scale(1 -1)" xlink:href="#linear-gradient-53"/>
    <filter id="drop-shadow-5" filterUnits="userSpaceOnUse">
      <feOffset dx="-6.68" dy="-6.68"/>
      <feGaussianBlur result="blur-5" stdDeviation="4.77"/>
      <feFlood flood-color="#000" flood-opacity=".34"/>
      <feComposite in2="blur-5" operator="in"/>
      <feComposite in="SourceGraphic"/>
    </filter>
    <linearGradient id="linear-gradient-60" x1="8204.5" y1="744.47" x2="8410.52" y2="2277.56" gradientTransform="translate(10025.75) rotate(-180) scale(1 -1)" xlink:href="#linear-gradient-51"/>
    <linearGradient id="linear-gradient-61" x1="137.43" y1="1266.4" x2="225.17" y2="1266.4" gradientTransform="matrix(1, 0, 0, 1, 0, 0)" xlink:href="#linear-gradient-53"/>
    <linearGradient id="linear-gradient-62" x1="-46.08" y1="1315.72" x2="49.7" y2="1315.72" gradientTransform="matrix(1, 0, 0, 1, 0, 0)" xlink:href="#linear-gradient-53"/>
    <linearGradient id="linear-gradient-63" x1="252.8" y1="503.33" x2="399.47" y2="1594.73" gradientTransform="matrix(1, 0, 0, 1, 0, 0)" xlink:href="#linear-gradient-53"/>
    <filter id="drop-shadow-6" filterUnits="userSpaceOnUse">
      <feOffset dx="-6.68" dy="-6.68"/>
      <feGaussianBlur result="blur-6" stdDeviation="4.77"/>
      <feFlood flood-color="#000" flood-opacity=".34"/>
      <feComposite in2="blur-6" operator="in"/>
      <feComposite in="SourceGraphic"/>
    </filter>
    <linearGradient id="linear-gradient-64" x1="99.82" y1="757.16" x2="305.85" y2="2290.25" gradientTransform="matrix(1, 0, 0, 1, 0, 0)" xlink:href="#linear-gradient-51"/>
    <filter id="drop-shadow-7" filterUnits="userSpaceOnUse">
      <feOffset dx="-6.68" dy="-6.68"/>
      <feGaussianBlur result="blur-7" stdDeviation="4.77"/>
      <feFlood flood-color="#000" flood-opacity=".35"/>
      <feComposite in2="blur-7" operator="in"/>
      <feComposite in="SourceGraphic"/>
    </filter>
    <filter id="drop-shadow-8" filterUnits="userSpaceOnUse">
      <feOffset dx="15.78" dy="15.78"/>
      <feGaussianBlur result="blur-8" stdDeviation="11.27"/>
      <feFlood flood-color="#000" flood-opacity=".15"/>
      <feComposite in2="blur-8" operator="in"/>
      <feComposite in="SourceGraphic"/>
    </filter>
    <linearGradient id="linear-gradient-65" x1="2063.65" y1="720.77" x2="2063.65" y2="794.94" gradientTransform="translate(-895.22 21.63) rotate(-.83)" gradientUnits="userSpaceOnUse">
      <stop offset="0" stop-color="#ddd8c8"/>
      <stop offset=".57" stop-color="#e5e4d9"/>
      <stop offset="1" stop-color="#e9e9e0"/>
    </linearGradient>
    <linearGradient id="linear-gradient-66" x1="2494.93" y1="711.24" x2="2494.93" y2="783.58" xlink:href="#linear-gradient-65"/>
    <linearGradient id="linear-gradient-67" x1="2277.66" y1="721.94" x2="2277.66" y2="791.8" gradientTransform="translate(-895.22 21.63) rotate(-.83)" xlink:href="#linear-gradient-51"/>
    <linearGradient id="linear-gradient-68" x1="2714.98" y1="681.89" x2="2714.98" y2="767.84" gradientTransform="translate(-895.22 21.63) rotate(-.83)" xlink:href="#linear-gradient-51"/>
    <linearGradient id="linear-gradient-69" x1="6290.31" y1="715.76" x2="6290.31" y2="791.64" gradientTransform="translate(7052.42 -93.1) rotate(179.17) scale(1 -1)" xlink:href="#linear-gradient-65"/>
    <linearGradient id="linear-gradient-70" x1="1860.98" y1="724.41" x2="1860.98" y2="794.73" gradientTransform="translate(-895.22 21.63) rotate(-.83)" xlink:href="#linear-gradient-51"/>
    <linearGradient id="linear-gradient-71" x1="7108.19" y1="633.06" x2="7108.19" y2="715.94" gradientTransform="translate(7052.42 -93.1) rotate(179.17) scale(1 -1)" xlink:href="#linear-gradient-65"/>
    <linearGradient id="linear-gradient-72" x1="6722.68" y1="699.26" x2="6722.68" y2="773.57" gradientTransform="translate(7052.42 -93.1) rotate(179.17) scale(1 -1)" xlink:href="#linear-gradient-65"/>
    <linearGradient id="linear-gradient-73" x1="6504.84" y1="713.52" x2="6504.84" y2="784.99" gradientTransform="translate(7052.42 -93.1) rotate(179.17) scale(1 -1)" xlink:href="#linear-gradient-51"/>
    <linearGradient id="linear-gradient-74" x1="6943.34" y1="666.53" x2="6943.34" y2="754.43" gradientTransform="translate(7052.42 -93.1) rotate(179.17) scale(1 -1)" xlink:href="#linear-gradient-51"/>
    <linearGradient id="linear-gradient-75" x1="2419.21" y1="1170.71" x2="1302.61" y2="117.42" gradientTransform="translate(-895.22 21.63) rotate(-.83)" xlink:href="#linear-gradient-49"/>
    <filter id="drop-shadow-9" filterUnits="userSpaceOnUse">
      <feOffset dx="15.78" dy="15.78"/>
      <feGaussianBlur result="blur-9" stdDeviation="11.27"/>
      <feFlood flood-color="#000" flood-opacity=".08"/>
      <feComposite in2="blur-9" operator="in"/>
      <feComposite in="SourceGraphic"/>
    </filter>
    <linearGradient id="linear-gradient-76" x1="2004.05" y1="3.93" x2="2759.48" y2="805.94" gradientTransform="translate(-895.22 21.63) rotate(-.83)" xlink:href="#linear-gradient-53"/>
    <linearGradient id="linear-gradient-77" x1="2024.97" y1="74.53" x2="2423.58" y2="812.11" gradientTransform="translate(-895.22 21.63) rotate(-.83)" xlink:href="#linear-gradient-53"/>
    <linearGradient id="linear-gradient-78" x1="1951.59" y1="154.06" x2="2078.23" y2="810.02" gradientTransform="translate(-895.22 21.63) rotate(-.83)" xlink:href="#linear-gradient-53"/>
    <linearGradient id="linear-gradient-79" x1="6252.27" y1="4.4" x2="6991.15" y2="788.84" gradientTransform="translate(7052.42 -93.1) rotate(179.17) scale(1 -1)" xlink:href="#linear-gradient-53"/>
    <linearGradient id="linear-gradient-80" x1="6268.25" y1="77.44" x2="6657.47" y2="797.63" gradientTransform="translate(7052.42 -93.1) rotate(179.17) scale(1 -1)" xlink:href="#linear-gradient-53"/>
    <linearGradient id="linear-gradient-81" x1="6181.44" y1="157.76" x2="6306.26" y2="804.24" gradientTransform="translate(7052.42 -93.1) rotate(179.17) scale(1 -1)" xlink:href="#linear-gradient-53"/>
  </defs>
  <g id="TENT_DLL" data-name="TENT DLL">
    <g class="cls-56">
      <g>
        <g>
          <path class="cls-72" d="M796.88,887.73c-146.4-5.42-292.8-10.83-439.2-16.25v.04s-427.63-70.76-427.63-70.76c-37.82,502.59-160.24,665.65-160.24,665.65,100.09,257.24,546.21,316.28,548.93,316.64,26.85,5.14,449.74,82.28,567.11-132.02-19.06-49.07-37.11-103.7-52.54-163.96-59.91-234.07-53.63-449.17-36.43-599.35Z"/>
          <path class="cls-2" d="M620.27,1795.11s-48.74-464.19-19.4-882.35l103.97-10.11c-1.84,152.72,.09,280.38,2.61,375.89,3.48,131.92,8.01,199.57,9.75,224.23,7.57,107.67,18.19,197.09,27.06,261.75-17.84,6.75-36.92,12.92-57.16,18.1-23.57,6.04-45.92,10.01-66.82,12.49Z"/>
          <path class="cls-71" d="M404.47,937.61s-32.88,789.68-26.47,854.21c0,0,90.02,13.76,118.45,8.5-4.06-58.01-8.55-138.7-10.16-235.29-1.23-74.09-.4-135.32,1.54-212.95,2.65-106.43,7.7-256.65,18.1-444.46-33.82,10-67.65,20-101.47,30Z"/>
          <path class="cls-82" d="M867.23,1679.42c-18.7-51.8-36.27-109.3-51.06-172.48-56.42-240.89-48.29-460.45-29.28-615.89,3.33-1.11,6.66-2.21,9.99-3.32-13.22,152.59-7.91,278.06,.24,367.09,12.91,141.09,36.9,233.48,42.73,255.65,15.69,59.68,32.65,107,46,140.57-2.68,4.43-5.5,8.93-8.46,13.46-3.44,5.27-6.83,10.24-10.16,14.92Z"/>
          <path class="cls-51" d="M19.15,1695.68s88.08-427.76,95.23-836.99l-101.61-43.58c-11.36,146.56-24.27,267.95-34.99,358.41-14.81,124.95-25.11,188.13-28.95,211.13-16.75,100.43-34.92,182.44-49.25,241.35,17,12.27,35.28,24.39,54.78,35.95,22.71,13.46,44.4,24.55,64.78,33.73Z"/>
          <path class="cls-22" d="M311.31,913.39s-40.78,796.84-53.07,858.83c0,0-89.86-17.23-117.34-32.23,9.37-56.31,21.26-135.04,31.78-230.57,8.07-73.28,12.92-134.48,18.21-212.37,7.25-106.78,16.19-257.96,23.35-448.35,32.36,21.56,64.71,43.13,97.07,64.69Z"/>
          <g class="cls-35">
            <path class="cls-62" d="M396.49,863.28l-5.3,62.33s8.43,28.34,45.74,32.4c37.3,4.06,54.27-29.01,54.27-29.01l4.53-62.93-99.24-2.78"/>
            <path class="cls-84" d="M858.89,796.1c-1.18,13.89-2.36,27.78-3.54,41.66-1.65,19.43-3.3,38.86-4.96,58.29-5.06,2-12.16,4-20.61,3.86-15.87-.25-27.43-7.89-32.91-12.18,.36-19.59,.72-39.18,1.09-58.77,20.31-10.95,40.62-21.91,60.93-32.86Z"/>
            <path class="cls-67" d="M693.26,918.73s-18.67,31.81-51.22,35.61c-32.55,3.8-52.23-26.92-52.23-26.92l4.89-64.75,102.82,2.53-4.27,53.54Z"/>
            <path class="cls-39" d="M589.82,927.41s-22.7,36.73-52.43,32.15c-29.73-4.58-46.19-30.56-46.19-30.56l3.95-54.91,98.81-.97-4.14,54.3Z"/>
            <path class="cls-31" d="M693.26,918.73l4.48-57.09,100.23-28.51-1.1,54.6c-.63,1.94-14.49,42.79-49.29,50.98-30.9,7.27-52.14-17.36-54.32-19.98"/>
            <path class="cls-90" d="M309.55,856.37l-5.3,62.33s-13.11,26.64-50.6,24.81c-37.49-1.83-48.65-37.11-48.65-37.11l6.16-62.81,98.39,12.77"/>
            <path class="cls-91" d="M395.82,868.65c-14.29-1.95-28.57-3.9-42.86-5.86v-.09c-14.55-.31-29.1-.62-43.66-.93-3.08,34.66-5.05,56.93-5.05,56.93,0,0,9.09,16.4,20.24,25.24,4.2,3.33,10.73,7.19,20.45,8.6v.1c10.02,.2,17.24-2.63,22.01-5.29,12.5-6.97,24.23-21.74,24.23-21.74,0,0,1.81-22.28,4.64-56.97Z"/>
            <path class="cls-18" d="M7.36,864.67s13.04,34.31,44.52,43.14c31.48,8.83,56.08-18.4,56.08-18.4l6.12-64.65-101.88-13.58-4.84,53.49Z"/>
            <path class="cls-7" d="M107.96,889.42s16.19,39.79,46.3,39.92,50.74-22.93,50.74-22.93l5.38-54.8-97.33-16.41-5.09,54.23Z"/>
            <path class="cls-42" d="M7.36,864.67l5.23-57.03-94.08-43.8-8.15,54.05c.29,2.01,7.07,44.49,40.02,58.01,29.26,12,54.38-8.98,56.98-11.22"/>
          </g>
          <path class="cls-52" d="M561.28,425.37c-57.35-85.16-107.14-168.71-150.33-248.3v-.05s0,.01-.01,.02c0-.02-.02-.04-.03-.05v.1c-56.07,71.77-119.32,146.43-190.3,221.49-125.01,132.2-246.74,236.8-356.3,319.26,15,15.03,38.57,36.58,70,56.89,54.24,35.06,102.43,47.42,206.2,65.43,61.01,10.58,131.95,21.51,211.39,31.18,79.94,2.85,151.75,3.16,213.8,2.25,105.4-1.54,155.04-6.19,214.51-32.32,34.45-15.13,61.35-32.71,78.69-45.19-94.17-98.49-196.6-220.74-297.61-370.72Z"/>
          <path class="cls-12" d="M410.91,177c37.42,90.17,83.26,187.85,139.53,288.93,82.96,149.04,169.06,270.44,247.53,367.2,11.46-5.94,20.95-11.26,28.12-15.42,9.21-5.33,13.89-8.33,17.12-10.47,6.44-4.26,11.76-8.16,15.69-11.14-34.68-36.11-69.61-74.57-104.56-115.55-142.92-167.57-255.17-340.85-343.43-503.54Z"/>
          <path class="cls-80" d="M593.96,873.11c14.95-.41,27.5-.87,36.84-1.24,24.44-.99,31.91-1.61,37.71-2.2,12.25-1.24,22.27-2.83,28.94-4.01-54.47-113.86-98.78-212.05-132.42-288.67-60.24-137.18-85.97-204.42-101.94-247.82-22.68-61.6-40.09-114.15-52.17-152.17,24.18,109.56,51.3,222.88,81.78,339.42,32.67,124.91,66.66,243.85,101.28,356.69Z"/>
          <path class="cls-21" d="M395.71,872.8c15.91,.42,31.96,.74,48.17,.96,17.25,.23,34.34,.34,51.27,.33-14.21-113.47-28.18-226.98-41.92-340.52-14.37-118.81-28.48-237.66-42.33-356.56-1.76,112.34-3.85,224.67-6.28,336.99-2.59,119.58-5.56,239.18-8.91,358.81Z"/>
          <path class="cls-48" d="M410.95,177.03c-52.16,83.12-113.9,172.33-186.5,263.27C117.41,574.39,11.94,680.71-81.84,763.91c-10.3-7.66-18.77-14.39-25.14-19.61-8.18-6.7-12.3-10.4-15.12-13-5.64-5.21-10.23-9.89-13.59-13.45,40.32-30.21,81.28-62.7,122.7-97.67C156.34,477.19,296.38,323.77,410.95,177.03Z"/>
          <path class="cls-68" d="M112.71,835.27c-14.69-2.74-26.99-5.16-36.14-6.99-23.94-4.79-31.21-6.58-36.84-8.07-11.88-3.14-21.5-6.28-27.87-8.49,72.99-103.83,133.3-193.79,179.44-264.12,82.62-125.94,119.37-188.26,142.46-228.58,32.79-57.23,58.84-106.36,77.19-141.99-42.37,104.32-88.28,211.9-138.05,322.12-53.34,118.14-106.98,230.18-160.2,336.11Z"/>
          <path class="cls-79" d="M308.37,865.95c-15.77-2.07-31.66-4.27-47.69-6.58-17.06-2.47-33.94-5.03-50.65-7.69,33.2-109.74,66.16-219.55,98.9-329.44,45.02-151.11,101.14-342.24,102.01-345.2h0c-8.55,55.07-21.58,139.53-37.34,244.1-4.49,29.79-8.96,59.59-13.4,89.39-17.65,118.39-34.93,236.87-51.84,355.43Z"/>
        </g>
        <path class="cls-37" d="M410.95,177.03c-8.67,11.11-20.5,26.11-34.69,43.64-5.97,7.38-50.35,62.05-101.38,118.83-98.93,110.07-198.42,200.6-219.39,219.58-51.88,46.93-115.75,101.44-190.84,158.7-2.83,33.32-5.67,66.63-8.5,99.95,5.12,2.95,14.22,7.19,26.21,7.53,12.38,.35,22.17-3.61,27.61-6.36,.97,5.66,2.8,13.48,6.5,21.88,2.28,5.18,11.61,25,29.61,34.39,29.16,15.22,58.92-8.54,61.28-10.49,1.55,3.84,15.32,36.54,47.03,42.78,28.76,5.66,50.26-14.78,53.57-18.04,2.64,6.45,11.62,26.25,30.94,35.22,21.32,9.89,46.83,2.68,66.1-18.23,1.7,3.68,15.34,32.14,44.4,36.75,31.1,4.93,52.75-21.77,54.85-24.45,1.1,2.73,12.31,29.23,37.58,33.28,18.48,2.96,37.43-7.21,49.36-26.37,1.72,3.2,17.49,31.54,47.86,32.81,30.87,1.29,50.16-26.48,52.14-29.42,1.88,3.3,17.41,29.63,46.19,30.56,31.68,1.02,50.91-29.64,52.43-32.15,2.2,3.2,20.92,29.46,52.23,26.92,31.49-2.55,49.19-32.1,51.22-35.61,2.18,2.62,23.43,27.25,54.32,19.98,34.8-8.19,48.66-49.04,49.29-50.98,4.59,3.67,13.23,9.48,25.25,11.47,12.58,2.08,22.83-1.01,28.26-3.15,2.83-33.32,5.67-66.63,8.5-99.95-56.62-59.46-103.97-114.52-141.83-160.92-22.72-27.84-90.74-112.28-169.2-229.36-61.39-91.6-97.32-155.65-110.8-180.08-11.03-19.98-19.94-36.86-26.11-48.71Z"/>
      </g>
      <g>
        <g>
          <path class="cls-50" d="M1977.4,722.44c-140.82,40.41-281.63,80.82-422.45,121.23v.04s-428.4,65.83-428.4,65.83c120.45,489.4,54.85,682.47,54.85,682.47,175.17,213.32,617.51,130.61,620.21,130.1,27.11-3.47,453.01-61.75,497.87-301.94-33.38-40.7-67.54-87.01-100.95-139.47-129.77-203.8-190.74-410.18-221.13-558.26Z"/>
          <path class="cls-92" d="M2091.92,1639.72s-190.77-425.98-293.01-832.51l95.66-41.96c45.78,145.71,87.33,266.44,119.45,356.42,44.35,124.28,69.71,187.17,79.04,210.07,40.7,99.96,78.61,181.64,107.17,240.34-14.85,11.96-31.06,23.77-48.69,34.99-20.52,13.07-40.52,23.81-59.61,32.66Z"/>
          <path class="cls-73" d="M1619.99,891.95s214.49,760.71,240.66,820.04c0,0,89.84-14.93,115.21-28.79-21.91-53.87-51.29-129.15-82.87-220.45-24.23-70.03-42.49-128.48-64.81-202.86-30.6-101.97-72.55-246.31-121.11-428.03-29.03,20.03-58.06,40.06-87.1,60.09Z"/>
          <path class="cls-17" d="M1489.71,1732.29s-49.4-433.93-169.96-825.07l-110.13-9.8c34.81,142.82,60.32,262.2,78.28,351.51,24.81,123.35,34.68,186.6,38.19,209.66,15.33,100.66,23.58,184.25,28.3,244.69,19.98,6.37,41.11,12.2,63.25,17.11,25.77,5.72,49.83,9.51,72.07,11.9Z"/>
          <path class="cls-77" d="M1523.93,897.93s209.21,769.97,216.82,832.71c0,0-90.76,11.59-121.55,5.89-8.62-56.43-21.82-134.95-41.54-229.01-15.13-72.15-29.57-131.82-48.78-207.49-26.34-103.74-64.89-250.19-117.33-433.36,37.46,10.42,74.92,20.85,112.38,31.27Z"/>
          <path class="cls-78" d="M1207.12,1619.45c7.63-47.09,13.27-102.37,14.3-165.93,3.3-203.56-42.37-389.06-77.73-504.17l-10.55-3.18c28.04,107.23,42.98,197.55,51.41,264.51,8.05,63.97,18.07,146.38,13.05,246.12-2.89,57.42-9.88,102.93-16.21,135.21,3.78,4.29,7.72,8.63,11.81,13.01,4.76,5.1,9.4,9.9,13.91,14.43Z"/>
          <g class="cls-32">
            <path class="cls-43" d="M1589.28,823.8l14.36,60.89s16.83,24.31,53.55,16.55c36.71-7.75,42.55-44.46,42.55-44.46l-15.28-61.22-95.18,28.24"/>
            <path class="cls-30" d="M1888.58,784.14s-7.84,36.04-37.6,49.78c-29.75,13.74-58.01-9.33-58.01-9.33l-15.51-63.06,98.51-29.6,12.61,52.21Z"/>
            <path class="cls-74" d="M1792.97,824.59s-10.14,41.97-39.82,46.87-53.41-14.67-53.41-14.67l-13.33-53.42,93.6-31.67,12.96,52.89Z"/>
            <path class="cls-57" d="M1888.58,784.14l-13.51-55.65,86.38-58.28,15.95,52.23c0,2.04-.46,45.17-30.98,63.79-27.1,16.52-54.95-.27-57.84-2.09"/>
            <path class="cls-29" d="M1504.52,844.28l14.36,60.89s-4.17,29.4-40.37,39.33c-36.2,9.93-57.78-20.13-57.78-20.13l-13.69-61.61,97.48-18.48"/>
            <path class="cls-19" d="M1590.32,829.11c-14.19,2.59-28.37,5.18-42.56,7.77l-.02-.09c-13.93,4.23-27.86,8.47-41.79,12.7,7.86,33.9,12.91,55.68,12.92,55.68,0,0,13.74,12.76,27.09,17.69,5.03,1.86,12.44,3.49,22.11,1.81l.02,.1c9.6-2.93,15.58-7.86,19.28-11.88,9.71-10.51,16.26-28.2,16.27-28.2,0,0-5.21-21.74-13.32-55.58Z"/>
            <path class="cls-41" d="M1038.58,851.02c3.2,13.57,6.4,27.13,9.6,40.7,4.48,18.98,8.95,37.96,13.43,56.93,5.28,1.18,12.58,2.03,20.89,.56,15.62-2.77,25.9-12.16,30.68-17.28-3.23-19.34-6.45-38.68-9.68-58.03-21.64-7.63-43.28-15.26-64.91-22.89Z"/>
            <path class="cls-75" d="M1219.91,946.21s23.07,28.55,55.74,27.15c32.66-1.4,47.57-34.94,47.57-34.94l-14.3-63.35-101.05,18.8,12.05,52.34Z"/>
            <path class="cls-36" d="M1323.21,938.43s27.77,32.78,56.42,23.53c28.65-9.25,41.09-37.58,41.09-37.58l-11.94-53.75-97.61,14.69,12.04,53.12Z"/>
            <path class="cls-15" d="M1219.91,946.21l-12.78-55.82-103.04-12.35,9.08,53.9c.9,1.82,20.56,40.08,56.08,42.67,31.54,2.3,48.89-25.45,50.65-28.4"/>
          </g>
          <path class="cls-1" d="M1609.63,356.35c-81-63.08-154.32-126.99-220.13-189.19v-.04s-.02,.02-.02,.03c-.01-.01-.03-.03-.04-.04l.02,.1c-30.94,85.66-67.82,176.29-111.92,269.71-77.67,164.53-160.8,301.83-239.26,414.28,18.93,9.62,48.04,22.76,84.23,32.28,62.46,16.44,112.1,13.19,216.32-1.99,61.28-8.93,132.09-20.62,210.59-36.14,76.85-22.17,145.2-44.22,203.88-64.39,99.69-34.27,145.42-54.13,193.81-97.46,28.03-25.1,48.12-50.17,60.72-67.43-120.14-64.3-255.53-148.6-398.2-259.71Z"/>
          <path class="cls-70" d="M1389.43,167.11c63.62,74.05,137.58,152.61,222.51,231.16,125.22,115.83,244.82,204.4,349.51,271.94,9.04-9.21,16.4-17.22,21.92-23.4,7.09-7.93,10.61-12.24,13.01-15.27,4.8-6.05,8.64-11.41,11.44-15.47-44.19-23.53-89.36-49.21-135.33-77.28-187.97-114.77-348.56-244.52-483.07-371.68Z"/>
          <path class="cls-5" d="M1780.01,771.69c14.09-5.04,25.87-9.38,34.62-12.65,22.92-8.54,29.83-11.46,35.15-13.82,11.26-4.99,20.28-9.62,26.25-12.82-87.2-91.25-159.86-170.79-215.67-233.13-99.94-111.63-145.31-167.52-174-203.79-40.72-51.48-73.62-96.01-96.94-128.38,57.07,96.6,118.11,195.85,183.34,297.12,69.92,108.54,139.23,211,207.24,307.46Z"/>
          <path class="cls-85" d="M1591.5,833.08c15.25-4.55,30.61-9.24,46.07-14.08,16.46-5.15,32.74-10.36,48.83-15.64-48.81-103.41-97.41-206.94-145.8-310.57-50.63-108.44-101.02-217-151.18-325.69,33.29,107.31,66.25,214.71,98.89,322.21,34.75,114.44,69.14,229.03,103.18,343.77Z"/>
          <path class="cls-54" d="M1389.48,167.12c-23.7,95.23-54.62,199.22-95.31,308.23-60,160.74-127.15,294.6-190.38,402.86-12.17-4.07-22.31-7.84-29.99-10.81-9.86-3.82-14.92-6.05-18.42-7.65-6.98-3.2-12.8-6.21-17.1-8.55,28.91-41.25,57.74-84.88,86.21-131,116.43-188.59,201.77-377.97,265-553.08Z"/>
          <path class="cls-88" d="M1310.87,885.48c-14.81,1.97-27.26,3.5-36.52,4.6-24.25,2.89-31.71,3.46-37.52,3.8-12.26,.71-22.38,.72-29.13,.61,37.06-121.39,66.37-225.65,88.34-306.85,39.33-145.4,54.86-216.06,64.26-261.56,13.35-64.59,22.82-119.39,29.18-158.96-7.8,112.33-17.96,228.85-30.95,349.09-13.93,128.88-30.04,252.05-47.66,369.27Z"/>
          <path class="cls-87" d="M1506.37,853.75c-15.63,2.94-31.42,5.8-47.37,8.58-16.98,2.96-33.82,5.78-50.52,8.45-2.6-114.62-5.44-229.24-8.53-343.86-4.24-157.61-10.38-356.72-10.47-359.81h0c9.01,55,22.91,139.32,40.47,243.6,5,29.71,10.03,59.42,15.08,89.12,20.07,118.01,40.51,235.98,61.34,353.91Z"/>
        </g>
        <path class="cls-38" d="M1389.48,167.12c-4.78,13.26-11.35,31.19-19.39,52.27-3.38,8.87-28.54,74.64-59.37,144.48-59.77,135.39-126.14,252.39-140.17,276.95-34.7,60.74-78.43,132.42-131.98,210.2,7.67,32.54,15.35,65.09,23.02,97.63,5.78,1.21,15.75,2.4,27.25-1,11.87-3.52,19.94-10.33,24.26-14.63,2.68,5.07,6.86,11.94,12.98,18.77,3.78,4.21,18.82,20.15,38.84,23.47,32.45,5.39,53.33-26.45,54.98-29.04,2.66,3.16,25.93,29.96,58.01,26.02,29.09-3.57,43.16-29.69,45.3-33.81,4.51,5.31,19.22,21.33,40.37,23.84,23.34,2.77,45.34-12.02,57.15-37.9,2.76,2.97,24.58,25.77,53.63,21.1,31.09-5,43.36-37.11,44.52-40.3,1.9,2.25,20.79,23.95,46.07,19.93,18.48-2.94,33.33-18.5,38.7-40.42,2.63,2.51,26.43,24.53,55.7,16.28,29.74-8.38,39.44-40.77,40.4-44.19,2.81,2.56,25.77,22.74,53.41,14.67,30.42-8.89,39.16-44.01,39.82-46.87,3.09,2.36,29.05,21.49,58.01,9.33,29.13-12.23,36.76-45.81,37.6-49.78,2.89,1.81,30.74,18.61,57.84,2.09,30.52-18.61,30.99-61.75,30.98-63.79,5.51,2.06,15.52,4.89,27.57,3.04,12.6-1.93,21.38-8.06,25.88-11.79-7.67-32.54-15.35-65.09-23.02-97.63-72.31-38.89-134.45-76.48-184.86-108.79-30.26-19.39-121.17-78.47-232.17-165.32-86.85-67.95-140.92-117.64-161.34-136.66-16.7-15.56-30.42-28.82-39.97-38.16Z"/>
      </g>
      <g>
        <g>
          <path class="cls-40" d="M956.74,84.7c6.22-1.42,15.38-3.23,26.63-4.43,15.2-1.61,22.85-2.59,30.76-.34,7.07,2.01,14.19,6.31,28.44,14.92,8.86,5.36,10.87,7.12,15.92,8.65,9.47,2.86,18.46,1.49,24.68-.17-3.54,3.02-9.13,7.02-16.81,9.5-16.98,5.48-25.19-2.63-42.57-.34-17.18,2.27-18.05,13.15-39.88,19.5-10.91,3.17-20.45,3.53-26.42,3.4-.25-16.9-.49-33.8-.74-50.7Z"/>
          <path class="cls-76" d="M973.98,81.47c4.46-.69,8.22-1.18,10.97-1.51,11.63-1.42,16.25-1.38,18.18-1.33,3.2,.07,4.88,.11,7.25,.48,1.81,.28,6.53,1.16,16.71,6.6,1.58,.85,1.66,.93,15.48,9.15,5.54,3.3,6.05,3.59,7.17,4.17,4.32,2.23,9.26,4.78,15.23,5.83,3.32,.59,9.85,1.22,18.2-1.53-3.28,2.07-9,5-16.32,5.22-7.83,.23-13.76-2.76-23.79-7.96-10-5.19-10.21-6.97-19.59-11.5-3.98-1.92-10.43-4.99-18.66-6.93-6.19-1.46-16.93-3.12-30.84-.7Z"/>
          <ellipse class="cls-89" cx="955.85" cy="67.41" rx="12.4" ry="11.76"/>
          <path class="cls-76" d="M954.59,87.17c1.17-.93,2.33-1.85,3.5-2.78,1.05-.23,2.1-.45,3.15-.68,2.43,17.08,4.85,34.17,7.28,51.25-1.25,.13-2.56,.23-3.92,.31-1.49,.08-2.93,.13-4.3,.14-1.57-.24-3.15-.48-4.72-.72-.33-15.84-.66-31.68-.98-47.52Z"/>
          <path class="cls-64" d="M953.64,72.56c.42,33.61,.83,67.21,1.25,100.82-1.58,.9-3.83,2.5-5.58,5.12-4.44,6.63-1.86,14.09-1.44,15.26,.7-.67,4.02-3.75,9.2-3.81,6.93-.09,10.9,5.3,11.21,5.72,.5-1.24,3.81-9.83-1.15-17.17-1.59-2.35-3.57-3.9-5.18-4.9-1.47-33.84-2.93-67.67-4.4-101.51-1.3,.16-2.61,.31-3.91,.47Z"/>
          <path class="cls-6" d="M967.86,64.47c1.45,5.57-1.49,11.34-6.87,13.65-5.11,2.2-11.28,.8-14.87-3.44,.29,.18,7,4.1,14.07,.68,6.89-3.33,7.63-10.48,7.67-10.89Z"/>
          <path class="cls-6" d="M948.42,180c1.82-3.99,5.3-6.98,9.1-7.26,5.71-.42,12.26,5.27,12.26,13.66-1.04-6.64-6.46-11.25-12.05-11.25-5.37,0-8.84,4.27-9.3,4.85Z"/>
          <path class="cls-6" d="M948.19,192.57c-.38-1.11-1.76-5.54,.56-10.19,1.29-2.59,3.2-4.17,4.33-4.97-1.13,1.36-2.62,3.47-3.67,6.33-1.36,3.68-1.37,6.91-1.22,8.84Z"/>
        </g>
        <rect class="cls-33" x="-329.13" y="919.11" width="2544.6" height="2158.16" transform="translate(-1055.02 2941.35) rotate(-90)"/>
        <path class="cls-3" d="M1791.66,1797.06c29.24,6.72,58.49,13.44,87.73,20.16-.2-370.83-.39-741.67-.59-1112.5h-87.14c0,364.11,0,728.22,0,1092.33Z"/>
        <path class="cls-16" d="M1552.87,1026.19c68.08,173.24,136.16,346.49,204.24,519.73-21.72-281.7-43.44-563.39-65.15-845.09-57.35,0-114.7,0-172.05,0,10.99,108.45,21.98,216.9,32.97,325.36Z"/>
        <path class="cls-23" d="M1529.67,928.64c44.27,121.76,88.55,243.52,132.82,365.28-17.01-198.31-34.02-396.62-51.03-594.93-33.33-.56-66.66-1.13-100-1.69,6.07,77.11,12.13,154.22,18.2,231.34Z"/>
        <path class="cls-53" d="M1879.4,1767.75c28.67,62.64,57.34,125.28,86.01,187.92,.38-420.85,.76-841.69,1.13-1262.54h-87.14V1767.75Z"/>
        <path class="cls-55" d="M1715.57,1436.99c33.19,124.21,66.38,248.42,99.57,372.63-7.95-358.57-15.91-717.13-23.86-1075.7-33.33-.56-66.66-1.13-100-1.69,8.1,234.92,16.2,469.84,24.3,704.77Z"/>
        <path class="cls-13" d="M137.43,1804.57c-29.24,6.63-58.49,13.26-87.73,19.89,.2-365.76,.39-731.52,.59-1097.28h87.14V1804.57Z"/>
        <path class="cls-86" d="M291.7,1308.51c3.62-236.19,7.24-472.37,10.86-708.56h94.16c-1.95,119.82-3.9,239.65-5.86,359.47-33.05,116.36-66.1,232.73-99.15,349.09Z"/>
        <path class="cls-8" d="M302.45,1218.56c-27.6,103.28-55.2,206.56-82.8,309.84,.73-264.59,1.46-529.19,2.19-793.78h87.14c-2.18,161.31-4.35,322.62-6.53,483.94Z"/>
        <g>
          <path class="cls-65" d="M1513.5,720.47c47.96,109.94,103.27,225.51,167.19,345.15,93.38,174.78,190.72,331.22,285.93,469.51-22.9,76.04-45.79,152.08-68.69,228.12-87.78-241.06-188.52-491.97-304.41-750.53-4.76-10.61-23.01-46.46-44.08-97.1-37.83-90.96-60.18-167.25-72.85-215.73,12.3,6.86,24.61,13.73,36.91,20.59Z"/>
          <path class="cls-26" d="M1508.41,732.66c83.86,244.17,174.75,485.76,272.66,724.78,73.52,179.48,151,357.5,232.43,534.05-20.36,45.54-28.06,83.59-31.29,110.2-4.38,36.06-2.24,65.02-13.41,114.44-8.14,36-12.21,54-17.88,55.1-38.73,7.51-174.05-487.43-317.36-974.85-73.04-248.42-134.11-447.13-170.48-564.27"/>
          <path class="cls-24" d="M1953.31,1579.05c-84.66-121.69-172.79-265.14-254.79-430.5-56.95-114.85-103.13-224.52-140.78-326.46,29.38,91.82,62.64,186.69,100.32,284.09,82.01,212.01,172.51,403.72,264.33,574.86,10.31-34,20.62-68,30.93-102Z"/>
          <path class="cls-24" d="M1914.7,1706.84c-53.49-105.14-106.98-210.29-160.47-315.43,49.74,117.51,99.48,235.01,149.22,352.52,3.75-12.36,7.5-24.72,11.24-37.09Z"/>
        </g>
        <path class="cls-44" d="M221.6,1501.08c-28.05,101.51-56.11,203.02-84.16,304.53,.2-359.48,.39-718.96,.59-1078.44h87.14c-1.19,257.97-2.38,515.94-3.57,773.9Z"/>
        <path class="cls-46" d="M49.7,1769.35c-31.93,54.83-63.86,109.66-95.78,164.5,2.88-412.08,5.76-824.16,8.64-1236.25H49.7V1769.35Z"/>
        <path class="cls-28" d="M526.24,489.43c-58.26,130.38-125.59,267.98-203.54,410.74-94.18,172.49-191,328.97-285.93,469.51,22.9,76.04,45.79,152.08,68.69,228.12,87.78-241.06,188.52-491.97,304.41-750.53,56.54-126.14,114.11-248.37,172.33-366.69-18.65,2.95-37.31,5.9-55.96,8.84Z"/>
        <path class="cls-14" d="M416.86,744.79h0c-83.86,244.17-174.75,485.76-272.66,724.78C70.67,1649.05-6.81,1827.07-88.24,2003.62c20.36,45.54,28.06,83.59,31.29,110.2,4.38,36.06,2.24,65.02,13.41,114.44,8.14,36,12.21,54,17.88,55.1,39.64,7.69,184-504.89,317.36-974.85,70.74-249.27,127.8-449.26,161.53-567.33"/>
        <path class="cls-25" d="M1497.77,727.27c34.59,142.36,82.61,301.81,150.06,472.42,57.67,145.86,120.23,276.3,182.08,390.84-68.8-101.28-145.73-233.8-210.09-396.53-70.58-178.45-104.9-339.78-122.05-466.73Z"/>
        <path class="cls-25" d="M439.17,697.6c-34.59,142.36-82.61,301.81-150.06,472.42-57.67,145.86-120.23,276.3-182.08,390.84,68.8-101.28,145.73-233.8,210.09-396.53,70.58-178.45,104.9-339.78,122.05-466.73Z"/>
        <path class="cls-24" d="M51.4,1415.31c84.66-121.69,172.79-265.14,254.79-430.5,56.95-114.85,103.13-224.52,140.78-326.46-29.38,91.82-62.64,186.69-100.32,284.09-82.01,212.01-172.51,403.72-264.33,574.86-10.31-34-20.62-68-30.93-102Z"/>
        <g>
          <g class="cls-27">
            <path class="cls-58" d="M1069.87,716.29l1.58,48.71s24.13,21.33,105.53,21.68c81.4,.35,111.13-26.56,111.13-26.56l-3.36-49.12-214.88,5.29"/>
            <path class="cls-63" d="M1722.31,737s-33.67,26.06-103.16,31.44c-69.49,5.38-118.4-16.95-118.4-16.95l-2.98-50.55,222.57-5.75,1.98,41.81Z"/>
            <path class="cls-34" d="M1500.75,751.49s-41.35,30.17-106.5,28.85c-65.15-1.32-106.14-20.22-106.14-20.22l-2.94-42.86,213.17-8.17,2.4,42.4Z"/>
            <path class="cls-45" d="M1722.31,737l-2.25-44.58,210.47-29.62,9.05,42.4c-.95,1.55-22.35,34.25-95.79,43.21-65.2,7.95-116.22-9.54-121.48-11.41"/>
            <path class="cls-9" d="M880.7,717.45l1.58,48.71s-22.74,21.63-104.08,23.03c-81.35,1.39-112.8-25.12-112.8-25.12l.18-49.14,215.13,2.52"/>
            <path class="cls-59" d="M1069.56,720.49c-31.26-.44-62.52-.88-93.78-1.32v-.07c-31.5,.85-62.99,1.7-94.48,2.55,.6,27.1,.99,44.5,.99,44.51,0,0,23.05,12.03,48.97,18.04,9.77,2.26,24.68,4.76,45.96,5.13v.08c21.71-.59,36.7-3.33,46.44-5.75,25.53-6.34,47.78-18.67,47.79-18.67,0,0-.74-17.41-1.89-44.5Z"/>
            <path class="cls-81" d="M-108.97,643.4c.35,10.85,.7,21.71,1.05,32.56,.49,15.18,.98,30.36,1.48,45.55,10.62,1.79,25.66,3.68,43.97,3.98,34.37,.55,60.59-4.84,73.12-7.92,2.33-15.25,4.65-30.49,6.98-45.74-42.2-9.47-84.4-18.95-126.6-28.42Z"/>
            <path class="cls-49" d="M229.88,746.55s35.34,25.61,105.15,30.1c69.81,4.49,117.25-18.47,117.25-18.47l-.29-50.57-222.85-2.89,.73,41.82Z"/>
            <path class="cls-66" d="M452.29,758.18s43.28,29.63,108.32,27.47c65.04-2.16,104.78-21.58,104.78-21.58l.16-42.88-213.61-5.42,.34,42.41Z"/>
            <path class="cls-69" d="M229.88,746.55l-.63-44.59-212.3-26.89-6.3,42.5c1.05,1.54,24.56,33.95,98.54,41.96,65.68,7.11,115.55-11.04,120.69-12.97"/>
          </g>
          <path class="cls-11" d="M1334.22,364.51c-141.64-61.7-266.62-122.73-376.51-181.17v-.04s-.02,.01-.03,.02c-.02-.01-.05-.03-.07-.04v.08c-106.06,59.84-227.04,122.44-364.62,185.94-242.32,111.84-483.32,202.05-702.67,274.18,35.53,10.52,90.93,25.46,163.05,38.85,124.46,23.11,231.1,29.07,458.93,35.24,133.97,3.63,289.42,6.77,462.98,8.31,173.21-3.79,328.34-8.93,462.14-14.29,227.28-9.1,333.5-16.43,456.46-41.14,71.22-14.31,125.64-29.95,160.47-40.93-223.93-69.27-470.66-156.34-720.13-265.02Z"/>
          <path class="cls-47" d="M957.6,183.28c99.64,67.09,219.05,139.35,361.67,213.47,210.3,109.3,421.58,196.93,611.25,266.04,23.5-5.47,42.88-10.3,57.5-14.06,18.77-4.82,28.26-7.5,34.78-9.4,13.02-3.78,23.7-7.2,31.54-9.81-82.42-25.39-165.9-52.58-249.93-81.72-343.64-119.16-622.23-245.04-846.81-364.53Z"/>
          <path class="cls-83" d="M1498.35,709.09c32.21-1.44,59.21-2.74,79.29-3.73,52.56-2.6,68.57-3.64,80.97-4.53,26.19-1.88,47.5-3.87,61.65-5.28-141.42-84.16-257.61-156.95-346.27-213.81-158.75-101.81-228.35-152-271.92-184.43-61.85-46.04-110.41-85.47-144.46-114.03,75.1,83.1,157.35,168.9,247.52,256.94,96.65,94.37,194.9,184,293.23,268.86Z"/>
          <path class="cls-20" d="M1070.18,723.72c34.44-.87,69.18-1.82,104.21-2.87,37.29-1.11,74.22-2.31,110.78-3.59-54.4-86.88-108.29-173.81-161.67-260.79-55.86-91.01-111.16-182.07-165.9-273.19,19.68,87.2,38.63,174.42,56.85,261.66,19.4,92.87,37.98,185.8,55.73,278.77Z"/>
          <path class="cls-61" d="M957.71,183.31c-95.26,68.34-209.94,142.11-347.7,218.04-203.13,111.96-408.66,202.27-593.78,273.8-23.84-5.16-43.53-9.75-58.38-13.31-19.07-4.58-28.73-7.13-35.37-8.95-13.26-3.62-24.16-6.9-32.17-9.4,80.75-26.44,162.42-54.69,244.54-84.9,335.78-123.53,606.11-252.95,822.86-375.27Z"/>
          <path class="cls-4" d="M451.22,715.85c-32.29-1.02-59.36-1.97-79.49-2.71-52.71-1.92-68.78-2.76-81.23-3.49-26.3-1.54-47.73-3.25-61.96-4.49,135.91-85.95,247.34-160.2,332.28-218.17,152.09-103.81,218.42-154.87,259.87-187.85,58.84-46.82,104.83-86.85,137.02-115.84-69.69,84.04-146.35,170.86-230.78,260.02-90.5,95.57-182.91,186.43-275.7,272.53Z"/>
          <path class="cls-10" d="M880.16,724.96c-34.48-.42-69.27-.93-104.36-1.53-37.35-.63-74.34-1.36-110.97-2.16,48.75-87.54,96.99-175.13,144.72-262.76,49.94-91.69,99.33-183.42,148.15-275.21-14.02,87.42-27.32,174.85-39.89,262.28-13.38,93.09-25.93,186.21-37.66,279.37Z"/>
        </g>
        <path class="cls-24" d="M87.54,1540.1c52.43-108.26,104.86-216.52,157.29-324.77-48.68,120.62-97.36,241.24-146.04,361.86-3.75-12.36-7.5-24.72-11.24-37.09Z"/>
        <path class="cls-25" d="M18.53,1766.12c26.84-37.03,53.68-76.46,80.1-118.34,65.6-103.99,116.75-204.32,156.91-296.78-20.54,70.16-51.71,154.37-100.05,245.05-55.64,104.38-117.85,186.97-171.7,248.7,11.58-26.21,23.16-52.42,34.74-78.63Z"/>
        <path class="cls-25" d="M-67.47,2061c41.43-64.22,83.18-133.42,124.23-207.61,52.38-94.67,97.18-185.8,135.58-271.85-51.06,180.18-102.49,286.35-141.23,350.86-13.8,22.98-52.82,87.38-77.67,180.79-11.71,44.01-16.68,81.13-19.04,105.41-5.01-22.71-7.32-41.51-8.5-54.68-2.46-27.55-1.17-43.8-6.42-72.88-2.31-12.79-5-23.17-6.95-30.03Z"/>
        <path class="cls-25" d="M221.6,1518.65c-20.16,110.76-49.54,234.58-92.69,367.48-36.59,112.72-77.4,214.44-118.55,304.61,41.81-118.15,81.32-236.94,118.55-356.36,32.65-104.74,63.55-209.98,92.69-315.72Z"/>
        <path class="cls-25" d="M1994.64,2042.26c-42.16-65.32-84.67-135.77-126.46-211.37-52.34-94.67-97.14-185.79-135.58-271.85,51.06,180.18,102.49,286.35,141.23,350.86,4.78,7.96,12.59,20.9,21.8,38.3,15.29,28.91,38.58,78.08,55.88,142.49,7.98,29.7,15.95,67.35,20.22,111.52,3.89-25.29,6.05-46.11,7.32-60.79,2.15-24.88,2.5-41.06,7.36-65.86,2.77-14.14,5.94-25.62,8.24-33.29Z"/>
        <path class="cls-25" d="M1691.27,1453.2c20.16,110.76,49.54,234.58,92.69,367.48,36.59,112.72,77.4,214.44,118.55,304.61-41.81-118.15-81.32-236.94-118.55-356.36-32.65-104.74-63.55-209.98-92.69-315.72Z"/>
        <path class="cls-25" d="M1978.77,1914.63c-26.84-37.03-53.68-76.46-80.1-118.34-65.6-103.99-116.75-204.32-156.91-296.78,20.54,70.16,51.71,154.37,100.05,245.05,55.64,104.38,117.85,186.97,171.7,248.7-11.58-26.21-23.16-52.42-34.74-78.63Z"/>
      </g>
    </g>
  </g>
</svg>