<svg width="471" height="925" viewBox="0 0 471 925" fill="none" xmlns="http://www.w3.org/2000/svg">
<g filter="url(#filter0_d_357_2)">
<g clip-path="url(#clip0_357_2)">
<rect x="4" width="463" height="917" fill="url(#paint0_linear_357_2)" shape-rendering="crispEdges"/>
<rect x="4" width="463" height="917" fill="url(#paint1_linear_357_2)" shape-rendering="crispEdges"/>
<rect x="4" width="463" height="917" fill="url(#paint2_linear_357_2)" shape-rendering="crispEdges"/>
<rect x="4" width="463" height="917" fill="url(#paint3_linear_357_2)" fill-opacity="0.26" shape-rendering="crispEdges"/>
<g opacity="0.2" filter="url(#filter1_d_357_2)">
<rect x="4" width="1440" height="1024" fill="black"/>
<rect x="4.5" y="0.5" width="1439" height="1023" stroke="black"/>
</g>
<g opacity="0.4" clip-path="url(#clip1_357_2)">
<g style="mix-blend-mode:color-dodge">
<path d="M-212.999 662.764C-115.391 603.541 -2.77868 582.241 118.505 604.188C224.066 623.249 320.514 664.516 414.023 705.02C462.336 725.916 506.534 749.615 563.656 752.785C624.23 756.319 684.842 744.971 745.256 749.823C851.413 758.475 926.228 848.927 1037.26 805.517C1060.93 866.67 1074.96 931.071 1088.64 993.764C1111.5 1098.78 1130.26 1209.1 1107.94 1315.18C1060.29 1310.34 1006.56 1338.88 962.154 1349.42C896.061 1365.03 826.741 1367.11 761.879 1347.28C675.571 1320.94 601.503 1274.99 519.62 1242.15C445.699 1212.4 376.938 1199.98 294.085 1212.46C262.046 1217.22 230.018 1223.18 197.248 1223.47C161.547 1223.8 126.975 1215.55 91.422 1213.24C44.4776 1210.11 -1.53278 1214.87 -48.3333 1208.58C-137.098 1196.74 -222.045 1168.41 -304.219 1141.49C-352.659 1125.6 -400.589 1108.92 -448.858 1092.76C-480.52 1082.12 -513.406 1069.51 -547.437 1063.89C-501.909 910.588 -355.161 773.223 -213.344 662.767L-212.999 662.764Z" stroke="#61CAE6" stroke-opacity="0.09" stroke-width="5" stroke-miterlimit="10"/>
<path d="M-473.179 921.39C-436.334 913.945 -417.341 935.239 -394.243 952.544C-356.036 981.302 -307.067 998.505 -253.396 1001.57C-140.358 1008.19 -26.3267 991.221 87.0143 993.223C127.21 993.912 166.739 997.242 204.275 1009.02C250.632 1023.48 292.917 1045.35 335.527 1065.11C404.812 1097.28 473.683 1121.67 555.976 1123.69C621.362 1125.21 686.821 1115.79 752.061 1120.21C871.492 1128.08 992.799 1171.62 1114.42 1155.11" stroke="#61CAE6" stroke-opacity="0.09" stroke-width="5" stroke-miterlimit="10"/>
<path d="M-459.712 903.753C-421.156 894.844 -388.953 908.248 -356.228 922.043C-310.344 941.381 -261.543 959.112 -208.888 964.298C-107.031 974.305 -0.442782 954.376 101.839 954.108C145.821 953.973 191.541 955.271 229.995 973.096C263.425 988.596 289.85 1011.53 317.634 1032.09C344.899 1052.52 373.892 1073.19 410.549 1083.13C447.206 1093.07 487.582 1094.68 526.05 1095.13C612.646 1096.05 699.649 1084.73 786.11 1089.87C848.757 1093.65 910.13 1109.16 970.611 1121.52C1016.4 1130.85 1064.44 1140.42 1112.15 1133.14" stroke="#61CAE6" stroke-opacity="0.09" stroke-width="5" stroke-miterlimit="10"/>
<path d="M-445.727 886.244C-400.47 874.508 -354.344 882.519 -310.098 892.39C-253.927 904.918 -197.203 921.393 -138.688 925.999C-45.1338 933.448 50.4053 912.434 144.236 912.242C179.595 912.185 221.337 912.334 248.765 931.707C273.069 948.87 283.997 974.714 297.309 997.113C309.569 1017.68 324.086 1039.8 351.095 1051.01C390.225 1067.38 451.434 1064.85 494.383 1064.86C605.291 1064.78 716.942 1051.65 827.727 1057.1C887.78 1060.11 944.329 1076.32 998.997 1094.27C1034.81 1106.06 1069.93 1117.72 1109.71 1111.17" stroke="#61CAE6" stroke-opacity="0.09" stroke-width="5" stroke-miterlimit="10"/>
<path d="M-431.221 869.124C-317.845 836.887 -195.632 885.295 -82.5906 892.305C4.21852 897.708 91.1232 875.587 178.232 875.983C207.901 876.109 246.535 875.891 266.891 895.197C286.203 913.59 282.512 944.044 284.951 965.751C287.401 988.643 291.435 1015.08 321.892 1026.13C360.83 1040.26 416.856 1036.85 459.115 1036.87C589.688 1037 720.471 1022.25 850.91 1026.73C910.436 1028.7 965.758 1042.68 1015.31 1067.52C1044.77 1082.26 1069.39 1096.39 1106.58 1089.47" stroke="#61CAE6" stroke-opacity="0.09" stroke-width="5" stroke-miterlimit="10"/>
<path d="M-416.712 852.268C-306.485 815.187 -174.119 861.001 -62.7856 869.869C16.9593 876.127 96.7988 854.728 176.472 853.084C207.168 852.411 255.283 851.449 275.826 872.333C294.627 891.39 288.68 920.415 289.054 942.668C289.242 963.473 291.02 988.346 316.659 1000.62C354.251 1018.59 421.131 1013.64 462.355 1013.66C591.893 1013.8 721.656 1000.78 851.049 1003.95C911.088 1005.51 967.083 1017.65 1015.45 1045C1043.89 1061.07 1065.23 1075.23 1103.11 1067.51" stroke="#61CAE6" stroke-opacity="0.09" stroke-width="5" stroke-miterlimit="10"/>
<path d="M-401.683 835.803C-346.496 815.813 -276.898 825.454 -219.561 833.363C-157.734 841.889 -96.5442 856.216 -34.0512 862.103C40.3531 869.067 113.257 843.649 187.414 842.45C217.422 841.915 254.173 843.163 276.235 860.478C296.735 876.621 298.352 902.813 303.887 923.57C309.954 945.902 318.956 968.603 348.715 978.737C387.471 991.819 442.648 989.87 484.05 990.417C605.323 992.216 727.174 981.63 848.481 987.116C905.77 989.758 957.633 1002.72 1005.63 1026.52C1036.64 1041.91 1061.08 1054.59 1099.64 1046.21" stroke="#61CAE6" stroke-opacity="0.09" stroke-width="5" stroke-miterlimit="10"/>
<path d="M-386.476 819.862C-326.978 799.833 -250.599 815.339 -190.821 826.123C-123.443 838.154 -52.8694 860.166 16.5021 863.752C75.0021 866.777 128.251 842.327 185.833 839.172C214.968 837.591 247.598 840.851 272.036 853.931C296.128 866.75 308.217 887.447 322.359 906.283C363.908 961.216 437.408 963.579 514.536 966.568C621.17 970.738 728.745 964.628 835.235 971.959C890.293 975.807 941.3 989.435 989.774 1009.14C1024.92 1023.44 1054.69 1034.5 1095.31 1025.05" stroke="#61CAE6" stroke-opacity="0.09" stroke-width="5" stroke-miterlimit="10"/>
<path d="M-371.266 804.316C-305.214 784.096 -218.592 807.016 -154.646 820.922C-86.5516 835.845 -13.7027 861.523 57.4008 865.883C107.45 868.986 144.96 839.806 193.225 836.471C252.352 832.512 299.54 862.505 342.04 889.116C397.55 923.907 460.099 935.982 530.698 941.796C625.637 949.759 721.692 947.572 816.298 956.855C871.541 962.149 923.584 975.9 974.275 992.824C1013.72 1006.03 1048.3 1014.8 1091.15 1004.14" stroke="#61CAE6" stroke-opacity="0.09" stroke-width="5" stroke-miterlimit="10"/>
<path d="M-356.223 789.299C-288.453 768.405 -197.655 795.238 -133.005 810.85C-92.0358 820.751 -51.5762 831.578 -10.6063 841.61C21.5485 849.615 58.0484 861.269 91.8731 863.201C135.536 865.834 152.877 838.022 191.104 830.828C243.795 821.001 314.134 855.13 359.474 871.576C422.118 894.186 486.606 910.853 555.157 919.055C639.767 929.219 726.023 930.676 810.471 942.027C864.353 949.309 915.187 962.939 966.029 977.491C1006.67 989.107 1044.15 994.957 1086.65 983.773" stroke="#61CAE6" stroke-opacity="0.09" stroke-width="5" stroke-miterlimit="10"/>
<path d="M-341.52 774.812C-273.257 751.279 -176.919 780.432 -111.402 796.432C-69.3958 806.586 -27.8977 817.799 13.9369 828.087C46.2642 836.091 81.8995 847.489 116.063 848.759C157.647 850.358 166.518 820.516 201.82 814.138C227.306 809.561 255.519 820.368 279.034 826.608C310.156 834.886 340.937 843.562 371.89 852.236C437.257 870.739 501.415 888.99 570.149 898.376C649.764 909.375 730.527 913.779 810.143 924.779C861.436 931.952 909.512 945.739 958.444 958.86C999.768 969.943 1039.32 975.511 1081.99 963.799" stroke="#61CAE6" stroke-opacity="0.09" stroke-width="5" stroke-miterlimit="10"/>
<path d="M-326.812 760.983C-258.005 740.342 -179.048 754.771 -109.938 767.578C-70.8914 774.731 -32.178 783.203 6.70437 791.279C37.6375 797.715 73.0967 808.719 105.526 808.952C143.821 809.264 157.038 783.201 190.966 777.495C216.8 773.178 245.874 783.845 269.05 790.746C304.333 801.357 338.428 814.086 372.69 826.286C434.295 848.378 495.529 867.577 562.041 879.222C630.454 891.245 700.202 898.251 768.946 908.69C865.325 923.357 978.582 973.163 1077.85 944.872" stroke="#61CAE6" stroke-opacity="0.09" stroke-width="5" stroke-miterlimit="10"/>
<path d="M-312.787 747.818C-190.755 700.094 -55.9505 748.521 69.3412 755.946C109.724 758.345 127.098 734.089 163.278 729.415C191.188 725.87 220.611 736.929 244.838 745.664C286.198 760.697 325.69 778.908 365.347 796.327C426.477 823.165 487.057 846.32 553.963 863.361C603.234 875.82 653.518 885.768 703.801 895.716C815.6 917.881 957.921 958.206 1072.85 926.613" stroke="#61CAE6" stroke-opacity="0.09" stroke-width="5" stroke-miterlimit="10"/>
<path d="M-299.101 735.447C-190.356 687.054 -74.3146 701.542 43.7606 712.061C86.0531 715.761 109.29 691.319 148.598 689.251C176.355 687.814 203.529 698.235 227.245 707.634C273.638 726.045 317.312 748.959 361.146 770.554C452.28 815.425 554.44 858.879 658.51 884.67C721.608 900.296 788.442 909.304 854.216 915.688C924.998 922.553 999.546 926.355 1068.39 909.402" stroke="#61CAE6" stroke-opacity="0.09" stroke-width="5" stroke-miterlimit="10"/>
<path d="M-286.097 723.872C-234.556 701.281 -179.141 687.479 -119.846 683.123C-59.5164 678.625 -4.91648 689.061 54.4482 692.342C92.7595 694.497 117.747 672.937 153.954 671.292C181.022 669.994 206.979 679.24 230.178 688.775C277.268 707.971 321.294 731.671 365.656 754.315C424.571 784.202 484.292 807.76 546.441 832.745C581.582 846.781 615.524 861.618 653.387 871.415C714.244 887.062 780.034 895.157 843.563 901.166C916.069 908.016 993.897 912.184 1063.93 893.376" stroke="#61CAE6" stroke-opacity="0.09" stroke-width="5" stroke-miterlimit="10"/>
<path d="M-273.776 713.094C-221.732 688.918 -165.639 673.792 -104.968 668.897C-44.8151 664.006 9.44342 674.84 68.6261 677.069C103.826 678.463 130.57 660.442 164.715 659.606C195.237 658.803 223.629 670.266 249.257 681.359C291.336 699.546 331.372 720.781 371.575 741.356C459.257 785.995 554.163 828.329 654.444 854.812C713.922 870.603 778.336 879.106 840.664 885.785C913.006 893.558 989.974 897.996 1059.65 878.007" stroke="#61CAE6" stroke-opacity="0.09" stroke-width="5" stroke-miterlimit="10"/>
<path d="M-262.309 703.113C-210.276 677.752 -154.022 661.308 -92.669 655.616C-33.0381 650.204 20.6911 659.726 79.1923 662.883C113.879 664.807 144.278 650.31 178.438 651.185C250.036 653.039 321.546 702.302 377.691 730.897C467.97 776.697 559.198 812.876 662.059 838.546C720.664 853.159 782.158 863.006 843.114 870.618C913.568 879.462 987.782 884.452 1055.55 863.821" stroke="#61CAE6" stroke-opacity="0.09" stroke-width="5" stroke-miterlimit="10"/>
<path d="M-251.696 694.194C-199.158 667.38 -142.227 649.613 -79.3249 643.512C-22.6272 637.994 29.8697 644.762 85.8004 649.786C123.433 653.132 159.9 642.135 197.363 645.878C266.076 652.894 328.718 694.336 384.687 722.537C438.923 749.964 493.328 776.995 554.205 794.88C591.908 805.995 631.295 812.75 670.01 821.354C786.154 847.167 933.657 888.367 1052.16 850.815" stroke="#61CAE6" stroke-opacity="0.09" stroke-width="5" stroke-miterlimit="10"/>
<path d="M-242.108 686.337C-136.882 630.337 -27.9203 624.873 94.8427 638.774C134.037 643.159 173.825 637.005 212.691 643.237C278.502 653.703 336.261 689.131 391.188 716.684C443.517 742.943 496.025 769.991 556.353 784.457C597.494 794.356 640.477 798.049 682.29 805.967C797.19 827.708 931.325 878.379 1048.61 839.654" stroke="#61CAE6" stroke-opacity="0.09" stroke-width="5" stroke-miterlimit="10"/>
<path d="M-233.719 679.413C-132.113 623.578 -21.1359 612.169 99.4064 628.461C139.472 633.892 181.034 633.12 220.602 640.663C285.395 652.982 342.087 684.864 397.356 712.019C448.813 737.364 499.592 763.901 559.892 775.206C605.505 783.748 652.944 784.372 698.892 791.726C810.825 809.675 930.722 868.903 1045.59 829.541" stroke="#61CAE6" stroke-opacity="0.09" stroke-width="5" stroke-miterlimit="10"/>
<path d="M-226.699 673.687C-127.167 617.344 -13.8138 601.699 106.059 620.236C148.722 626.829 192.566 630.382 234.227 640.54C295.249 655.395 349.143 683.089 402.847 708.94C453.088 733.243 502.131 758.61 561.716 767.157C611.285 774.346 662.318 771.908 712.053 778.437C821.884 792.85 929.617 861.275 1042.92 821.268" stroke="#61CAE6" stroke-opacity="0.09" stroke-width="5" stroke-miterlimit="10"/>
<path d="M-220.877 669.025C-122.902 612.301 -8.02785 593.087 111.69 613.6C156.952 621.355 202.901 628.84 246.309 641.484C303.552 658.086 355.692 682.634 407.659 707.053C457.201 730.309 504.507 754.375 563.211 760.822C616.561 766.66 670.848 761.559 724.197 767.134C831.932 778.669 928.872 855.224 1040.62 814.573" stroke="#61CAE6" stroke-opacity="0.09" stroke-width="5" stroke-miterlimit="10"/>
<path d="M-216.595 665.694C-119.488 608.319 -4.11588 586.994 115.613 608.692C222.73 628.134 317.395 662.964 411.27 705.835C460.286 728.174 506.032 751.332 564.204 756.204C620.822 760.959 678.018 753.329 734.466 758.349C840.63 767.791 928.317 851.015 1039.02 809.715" stroke="#61CAE6" stroke-opacity="0.09" stroke-width="5" stroke-miterlimit="10"/>
<path d="M-214.027 663.564C-117.1 605.4 -2.25241 583.29 117.826 605.511C223.737 625.095 319.816 663.732 413.335 705.289C461.999 726.841 506.707 749.745 564.178 753.439C623.203 757.25 682.623 747.625 741.656 752.358C847.294 760.883 927.435 848.916 1037.79 806.565" stroke="#61CAE6" stroke-opacity="0.09" stroke-width="5" stroke-miterlimit="10"/>
<path d="M565.038 753.036C567.457 772.504 555.429 796.712 552.676 816.491C550.084 834.951 547.285 849.726 558.65 866.611C575.611 892.005 568.334 907.479 546.81 930.588C523.408 955.821 473.663 986.165 467.222 1017.83C459.947 1052.53 522.726 1089.89 549.167 1114.54C562.213 1126.67 575.421 1137.61 572.638 1154.1C570.843 1165.44 564.048 1176.96 557.24 1187.03C544.473 1205.71 529.964 1222.57 521.351 1242.79" stroke="#61CAE6" stroke-opacity="0.09" stroke-width="5" stroke-miterlimit="10"/>
<path d="M517.547 746.75C526.479 761.682 520.831 785.569 519.424 801.648C515.504 844.878 515.369 887.151 477.388 921.471C460.108 937.036 440.224 950.78 421.728 965.302C408.197 975.828 372.717 1000.64 369.417 1017.13C366.616 1031.65 383.623 1043.08 395.091 1052.33C425.495 1076.55 466.856 1091.71 497.261 1115.93C508.902 1125.31 522.261 1133.88 519.973 1147.86C518.174 1158.67 508.251 1167.72 498.833 1175.31C479.484 1190.89 462.645 1198.02 451.793 1218.66" stroke="#61CAE6" stroke-opacity="0.09" stroke-width="5" stroke-miterlimit="10"/>
<path d="M475.323 731.593C481.681 747.997 477.204 767.923 474.595 784.539C467.914 827.662 460.757 875.399 420.692 908.158C402.03 923.471 381.63 937.352 361.926 951.885C347.534 962.55 310.669 986.852 306.856 1003.87C303.542 1018.79 320.027 1029.7 331.842 1039.2C362.941 1063.94 406.197 1078.83 436.78 1103.7C448.77 1113.47 461.436 1121.79 457.946 1136.3C455.288 1147.52 444.502 1156.44 434.22 1163.91C412.97 1179.11 395.604 1185.2 384.069 1206.64" stroke="#61CAE6" stroke-opacity="0.09" stroke-width="5" stroke-miterlimit="10"/>
<path d="M434.629 713.92C427.161 727.288 416.58 739.763 410.674 754.171C401.728 775.849 398.968 794.837 400.554 817.605C402.73 848.401 398.754 866.479 372.755 890.55C347.098 914.355 303.656 936.083 289.266 966.107C273.185 999.702 335.835 1042.07 358.479 1066.35C373.981 1083.07 386.694 1096.52 379.116 1116.74C375.412 1126.78 369.634 1136.31 363.337 1145.72C349.213 1166.92 332.826 1185.9 323.201 1208.64" stroke="#61CAE6" stroke-opacity="0.09" stroke-width="5" stroke-miterlimit="10"/>
<path d="M393.763 696.248C371.304 692.238 350.365 703.753 337.895 717.166C318.255 738.81 322.577 758.919 331.077 783.337C342.233 815.236 353.675 840.681 329.45 870.267C315.974 886.85 298.681 900.966 289.707 919.484C270.743 958.636 293.571 1003.34 298.242 1042.93C304.788 1099.1 277.584 1161.64 265.667 1217.06" stroke="#61CAE6" stroke-opacity="0.09" stroke-width="5" stroke-miterlimit="10"/>
<path d="M352.9 678.972C327.963 668.004 289.842 667.823 267.379 682.512C233.085 704.947 254.055 734.914 267.234 761.659C277.775 782.898 294.727 807.238 292.177 830.439C291.377 837.294 286.437 844.187 285.119 851.047C283.145 861.6 284.792 871.988 282.128 882.548C278.461 896.672 269.615 910.316 263.703 924.065C253.234 948.918 244.321 974.152 234.889 999.258C220.232 1037.84 212.243 1069.92 211.226 1109.96C210.189 1147.77 211.392 1185.42 207.594 1223.12" stroke="#61CAE6" stroke-opacity="0.09" stroke-width="5" stroke-miterlimit="10"/>
<path d="M312.216 662.484C282.45 651.56 239.788 645.099 210.777 660.506C172.667 680.605 191.898 709.007 206.806 736.264C219.083 758.672 240.02 784.952 239.21 809.849C238.936 817.621 230.594 829.812 233.763 836.894C239.048 849.094 248.834 844.001 244.509 861.687C233.529 906.297 189.091 951.343 165.315 992.382C122.857 1065.59 156.671 1142.59 143.91 1219.08" stroke="#61CAE6" stroke-opacity="0.09" stroke-width="5" stroke-miterlimit="10"/>
<path d="M271.37 647.051C240.404 637.06 197.65 639.554 171.238 656.123C134.02 679.506 153.584 706.589 169.369 735.418C186.732 767.129 213.597 800.467 192.516 834.371C188.946 840.198 185.536 844.574 182.835 851.052C162.564 898.249 123.078 937.718 91.2134 980.806C63.7807 1018.06 57.4845 1046.56 67.0059 1088.48C76.5226 1129.88 99.316 1170.76 90.7328 1213.38" stroke="#61CAE6" stroke-opacity="0.09" stroke-width="5" stroke-miterlimit="10"/>
<path d="M230.536 633.067C199.641 630.845 167.481 641.276 145.725 657.803C138.188 663.534 128.773 671.521 124.706 679.459C115.386 697.848 128.477 714.981 137.774 732.148C149.704 754.296 210.354 823.279 160.851 842.428C140.741 850.248 125.998 841.163 112.012 858.541C98.5378 875.388 89.534 890.614 73.2959 906.959C49.7096 930.877 23.6968 953.5 0.2841 977.548C-14.5837 992.827 -34.4317 1010.52 -37.701 1030.44C-41.1273 1052.06 -26.7926 1073.14 -15.239 1091.86C8.73786 1130.1 52.0327 1168.29 52.776 1212.27" stroke="#61CAE6" stroke-opacity="0.09" stroke-width="5" stroke-miterlimit="10"/>
<path d="M189.892 620.793C164.646 632.874 141.978 643.878 123.346 662.615C115.14 670.722 105.227 680.689 101.003 690.472C91.2062 713.344 115.083 740.519 126.993 760.56C142.758 787.15 191.039 842.681 133.025 855.19C102.039 861.924 69.9943 847.07 43.257 865.88C36.746 870.68 31.6232 876.389 28.0598 882.874C14.3813 896.167 -0.51032 908.813 -16.6165 920.679C-46.0787 943.333 -76.9303 964.946 -105.351 988.381C-120.76 1001.03 -145.959 1018.25 -143.713 1037.72C-141.473 1056.53 -121.996 1074 -107.206 1088.22C-67.0145 1126.57 5.07348 1163.45 21.048 1213.22" stroke="#61CAE6" stroke-opacity="0.09" stroke-width="5" stroke-miterlimit="10"/>
<path d="M149.264 610.494C135.997 631.158 110.287 649.169 94.4288 669.33C87.4385 678.348 77.1857 688.976 73.3095 699.02C66.2375 718.047 85.6048 742.498 95.2351 758.345C109.946 782.838 132.435 809.236 138.201 836.443C142.528 857.079 124.634 861.982 102.233 864.424C65.015 868.712 11.728 850.89 -21.5632 869.76C-40.2683 880.333 -54.4176 898.766 -71.8988 911.171C-114.061 940.92 -162.131 965.85 -203.769 996.252C-221.076 1008.92 -246.483 1022.19 -238.535 1042.79C-231.467 1061.43 -202.145 1080.39 -184.617 1092.21C-150.774 1115.22 -113.854 1135.16 -78.6427 1156.83C-52.278 1173.06 -26.96 1187.97 -14.1478 1212.35" stroke="#61CAE6" stroke-opacity="0.09" stroke-width="5" stroke-miterlimit="10"/>
<path d="M108.657 602.434C91.0858 623.927 74.208 645.808 57.3301 667.69C50.3423 676.972 39.2247 687.344 34.8323 697.524C26.5518 716.431 46.9599 741.531 56.4153 757.116C71.472 781.738 94.6553 808.524 100.424 835.995C104.932 857.683 85.4764 861.547 62.5556 863.73C21.5385 867.525 -42.8188 846.248 -79.5428 866.992C-98.4192 877.698 -112.567 896.263 -131.086 908.415C-176.525 938.193 -228.573 961.842 -273.316 992.273C-290.974 1004.28 -317.929 1018.09 -311.188 1038.71C-304.979 1057.61 -269.787 1077.18 -252.271 1087.69C-213.944 1110.65 -172.027 1130.03 -132.162 1151.39C-103.736 1166.68 -74.6331 1180.5 -62.8425 1206.34" stroke="#61CAE6" stroke-opacity="0.09" stroke-width="5" stroke-miterlimit="10"/>
<path d="M68.0764 597.27C47.5636 617.737 30.1766 640.545 12.264 662.436C4.92763 671.326 -7.05111 681.838 -11.4471 691.623C-19.3898 709.736 -0.536303 734.586 8.22681 749.915C21.8966 773.759 42.1347 799.123 47.7199 825.411C52.2296 847.23 32.769 850.567 9.67934 853.147C-31.5043 857.602 -91.1679 840.365 -128.247 859.927C-147.645 870.243 -162.658 888.552 -181.176 900.704C-224.727 929.412 -274.193 952.642 -317.221 982.004C-335.049 994.149 -362.18 1007.56 -354.919 1028.44C-348.543 1046.82 -317.843 1065.63 -300.494 1076.67C-265.795 1099.01 -227.504 1118.02 -191.436 1139.02C-164.213 1154.84 -138.21 1169.23 -125.566 1194" stroke="#61CAE6" stroke-opacity="0.09" stroke-width="5" stroke-miterlimit="10"/>
<path d="M27.5212 595.004C6.13763 614.556 -11.7727 636.711 -30.0363 657.947C-37.8876 667.104 -49.5274 676.955 -54.9558 687.012C-65.9792 707.788 -46.9544 732.505 -36.9458 752.036C-20.7934 783.364 15.5124 830.707 -47.5357 839.706C-88.7062 845.61 -141.417 834.235 -177.459 854.183C-202.173 867.84 -222.5 889.753 -246.856 904.854C-278.93 924.767 -312.569 943.376 -343.773 964.203C-360.06 975.149 -390.785 991.625 -388.019 1011.35C-385.262 1030.16 -362.005 1046.02 -345.676 1058.77C-299.296 1094.83 -216.747 1125.03 -195.246 1175.54" stroke="#61CAE6" stroke-opacity="0.09" stroke-width="5" stroke-miterlimit="10"/>
</g>
<path style="mix-blend-mode:color-dodge" d="M601.662 889.41C605.183 874.88 563.241 856.934 507.98 849.328C452.719 841.722 405.067 847.335 401.545 861.865C398.023 876.395 439.966 894.34 495.226 901.947C550.487 909.553 598.14 903.94 601.662 889.41Z" fill="url(#paint4_radial_357_2)" fill-opacity="0.5"/>
<path style="mix-blend-mode:color-dodge" d="M102.479 862.914C108.152 839.508 40.4673 810.585 -48.6992 798.311C-137.866 786.038 -214.748 795.063 -220.421 818.469C-226.094 841.875 -158.41 870.799 -69.2431 883.072C19.9235 895.345 96.8061 886.32 102.479 862.914Z" fill="url(#paint5_radial_357_2)"/>
</g>
</g>
<rect x="4.5" y="0.5" width="462" height="916" stroke="black" shape-rendering="crispEdges"/>
</g>
<defs>
<filter id="filter0_d_357_2" x="0" y="0" width="471" height="925" filterUnits="userSpaceOnUse" color-interpolation-filters="sRGB">
<feFlood flood-opacity="0" result="BackgroundImageFix"/>
<feColorMatrix in="SourceAlpha" type="matrix" values="0 0 0 0 0 0 0 0 0 0 0 0 0 0 0 0 0 0 127 0" result="hardAlpha"/>
<feOffset dy="4"/>
<feGaussianBlur stdDeviation="2"/>
<feComposite in2="hardAlpha" operator="out"/>
<feColorMatrix type="matrix" values="0 0 0 0 0 0 0 0 0 0 0 0 0 0 0 0 0 0 0.25 0"/>
<feBlend mode="normal" in2="BackgroundImageFix" result="effect1_dropShadow_357_2"/>
<feBlend mode="normal" in="SourceGraphic" in2="effect1_dropShadow_357_2" result="shape"/>
</filter>
<filter id="filter1_d_357_2" x="0" y="0" width="1448" height="1032" filterUnits="userSpaceOnUse" color-interpolation-filters="sRGB">
<feFlood flood-opacity="0" result="BackgroundImageFix"/>
<feColorMatrix in="SourceAlpha" type="matrix" values="0 0 0 0 0 0 0 0 0 0 0 0 0 0 0 0 0 0 127 0" result="hardAlpha"/>
<feOffset dy="4"/>
<feGaussianBlur stdDeviation="2"/>
<feComposite in2="hardAlpha" operator="out"/>
<feColorMatrix type="matrix" values="0 0 0 0 0 0 0 0 0 0 0 0 0 0 0 0 0 0 0.25 0"/>
<feBlend mode="normal" in2="BackgroundImageFix" result="effect1_dropShadow_357_2"/>
<feBlend mode="normal" in="SourceGraphic" in2="effect1_dropShadow_357_2" result="shape"/>
</filter>
<linearGradient id="paint0_linear_357_2" x1="-250.328" y1="1146.25" x2="740.547" y2="990.71" gradientUnits="userSpaceOnUse">
<stop offset="0.0045899" stop-color="#ED797C"/>
<stop offset="0.393944" stop-color="#1E4E5E"/>
<stop offset="0.538306" stop-color="#02485A"/>
<stop offset="0.654876" stop-color="#02485A"/>
<stop offset="0.878068" stop-color="#5C3A67" stop-opacity="0.848305"/>
<stop offset="0.935234" stop-color="#EE227D" stop-opacity="0.6"/>
<stop offset="1" stop-color="#752C36"/>
</linearGradient>
<linearGradient id="paint1_linear_357_2" x1="208.87" y1="845.704" x2="903.812" y2="671.8" gradientUnits="userSpaceOnUse">
<stop stop-color="#731A3D" stop-opacity="0"/>
<stop offset="0.642825" stop-color="#731A3D" stop-opacity="0.41045"/>
<stop offset="1" stop-color="#731A3D" stop-opacity="0.5"/>
</linearGradient>
<linearGradient id="paint2_linear_357_2" x1="227.623" y1="390.889" x2="-399.68" y2="604.43" gradientUnits="userSpaceOnUse">
<stop stop-color="#ED797C" stop-opacity="0"/>
<stop offset="0.736109" stop-color="#CD6164" stop-opacity="0.63"/>
<stop offset="1" stop-color="#C75D5F"/>
</linearGradient>
<linearGradient id="paint3_linear_357_2" x1="115.731" y1="594.617" x2="-309.049" y2="743.49" gradientUnits="userSpaceOnUse">
<stop stop-color="#ED797C" stop-opacity="0"/>
<stop offset="0.756294" stop-color="#CD6164" stop-opacity="0.63"/>
<stop offset="1" stop-color="#C75D5F"/>
</linearGradient>
<radialGradient id="paint4_radial_357_2" cx="0" cy="0" r="1" gradientUnits="userSpaceOnUse" gradientTransform="translate(594.932 489.855) rotate(7.83722) scale(101.002 26.6148)">
<stop stop-color="#70CDDD"/>
<stop offset="1" stop-color="white" stop-opacity="0"/>
</radialGradient>
<radialGradient id="paint5_radial_357_2" cx="0" cy="0" r="1" gradientUnits="userSpaceOnUse" gradientTransform="translate(34.8081 454.497) rotate(7.83722) scale(162.973 42.9446)">
<stop stop-color="#70CDDD"/>
<stop offset="1" stop-color="white" stop-opacity="0"/>
</radialGradient>
<clipPath id="clip0_357_2">
<rect x="4" width="463" height="917" fill="white"/>
</clipPath>
<clipPath id="clip1_357_2">
<rect width="1672.35" height="893.35" fill="white" transform="translate(-557 484.148) rotate(-0.518982)"/>
</clipPath>
</defs>
</svg>
