<svg width="1448" height="1032" viewBox="0 0 1448 1032" fill="none" xmlns="http://www.w3.org/2000/svg">
<g filter="url(#filter0_d_171_3)">
<g clip-path="url(#clip0_171_3)">
<rect x="4" width="1440" height="1024" fill="black"/>
<rect x="4" width="1440" height="1024" fill="url(#paint0_linear_171_3)"/>
<rect x="4" width="1440" height="1024" fill="url(#paint1_linear_171_3)"/>
<rect x="4" width="1440" height="1024" fill="url(#paint2_linear_171_3)"/>
<rect x="4" width="1440" height="1024" fill="url(#paint3_linear_171_3)" fill-opacity="0.26"/>
<g clip-path="url(#clip1_171_3)">
<g style="mix-blend-mode:color-dodge">
<path d="M174.001 705.764C271.609 646.541 384.221 625.241 505.505 647.188C611.066 666.249 707.514 707.516 801.023 748.02C849.336 768.916 893.534 792.615 950.656 795.785C1011.23 799.319 1071.84 787.971 1132.26 792.823C1238.41 801.475 1313.23 891.927 1424.26 848.517C1447.93 909.67 1461.96 974.071 1475.64 1036.76C1498.5 1141.78 1517.26 1252.1 1494.94 1358.18C1447.29 1353.34 1393.56 1381.88 1349.15 1392.42C1283.06 1408.03 1213.74 1410.11 1148.88 1390.28C1062.57 1363.94 988.503 1317.99 906.62 1285.15C832.699 1255.4 763.938 1242.98 681.085 1255.46C649.046 1260.22 617.018 1266.18 584.248 1266.47C548.547 1266.8 513.975 1258.55 478.422 1256.24C431.478 1253.11 385.467 1257.87 338.667 1251.58C249.902 1239.74 164.955 1211.41 82.7807 1184.49C34.3409 1168.6 -13.5887 1151.92 -61.8584 1135.76C-93.5197 1125.12 -126.406 1112.51 -160.437 1106.89C-114.909 953.588 31.8389 816.223 173.656 705.767L174.001 705.764Z" stroke="#61CAE6" stroke-opacity="0.1" stroke-width="5" stroke-miterlimit="10"/>
<path d="M-131.928 1036.05C-81.7473 1034.67 -30.6853 1073.45 8.12832 1092.99C62.0161 1120.02 121.405 1145.03 186.659 1151.03C276.254 1159.3 367.553 1146.23 457.436 1148.31C543.007 1150.3 626.167 1171.8 708.417 1188.05C783.929 1203.03 859.939 1215.91 935.453 1231.03C1005.95 1245.14 1075.79 1261.49 1147.13 1273.36C1211.74 1284.1 1275.62 1291.55 1341.85 1290.56C1396 1289.8 1450.09 1282.2 1504.26 1282.5" stroke="#61CAE6" stroke-opacity="0.1" stroke-width="5" stroke-miterlimit="10"/>
<path d="M-121.914 1018.05C-80.7285 1013.86 -43.833 1050.13 -15.7304 1067.79C28.6786 1095.7 79.9317 1117.49 138.102 1122.23C241.325 1130.65 346.406 1115.73 449.913 1117.56C544.278 1119.21 628.35 1146.24 716.019 1170.33C791.583 1191.11 865.217 1208.22 944.651 1218.3C1010.44 1226.66 1076.73 1232.78 1142.69 1240.34C1207.96 1247.79 1271.36 1259.06 1337.62 1262.02C1393.36 1264.41 1449.05 1262.06 1504.76 1262.09" stroke="#61CAE6" stroke-opacity="0.1" stroke-width="5" stroke-miterlimit="10"/>
<path d="M-110.866 1000.04C-73.6685 993.512 -50.7695 1027.02 -29.5705 1044.21C7.26888 1074.3 55.2068 1091.9 109.055 1095.5C220.203 1102.92 332.871 1087.81 444.134 1088.91C494.504 1089.37 538.531 1094.11 585.569 1107.64C631.917 1121.05 677.079 1136.84 722.407 1151.97C800.606 1177.99 874.285 1200.11 960.053 1204.86C1018.04 1208.16 1076.32 1205.92 1134.31 1210.26C1200.42 1215.19 1264.89 1229.62 1331.17 1235.34C1388.48 1240.36 1446.63 1242.59 1504.4 1240.89" stroke="#61CAE6" stroke-opacity="0.1" stroke-width="5" stroke-miterlimit="10"/>
<path d="M-98.7818 982.151C-61.0726 974.961 -49.2833 1000.67 -30.9996 1019.73C1.04161 1053.28 51.2014 1068.63 104.7 1071.7C222.397 1078.54 341.265 1062.31 459.264 1064.41C558.976 1066.14 639.836 1100.3 727.582 1132.96C801.827 1160.47 874.333 1186.41 958.184 1188.94C1014.43 1190.67 1070.42 1182.66 1126.68 1186.23C1252.49 1194.18 1374.78 1231.79 1503.35 1219.83" stroke="#61CAE6" stroke-opacity="0.1" stroke-width="5" stroke-miterlimit="10"/>
<path d="M-86.1787 964.39C-49.3343 956.945 -30.3406 978.239 -7.24324 995.544C30.964 1024.3 79.9332 1041.5 133.604 1044.57C246.642 1051.19 360.673 1034.22 474.014 1036.22C514.21 1036.91 553.739 1040.24 591.275 1052.02C637.632 1066.48 679.917 1088.35 722.527 1108.11C791.812 1140.28 860.683 1164.67 942.976 1166.69C1008.36 1168.21 1073.82 1158.79 1139.06 1163.21C1258.49 1171.08 1379.8 1214.62 1501.42 1198.11" stroke="#61CAE6" stroke-opacity="0.1" stroke-width="5" stroke-miterlimit="10"/>
<path d="M-72.7123 946.753C-34.1563 937.844 -1.95261 951.248 30.7721 965.043C76.6559 984.381 125.457 1002.11 178.112 1007.3C279.969 1017.31 386.557 997.376 488.839 997.108C532.821 996.973 578.541 998.271 616.995 1016.1C650.425 1031.6 676.85 1054.53 704.634 1075.09C731.899 1095.52 760.892 1116.19 797.549 1126.13C834.206 1136.07 874.582 1137.68 913.05 1138.13C999.646 1139.05 1086.65 1127.73 1173.11 1132.87C1235.76 1136.65 1297.13 1152.16 1357.61 1164.52C1403.4 1173.85 1451.44 1183.42 1499.15 1176.14" stroke="#61CAE6" stroke-opacity="0.1" stroke-width="5" stroke-miterlimit="10"/>
<path d="M-58.7269 929.244C-13.4696 917.508 32.6566 925.519 76.9023 935.39C133.073 947.918 189.798 964.393 248.312 968.999C341.867 976.448 437.406 955.434 531.236 955.242C566.595 955.185 608.338 955.334 635.766 974.707C660.069 991.87 670.998 1017.71 684.309 1040.11C696.57 1060.68 711.086 1082.8 738.096 1094.01C777.226 1110.38 838.435 1107.85 881.384 1107.86C992.291 1107.78 1103.94 1094.65 1214.73 1100.1C1274.78 1103.11 1331.33 1119.32 1386 1137.27C1421.81 1149.06 1456.93 1160.72 1496.71 1154.17" stroke="#61CAE6" stroke-opacity="0.1" stroke-width="5" stroke-miterlimit="10"/>
<path d="M-44.221 912.124C69.1549 879.887 191.368 928.295 304.409 935.305C391.219 940.708 478.123 918.587 565.232 918.983C594.901 919.109 633.535 918.891 653.891 938.197C673.203 956.59 669.512 987.044 671.951 1008.75C674.401 1031.64 678.435 1058.08 708.892 1069.13C747.83 1083.26 803.856 1079.85 846.115 1079.87C976.688 1080 1107.47 1065.25 1237.91 1069.73C1297.44 1071.7 1352.76 1085.68 1402.31 1110.52C1431.77 1125.26 1456.39 1139.39 1493.58 1132.47" stroke="#61CAE6" stroke-opacity="0.1" stroke-width="5" stroke-miterlimit="10"/>
<path d="M-29.7119 895.268C80.5153 858.187 212.882 904.001 324.215 912.869C403.96 919.127 483.799 897.728 563.473 896.084C594.169 895.411 642.284 894.449 662.826 915.333C681.627 934.39 675.68 963.415 676.055 985.668C676.243 1006.47 678.021 1031.35 703.66 1043.62C741.252 1061.59 808.131 1056.64 849.355 1056.66C978.893 1056.8 1108.66 1043.78 1238.05 1046.95C1298.09 1048.51 1354.08 1060.65 1402.45 1088C1430.89 1104.07 1452.23 1118.23 1490.11 1110.51" stroke="#61CAE6" stroke-opacity="0.1" stroke-width="5" stroke-miterlimit="10"/>
<path d="M-14.6827 878.803C40.504 858.813 110.103 868.454 167.44 876.363C229.267 884.889 290.456 899.216 352.949 905.103C427.354 912.067 500.257 886.649 574.415 885.45C604.423 884.915 641.173 886.163 663.236 903.478C683.735 919.621 685.352 945.813 690.887 966.57C696.954 988.902 705.957 1011.6 735.716 1021.74C774.471 1034.82 829.649 1032.87 871.05 1033.42C992.324 1035.22 1114.17 1024.63 1235.48 1030.12C1292.77 1032.76 1344.63 1045.72 1392.63 1069.52C1423.64 1084.91 1448.08 1097.59 1486.64 1089.21" stroke="#61CAE6" stroke-opacity="0.1" stroke-width="5" stroke-miterlimit="10"/>
<path d="M0.524298 862.862C60.0228 842.833 136.402 858.339 196.179 869.123C263.558 881.154 334.131 903.166 403.503 906.752C462.003 909.777 515.252 885.327 572.833 882.172C601.969 880.591 634.598 883.851 659.037 896.931C683.129 909.75 695.217 930.447 709.359 949.283C750.909 1004.22 824.409 1006.58 901.537 1009.57C1008.17 1013.74 1115.75 1007.63 1222.24 1014.96C1277.29 1018.81 1328.3 1032.44 1376.77 1052.14C1411.92 1066.44 1441.69 1077.5 1482.31 1068.05" stroke="#61CAE6" stroke-opacity="0.1" stroke-width="5" stroke-miterlimit="10"/>
<path d="M15.7345 847.316C81.7857 827.096 168.408 850.016 232.354 863.922C300.448 878.845 373.297 904.523 444.401 908.883C494.45 911.986 531.96 882.806 580.225 879.471C639.352 875.512 686.54 905.505 729.04 932.116C784.55 966.907 847.099 978.982 917.698 984.796C1012.64 992.759 1108.69 990.572 1203.3 999.855C1258.54 1005.15 1310.58 1018.9 1361.28 1035.82C1400.72 1049.03 1435.3 1057.8 1478.15 1047.14" stroke="#61CAE6" stroke-opacity="0.1" stroke-width="5" stroke-miterlimit="10"/>
<path d="M30.7772 832.299C98.5471 811.405 189.345 838.238 253.996 853.85C294.965 863.751 335.424 874.578 376.394 884.61C408.549 892.615 445.049 904.269 478.874 906.201C522.536 908.834 539.878 881.022 578.104 873.828C630.796 864.001 701.134 898.13 746.474 914.576C809.119 937.186 873.607 953.853 942.158 962.055C1026.77 972.219 1113.02 973.676 1197.47 985.027C1251.35 992.309 1302.19 1005.94 1353.03 1020.49C1393.67 1032.11 1431.15 1037.96 1473.65 1026.77" stroke="#61CAE6" stroke-opacity="0.1" stroke-width="5" stroke-miterlimit="10"/>
<path d="M45.48 817.812C113.744 794.279 210.082 823.432 275.599 839.432C317.605 849.586 359.103 860.799 400.937 871.087C433.265 879.091 468.9 890.489 503.064 891.759C544.647 893.358 553.518 863.516 588.82 857.138C614.306 852.561 642.52 863.368 666.034 869.608C697.156 877.886 727.937 886.562 758.891 895.236C824.258 913.739 888.415 931.99 957.149 941.376C1036.76 952.375 1117.53 956.779 1197.14 967.779C1248.44 974.952 1296.51 988.739 1345.44 1001.86C1386.77 1012.94 1426.32 1018.51 1468.99 1006.8" stroke="#61CAE6" stroke-opacity="0.1" stroke-width="5" stroke-miterlimit="10"/>
<path d="M60.1882 803.983C128.995 783.342 207.952 797.771 277.062 810.578C316.109 817.731 354.822 826.203 393.704 834.279C424.638 840.715 460.097 851.719 492.526 851.952C530.821 852.264 544.038 826.201 577.966 820.495C603.8 816.178 632.874 826.845 656.05 833.746C691.333 844.357 725.428 857.086 759.69 869.286C821.295 891.378 882.529 910.577 949.041 922.222C1017.45 934.245 1087.2 941.251 1155.95 951.69C1252.33 966.357 1365.58 1016.16 1464.85 987.872" stroke="#61CAE6" stroke-opacity="0.1" stroke-width="5" stroke-miterlimit="10"/>
<path d="M74.2126 790.818C196.245 743.094 331.05 791.521 456.341 798.946C496.724 801.345 514.098 777.089 550.278 772.415C578.188 768.87 607.611 779.929 631.838 788.664C673.198 803.697 712.69 821.908 752.347 839.327C813.477 866.165 874.057 889.32 940.963 906.361C990.234 918.82 1040.52 928.768 1090.8 938.716C1202.6 960.881 1344.92 1001.21 1459.85 969.613" stroke="#61CAE6" stroke-opacity="0.1" stroke-width="5" stroke-miterlimit="10"/>
<path d="M87.8996 778.447C196.644 730.054 312.686 744.542 430.761 755.061C473.054 758.761 496.29 734.319 535.598 732.251C563.355 730.814 590.53 741.235 614.245 750.634C660.638 769.045 704.312 791.959 748.147 813.554C839.28 858.425 941.44 901.879 1045.51 927.67C1108.61 943.296 1175.44 952.304 1241.22 958.688C1312 965.553 1386.55 969.355 1455.39 952.402" stroke="#61CAE6" stroke-opacity="0.1" stroke-width="5" stroke-miterlimit="10"/>
<path d="M100.904 766.872C152.445 744.281 207.86 730.479 267.155 726.123C327.485 721.625 382.084 732.061 441.449 735.342C479.76 737.497 504.748 715.937 540.955 714.292C568.023 712.994 593.98 722.24 617.179 731.775C664.269 750.971 708.295 774.671 752.657 797.315C811.572 827.202 871.293 850.76 933.442 875.745C968.583 889.781 1002.52 904.618 1040.39 914.415C1101.24 930.062 1167.03 938.157 1230.56 944.166C1303.07 951.016 1380.9 955.184 1450.93 936.376" stroke="#61CAE6" stroke-opacity="0.1" stroke-width="5" stroke-miterlimit="10"/>
<path d="M113.225 756.094C165.269 731.918 221.362 716.792 282.033 711.897C342.186 707.006 396.444 717.84 455.627 720.069C490.827 721.463 517.571 703.442 551.716 702.606C582.238 701.803 610.63 713.266 636.258 724.359C678.337 742.546 718.373 763.781 758.576 784.356C846.258 828.995 941.164 871.329 1041.45 897.812C1100.92 913.603 1165.34 922.106 1227.66 928.785C1300.01 936.558 1376.98 940.996 1446.65 921.007" stroke="#61CAE6" stroke-opacity="0.1" stroke-width="5" stroke-miterlimit="10"/>
<path d="M124.691 746.113C176.724 720.752 232.978 704.308 294.331 698.616C353.962 693.204 407.692 702.726 466.193 705.883C500.88 707.807 531.278 693.31 565.438 694.185C637.037 696.039 708.547 745.302 764.691 773.897C854.971 819.697 946.198 855.876 1049.06 881.546C1107.66 896.159 1169.16 906.006 1230.11 913.618C1300.57 922.462 1374.78 927.452 1442.56 906.821" stroke="#61CAE6" stroke-opacity="0.1" stroke-width="5" stroke-miterlimit="10"/>
<path d="M135.304 737.194C187.842 710.38 244.774 692.613 307.676 686.512C364.373 680.994 416.87 687.762 472.801 692.786C510.433 696.132 546.9 685.135 584.364 688.878C653.076 695.894 715.719 737.336 771.687 765.537C825.923 792.964 880.329 819.995 941.206 837.88C978.908 848.995 1018.3 855.75 1057.01 864.354C1173.15 890.167 1320.66 931.367 1439.16 893.815" stroke="#61CAE6" stroke-opacity="0.1" stroke-width="5" stroke-miterlimit="10"/>
<path d="M144.892 729.337C250.118 673.337 359.08 667.873 481.843 681.774C521.037 686.159 560.825 680.005 599.691 686.237C665.502 696.703 723.261 732.131 778.188 759.684C830.517 785.943 883.025 812.991 943.353 827.457C984.494 837.356 1027.48 841.049 1069.29 848.967C1184.19 870.708 1318.32 921.379 1435.61 882.654" stroke="#61CAE6" stroke-opacity="0.1" stroke-width="5" stroke-miterlimit="10"/>
<path d="M153.281 722.413C254.887 666.578 365.864 655.169 486.406 671.461C526.472 676.892 568.034 676.12 607.602 683.663C672.395 695.982 729.087 727.864 784.356 755.019C835.813 780.364 886.592 806.901 946.892 818.206C992.505 826.748 1039.94 827.372 1085.89 834.726C1197.83 852.675 1317.72 911.903 1432.59 872.541" stroke="#61CAE6" stroke-opacity="0.1" stroke-width="5" stroke-miterlimit="10"/>
<path d="M160.301 716.687C259.833 660.344 373.186 644.699 493.059 663.236C535.722 669.829 579.566 673.382 621.227 683.54C682.249 698.395 736.143 726.089 789.847 751.94C840.088 776.243 889.131 801.61 948.716 810.157C998.285 817.346 1049.32 814.908 1099.05 821.437C1208.88 835.85 1316.62 904.275 1429.92 864.268" stroke="#61CAE6" stroke-opacity="0.1" stroke-width="5" stroke-miterlimit="10"/>
<path d="M166.124 712.025C264.099 655.301 378.973 636.087 498.691 656.6C543.952 664.355 589.901 671.84 633.309 684.484C690.552 701.086 742.693 725.634 794.66 750.053C844.201 773.309 891.508 797.375 950.211 803.822C1003.56 809.66 1057.85 804.559 1111.2 810.134C1218.93 821.669 1315.87 898.224 1427.62 857.573" stroke="#61CAE6" stroke-opacity="0.1" stroke-width="5" stroke-miterlimit="10"/>
<path d="M170.406 708.694C267.513 651.319 382.885 629.994 502.613 651.692C609.73 671.134 704.395 705.964 798.271 748.835C847.287 771.174 893.032 794.332 951.204 799.204C1007.82 803.959 1065.02 796.329 1121.47 801.349C1227.63 810.791 1315.32 894.015 1426.02 852.715" stroke="#61CAE6" stroke-opacity="0.1" stroke-width="5" stroke-miterlimit="10"/>
<path d="M172.974 706.564C269.901 648.4 384.749 626.29 504.827 648.511C610.738 668.095 706.817 706.732 800.336 748.289C848.999 769.841 893.708 792.745 951.179 796.439C1010.2 800.25 1069.62 790.625 1128.66 795.358C1234.3 803.883 1314.44 891.916 1424.79 849.565" stroke="#61CAE6" stroke-opacity="0.1" stroke-width="5" stroke-miterlimit="10"/>
<path d="M1387.46 860.307C1401.02 872.431 1400.11 905.231 1404.74 920.86C1410.79 941.612 1416.5 962.499 1427.37 982.154C1438.41 1001.81 1440.66 1021.54 1446.2 1042.3C1452.79 1066.07 1460.25 1089.58 1464.95 1113.64C1470.2 1140.58 1469.06 1166.54 1469.65 1193.66C1471.01 1249.49 1481.16 1303.52 1469.94 1359.32" stroke="#61CAE6" stroke-opacity="0.1" stroke-width="5" stroke-miterlimit="10"/>
<path d="M1353.67 862.457C1364.47 874.87 1357.03 909.44 1360.27 925.213C1364.97 948.348 1371.68 966.329 1391.17 984.589C1411.35 1003.5 1412.36 1020.09 1420.67 1042.79C1428.99 1065.63 1440.57 1087.26 1445.61 1110.78C1451.74 1139.83 1441.27 1164.81 1437.04 1193.43C1432.98 1220.59 1441 1249.63 1443.15 1276.87C1445.49 1306.74 1446.1 1336.36 1441.19 1366.04" stroke="#61CAE6" stroke-opacity="0.1" stroke-width="5" stroke-miterlimit="10"/>
<path d="M1321.88 857.214C1323.29 879.457 1310.23 903.806 1312.17 927.625C1313.93 950.786 1320.62 965.475 1345.59 979.735C1360.15 988.031 1380.93 996.666 1387.44 1010.7C1391.66 1019.75 1392.27 1030.01 1396.67 1039.32C1406.69 1060.43 1422.73 1079.78 1428.63 1102.11C1437.39 1135.88 1410.38 1163.12 1400.14 1194.69C1392.09 1219.12 1401.82 1246.95 1404.98 1271.68C1409.26 1306.41 1412.34 1341.28 1407.82 1376.09" stroke="#61CAE6" stroke-opacity="0.1" stroke-width="5" stroke-miterlimit="10"/>
<path d="M1290.74 846.697C1277 871.843 1262.73 896.466 1260.57 924.273C1259.95 932.048 1259.2 944.697 1262.89 952.038C1270.09 966.327 1291.35 971.666 1307.97 977.836C1327.01 984.907 1351.04 991.01 1361.53 1006.32C1366.77 1013.91 1367.04 1024.58 1372.11 1032.83C1384.72 1053.65 1407.31 1071.75 1412.01 1095.28C1418.33 1127.36 1383.91 1154.67 1366.22 1181.69C1345.97 1212.69 1359.2 1244.18 1363.98 1276.92C1369.31 1313.49 1373.78 1350.32 1369.98 1387.09" stroke="#61CAE6" stroke-opacity="0.1" stroke-width="5" stroke-miterlimit="10"/>
<path d="M1259.22 833.024C1235.13 857.605 1215.05 887.944 1208.25 918.294C1206.43 926.607 1203.6 937.563 1207.12 945.828C1213.64 961.176 1238.51 964.638 1257.01 969.607C1278.97 975.466 1312.65 979.901 1327.27 994.913C1335.97 1003.79 1337.11 1014.45 1344.44 1024.52C1359.11 1044.54 1388.76 1061.91 1391.92 1086.38C1396.54 1120.71 1338.22 1156.53 1317.94 1183.84C1296.64 1212.48 1314.07 1250.91 1318.83 1281.68C1324.87 1320.08 1330.56 1358.61 1327.29 1397.23" stroke="#61CAE6" stroke-opacity="0.1" stroke-width="5" stroke-miterlimit="10"/>
<path d="M1226.32 818.309C1194.98 843.483 1165.64 879.041 1155.42 913.11C1153.08 920.638 1148.19 933.456 1152.22 940.531C1160.46 954.81 1199.31 959.199 1214.52 962.617C1233.53 966.791 1282.22 972.802 1296.66 986.367C1304.14 993.279 1305.99 1007.09 1312.27 1015.07C1326.93 1033.63 1353.77 1045.51 1362.59 1067.15C1377.76 1104.15 1299.84 1146.47 1276.44 1172.1C1261.92 1188.04 1256.66 1196.91 1258.9 1216.25C1260.97 1234.66 1265.96 1253.19 1269.06 1271.46C1276.53 1315.25 1284.35 1359.56 1280.78 1403.84" stroke="#61CAE6" stroke-opacity="0.1" stroke-width="5" stroke-miterlimit="10"/>
<path d="M1190.49 804.806C1155.55 831.329 1121.02 866.276 1105.82 902.234C1102.78 909.372 1096.86 921.805 1099.69 929.681C1105.7 946.088 1134.86 947.535 1154.04 951.312C1181 956.599 1238.63 958.711 1256.74 977.51C1264.92 985.996 1265.01 995.872 1273.03 1005.15C1288.89 1023.44 1321.95 1035.92 1326.65 1059.45C1330.08 1076.27 1311.93 1091.58 1298.93 1103.42C1277.37 1122.97 1252 1140.06 1230.45 1159.61C1214.53 1173.98 1202.73 1184.75 1205.31 1203.43C1208.27 1225.13 1213.47 1246.81 1217.29 1268.38C1224.94 1313.21 1233.46 1358.96 1229.21 1404.44" stroke="#61CAE6" stroke-opacity="0.1" stroke-width="5" stroke-miterlimit="10"/>
<path d="M1150.73 794.895C1114.06 821.433 1077.64 856.924 1060.38 893.296C1057.16 900.304 1050.21 912.878 1052.86 920.755C1058.36 937.298 1087.87 938.48 1107.05 942.257C1133.66 947.415 1193.01 949.379 1210.6 968.315C1218.44 976.804 1218.01 986.553 1225.51 996.098C1240 1014.4 1271.16 1027.55 1274.82 1050.57C1277.56 1067.4 1258.56 1082.98 1245.73 1094.68C1224.17 1114.5 1199.15 1131.98 1177.59 1151.66C1161.85 1166.03 1149.36 1176.81 1151.77 1195.49C1154.38 1217.19 1159.41 1238.88 1162.88 1260.57C1170.02 1305.68 1177.51 1351.7 1173.09 1397.18" stroke="#61CAE6" stroke-opacity="0.1" stroke-width="5" stroke-miterlimit="10"/>
<path d="M1104.99 791.753C1070.2 815.641 1038.79 852.667 1024.44 886.51C1021.4 893.648 1013.93 907.017 1017.27 913.966C1023.95 928.26 1062.11 932.787 1076.46 935.949C1093.74 939.875 1142.44 946.413 1154.98 959.732C1161.25 966.392 1161.04 981.143 1164.05 989.017C1171.11 1007.52 1188.52 1024.75 1190.59 1044.35C1194.55 1081.71 1141.1 1121.44 1118.96 1152.46C1107.54 1168.36 1101.95 1178.95 1102.97 1196.98C1103.82 1214.62 1107.43 1232.37 1109.15 1250.13C1113.15 1292.37 1115.95 1334.88 1111.85 1377.19" stroke="#61CAE6" stroke-opacity="0.1" stroke-width="5" stroke-miterlimit="10"/>
<path d="M1054.82 793.393C1028.11 815.89 1007 846.897 996.056 875.968C993.527 882.444 987.107 897.251 989.24 904.212C993.684 918.789 1021.5 924.068 1036.55 928.936C1055.06 934.958 1085.3 940.61 1092.86 956.608C1096.2 963.689 1091.15 976.903 1090.35 984.154C1087.79 1006.56 1087.31 1029.22 1084.23 1051.63C1079.7 1084.33 1067.58 1116.71 1060.63 1149.17C1053.84 1181.23 1057.05 1211.75 1056.14 1244.03C1055.25 1278.93 1051.77 1313.86 1046.22 1348.55" stroke="#61CAE6" stroke-opacity="0.1" stroke-width="5" stroke-miterlimit="10"/>
<path d="M1003.09 795.968C988.467 818.883 975.569 842.177 968.897 867.259C962.723 890.229 962.15 903.14 987.986 918.182C1000.13 925.315 1022.63 934.856 1024.48 948.535C1025.78 958.532 1016.24 970.997 1011.31 979.733C997.389 1004.09 977.589 1027.05 968.681 1052.94C956.413 1088.61 987.133 1128.63 1000.71 1161.56C1021.7 1212.34 992.004 1266.47 978.141 1316.5" stroke="#61CAE6" stroke-opacity="0.1" stroke-width="5" stroke-miterlimit="10"/>
<path d="M952.038 796.036C954.457 815.504 942.429 839.712 939.676 859.491C937.084 877.951 934.285 892.726 945.65 909.611C962.611 935.005 955.334 950.479 933.81 973.588C910.408 998.821 860.663 1029.17 854.222 1060.83C846.947 1095.53 909.726 1132.89 936.167 1157.54C949.213 1169.67 962.421 1180.61 959.638 1197.1C957.843 1208.44 951.048 1219.96 944.24 1230.03C931.473 1248.71 916.964 1265.57 908.351 1285.79" stroke="#61CAE6" stroke-opacity="0.1" stroke-width="5" stroke-miterlimit="10"/>
<path d="M904.548 789.75C913.48 804.682 907.831 828.569 906.425 844.648C902.504 887.878 902.37 930.151 864.389 964.471C847.109 980.036 827.225 993.78 808.728 1008.3C795.197 1018.83 759.717 1043.64 756.417 1060.13C753.616 1074.65 770.623 1086.08 782.091 1095.33C812.495 1119.55 853.857 1134.71 884.261 1158.93C895.903 1168.31 909.262 1176.88 906.973 1190.86C905.174 1201.67 895.252 1210.72 885.834 1218.31C866.484 1233.89 849.645 1241.02 838.793 1261.66" stroke="#61CAE6" stroke-opacity="0.1" stroke-width="5" stroke-miterlimit="10"/>
<path d="M862.324 774.593C868.682 790.997 864.205 810.923 861.596 827.539C854.915 870.662 847.758 918.399 807.693 951.158C789.031 966.471 768.631 980.352 748.927 994.885C734.534 1005.55 697.67 1029.85 693.857 1046.87C690.543 1061.79 707.028 1072.7 718.843 1082.2C749.942 1106.94 793.198 1121.83 823.781 1146.7C835.771 1156.47 848.437 1164.79 844.947 1179.3C842.289 1190.52 831.503 1199.44 821.221 1206.91C799.971 1222.11 782.605 1228.2 771.07 1249.64" stroke="#61CAE6" stroke-opacity="0.1" stroke-width="5" stroke-miterlimit="10"/>
<path d="M821.63 756.92C814.162 770.288 803.581 782.763 797.674 797.171C788.729 818.849 785.968 837.837 787.555 860.605C789.731 891.401 785.755 909.479 759.755 933.55C734.098 957.355 690.656 979.083 676.267 1009.11C660.185 1042.7 722.836 1085.07 745.479 1109.35C760.982 1126.07 773.695 1139.52 766.116 1159.74C762.412 1169.78 756.634 1179.31 750.338 1188.72C736.213 1209.92 719.827 1228.9 710.201 1251.64" stroke="#61CAE6" stroke-opacity="0.1" stroke-width="5" stroke-miterlimit="10"/>
<path d="M780.763 739.248C758.304 735.238 737.365 746.753 724.895 760.166C705.255 781.81 709.577 801.919 718.077 826.337C729.233 858.236 740.675 883.681 716.45 913.267C702.974 929.85 685.681 943.966 676.707 962.484C657.743 1001.64 680.571 1046.34 685.242 1085.93C691.788 1142.1 664.584 1204.64 652.667 1260.06" stroke="#61CAE6" stroke-opacity="0.1" stroke-width="5" stroke-miterlimit="10"/>
<path d="M739.9 721.972C714.963 711.004 676.842 710.823 654.379 725.512C620.085 747.947 641.055 777.914 654.234 804.659C664.775 825.898 681.727 850.238 679.177 873.439C678.377 880.294 673.437 887.187 672.119 894.047C670.145 904.6 671.792 914.988 669.128 925.548C665.461 939.672 656.615 953.316 650.703 967.065C640.234 991.918 631.321 1017.15 621.889 1042.26C607.232 1080.84 599.243 1112.92 598.226 1152.96C597.189 1190.77 598.392 1228.42 594.594 1266.12" stroke="#61CAE6" stroke-opacity="0.1" stroke-width="5" stroke-miterlimit="10"/>
<path d="M699.217 705.484C669.45 694.56 626.788 688.099 597.778 703.506C559.668 723.605 578.899 752.007 593.807 779.264C606.084 801.672 627.02 827.952 626.211 852.849C625.936 860.621 617.595 872.812 620.764 879.894C626.049 892.094 635.834 887.001 631.51 904.687C620.53 949.297 576.092 994.343 552.315 1035.38C509.857 1108.59 543.672 1185.59 530.911 1262.08" stroke="#61CAE6" stroke-opacity="0.1" stroke-width="5" stroke-miterlimit="10"/>
<path d="M658.37 690.051C627.405 680.06 584.651 682.554 558.238 699.123C521.021 722.506 540.584 749.589 556.369 778.418C573.733 810.129 600.597 843.467 579.516 877.371C575.947 883.198 572.537 887.574 569.836 894.052C549.565 941.249 510.078 980.718 478.214 1023.81C450.781 1061.06 444.485 1089.56 454.006 1131.48C463.523 1172.88 486.316 1213.76 477.733 1256.38" stroke="#61CAE6" stroke-opacity="0.1" stroke-width="5" stroke-miterlimit="10"/>
<path d="M617.537 676.067C586.642 673.845 554.482 684.276 532.726 700.803C525.188 706.534 515.774 714.521 511.706 722.459C502.386 740.848 515.478 757.981 524.775 775.148C536.704 797.296 597.354 866.279 547.852 885.428C527.742 893.248 512.998 884.163 499.012 901.541C485.538 918.388 476.534 933.614 460.296 949.959C436.71 973.877 410.697 996.5 387.285 1020.55C372.417 1035.83 352.569 1053.52 349.299 1073.44C345.873 1095.06 360.208 1116.14 371.762 1134.86C395.738 1173.1 439.033 1211.29 439.777 1255.27" stroke="#61CAE6" stroke-opacity="0.1" stroke-width="5" stroke-miterlimit="10"/>
<path d="M576.892 663.793C551.646 675.874 528.978 686.878 510.346 705.615C502.14 713.722 492.227 723.689 488.003 733.472C478.206 756.344 502.083 783.519 513.993 803.56C529.758 830.15 578.039 885.681 520.025 898.19C489.039 904.924 456.994 890.07 430.257 908.88C423.746 913.68 418.623 919.389 415.06 925.874C401.381 939.167 386.49 951.813 370.384 963.679C340.921 986.333 310.07 1007.95 281.649 1031.38C266.24 1044.03 241.041 1061.25 243.287 1080.72C245.527 1099.53 265.004 1117 279.794 1131.22C319.986 1169.57 392.073 1206.45 408.048 1256.22" stroke="#61CAE6" stroke-opacity="0.1" stroke-width="5" stroke-miterlimit="10"/>
<path d="M536.265 653.494C522.998 674.158 497.288 692.169 481.43 712.33C474.44 721.348 464.187 731.976 460.311 742.02C453.238 761.047 472.606 785.498 482.236 801.345C496.947 825.838 519.436 852.236 525.202 879.443C529.529 900.079 511.635 904.982 489.234 907.424C452.016 911.712 398.729 893.89 365.438 912.76C346.733 923.333 332.583 941.766 315.102 954.171C272.94 983.92 224.87 1008.85 183.232 1039.25C165.925 1051.92 140.518 1065.19 148.466 1085.79C155.534 1104.43 184.856 1123.39 202.384 1135.21C236.227 1158.22 273.147 1178.16 308.358 1199.83C334.723 1216.06 360.041 1230.97 372.853 1255.35" stroke="#61CAE6" stroke-opacity="0.1" stroke-width="5" stroke-miterlimit="10"/>
<path d="M495.658 645.434C478.086 666.927 461.208 688.808 444.331 710.69C437.343 719.972 426.225 730.344 421.833 740.524C413.552 759.431 433.96 784.531 443.416 800.116C458.473 824.738 481.656 851.524 487.424 878.995C491.933 900.683 472.477 904.547 449.556 906.73C408.539 910.525 344.182 889.248 307.458 909.992C288.581 920.698 274.433 939.263 255.915 951.415C210.476 981.193 158.427 1004.84 113.684 1035.27C96.0269 1047.28 69.0718 1061.09 75.813 1081.71C82.0212 1100.61 117.213 1120.18 134.729 1130.69C173.056 1153.65 214.973 1173.03 254.839 1194.39C283.265 1209.68 312.367 1223.5 324.158 1249.34" stroke="#61CAE6" stroke-opacity="0.1" stroke-width="5" stroke-miterlimit="10"/>
<path d="M455.076 640.27C434.564 660.737 417.177 683.545 399.264 705.436C391.928 714.326 379.949 724.838 375.553 734.623C367.61 752.736 386.464 777.586 395.227 792.915C408.897 816.759 429.135 842.123 434.72 868.411C439.23 890.23 419.769 893.567 396.679 896.147C355.496 900.602 295.832 883.365 258.753 902.927C239.355 913.243 224.342 931.552 205.824 943.704C162.273 972.412 112.807 995.642 69.7795 1025C51.951 1037.15 24.8198 1050.56 32.0808 1071.44C38.4568 1089.82 69.1571 1108.63 86.5056 1119.67C121.205 1142.01 159.496 1161.02 195.564 1182.02C222.787 1197.84 248.79 1212.23 261.434 1237" stroke="#61CAE6" stroke-opacity="0.1" stroke-width="5" stroke-miterlimit="10"/>
<path d="M414.522 638.004C393.139 657.556 375.228 679.711 356.965 700.947C349.113 710.104 337.474 719.955 332.045 730.012C321.022 750.788 340.047 775.505 350.055 795.036C366.208 826.364 402.513 873.707 339.465 882.706C298.295 888.61 245.584 877.235 209.542 897.183C184.828 910.84 164.501 932.753 140.145 947.854C108.071 967.767 74.432 986.376 43.2283 1007.2C26.9413 1018.15 -3.7843 1034.63 -1.01831 1054.35C1.73932 1073.16 24.996 1089.02 41.3252 1101.77C87.7054 1137.83 170.254 1168.03 191.755 1218.54" stroke="#61CAE6" stroke-opacity="0.1" stroke-width="5" stroke-miterlimit="10"/>
<path d="M374.17 639.028C351.409 658.856 332.124 681.549 312.484 703.193C305.482 710.894 295.036 719.285 290.113 728.021C280.775 744.436 285.719 757.033 292.252 773.699C305.676 808.475 341.265 852.927 279.651 867.84C242.992 876.732 191.702 869.953 161.197 891.695C142.859 904.767 128.859 920.565 109.485 933.514C81.3692 952.469 51.5143 969.859 23.5732 989.076C6.77361 1000.55 -21.717 1016.22 -23.9551 1035.73C-26.3537 1056.56 -3.06843 1075.57 12.76 1090.18C48.4172 1123.04 108.019 1152.53 119.457 1196.54" stroke="#61CAE6" stroke-opacity="0.1" stroke-width="5" stroke-miterlimit="10"/>
<path d="M333.851 643.739C311.262 663.565 291.107 685.477 270.774 706.731C246.682 731.971 237.287 742.064 244.483 774.79C251.861 808.568 267.811 836.605 219.844 853.896C184.943 866.459 140.953 865.672 114.09 889.752C75.7646 924.075 31.1702 951.87 -9.58569 984.504C-47.9437 1015.27 -46.1672 1040.01 -18.0773 1075.32C7.046 1106.82 45.5863 1134.26 47.6605 1172.83" stroke="#61CAE6" stroke-opacity="0.1" stroke-width="5" stroke-miterlimit="10"/>
<path d="M293.741 652.53C271.667 671.957 250.984 692.688 230.643 713.153C222.609 721.127 212.511 729.778 205.862 738.398C195.464 752.057 195.543 760.748 196.205 776.808C197.33 805.769 195.265 825.278 162.302 842.302C132.601 857.715 99.1908 863.417 75.5842 885.096C45.6474 912.496 14.3154 938.196 -17.1808 964.819C-49.8758 992.375 -65.0015 1017.27 -51.2184 1053.62C-38.6735 1086.56 -14.101 1114.39 -19.643 1150" stroke="#61CAE6" stroke-opacity="0.1" stroke-width="5" stroke-miterlimit="10"/>
<path d="M253.67 665.536C232.451 684.164 211.926 703.314 191.748 722.723C174.648 739.076 156.495 753.463 150.302 774.326C142.94 799.414 133.957 817.01 108.765 835.017C85.7995 851.291 57.0982 862.745 38.649 882.533C12.6851 910.555 -16.9223 936.24 -43.0599 964.132C-63.3907 985.649 -77.6719 1008.56 -78.4634 1035.43C-79.3785 1067.71 -68.9284 1097.9 -79.3317 1129.99" stroke="#61CAE6" stroke-opacity="0.1" stroke-width="5" stroke-miterlimit="10"/>
<path d="M213.813 683.148C193.788 700.317 173.936 717.617 154.605 735.307C120.22 766.697 96.2226 802.339 61.835 833.466C19.2356 872.042 -19.0508 910.711 -55.5792 953.051C-75.8909 976.676 -93.9427 1002.26 -103.18 1029.73C-112.757 1057.87 -116.118 1086.74 -127.077 1114.62" stroke="#61CAE6" stroke-opacity="0.1" stroke-width="5" stroke-miterlimit="10"/>
</g>
<path style="mix-blend-mode:color-dodge" d="M988.662 932.41C992.184 917.88 950.241 899.934 894.98 892.328C839.72 884.722 792.067 890.335 788.545 904.865C785.023 919.395 826.966 937.34 882.227 944.947C937.488 952.553 985.14 946.94 988.662 932.41Z" fill="url(#paint4_radial_171_3)"/>
<path style="mix-blend-mode:color-dodge" d="M489.479 905.914C495.152 882.508 427.467 853.585 338.3 841.311C249.134 829.038 172.251 838.063 166.578 861.469C160.905 884.875 228.59 913.799 317.756 926.072C406.923 938.345 483.806 929.32 489.479 905.914Z" fill="url(#paint5_radial_171_3)"/>
</g>
</g>
<rect x="4.5" y="0.5" width="1439" height="1023" stroke="black"/>
</g>
<defs>
<filter id="filter0_d_171_3" x="0" y="0" width="1448" height="1032" filterUnits="userSpaceOnUse" color-interpolation-filters="sRGB">
<feFlood flood-opacity="0" result="BackgroundImageFix"/>
<feColorMatrix in="SourceAlpha" type="matrix" values="0 0 0 0 0 0 0 0 0 0 0 0 0 0 0 0 0 0 127 0" result="hardAlpha"/>
<feOffset dy="4"/>
<feGaussianBlur stdDeviation="2"/>
<feComposite in2="hardAlpha" operator="out"/>
<feColorMatrix type="matrix" values="0 0 0 0 0 0 0 0 0 0 0 0 0 0 0 0 0 0 0.25 0"/>
<feBlend mode="normal" in2="BackgroundImageFix" result="effect1_dropShadow_171_3"/>
<feBlend mode="normal" in="SourceGraphic" in2="effect1_dropShadow_171_3" result="shape"/>
</filter>
<linearGradient id="paint0_linear_171_3" x1="-787" y1="1280" x2="1864" y2="121" gradientUnits="userSpaceOnUse">
<stop offset="0.0045899" stop-color="#ED797C"/>
<stop offset="0.393944" stop-color="#1E4E5E"/>
<stop offset="0.538306" stop-color="#02485A"/>
<stop offset="0.654876" stop-color="#02485A"/>
<stop offset="0.878068" stop-color="#5C3A67" stop-opacity="0.848305"/>
<stop offset="0.935234" stop-color="#EE227D" stop-opacity="0.6"/>
<stop offset="1" stop-color="#752C36"/>
</linearGradient>
<linearGradient id="paint1_linear_171_3" x1="641.178" y1="944.385" x2="2187" y2="-133" gradientUnits="userSpaceOnUse">
<stop stop-color="#731A3D" stop-opacity="0"/>
<stop offset="0.642825" stop-color="#731A3D" stop-opacity="0.41045"/>
<stop offset="1" stop-color="#731A3D" stop-opacity="0.5"/>
</linearGradient>
<linearGradient id="paint2_linear_171_3" x1="699.5" y1="436.5" x2="-447" y2="1523.5" gradientUnits="userSpaceOnUse">
<stop stop-color="#ED797C" stop-opacity="0"/>
<stop offset="0.736109" stop-color="#CD6164" stop-opacity="0.63"/>
<stop offset="1" stop-color="#C75D5F"/>
</linearGradient>
<linearGradient id="paint3_linear_171_3" x1="351.5" y1="664" x2="-408.124" y2="1405.48" gradientUnits="userSpaceOnUse">
<stop stop-color="#ED797C" stop-opacity="0"/>
<stop offset="0.756294" stop-color="#CD6164" stop-opacity="0.63"/>
<stop offset="1" stop-color="#C75D5F"/>
</linearGradient>
<radialGradient id="paint4_radial_171_3" cx="0" cy="0" r="1" gradientUnits="userSpaceOnUse" gradientTransform="translate(981.933 532.855) rotate(7.83722) scale(101.002 26.6148)">
<stop stop-color="#70CDDD"/>
<stop offset="1" stop-color="white" stop-opacity="0"/>
</radialGradient>
<radialGradient id="paint5_radial_171_3" cx="0" cy="0" r="1" gradientUnits="userSpaceOnUse" gradientTransform="translate(421.808 497.497) rotate(7.83722) scale(162.973 42.9446)">
<stop stop-color="#70CDDD"/>
<stop offset="1" stop-color="white" stop-opacity="0"/>
</radialGradient>
<clipPath id="clip0_171_3">
<rect x="4" width="1440" height="1024" fill="white"/>
</clipPath>
<clipPath id="clip1_171_3">
<rect width="1672.35" height="893.35" fill="white" transform="translate(-170 527.148) rotate(-0.518982)"/>
</clipPath>
</defs>
</svg>
