<?xml version="1.0" encoding="UTF-8"?>
<svg id="Layer_2" data-name="Layer 2" xmlns="http://www.w3.org/2000/svg" xmlns:xlink="http://www.w3.org/1999/xlink" viewBox="0 0 676.98 660.46">
  <defs>
    <style>
      .cls-1 {
        fill: url(#linear-gradient-2);
      }

      .cls-2 {
        fill: #e8a55d;
      }

      .cls-3 {
        fill: url(#linear-gradient);
      }
    </style>
    <linearGradient id="linear-gradient" x1="338.09" y1="254.46" x2="338.09" y2="660.46" gradientUnits="userSpaceOnUse">
      <stop offset=".41" stop-color="#d58a4b"/>
      <stop offset="1" stop-color="#7d3913"/>
    </linearGradient>
    <linearGradient id="linear-gradient-2" x1="338.49" y1="0" x2="338.49" y2="511.61" xlink:href="#linear-gradient"/>
  </defs>
  <g id="letter_and_hand" data-name="letter and hand">
    <g>
      <rect class="cls-3" x=".41" y="254.46" width="675.36" height="406"/>
      <path class="cls-1" d="M0,276.81c.14-7.45,.27-14.9,.41-22.35,66.93-67.74,125.85-120.19,169.17-156.95C271.82,10.74,300.29,.26,329.02,.01c39.09-.34,66.27,18.37,161.27,95.06,51.57,41.63,114.46,93.34,185.62,154.02,.35,8.56,.71,17.11,1.06,25.67-44.12,41.53-97.64,86.71-161.25,131.34-62.53,43.88-122.21,78.39-175.5,105.51-83.36-33.05-184.36-86.33-280.19-174.15-22.02-20.18-41.97-40.53-60.04-60.65Z"/>
      <path class="cls-2" d="M.41,254.46c67.31-67.72,126.42-120.21,169.77-156.95C255.93,24.81,289.57,5.61,315.46,1.2c2.52-.43,7.51-1.08,14.15-1.18,47.62-.76,82.96,31.02,104.69,50.01,52.44,45.82,110.13,85.35,162.77,130.94,36.57,31.67,65.23,56.4,78.83,68.13-9.82,.1-19.63,.19-29.45,.29-73.5-59.03-131.33-106.68-168.5-137.54C391.2,39.82,366.87,17.7,328.06,18.68c-37.28,.94-60.32,22.49-143.83,97.96-31.26,28.26-84.64,76.4-154.34,138.68-9.83-.29-19.65-.58-29.48-.87Z"/>
    </g>
  </g>
</svg>