<?xml version="1.0" encoding="UTF-8"?>
<svg xmlns="http://www.w3.org/2000/svg" viewBox="0 0 456.93 446.5">
  <defs>
    <style>
      .cls-1 {
        isolation: isolate;
      }

      .cls-2 {
        mix-blend-mode: soft-light;
      }

      .cls-3 {
        fill: #fff;
        stroke-width: 0px;
      }
    </style>
  </defs>
  <g class="cls-1">
    <g id="Layer_2" data-name="Layer 2">
      <g id="Typeface">
        <g class="cls-2">
          <circle class="cls-3" cx="224.18" cy="214.45" r="21.09"/>
          <rect class="cls-3" x="139.2" y="314.85" width="231.42" height="13.06" transform="translate(488.3 -15.95) rotate(73.1)"/>
          <path class="cls-3" d="M406.71,320.84c-7.75,13.73-20.94,33.47-42.18,52.35-8,7.11-34.42,29.46-75.98,42.64-62.95,19.95-116.03,4.72-131.51.04-16.21-4.9-29.2-10.85-38.35-15.6-2.2,6.02-4.4,12.05-6.6,18.07,17.75,9.73,50.51,24.67,94.14,27.64,49.43,3.36,86.18-10.46,102.49-16.8,19.42-7.55,55.2-21.93,86.57-57.25,14.25-16.05,23.32-31.61,28.89-42.71"/>
          <path class="cls-3" d="M131.3,377.72c-12.04-6.79-29.34-18.37-45.89-37.02-6.23-7.03-25.81-30.23-37.33-66.75-17.44-55.32-4-102,.12-115.62,4.32-14.26,9.55-25.69,13.73-33.74-5.28-1.93-10.57-3.85-15.85-5.78-8.56,15.61-21.71,44.44-24.37,82.79-3.01,43.46,9.08,75.75,14.62,90.08,6.6,17.06,19.18,48.5,50.14,76.04,14.07,12.51,27.71,20.47,37.45,25.35"/>
          <path class="cls-3" d="M385.29,304.61c7.11-11.86,16.45-30.46,21.69-54.79,1.98-9.17,7.63-38.95-.16-76.22-11.8-56.45-46.1-90.1-56.29-99.82-10.66-10.17-20.74-17.44-28.27-22.32,3.63-4.29,7.26-8.58,10.89-12.87,14.99,9.23,40.37,27.59,61.31,59.4,23.72,36.05,28.96,69.95,31.13,85.09,2.58,18.02,6.98,51.44-6.4,90.62-6.08,17.8-14.02,31.46-20.06,40.52"/>
          <path class="cls-3" d="M359.43,292.84c-10.67,18.95-22.7,31.41-31.21,38.96-58.49,51.88-136.55,36.7-143.36,35.06-4.59-1.11-9.21-2.5-9.21-2.5-11.88-3.55-21.39-7.9-28.09-11.37-1.64,4.47-3.29,8.94-4.93,13.41,14.45,6.48,61.53,25.42,119.75,10.98,67.66-16.79,102.18-66.71,109.83-78.41"/>
          <path class="cls-3" d="M281.89,106.63c-15.06-7.62-28.18-10.51-36.91-11.75-59.98-8.49-103.35,34.21-107,38.14-2.46,2.65-4.8,5.49-4.8,5.49-6.06,7.29-10.26,14.1-13.04,19.15-2.99-2.17-5.99-4.33-8.98-6.5,6.43-10.25,28.34-42.27,71.88-57.63,50.6-17.85,94.39-.48,104.37,3.77"/>
          <path class="cls-3" d="M88.99,179.88c-4.04,14.48-5.39,26.56-5.86,34.77-1.93,33.6,7.73,56.18,10.94,63.42,5.94,13.41,12.58,21.16,14.26,23.08,8.16,9.29,16.56,14.17,22.35,16.78.04,2.95.08,5.91.12,8.86-8.22-3.5-30.65-14.81-44.29-46.69-19.32-45.17-5.67-95.84-3.3-104.22"/>
          <path class="cls-3" d="M263.21,129.98c9.72,7.91,16.38,15.58,20.59,21.02,17.22,22.29,20.92,43.04,22.03,49.75,2.05,12.43.94,21.31.64,23.53-1.48,10.75-5.22,18.56-8.15,23.43,1.36,2.07,2.73,4.14,4.09,6.21,4.26-6.76,15.04-26.44,9.81-55.74-7.41-41.52-41.09-69.45-46.74-74.01"/>
          <path class="cls-3" d="M222.12,301.36c-13.88,0-27.96-3.31-41.03-10.29h0c-20.6-11-35.69-29.36-42.48-51.71-6.79-22.35-4.47-46,6.53-66.6,11-20.6,29.36-35.69,51.71-42.48,22.35-6.79,46-4.47,66.6,6.53,42.53,22.71,58.66,75.78,35.95,118.31-15.72,29.45-46.01,46.24-77.27,46.24ZM182.5,288.42c41.07,21.93,92.32,6.35,114.25-34.71,21.93-41.07,6.35-92.32-34.71-114.25-19.9-10.62-42.74-12.86-64.31-6.3-21.58,6.56-39.31,21.12-49.93,41.02s-12.86,42.74-6.3,64.31c6.56,21.58,21.13,39.31,41.02,49.94h0Z"/>
          <path class="cls-3" d="M227.87,365.28c-23.71,0-47.76-5.66-70.12-17.6-35.1-18.74-60.83-49.98-72.45-87.96-11.62-37.98-7.74-78.16,10.94-113.13,18.67-34.97,49.9-60.55,87.92-72.03,38.02-11.48,78.29-7.47,113.39,11.27,72.46,38.69,100.06,128.9,61.51,201.08-26.65,49.92-78.06,78.35-131.2,78.35ZM227.38,71.16c-14.17,0-28.41,2.08-42.35,6.29-37.26,11.24-67.85,36.3-86.14,70.57-18.29,34.26-22.1,73.62-10.71,110.84,11.39,37.21,36.6,67.82,70.99,86.19,21.9,11.69,45.48,17.24,68.71,17.24,52.07,0,102.43-27.85,128.55-76.76,37.76-70.73,10.72-159.12-60.28-197.03-21.53-11.5-45.05-17.33-68.77-17.33Z"/>
          <path class="cls-3" d="M220.18,440.92c-35.72,0-71.11-8.78-103.5-26.08-51.92-27.72-89.94-74-107.05-130.32C-7.49,228.21-1.64,168.6,26.08,116.68,53.8,64.75,100.08,26.74,156.4,9.62c56.31-17.11,115.93-11.27,167.85,16.45,51.92,27.72,89.94,74,107.05,130.32,17.11,56.32,11.27,115.93-16.45,167.85-27.72,51.92-74,89.94-130.32,107.05-21.18,6.43-42.82,9.62-64.35,9.62ZM220.82,3.14C143.11,3.14,67.81,44.87,28.72,118.09,1.38,169.3-4.39,228.1,12.49,283.65c16.88,55.55,54.38,101.2,105.59,128.55,105.72,56.45,237.66,16.36,294.11-89.37,56.45-105.72,16.36-237.66-89.37-294.11C290.32,11.37,255.33,3.14,220.82,3.14Z"/>
          <g>
            <circle class="cls-3" cx="195.25" cy="130.08" r="9.85"/>
            <path class="cls-3" d="M195.23,141.43c-1.84,0-3.66-.45-5.33-1.34-5.52-2.95-7.61-9.83-4.67-15.35,2.95-5.52,9.84-7.61,15.35-4.67,5.52,2.95,7.61,9.83,4.67,15.35-1.43,2.67-3.81,4.63-6.71,5.51-1.09.33-2.2.5-3.31.5ZM195.26,121.74c-2.99,0-5.88,1.6-7.38,4.42-2.17,4.06-.63,9.13,3.43,11.29h0c1.97,1.05,4.22,1.27,6.36.62,2.13-.65,3.89-2.09,4.94-4.05,2.17-4.06.63-9.13-3.43-11.29-1.25-.67-2.59-.98-3.92-.98Z"/>
          </g>
          <g>
            <circle class="cls-3" cx="201.39" cy="150.37" r="4.2"/>
            <path class="cls-3" d="M201.39,156.07c-.92,0-1.84-.23-2.68-.67h0c-2.78-1.48-3.83-4.94-2.35-7.72,1.48-2.78,4.94-3.83,7.72-2.35,1.34.72,2.33,1.92,2.77,3.37.44,1.46.29,3-.43,4.35-.72,1.34-1.92,2.33-3.37,2.77-.55.17-1.11.25-1.67.25ZM201.4,147.66c-.97,0-1.9.52-2.39,1.43-.7,1.32-.2,2.96,1.11,3.66h0c.64.34,1.37.41,2.06.2.69-.21,1.26-.68,1.6-1.31.7-1.32.2-2.96-1.11-3.66-.41-.22-.84-.32-1.27-.32Z"/>
          </g>
          <g>
            <circle class="cls-3" cx="207.04" cy="164.7" r="1.68"/>
            <path class="cls-3" d="M207.03,167.88c-.5,0-1.02-.12-1.49-.38-1.55-.83-2.13-2.76-1.31-4.3.83-1.55,2.76-2.13,4.31-1.31.75.4,1.3,1.07,1.55,1.88.25.81.16,1.67-.24,2.42-.57,1.07-1.67,1.68-2.81,1.68ZM207.04,164.51c-.07,0-.13.04-.16.1-.04.08,0,.21.07.25.09.05.2.01.25-.07.05-.09.01-.2-.07-.25-.03-.01-.06-.02-.08-.02Z"/>
          </g>
          <path class="cls-3" d="M244.43,189.63c9.09,8.75,12.79,22.39,9.94,34.62-2.89,12.43-12.67,21.86-24.81,25.41-6.74,1.97-13.9,2.07-20.63-.02-3.08-.96-4.4,3.87-1.33,4.82,13.61,4.23,28.94.4,39.59-8.89,10.97-9.58,15.09-24.62,12.13-38.68-1.65-7.84-5.57-15.23-11.36-20.8-2.32-2.23-5.86,1.3-3.54,3.54h0Z"/>
          <path class="cls-3" d="M233.1,178.14c-13.98-3.05-29.11,1.92-38.92,12.26-9.97,10.5-12.93,25.76-8.73,39.49,2.33,7.61,6.76,14.63,12.98,19.65,1.05.85,2.51,1.03,3.54,0,.88-.88,1.06-2.68,0-3.54-9.86-7.96-14.78-21.1-13.1-33.61,1.68-12.5,10.58-22.93,22.21-27.51,6.56-2.58,13.77-3.44,20.69-1.93,3.14.68,4.48-4.13,1.33-4.82h0Z"/>
          <g>
            <circle class="cls-3" cx="276.52" cy="245.8" r="9.85"/>
            <path class="cls-3" d="M276.5,257.14c-1.8,0-3.63-.43-5.32-1.33h0c-5.52-2.95-7.61-9.83-4.67-15.35,2.95-5.52,9.83-7.61,15.35-4.67,2.67,1.43,4.63,3.81,5.51,6.71.88,2.9.58,5.97-.85,8.64-2.04,3.82-5.97,6-10.03,6ZM272.59,253.16c4.07,2.17,9.13.63,11.29-3.43,1.05-1.97,1.27-4.22.62-6.36-.65-2.13-2.09-3.89-4.05-4.94-4.06-2.17-9.13-.63-11.29,3.43-2.17,4.06-.63,9.13,3.43,11.29h0Z"/>
          </g>
          <g>
            <rect class="cls-3" x="398.32" y="90.36" width="19.06" height="5.93" rx="1.27" ry="1.27" transform="translate(810.58 -20.08) rotate(151.38)"/>
            <path class="cls-3" d="M401.42,101.54c-.98,0-1.94-.52-2.44-1.44l-1.62-2.97c-.73-1.34-.24-3.03,1.11-3.76l14.49-7.91c.65-.36,1.4-.44,2.11-.23.71.21,1.3.68,1.65,1.33l1.62,2.96c.73,1.34.24,3.03-1.11,3.76l-14.49,7.91c-.42.23-.88.34-1.32.34ZM400.1,95.89l1.4,2.57,14.09-7.69-1.4-2.57-14.09,7.69Z"/>
          </g>
          <g>
            <rect class="cls-3" x="386.6" y="75.05" width="19.06" height="5.93" rx="1.27" ry="1.27" transform="translate(773.65 -65.09) rotate(148.1)"/>
            <path class="cls-3" d="M390.02,86.59c-.93,0-1.83-.46-2.36-1.31l-1.79-2.87c-.39-.63-.52-1.37-.35-2.09.17-.72.61-1.33,1.24-1.73l14.01-8.72c1.3-.81,3.01-.41,3.82.89l1.79,2.87c.81,1.3.41,3.01-.89,3.82l-14.01,8.72c-.46.28-.96.42-1.46.42ZM388.54,81.02l1.55,2.49,13.63-8.49-1.55-2.48-13.63,8.48Z"/>
          </g>
          <g>
            <rect class="cls-3" x="374.03" y="60.5" width="19.06" height="5.93" rx="1.27" ry="1.27" transform="translate(712.11 -144.37) rotate(138.29)"/>
            <path class="cls-3" d="M378.52,72.98c-.76,0-1.53-.31-2.07-.93l-2.25-2.52c-.49-.55-.74-1.27-.7-2,.04-.74.37-1.42.92-1.91l12.32-10.98c1.14-1.02,2.9-.92,3.92.22l2.25,2.52c1.02,1.14.92,2.9-.22,3.92l-12.32,10.98c-.53.47-1.19.7-1.84.7ZM376.59,67.71l1.95,2.18,11.99-10.68-1.95-2.18-11.99,10.68ZM376.42,67.86h0s0,0,0,0Z"/>
          </g>
          <g>
            <rect class="cls-3" x="360" y="46.99" width="19.06" height="5.93" rx="1.27" ry="1.27" transform="translate(659.81 -184.1) rotate(133.42)"/>
            <path class="cls-3" d="M365.08,59.89c-.69,0-1.37-.25-1.91-.76l-2.45-2.32c-.54-.51-.85-1.2-.87-1.94-.02-.74.25-1.44.76-1.98l11.35-11.99c1.05-1.11,2.81-1.16,3.92-.11l2.46,2.32c.54.51.85,1.2.87,1.94.02.74-.25,1.45-.76,1.98l-11.35,11.99c-.54.58-1.28.87-2.02.87ZM362.95,54.78l2.12,2.01,11.04-11.66-2.12-2.01-11.04,11.66ZM362.79,54.95h0,0Z"/>
          </g>
          <g>
            <rect class="cls-3" x="345.58" y="34.99" width="19.06" height="5.93" rx="1.27" ry="1.27" transform="translate(606.14 -216.07) rotate(128.56)"/>
            <path class="cls-3" d="M351.28,48.23c-.63,0-1.23-.21-1.73-.61l-2.64-2.1c-.58-.46-.95-1.12-1.03-1.86-.08-.74.13-1.46.59-2.04h0l10.29-12.91c.95-1.2,2.7-1.39,3.9-.44l2.64,2.11c1.19.95,1.39,2.7.44,3.9l-10.29,12.91c-.46.58-1.12.95-1.86,1.03-.11.01-.21.02-.31.02ZM348.96,43.32l2.29,1.82,10.01-12.55-2.29-1.83-10.01,12.55Z"/>
          </g>
          <g>
            <rect class="cls-3" x="329.07" y="24" width="19.06" height="5.93" rx="1.27" ry="1.27" transform="translate(549.14 -239.59) rotate(123.75)"/>
            <path class="cls-3" d="M335.42,37.54c-.53,0-1.06-.15-1.54-.47l-2.81-1.88c-.62-.41-1.03-1.04-1.18-1.77-.14-.73,0-1.47.42-2.08l9.17-13.72c.41-.62,1.04-1.04,1.77-1.18.73-.14,1.47,0,2.08.42l2.81,1.88c1.27.85,1.62,2.57.77,3.85l-9.17,13.73c-.54.8-1.42,1.23-2.31,1.23ZM332.93,32.83l2.43,1.63,8.92-13.35-2.43-1.62-8.92,13.35Z"/>
          </g>
          <g>
            <rect class="cls-3" x="430.01" y="256.99" width="19.06" height="5.93" rx="1.27" ry="1.27" transform="translate(813.62 607.56) rotate(-167.7)"/>
            <path class="cls-3" d="M447.25,266.14c-.2,0-.4-.02-.59-.06l-16.13-3.52c-1.49-.33-2.44-1.81-2.12-3.3l.72-3.3c.16-.72.59-1.34,1.21-1.74.62-.4,1.37-.53,2.09-.38l16.13,3.52c.72.16,1.34.59,1.74,1.21.4.62.53,1.37.38,2.09l-.72,3.3c-.16.72-.59,1.34-1.21,1.74-.45.29-.97.44-1.49.44ZM431.38,259.68l15.69,3.42.62-2.86-15.69-3.42-.62,2.86ZM431.78,256.77h0,0Z"/>
          </g>
          <g>
            <rect class="cls-3" x="434.1" y="238.23" width="19.06" height="5.93" rx="1.27" ry="1.27" transform="translate(844 548.9) rotate(-170.99)"/>
            <path class="cls-3" d="M451.51,246.93c-.14,0-.29-.01-.44-.03l-16.3-2.59c-1.51-.24-2.54-1.66-2.31-3.17l.53-3.34c.12-.73.51-1.37,1.11-1.81.6-.44,1.33-.61,2.06-.5l16.3,2.59c1.51.24,2.54,1.66,2.3,3.17l-.53,3.34c-.22,1.36-1.4,2.34-2.74,2.34ZM435.47,241.38l15.86,2.52.46-2.89-15.86-2.52-.46,2.89ZM435.7,238.46h0,0Z"/>
          </g>
          <g>
            <rect class="cls-3" x="436.26" y="218.79" width="19.06" height="5.93" rx="1.27" ry="1.27" transform="translate(869.66 482.97) rotate(-174.8)"/>
            <path class="cls-3" d="M453.86,226.96c-.09,0-.17,0-.26-.01l-16.44-1.49c-.74-.07-1.41-.42-1.88-.99-.47-.57-.7-1.29-.63-2.03l.31-3.36c.07-.74.42-1.41.99-1.88.57-.47,1.29-.7,2.03-.63l16.44,1.49c1.52.14,2.65,1.49,2.51,3.01l-.31,3.37c-.07.74-.42,1.41-.99,1.88-.5.42-1.12.64-1.77.64ZM437.66,222.49l15.99,1.45.26-2.91-15.99-1.45-.26,2.91ZM437.7,219.55h0,0Z"/>
          </g>
          <g>
            <rect class="cls-3" x="434.5" y="199.4" width="19.06" height="5.93" rx="1.27" ry="1.27" transform="translate(905.86 359.91) rotate(174.33)"/>
            <path class="cls-3" d="M435.98,207.64c-1.41,0-2.62-1.07-2.76-2.5l-.33-3.36c-.15-1.52.96-2.88,2.49-3.03h0l16.43-1.63c.75-.07,1.46.14,2.03.61.57.47.93,1.13,1,1.87l.33,3.36c.15,1.52-.96,2.88-2.49,3.03l-16.43,1.63c-.09,0-.18.01-.28.01ZM435.89,201.7l.29,2.91,15.98-1.59-.29-2.91-15.98,1.58ZM435.67,201.72h0,0Z"/>
          </g>
          <g>
            <rect class="cls-3" x="431.47" y="180.89" width="19.06" height="5.93" rx="1.27" ry="1.27" transform="translate(908.15 284.04) rotate(169.47)"/>
            <path class="cls-3" d="M433.19,189.79c-1.31,0-2.48-.93-2.73-2.27l-.62-3.32c-.28-1.5.72-2.96,2.22-3.23l16.23-3.02c.73-.13,1.47.02,2.08.44.61.42,1.02,1.05,1.16,1.78l.62,3.32c.28,1.5-.72,2.96-2.22,3.23l-16.23,3.02c-.17.03-.34.05-.51.05ZM432.83,183.88l.54,2.88,15.79-2.93-.54-2.88-15.79,2.93Z"/>
          </g>
          <g>
            <rect class="cls-3" x="426.19" y="161.77" width="19.06" height="5.93" rx="1.27" ry="1.27" transform="translate(899.48 208.37) rotate(164.66)"/>
            <path class="cls-3" d="M428.2,171.32c-1.22,0-2.34-.81-2.68-2.04l-.89-3.26c-.41-1.47.46-3,1.94-3.41h0l15.92-4.37c1.48-.41,3.01.47,3.41,1.94l.89,3.26c.2.71.1,1.46-.26,2.11-.37.64-.96,1.11-1.68,1.3l-15.92,4.37c-.24.07-.49.1-.73.1ZM427.59,165.45l.77,2.82,15.48-4.25-.77-2.82-15.48,4.25Z"/>
          </g>
          <g>
            <rect class="cls-3" x="411.09" y="312.63" width="19.06" height="5.93" rx="1.27" ry="1.27" transform="translate(669.67 778.72) rotate(-155.15)"/>
            <path class="cls-3" d="M427.4,323.37c-.39,0-.79-.08-1.16-.26l-14.98-6.94c-1.39-.64-1.99-2.3-1.35-3.68l1.42-3.07c.31-.67.86-1.18,1.56-1.44.7-.25,1.45-.22,2.12.09l14.98,6.94c1.39.64,1.99,2.29,1.35,3.68l-1.42,3.07c-.47,1.01-1.47,1.61-2.52,1.61ZM412.72,313.55l14.57,6.75,1.23-2.66-14.57-6.75-1.23,2.66ZM413.74,310.8h0,0Z"/>
          </g>
          <g>
            <rect class="cls-3" x="419.16" y="295.2" width="19.06" height="5.93" rx="1.27" ry="1.27" transform="translate(717.79 733.02) rotate(-158.44)"/>
            <path class="cls-3" d="M435.74,305.55c-.34,0-.69-.07-1.02-.2l-15.35-6.07c-1.42-.56-2.12-2.17-1.56-3.6l1.24-3.14c.27-.69.8-1.23,1.48-1.53.68-.29,1.43-.31,2.12-.03l15.35,6.07c.69.27,1.23.79,1.53,1.47.29.68.31,1.43.03,2.12l-1.24,3.14c-.27.69-.79,1.23-1.47,1.53-.35.15-.73.23-1.1.23ZM420.69,296.58l14.93,5.9,1.08-2.72-14.93-5.9-1.08,2.72Z"/>
          </g>
          <g>
            <rect class="cls-3" x="425.49" y="276.7" width="19.06" height="5.93" rx="1.27" ry="1.27" transform="translate(764.09 678.62) rotate(-162.25)"/>
            <path class="cls-3" d="M442.36,286.56c-.28,0-.56-.04-.84-.13l-15.72-5.03c-.71-.23-1.28-.71-1.62-1.37-.34-.66-.4-1.41-.18-2.11l1.03-3.22c.47-1.46,2.03-2.27,3.49-1.8h0l15.72,5.03c.71.23,1.28.71,1.62,1.37.34.66.4,1.41.18,2.12l-1.03,3.22c-.38,1.18-1.47,1.93-2.64,1.93ZM426.93,278.61l15.29,4.89.89-2.79-15.29-4.89-.89,2.79Z"/>
          </g>
          <g>
            <rect class="cls-3" x="422.2" y="143.25" width="19.06" height="5.93" rx="1.27" ry="1.27" transform="translate(885.86 185.42) rotate(166.22)"/>
            <path class="cls-3" d="M424.11,152.59c-.5,0-.99-.14-1.43-.4-.63-.38-1.08-.99-1.26-1.71l-.8-3.28c-.18-.72-.06-1.46.32-2.1.38-.63.99-1.08,1.71-1.26l16.03-3.93c.72-.17,1.46-.06,2.1.32.63.38,1.08.99,1.26,1.71l.8,3.28c.18.72.06,1.46-.32,2.1-.38.63-.99,1.08-1.71,1.26l-16.03,3.93c-.22.05-.44.08-.67.08ZM423.59,146.7l.7,2.84,15.59-3.82-.7-2.84-15.59,3.82ZM423.37,146.76h0,0Z"/>
          </g>
          <g>
            <rect class="cls-3" x="417.63" y="124.6" width="19.06" height="5.93" rx="1.27" ry="1.27" transform="translate(872.94 124.18) rotate(162.94)"/>
            <path class="cls-3" d="M419.77,134.37c-1.19,0-2.29-.77-2.65-1.96l-.99-3.23c-.45-1.46.38-3.02,1.84-3.47l15.78-4.84c1.47-.45,3.02.38,3.47,1.84l.99,3.23c.22.71.15,1.46-.2,2.11-.35.65-.93,1.13-1.64,1.35l-15.78,4.84c-.27.08-.54.12-.81.12ZM419.05,128.52l.86,2.8,15.35-4.71-.86-2.8-15.35,4.71Z"/>
          </g>
          <g>
            <rect class="cls-3" x="408.39" y="108.82" width="19.06" height="5.93" rx="1.27" ry="1.27" transform="translate(843.81 35.78) rotate(154.91)"/>
            <path class="cls-3" d="M411.16,119.59c-.32,0-.64-.06-.95-.17-.7-.25-1.25-.76-1.57-1.43l-1.43-3.06c-.65-1.39-.05-3.04,1.34-3.69h0l14.95-7c.67-.32,1.42-.35,2.12-.1.7.25,1.25.76,1.57,1.43l1.43,3.06c.65,1.39.05,3.04-1.33,3.69l-14.95,7c-.37.17-.77.26-1.17.26ZM410.03,113.86l1.24,2.65,14.54-6.81-1.24-2.65-14.54,6.81ZM409.83,113.96h0s0,0,0,0Z"/>
          </g>
          <g>
            <circle class="cls-3" cx="53.21" cy="104.03" r="4.87"/>
            <path class="cls-3" d="M53.2,110.4c-1.03,0-2.06-.25-2.99-.75h0c-3.1-1.65-4.27-5.52-2.62-8.62.8-1.5,2.14-2.6,3.77-3.09,1.63-.49,3.35-.33,4.85.48,1.5.8,2.6,2.14,3.09,3.77s.33,3.35-.48,4.85c-.8,1.5-2.14,2.6-3.77,3.09-.61.19-1.24.28-1.86.28ZM51.62,107c.79.42,1.7.51,2.57.25.86-.26,1.57-.84,1.99-1.64.42-.79.51-1.71.25-2.57-.26-.86-.84-1.57-1.64-1.99-.79-.42-1.7-.51-2.57-.25-.86.26-1.57.84-1.99,1.64-.88,1.64-.25,3.68,1.38,4.56h0Z"/>
          </g>
          <g>
            <circle class="cls-3" cx="99.02" cy="438.46" r="6.23"/>
            <path class="cls-3" d="M99.01,446.19c-1.23,0-2.47-.29-3.63-.91h0c-3.76-2.01-5.19-6.71-3.18-10.47.97-1.82,2.6-3.16,4.58-3.76,1.98-.6,4.07-.39,5.89.58s3.16,2.6,3.76,4.57c.6,1.98.4,4.07-.58,5.89-1.39,2.61-4.07,4.09-6.84,4.09ZM96.79,442.64c2.3,1.23,5.18.36,6.41-1.95.6-1.12.72-2.4.35-3.61-.37-1.21-1.18-2.2-2.3-2.8-1.12-.6-2.4-.72-3.61-.35-1.21.37-2.21,1.18-2.8,2.3-1.23,2.3-.36,5.18,1.95,6.41h0Z"/>
          </g>
        </g>
      </g>
    </g>
  </g>
</svg>