<?xml version="1.0" encoding="UTF-8"?>
<svg id="Layer_2" data-name="Layer 2" xmlns="http://www.w3.org/2000/svg" xmlns:xlink="http://www.w3.org/1999/xlink" viewBox="0 0 796.98 274.38">
  <defs>
    <style>
      .cls-1 {
        fill: url(#linear-gradient-2);
      }

      .cls-2 {
        stroke: #c94b41;
        stroke-miterlimit: 10;
        stroke-width: 2px;
      }

      .cls-2, .cls-3 {
        fill: #c94b41;
      }

      .cls-4 {
        fill: url(#linear-gradient-6);
      }

      .cls-5 {
        fill: #d46350;
      }

      .cls-6 {
        fill: url(#linear-gradient-5);
      }

      .cls-7 {
        fill: url(#linear-gradient-7);
      }

      .cls-8 {
        fill: url(#linear-gradient-3);
      }

      .cls-9 {
        fill: url(#linear-gradient);
      }

      .cls-10 {
        fill: url(#linear-gradient-4);
      }

      .cls-11 {
        fill: url(#linear-gradient-8);
      }
    </style>
    <linearGradient id="linear-gradient" x1="124.04" y1="218.56" x2="124.04" y2="3.69" gradientTransform="translate(-2.81 -3.03) rotate(.33)" gradientUnits="userSpaceOnUse">
      <stop offset="0" stop-color="#e9a646"/>
      <stop offset=".02" stop-color="#e9a646"/>
      <stop offset=".41" stop-color="#f6dc82"/>
      <stop offset="1" stop-color="#e9a646"/>
    </linearGradient>
    <linearGradient id="linear-gradient-2" x1="71.49" y1="219.25" x2="71.49" y2="36.99" xlink:href="#linear-gradient"/>
    <linearGradient id="linear-gradient-3" x1="212.59" y1="69.83" x2="212.59" y2="215.89" gradientTransform="matrix(1, 0, 0, 1, 0, 0)" xlink:href="#linear-gradient"/>
    <linearGradient id="linear-gradient-4" x1="449.87" y1="69.42" x2="449.87" y2="217.29" gradientTransform="matrix(1, 0, 0, 1, 0, 0)" xlink:href="#linear-gradient"/>
    <linearGradient id="linear-gradient-5" x1="535.67" y1="69.42" x2="535.67" y2="214.84" gradientTransform="matrix(1, 0, 0, 1, 0, 0)" xlink:href="#linear-gradient"/>
    <linearGradient id="linear-gradient-6" x1="621.97" y1="67.17" x2="621.97" y2="214.84" gradientTransform="matrix(1, 0, 0, 1, 0, 0)" xlink:href="#linear-gradient"/>
    <linearGradient id="linear-gradient-7" x1="737.34" y1="68.19" x2="737.34" y2="215.25" gradientTransform="matrix(1, 0, 0, 1, 0, 0)" xlink:href="#linear-gradient"/>
    <linearGradient id="linear-gradient-8" x1="346.06" y1="50.31" x2="346.06" y2="251.69" gradientTransform="matrix(1, 0, 0, 1, 0, 0)" xlink:href="#linear-gradient"/>
  </defs>
  <g id="TENT_DLL" data-name="TENT DLL">
    <g>
      <g>
        <g>
          <g>
            <path class="cls-3" d="M137.09,199.72c-.9-3.23-1.81-6.46-2.73-9.68-.84-2.96-1.72-5.9-2.56-8.86-.85-3-1.67-6.02-2.52-9.02-.82-2.86-1.69-5.71-2.5-8.58-.91-3.23-1.76-6.48-2.68-9.71-.85-3-1.77-5.97-2.61-8.97-1.37-4.87-2.71-9.75-4.07-14.63-1.13-4.01-2.29-8-3.42-12.01-.78-2.77-1.52-5.55-2.31-8.32-1.14-4-2.35-7.97-3.48-11.97-1.12-3.96-2.16-7.94-3.26-11.9-1.38-4.96-2.81-9.91-4.19-14.87-1.49-5.37-2.76-10.81-5.06-15.92-2.93-6.52-6.96-11.99-12.76-15.92-2.27-1.54-2.85-1.44-4.66,.76-.41,.5-.81,1.03-1.2,1.55-3.9,5.19-5.14,11.55-7.01,17.64-.86,2.8-1.64,5.62-2.5,8.42-1.45,4.74-2.95,9.47-4.39,14.22-.88,2.89-1.68,5.82-2.56,8.71-.88,2.9-1.85,5.76-2.74,8.66-.97,3.16-1.87,6.35-2.82,9.52-.88,2.93-1.79,5.86-2.68,8.79-.95,3.12-1.87,6.25-2.86,9.35-.85,2.66-1.53,5.36-2.43,8.01-1.02,2.99-1.76,6.08-2.67,9.12-.92,3.08-1.89,6.14-2.84,9.2-.94,3.02-1.88,6.04-2.81,9.06-.85,2.76-1.7,5.52-2.52,8.28-.91,3.08-1.77,6.18-2.69,9.26-.87,2.9-1.82,5.77-2.69,8.66-1.05,3.49-2,7-4.05,10.05-1.84,2.73-4.36,4.2-7.46,4.2-1.84,0-3.58-.87-5.24-1.77-1.08-.59-1.74-.31-1.68,.93,.09,1.89,.2,3.75,1.15,5.51,1.46,2.7,3.57,4.2,6.34,5.13,3.6,1.2,10.64,.71,13.05-3.33,.52-.87,.99-.84,1.61,.07,1.21,1.77,2.8,3.16,4.76,3.85,3.02,1.06,6.13,1.25,9.17,.08,2.72-1.04,4.75-2.89,5.55-5.97,.2-.78,.15-1.52-.78-1.61-.85-.08-1.54-.51-2.29-.83-4.17-1.83-6.28-5.89-5.6-10.59,.2-1.38,.6-2.67,.99-3.98,.87-2.94,1.67-5.91,2.55-8.85,.92-3.07,2.01-6.09,2.84-9.19,.81-3.02,1.88-5.94,2.68-8.97,1-3.79,2.33-7.49,3.47-11.24,1.2-3.93,2.33-7.88,3.53-11.81,1.1-3.61,2.28-7.2,3.39-10.81,1.23-4.01,2.39-8.05,3.6-12.07,1.12-3.71,2.28-7.41,3.39-11.12,.87-2.9,1.65-5.83,2.53-8.72,.87-2.84,1.87-5.64,2.73-8.49,1.4-4.66,2.73-9.35,4.11-14.02,.14-.48,.33-1.13,.9-1.11,.58,.01,.67,.66,.87,1.14,1.17,2.89,1.88,5.95,2.73,8.94,1.35,4.77,2.81,9.51,4.07,14.32,1.03,3.93,2.33,7.78,3.47,11.67,1.68,5.76,3.32,11.54,5,17.31,.73,2.5-.44,6.2-2.43,7.54-.73,.49-2.11,.75-1.91,1.65,.18,.82,1.57,.52,2.44,.71,2.66,.57,4.96,1.6,6.11,4.54,.41,1.04,.49,2.11,.83,3.14,1.16,3.54,2.32,7.1,3.27,10.7,1.06,4.02,2.28,7.99,3.43,11.98,1.05,3.63,2.09,7.27,3.2,10.89,1.02,3.34,1.93,6.72,2.91,10.08,.35,1.21,.83,2.41,.92,3.72,.28,4.01-2.08,9.31-7.49,9.82-1.58,.15-2.03,1.09-1.38,2.6,.7,1.64,1.73,2.99,3.04,4.15,4.29,3.76,9.43,4.7,14.76,5.01,2.16,.12,4.24-.2,6.31-.8,2.4-.69,4.44-1.87,5.83-4.08,.66-1.05,.94-2.14,.6-3.51-.47-1.94-1.08-3.82-1.61-5.73Z"/>
            <path class="cls-3" d="M44.14,215.99c-1.73,0-3.52-.34-5.34-.98-1.9-.67-3.62-1.94-5.02-3.69-3.41,3.99-10.4,4.43-14.38,3.11-3.42-1.14-5.76-3.05-7.36-5.99-1.19-2.19-1.3-4.5-1.38-6.35-.08-1.68,.7-2.47,1.17-2.79,.6-.41,1.63-.72,3.12,.09,1.51,.82,2.98,1.55,4.39,1.56h.03c2.46,0,4.48-1.15,6-3.4,1.73-2.57,2.62-5.55,3.56-8.71l.24-.82c.43-1.45,.89-2.89,1.34-4.33,.46-1.44,.91-2.89,1.35-4.34,.5-1.67,.98-3.34,1.46-5.01,.4-1.41,.81-2.83,1.23-4.24,.74-2.5,1.5-4.98,2.27-7.47l.26-.83c.65-2.11,1.3-4.21,1.95-6.32l1.72-5.53c.67-2.13,1.33-4.26,1.97-6.41,.33-1.11,.64-2.24,.95-3.36,.53-1.92,1.08-3.9,1.74-5.83,.5-1.47,.95-3.01,1.38-4.5,.34-1.16,.67-2.32,1.04-3.47,.66-2.08,1.29-4.17,1.92-6.27,.31-1.02,.62-2.04,.93-3.07l.98-3.2c.57-1.86,1.14-3.71,1.7-5.57,.41-1.36,.81-2.73,1.21-4.09,.53-1.82,1.06-3.63,1.61-5.44,.44-1.44,.9-2.87,1.36-4.3,.47-1.45,.93-2.9,1.37-4.35,.44-1.44,.86-2.89,1.28-4.34,.42-1.46,.84-2.92,1.28-4.37,.77-2.52,1.55-5.03,2.33-7.54,.69-2.22,1.38-4.45,2.06-6.68,.41-1.34,.8-2.69,1.2-4.04,.43-1.46,.85-2.93,1.3-4.38,.36-1.16,.69-2.33,1.02-3.5,1.44-5.04,2.92-10.26,6.29-14.73,.41-.54,.82-1.09,1.25-1.61,2.4-2.92,3.96-3.17,6.99-1.12,5.7,3.87,10.09,9.33,13.41,16.7,1.96,4.35,3.19,8.93,4.39,13.36,.26,.95,.51,1.89,.77,2.84,.71,2.56,1.43,5.11,2.16,7.66,.68,2.4,1.36,4.8,2.03,7.21,.5,1.79,.99,3.59,1.47,5.39,.59,2.17,1.18,4.34,1.79,6.51,.63,2.22,1.28,4.44,1.93,6.66,.52,1.77,1.04,3.54,1.54,5.31,.44,1.54,.86,3.08,1.29,4.62,.34,1.24,.68,2.47,1.03,3.71,.52,1.84,1.05,3.68,1.57,5.53,.62,2.16,1.24,4.32,1.84,6.49,.63,2.24,1.25,4.49,1.87,6.73,.73,2.63,1.46,5.26,2.2,7.89,.43,1.51,.87,3.01,1.32,4.52,.44,1.48,.88,2.96,1.3,4.45,.47,1.65,.91,3.29,1.36,4.94,.43,1.59,.87,3.18,1.31,4.77,.43,1.52,.88,3.03,1.32,4.55,.4,1.34,.79,2.68,1.17,4.03,.45,1.56,.88,3.12,1.31,4.68,.4,1.45,.8,2.9,1.21,4.34,.43,1.53,.88,3.05,1.32,4.57,.42,1.43,.83,2.86,1.24,4.29,.92,3.23,1.83,6.46,2.73,9.7h0c.19,.68,.39,1.36,.59,2.04,.36,1.21,.73,2.47,1.04,3.75,.43,1.78,.16,3.43-.85,5.02-1.5,2.37-3.74,3.96-6.85,4.86-2.44,.7-4.7,.98-6.88,.86-5.09-.3-10.95-1.18-15.81-5.44-1.56-1.37-2.75-2.99-3.53-4.82-.73-1.71-.43-2.89-.04-3.58,.38-.68,1.19-1.52,2.9-1.68,4.39-.41,6.07-4.81,5.86-7.8-.05-.77-.31-1.57-.58-2.41-.09-.3-.19-.59-.27-.89-.38-1.3-.75-2.6-1.12-3.9-.58-2.06-1.16-4.11-1.79-6.15-1.05-3.41-2.05-6.89-3.02-10.25l-.19-.67c-.35-1.22-.71-2.43-1.07-3.65-.8-2.73-1.64-5.56-2.38-8.38-.96-3.64-2.17-7.33-3.23-10.59-.18-.56-.29-1.08-.4-1.59-.11-.52-.22-1.02-.38-1.44-.73-1.87-2.08-2.82-4.82-3.41-.17-.04-.38-.04-.59-.04-.84-.03-2.81-.11-3.24-2.09-.47-2.17,1.55-3.11,2.22-3.42,.17-.08,.34-.15,.48-.24,1.3-.87,2.18-3.7,1.68-5.4-.75-2.58-1.49-5.17-2.24-7.76-.92-3.18-1.83-6.37-2.76-9.55-.42-1.44-.87-2.88-1.31-4.32-.75-2.41-1.52-4.91-2.17-7.41-.81-3.12-1.73-6.27-2.62-9.32-.48-1.65-.96-3.3-1.43-4.96-.2-.71-.4-1.43-.59-2.14-.4-1.47-.78-2.88-1.23-4.26-.32,1.1-.64,2.2-.96,3.3-.79,2.73-1.59,5.46-2.41,8.18-.45,1.5-.94,2.99-1.44,4.48-.44,1.34-.88,2.67-1.3,4.02-.48,1.57-.93,3.15-1.38,4.72-.38,1.33-.76,2.66-1.15,3.99-.61,2.03-1.23,4.05-1.85,6.07-.52,1.68-1.04,3.37-1.54,5.06-.53,1.75-1.05,3.5-1.56,5.25-.67,2.28-1.35,4.55-2.04,6.82-.56,1.83-1.14,3.66-1.72,5.49-.56,1.77-1.12,3.55-1.67,5.32-.6,1.97-1.19,3.94-1.77,5.91-.58,1.97-1.17,3.94-1.76,5.9-.41,1.35-.85,2.68-1.28,4.02-.76,2.34-1.54,4.75-2.17,7.14-.42,1.61-.92,3.19-1.41,4.73-.44,1.39-.89,2.83-1.28,4.25-.52,1.92-1.13,3.81-1.72,5.65-.39,1.19-.77,2.39-1.13,3.59-.46,1.54-.9,3.09-1.34,4.64-.4,1.4-.79,2.81-1.21,4.2l-.08,.28c-.35,1.17-.68,2.28-.84,3.41-.56,3.87,1.13,7.08,4.52,8.56,.19,.08,.37,.17,.55,.26,.46,.22,.85,.41,1.21,.44,1.12,.11,1.73,.7,2.04,1.18,.49,.75,.6,1.69,.31,2.81-.89,3.45-3.14,5.89-6.67,7.25-1.61,.62-3.28,.92-5.01,.91Zm-10.39-9.21c.86,0,1.63,.5,2.3,1.48,1.08,1.57,2.38,2.64,3.88,3.17,2.86,1.01,5.55,1.04,7.99,.1,2.19-.84,3.59-2.19,4.26-4.11-.54-.16-1-.38-1.41-.57-.15-.07-.3-.14-.45-.21-4.93-2.16-7.5-7-6.69-12.61,.21-1.42,.59-2.72,.96-3.98l.08-.28c.41-1.38,.8-2.77,1.19-4.16,.44-1.57,.89-3.14,1.36-4.71,.37-1.23,.76-2.45,1.16-3.67,.58-1.79,1.18-3.64,1.67-5.46,.4-1.5,.87-2.98,1.32-4.41,.47-1.49,.95-3.03,1.35-4.55,.66-2.5,1.46-4.97,2.23-7.35,.43-1.32,.85-2.63,1.26-3.96,.6-1.95,1.18-3.91,1.76-5.87,.59-1.98,1.17-3.97,1.78-5.95,.55-1.79,1.11-3.58,1.68-5.36,.58-1.81,1.15-3.63,1.71-5.45,.69-2.26,1.36-4.53,2.03-6.79,.52-1.76,1.04-3.52,1.57-5.27,.51-1.69,1.03-3.38,1.55-5.08,.62-2.01,1.24-4.02,1.84-6.04,.39-1.31,.76-2.62,1.14-3.94,.46-1.6,.91-3.21,1.4-4.8,.42-1.38,.87-2.74,1.32-4.1,.48-1.46,.96-2.91,1.4-4.38,.82-2.71,1.61-5.42,2.39-8.14,.57-1.96,1.14-3.91,1.72-5.87,.48-1.63,1.36-2.45,2.61-2.44h.03c1.13,.02,1.95,.73,2.42,2.11l.06,.18c.94,2.32,1.59,4.72,2.22,7.04,.19,.7,.38,1.4,.58,2.1,.47,1.65,.95,3.29,1.43,4.93,.9,3.08,1.83,6.26,2.65,9.43,.63,2.42,1.39,4.87,2.12,7.24,.45,1.46,.9,2.91,1.33,4.38,.93,3.18,1.85,6.37,2.77,9.56,.74,2.58,1.49,5.17,2.24,7.75,.85,2.93-.17,6.74-2.21,8.86,2.39,.66,5.01,1.98,6.35,5.41,.29,.73,.44,1.44,.57,2.07,.09,.4,.17,.8,.29,1.19,1.08,3.31,2.31,7.07,3.3,10.81,.73,2.77,1.55,5.57,2.35,8.27,.36,1.22,.72,2.44,1.07,3.67l.19,.67c.96,3.35,1.96,6.81,3,10.18,.63,2.07,1.22,4.15,1.81,6.23,.36,1.29,.73,2.58,1.11,3.87,.08,.27,.16,.54,.25,.8,.31,.98,.66,2.09,.75,3.33,.38,5.33-2.88,11.19-9,11.83,.57,1.31,1.4,2.43,2.54,3.43,4.05,3.55,8.98,4.3,13.71,4.57,1.79,.1,3.67-.14,5.74-.73,2.27-.65,3.8-1.7,4.81-3.3,.44-.7,.54-1.26,.36-1.99-.29-1.19-.63-2.34-.99-3.57-.21-.7-.41-1.4-.61-2.1h0c-.9-3.23-1.8-6.45-2.72-9.67-.41-1.42-.82-2.84-1.24-4.26-.45-1.53-.89-3.06-1.33-4.59-.41-1.45-.82-2.91-1.22-4.37-.43-1.55-.86-3.1-1.3-4.65-.38-1.33-.77-2.66-1.17-3.99-.45-1.53-.9-3.06-1.34-4.59-.45-1.6-.89-3.2-1.32-4.8-.45-1.64-.89-3.27-1.35-4.91-.42-1.47-.85-2.94-1.28-4.41-.45-1.52-.9-3.04-1.33-4.56-.74-2.63-1.47-5.27-2.21-7.91-.62-2.24-1.24-4.48-1.87-6.72-.61-2.16-1.22-4.31-1.84-6.47-.53-1.85-1.06-3.69-1.58-5.54-.35-1.24-.69-2.49-1.03-3.73-.42-1.53-.84-3.05-1.27-4.57-.51-1.76-1.02-3.52-1.54-5.28-.65-2.23-1.31-4.46-1.94-6.7-.61-2.18-1.21-4.36-1.8-6.55-.48-1.79-.97-3.58-1.47-5.36-.67-2.4-1.35-4.79-2.03-7.19-.73-2.56-1.45-5.12-2.16-7.68-.27-.95-.52-1.91-.78-2.87-1.21-4.48-2.35-8.71-4.18-12.77-3.02-6.71-6.98-11.67-12.11-15.14-.94-.64-1.24-.73-1.32-.74,.01,.03-.27,.24-1.02,1.15-.4,.48-.77,.99-1.15,1.49-2.94,3.9-4.26,8.55-5.66,13.47-.34,1.2-.68,2.39-1.05,3.58-.44,1.44-.86,2.88-1.29,4.33-.4,1.36-.8,2.73-1.21,4.09-.68,2.23-1.38,4.47-2.07,6.7-.78,2.5-1.56,5.01-2.32,7.52-.44,1.43-.85,2.87-1.27,4.31-.42,1.47-.85,2.94-1.29,4.4-.45,1.48-.92,2.94-1.39,4.41-.45,1.41-.91,2.83-1.34,4.25-.55,1.79-1.07,3.59-1.6,5.39-.4,1.37-.8,2.75-1.22,4.12-.56,1.87-1.13,3.73-1.71,5.6l-.98,3.2c-.31,1.02-.62,2.03-.92,3.05-.64,2.11-1.27,4.23-1.94,6.33-.36,1.12-.68,2.24-1.01,3.37-.44,1.53-.9,3.12-1.44,4.68-.62,1.82-1.15,3.75-1.67,5.61-.32,1.15-.63,2.3-.98,3.44-.64,2.16-1.32,4.3-1.99,6.45l-1.72,5.52c-.65,2.1-1.3,4.2-1.95,6.3l-.26,.83c-.76,2.47-1.52,4.95-2.26,7.43-.41,1.4-.82,2.8-1.22,4.21-.48,1.69-.97,3.38-1.47,5.06-.44,1.47-.9,2.93-1.36,4.39-.45,1.42-.9,2.84-1.33,4.27l-.24,.81c-.98,3.3-2,6.71-4.06,9.77-2.2,3.26-5.29,4.99-8.92,4.99-1.8-.02-3.48-.66-5.04-1.44,.1,1.19,.29,2.29,.83,3.29,1.14,2.1,2.78,3.42,5.33,4.27,3.18,1.06,9.2,.47,10.99-2.53,.58-.98,1.32-1.48,2.19-1.51,.03,0,.06,0,.09,0Z"/>
          </g>
          <g>
            <path class="cls-3" d="M168.65,202.37c-2.04,.1-3.82-.47-5.47-1.69-3.81-2.81-5.65-6.95-7-11.41-.7-2.3-1.26-4.66-1.89-6.99-.89-3.28-1.77-6.57-2.68-9.85-.78-2.83-1.57-5.65-2.39-8.46-.85-2.9-1.84-5.76-2.6-8.68-1.01-3.89-2.07-7.78-3.35-11.58-1.21-3.62-.5-6.4,2.5-8.57,.69-.5,1.98-.91,1.89-1.57-.14-.95-1.47-1.01-2.3-1.44-3.6-1.84-6.34-4.57-7.8-8.5-.95-2.55-1.55-5.25-2.34-7.87-1.18-3.98-2.4-7.95-3.58-11.94-1.31-4.44-2.59-8.89-3.9-13.33-1.13-3.81-2.31-7.59-3.43-11.4-1.4-4.76-2.76-9.54-4.16-14.31-1.11-3.81-2.22-7.62-3.37-11.41-.79-2.62-1.44-5.31-2.51-7.8-2.26-5.24-5.86-9.33-10.34-12.61-1.41-1.03-2.65-2.31-3.8-3.65-.54-.63-.69-1.14,0-1.81,2.25-2.19,2.67-5.48,.13-8.2-.62-.67-.56-1.21,.2-1.54,1.5-.66,2.98-1.37,4.57-1.76,1.2-.3,2.22-.11,2.96,1.1,.39,.64,.95,1.15,1.63,1.48,4.35,2.09,8.85,2.49,13.48,1.33,.37-.09,.71-.42,1-.7,.52-.52,.36-1.11-.28-1.11-1.5,0-2.76-.86-4.21-1.03-4.09-.46-5.53-1.93-6.19-6.15-.02-.14-.04-.28-.06-.42-.77-3.84-4.1-5.99-7.68-5.1-2.99,.74-5.85,1.85-8.67,3.11-2.47,1.1-2.9,2.01-2.16,4.77,.1,.36,.27,.71,.4,1.06,.63,1.83,.33,3.58-.91,4.31-2.43,1.42-3.6,4.83-1.73,7.62,.63,.95,.42,1.54-.13,2.39-1.33,2.07-3.27,3.41-5.03,4.96-.95,.83-.96,1.36,0,2.14,.86,.69,1.79,1.29,2.65,1.98,3.9,3.13,6.93,7.07,9.5,11.44,2.85,4.86,4.63,10.21,6.07,15.65,.85,3.2,1.83,6.36,2.57,9.6,.75,3.31,1.81,6.55,2.74,9.82,.87,3.09,1.71,6.2,2.63,9.27,.85,2.85,1.71,5.71,2.46,8.58,1.34,5.13,2.91,10.18,4.29,15.29,.76,2.83,1.52,5.66,2.43,8.45,.97,3.01,1.65,6.12,2.5,9.17,.88,3.14,1.82,6.25,2.71,9.38,.87,3.04,1.68,6.1,2.55,9.15,.86,3,1.78,5.98,2.63,8.98,1.38,4.86,2.73,9.73,4.11,14.59,.83,2.91,1.72,5.79,2.54,8.7,1.09,3.87,2.12,7.76,3.21,11.63,1.17,4.19,2.36,8.37,3.57,12.55,.37,1.29,.84,2.57,2.22,3.03,1.95,.64,3.92,1.17,5.37,1,4.24,0,7.74-.65,10.93-2.48,2.65-1.52,4.82-3.59,5.4-6.94,.34-1.93,.06-2.32-1.87-2.22Z"/>
            <path class="cls-3" d="M153.55,215.93c-1.64,0-3.48-.53-5.26-1.12-2.39-.79-3.05-3.06-3.41-4.28-1.21-4.18-2.4-8.37-3.58-12.56-.51-1.83-1.02-3.67-1.52-5.51-.56-2.04-1.11-4.08-1.69-6.11-.43-1.53-.88-3.05-1.33-4.58-.41-1.37-.81-2.75-1.2-4.12-.67-2.34-1.32-4.68-1.98-7.03-.71-2.52-1.41-5.04-2.13-7.56-.43-1.52-.88-3.04-1.33-4.55-.44-1.47-.87-2.95-1.3-4.42-.46-1.6-.9-3.2-1.34-4.8-.4-1.45-.8-2.9-1.21-4.35-.39-1.39-.8-2.77-1.21-4.15-.51-1.74-1.02-3.49-1.51-5.24-.32-1.15-.62-2.31-.91-3.47-.48-1.87-.97-3.8-1.56-5.63-.9-2.79-1.67-5.63-2.41-8.39l-.04-.15c-.62-2.31-1.28-4.6-1.94-6.89-.79-2.75-1.61-5.59-2.35-8.41-.73-2.79-1.54-5.5-2.44-8.51-.64-2.13-1.23-4.27-1.83-6.41-.27-.96-.54-1.93-.81-2.89-.28-1-.58-1.99-.87-2.98-.67-2.25-1.36-4.58-1.89-6.94-.46-2.05-1.05-4.13-1.61-6.14-.32-1.13-.64-2.26-.94-3.39-1.16-4.39-2.88-10.08-5.87-15.17-2.74-4.66-5.7-8.24-9.06-10.94-.41-.33-.84-.64-1.27-.95-.46-.33-.93-.67-1.38-1.03-.35-.28-1.4-1.12-1.43-2.49-.03-1.38,.98-2.27,1.36-2.6,.4-.35,.8-.69,1.21-1.02,1.34-1.12,2.6-2.17,3.49-3.55,.07-.1,.12-.18,.15-.24-1.12-1.67-1.5-3.66-1.08-5.6,.44-2.01,1.68-3.74,3.41-4.76,.37-.22,.41-1.1,.1-2.01-.04-.11-.08-.21-.12-.32-.12-.29-.23-.58-.31-.88-.97-3.64-.1-5.54,3.19-7.01,3.41-1.52,6.25-2.54,8.96-3.21,2.23-.55,4.46-.18,6.3,1.04,1.82,1.21,3.08,3.17,3.55,5.5,.03,.13,.05,.26,.06,.4,.55,3.51,1.37,4.32,4.63,4.69,.84,.09,1.58,.35,2.24,.58,.66,.23,1.27,.46,1.77,.43,1.02,.01,1.88,.58,2.23,1.51,.36,.97,.09,2.07-.72,2.87-.34,.33-.96,.95-1.81,1.16-5.08,1.28-10,.79-14.64-1.44-.99-.48-1.81-1.23-2.39-2.17-.18-.29-.29-.47-1.05-.28-1.04,.26-2.05,.67-3.1,1.13,.99,1.41,1.48,2.95,1.44,4.55-.04,1.77-.74,3.49-1.99,4.9,1.14,1.29,2.15,2.25,3.17,3,5.03,3.68,8.71,8.19,10.95,13.38,.85,1.97,1.44,4.02,2,6.01,.19,.67,.38,1.33,.58,1.99,1.14,3.78,2.25,7.58,3.36,11.38,.6,2.07,1.19,4.08,1.77,6.1,.8,2.75,1.59,5.51,2.4,8.26,.58,1.98,1.19,3.96,1.79,5.94,.55,1.82,1.1,3.63,1.64,5.45,.68,2.3,1.35,4.61,2.03,6.92,.62,2.14,1.25,4.28,1.88,6.41,.63,2.14,1.28,4.28,1.92,6.41,.55,1.84,1.11,3.68,1.66,5.52,.27,.9,.52,1.81,.76,2.72,.48,1.76,.93,3.42,1.53,5.03,1.22,3.29,3.48,5.74,6.91,7.49,.17,.08,.36,.14,.56,.2,.86,.28,2.47,.81,2.73,2.65,.26,1.81-1.35,2.69-2.13,3.11-.19,.1-.37,.2-.52,.3-2.26,1.64-2.79,3.5-1.82,6.39,1.32,3.96,2.41,7.97,3.38,11.71,.46,1.76,1.02,3.56,1.56,5.29,.35,1.11,.69,2.22,1.02,3.33,.83,2.82,1.62,5.66,2.4,8.49,.75,2.71,1.48,5.43,2.22,8.15l.46,1.71c.21,.78,.41,1.56,.62,2.34,.39,1.52,.8,3.08,1.26,4.58,1.12,3.68,2.75,7.8,6.33,10.44,1.36,1,2.74,1.44,4.35,1.35,1.11-.06,2.37-.03,3.22,.99,.84,1.01,.7,2.31,.5,3.46-.6,3.46-2.67,6.16-6.31,8.25-3.22,1.86-6.83,2.7-11.7,2.72-.24,.02-.48,.03-.73,.03ZM89.07,34.65c.23,.17,.47,.34,.7,.51,.48,.35,.96,.69,1.42,1.06,3.71,2.98,6.96,6.89,9.93,11.95,3.23,5.5,5.05,11.51,6.27,16.14,.3,1.11,.61,2.23,.92,3.34,.58,2.06,1.18,4.18,1.67,6.34,.51,2.23,1.18,4.5,1.83,6.69,.3,1.01,.6,2.02,.88,3.03,.27,.97,.54,1.94,.81,2.9,.59,2.12,1.18,4.23,1.81,6.34,.91,3.04,1.73,5.8,2.48,8.64,.73,2.78,1.54,5.6,2.32,8.32,.67,2.31,1.33,4.63,1.96,6.96l.04,.15c.73,2.71,1.49,5.51,2.36,8.2,.63,1.95,1.14,3.94,1.63,5.87,.29,1.13,.58,2.26,.89,3.38,.48,1.73,.99,3.46,1.5,5.19,.41,1.39,.82,2.79,1.21,4.19,.41,1.46,.82,2.92,1.22,4.38,.44,1.59,.88,3.18,1.33,4.76,.42,1.47,.85,2.93,1.29,4.39,.45,1.53,.91,3.06,1.34,4.59,.72,2.52,1.43,5.05,2.14,7.58,.66,2.34,1.31,4.68,1.97,7.01,.39,1.36,.79,2.72,1.19,4.08,.46,1.54,.91,3.08,1.35,4.63,.58,2.04,1.14,4.09,1.7,6.14,.5,1.83,1,3.66,1.51,5.49,1.17,4.18,2.36,8.36,3.57,12.53,.39,1.36,.64,1.64,1.04,1.78,.9,.3,3.31,1.09,4.63,.93,.07,0,.13-.01,.2-.01,4.28,0,7.39-.7,10.08-2.25,2.7-1.56,4.09-3.29,4.5-5.61,0,0-.01,0-.02,0h0c-2.42,.12-4.56-.54-6.58-2.03-4.45-3.28-6.38-8.1-7.68-12.38-.48-1.58-.9-3.19-1.3-4.74-.2-.77-.4-1.54-.61-2.3l-.46-1.71c-.73-2.71-1.46-5.42-2.21-8.13-.78-2.82-1.56-5.63-2.38-8.43-.32-1.09-.66-2.18-1-3.26-.56-1.78-1.13-3.62-1.62-5.47-.96-3.67-2.02-7.6-3.31-11.45-1.47-4.4-.5-7.95,2.9-10.56-4.17-2.15-7.06-5.34-8.59-9.47-.66-1.77-1.16-3.6-1.64-5.37-.24-.88-.48-1.76-.74-2.63-.55-1.84-1.1-3.67-1.65-5.51-.65-2.14-1.29-4.28-1.93-6.43-.63-2.14-1.26-4.28-1.88-6.43-.67-2.3-1.34-4.6-2.02-6.9-.54-1.81-1.09-3.62-1.64-5.43-.6-1.99-1.21-3.98-1.8-5.97-.81-2.76-1.61-5.52-2.41-8.28-.58-2.01-1.16-4.02-1.75-6.03-1.12-3.84-2.23-7.62-3.37-11.4-.2-.68-.4-1.36-.6-2.05-.56-1.96-1.09-3.81-1.84-5.54-2-4.63-5.18-8.51-9.73-11.85-1.34-.99-2.65-2.24-4.11-3.94-1.89-2.2-.4-3.97,.11-4.46,.81-.79,1.27-1.75,1.29-2.69,.02-.95-.4-1.92-1.22-2.8-.96-1.03-1.01-2-.89-2.63,.1-.5,.44-1.43,1.68-1.98l.5-.23c1.37-.61,2.8-1.25,4.35-1.63,2.66-.66,4.12,.67,4.88,1.91,.21,.34,.51,.61,.87,.78,2.35,1.13,4.79,1.73,7.3,1.79-3.63-.85-5.32-3-6.01-7.42l-.05-.34c-.27-1.33-.96-2.43-1.96-3.1-1.01-.68-2.27-.87-3.56-.56-2.51,.62-5.17,1.58-8.38,3.01q-1.61,.72-1.13,2.52c.04,.14,.1,.27,.15,.4,.07,.18,.14,.35,.21,.53,.96,2.78,.26,5.43-1.72,6.6-.83,.49-1.45,1.35-1.65,2.3-.14,.62-.15,1.58,.52,2.58,1.43,2.14,.35,3.82-.12,4.54-1.2,1.85-2.74,3.14-4.23,4.39-.22,.18-.44,.37-.66,.55Z"/>
          </g>
          <g>
            <path class="cls-5" d="M88.37,135c-2.85-1.05-5.5-2.36-7.09-5.34-.85-1.59-1.31-3.33-2.02-4.97-.13-.3-.16-.71-.55-.73-.38-.02-.5,.35-.62,.66-.6,1.49-1.14,3.01-1.82,4.45-1.58,3.32-4.4,4.9-7.63,5.85-.67,.2-1.48,.36-1.54,1.17-.07,.85,.83,.71,1.34,.88,3.89,1.29,7.01,3.48,8.44,7.74,.26,.76,.57,1.5,.89,2.23,.18,.41,.13,1.07,.71,1.1,.65,.03,.67-.65,.87-1.1,.87-1.97,1.33-4.12,2.79-5.81,1.89-2.18,4.32-3.21,6.87-4.08,.41-.14,.92-.17,1.02-.79-.25-.87-.98-.99-1.67-1.25Z"/>
            <path class="cls-5" d="M78.52,149.93s-.08,0-.13,0c-.79-.04-1.83-.44-2.25-2.14-.33-.8-.68-1.61-.96-2.44-1.09-3.24-3.34-5.26-7.29-6.57-.03,0-.09-.01-.15-.02-2.37-.38-2.49-2.1-2.44-2.82,.16-2.06,2-2.59,2.7-2.78l.15-.04c3.38-1,5.39-2.5,6.51-4.87,.44-.92,.81-1.88,1.21-2.9,.19-.48,.37-.97,.57-1.44,.63-1.59,1.65-1.85,2.38-1.8,.68,.04,1.58,.39,2.05,1.78,.31,.73,.56,1.42,.81,2.11,.36,.99,.7,1.92,1.15,2.77,1.23,2.31,3.26,3.42,6.12,4.48l.24,.08c.72,.25,2.06,.7,2.55,2.4,.08,.28,.1,.58,.05,.88-.29,1.7-1.66,2.09-2.11,2.22l-.13,.04c-2.65,.91-4.6,1.82-6.1,3.56-.81,.94-1.27,2.17-1.75,3.47-.23,.63-.47,1.26-.74,1.87l-.04,.13c-.53,1.69-1.58,2.07-2.41,2.06Zm-7.35-13.9c3.71,1.72,6.14,4.35,7.38,7.99,.52-1.37,1.14-2.87,2.27-4.17,1.58-1.82,3.46-2.93,5.31-3.72-2.5-1.09-4.86-2.64-6.41-5.54-.43-.81-.77-1.63-1.07-2.44-.24,.59-.49,1.18-.77,1.76-1.61,3.4-4.3,5.13-6.71,6.12Z"/>
          </g>
        </g>
        <g>
          <path class="cls-2" d="M454.49,236.58c-1.77-2.77-6.61-9.32-18.99-13.85-9.34-3.42-24.37-6.2-52.96,1.54-4.37,1.18-6.31,1.86-10.09,3.44-4.61-9.24-7.82-18.48-9.48-23.78,17.74-17.62,24.13-50.99,24.26-56.02,.02-.65,0-3.2,1.7-4.8,1.7-1.59,4.05-1.35,4.05-1.35v-4.56c-4.17,.4-6.15-2.18-6.55-5.95-3.97-34.72-23.61-56.74-51.19-56.74s-47.42,23.61-51.39,58.33c-.99,4.76-6.55,4.36-6.55,4.36v4.56s5.95-.99,5.95,5.75c.6,31.55,12.9,54.96,32.34,64.08,7.86,3.69,15.38,4.4,17.83,4.43,1.64,.02,10.99,0,20.43-5.2,1.81,6.64,3.97,14.14,7.2,21.7-7.48,3.15-16.71,7.11-28.5,11.52,0,0-27.11,10.15-52.03,10.88-1.86,.05-6.67,.12-11.31-2.71-1.77-1.08-6.51-3.96-6.94-9.19-.38-4.62,2.86-7.82,3.1-8.05,2.87-2.72,7.22-3.52,11.23-2.09-.66-.86-4.9-6.2-12.36-6.74-.47-.03-9.33-.52-14.63,6.58-5.46,7.32-2.07,16.01-1.63,17.08,1.23,3,4.08,7.58,12.44,11.51,27.11,12.73,66.95-2.61,79.15-7.31,4.41-1.7,24.51-9.92,25.24-10.23,.71-.3,1.28-.54,1.58-.67,.26,.43,.51,.87,.77,1.3,.82,1.32,1.58,2.72,2.95,4.4,11.43,14.07,25.52,19,31.16,20.89,3.11,1.04,6.08,1.8,8.88,2.33,9.84,1.88,17.62,1.3,20.26,1.03,10.19-1.03,18.24-1.83,23.64-8.22,3.72-4.4,4.45-9.4,4.69-11.14,1.12-8.34-2.72-14.69-4.28-17.13Zm-102.84-33.53c-.66,.85-6.48,8.03-16.4,7.95-9.43-.08-15.01-6.65-15.76-7.57,0,0-16.57-14.89-14.79-55.72,.05-1.17,.28-2.84,1.47-4.14,1.93-2.11,5.08-1.82,5.08-1.82v-4.56s-5.95,.6-5.95-5.95c2.58-31.74,14.09-50.99,29.96-50.99s27.38,19.25,29.96,50.79c0,6.55-5.95,6.15-5.95,6.15v4.56s3.15-.29,5.08,1.82c1.14,1.24,1.41,2.84,1.47,4.14,.9,20.88-2.85,34.86-7.02,43.78-.43-2.38-2.26-10.79-9.69-15.62-2.01-1.3-5.67-3.68-10.23-2.83-6.82,1.27-9.69,8.62-9.92,9.23,1.9-.48,7.2-1.53,12.55,1.12,6.69,3.32,10.73,11.1,10.16,19.66Zm100.08,53.64c-1.06,1.67-4.45,5.92-17.75,6.26-8.84,.22-32.74,.83-48.91-16.23-2.39-2.52-4.6-5.42-6.64-8.53,8.63-3.37,15.38-5.45,23.89-7.09,12.98-2.49,26.93-2.08,38.76,3.82,6.56,3.27,10.01,6.11,11.49,10.06,.12,.32,2.38,6.64-.84,11.7Z"/>
          <path class="cls-2" d="M263.69,85.41c6.15,4.49,12.3,.41,12.3,.41v8.78c-1.98,.41-5.16,1.63-8.73,0,5.56,14.5-1.59,31.65-15.28,33.89-12.3,2.04-18.45-6.53-18.25-17.36,16.47,15.31,34.72-34.3-5.55-31.44-20.44,1.43-32.14,25.73-34.92,52.88,.4,5.31,5.36,4.9,5.36,4.9v4.7s-5.95-.61-5.95,4.08c.2,32.67,12.7,65.34,38.49,66.36,19.44,.61,29.56-26.95,19.44-39,19.84-5.51,22.62,9.8,19.25,21.03-4.76,16.54-24.8,23.07-39.88,23.48-40.67,1.02-59.92-35.12-59.92-71.06,0-5.51-4.76-4.9-4.76-4.9v-4.7s5.16,.61,5.95-6.12c3.97-30.63,24.4-56.76,58.53-56.76,12.9,0,23.41,3.27,33.93,10.82Z"/>
          <path class="cls-2" d="M432.78,133.39c1.19,4.7,6.55,4.08,6.55,4.08v4.7s-5.36-.61-6.55,4.29v22.26c0,28.99,5.36,44.92,25.2,44.92,21.03,0,30.16-17.97,30.16-45.94v-19.4c0-6.94-6.75-6.13-6.75-6.13v-4.7s6.75,.82,6.75-5.92v-33.49c-1.19-9.19-8.73-16.13-18.05-17.36v-6.53c12.3,0,16.47,1.63,21.43,8.58,4.96-6.94,9.33-8.58,21.63-8.58v6.53c-10.32,1.43-18.05,9.6-18.05,20.21v30.63c0,6.74,6.75,5.92,6.75,5.92v4.7s-6.75-.82-6.75,6.13v19.4c0,31.44-11.31,51.86-37.9,51.86-31.15,0-47.22-10.82-46.82-51.66l.2-22.66c-1.59-3.68-6.15-3.06-6.15-3.06v-4.7s4.76,.61,6.35-3.27l.4-37.37c-.2-8.58-1.79-14.91-10.72-16.13v-6.53c12.3,0,16.47,1.63,21.43,8.58,4.96-6.94,9.32-8.58,21.63-8.58v6.53c-10.32,1.43-10.71,9.6-10.71,20.21v32.47Z"/>
          <path class="cls-2" d="M532.91,100.93c0-10.62-.4-18.79-10.72-20.21v-6.53c12.3,0,16.47,1.63,21.43,8.58,4.96-6.94,9.32-8.58,21.63-8.58v6.53c-10.32,1.43-10.71,9.6-10.71,20.21v30.63c0,6.74,6.94,5.92,6.94,5.92v4.7s-6.94-.82-6.94,6.13v53.29c.6,4.7,2.78,7.96,10.71,8.98v6.53c-12.3,0-16.47-1.63-21.43-8.58-4.96,6.94-9.33,8.58-21.63,8.58v-6.53c7.94-1.02,10.12-4.29,10.72-8.98v-53.29c0-6.94-6.94-6.13-6.94-6.13v-4.7s6.94,.82,6.94-5.92v-30.63Z"/>
          <path class="cls-2" d="M670.79,195.46c3.17,9.39,5.95,13.68,16.07,14.91v6.74c-11.9,0-20.63-1.63-25.4-8.78-4.76,7.15-11.71,8.78-23.41,8.78v-6.74c12.5-1.63,12.5-8.78,10.32-20.01l-6.55-22.26c-4.17-11.43-8.53-17.97-18.25-22.26-6.55-2.86-7.34-4.29-1.39-6.33,19.44-6.53,30.75-19.6,31.74-33.69,.99-15.31-8.53-28.99-26.19-29.2-10.32,0-22.42,8.37-22.42,22.05v36.14c1.39,4.08,6.35,3.47,6.35,3.47v4.7s-4.96-.41-6.35,3.68v51.25c.2,6.94,1.79,11.64,10.72,12.66v6.53c-12.3,0-16.47-1.63-21.43-8.78-4.96,7.15-9.13,8.78-21.43,8.78v-6.53c8.93-1.02,10.52-5.92,10.72-12.66v-48.8c0-6.74-6.75-6.12-6.75-6.12v-4.7s6.75,.82,6.75-5.92v-35.73c0-8.78-.99-15.31-10.72-15.93v-6.53c12.3,0,17.06,2.04,21.43,11.44,6.94-10.41,21.43-13.68,35.71-13.68,28.77,0,45.63,16.33,45.43,33.49,0,15.31-10.52,36.14-52.58,36.55,0,0,6.55,3.27,16.67,6.94,11.71,4.29,21.23,10.82,25.79,28.79l5.16,17.76Z"/>
          <path class="cls-2" d="M755.11,109.5c20.24,12.25,35.32-33.49-6.55-31.04-9.72,.61-22.02,5.51-22.02,17.97v35.53c0,6.74,6.55,6.13,6.55,6.13v4.49s-6.55-.61-6.55,6.13v45.33c0,12.46,12.3,17.35,22.02,17.97,41.86,2.45,25.99-43.9,6.55-31.04-.2-10.82,6.15-20.01,18.25-17.36,12.7,2.65,19.84,19.19,15.08,33.28,2.98-1.63,5.56-1.43,7.54-1.02v8.78s-5.36-2.25-11.51,2.25c-10.51,7.55-20.43,10.62-33.33,10.62-13.89,0-26.78-1.22-34.72-9.6v.41c-4.96,7.15-9.33,8.78-21.63,8.78v-6.53c7.14-1.02,9.52-5.31,10.32-11.23v-50.64c0-6.74-6.55-6.13-6.55-6.13v-4.49s6.55,.61,6.55-6.13v-38.59c-.6-6.74-2.58-11.64-10.32-12.66v-6.53c12.3,0,16.67,1.63,21.63,8.78,7.94-8.78,20.44-10,34.72-10,12.9,0,22.82,3.06,33.33,10.62,6.15,4.49,11.51,2.25,11.51,2.25v8.78c-1.98,.41-4.56,.61-7.54-1.02,4.76,14.09-2.38,30.63-15.08,33.28-12.1,2.65-18.45-6.53-18.25-17.36Zm-1.98,36.34c-5.36,10.62-1.59,20.62,4.16,20.62-12.9,1.63-21.23-8.58-17.26-24.5,2.58-9.8,11.51-17.97,4.17-24.91,10.12,2.65,14.29,17.97,8.93,28.79Z"/>
        </g>
      </g>
      <g>
        <g>
          <path class="cls-9" d="M145.39,216.39c-1.84-.01-3.8-.57-5.65-1.18-3.02-.99-3.83-3.78-4.22-5.12-1.21-4.19-2.4-8.38-3.58-12.58-.51-1.84-1.02-3.68-1.52-5.52l-.05-.18c-.54-1.98-1.08-3.96-1.64-5.93-.43-1.52-.88-3.04-1.33-4.56-.41-1.38-.81-2.75-1.21-4.13-.67-2.34-1.32-4.69-1.98-7.03l-.11-.4c-.67-2.39-1.34-4.78-2.02-7.16-.41-1.44-.84-2.88-1.26-4.32l-.07-.22c-.44-1.48-.88-2.95-1.3-4.44-.44-1.53-.86-3.07-1.29-4.61l-.12-.44c-.38-1.37-.76-2.74-1.14-4.1-.39-1.38-.8-2.76-1.2-4.15-.51-1.75-1.02-3.5-1.52-5.25-.32-1.16-.62-2.33-.92-3.49-.47-1.86-.96-3.77-1.54-5.55-.91-2.8-1.68-5.66-2.42-8.41l-.05-.18c-.62-2.3-1.28-4.59-1.94-6.87-.79-2.76-1.61-5.6-2.36-8.45-.73-2.78-1.53-5.48-2.43-8.47-.65-2.15-1.25-4.33-1.84-6.44-.27-.96-.53-1.92-.81-2.88-.28-.98-.56-1.95-.85-2.92-.69-2.34-1.39-4.68-1.93-7.06-.46-2.03-1.04-4.08-1.6-6.08-.32-1.15-.64-2.28-.94-3.41-1.14-4.31-2.83-9.89-5.74-14.86-2.66-4.53-5.53-8-8.76-10.59-.37-.3-.76-.58-1.15-.85-.56-.4-1.04-.75-1.5-1.12-1.24-.99-1.88-2.15-1.9-3.44-.04-1.97,1.34-3.17,1.79-3.57,.4-.35,.81-.7,1.23-1.04,1.12-.94,2.19-1.83,2.96-2.87-.97-1.79-1.26-3.83-.83-5.83,.48-2.23,1.82-4.17,3.68-5.38,0-.16-.03-.4-.14-.72-.02-.07-.05-.13-.07-.19-.15-.38-.29-.72-.39-1.1-1.12-4.22,.04-6.76,3.89-8.48,3.48-1.55,6.39-2.6,9.17-3.29,.77-.19,1.55-.29,2.31-.29,1.79,0,3.51,.52,4.98,1.5,2.09,1.4,3.54,3.63,4.08,6.29,.03,.16,.05,.32,.08,.48,.48,3.05,.93,3.32,3.53,3.61,.98,.11,1.83,.41,2.52,.65l.12,.04c.43,.15,.92,.32,1.15,.32h.1c1.56,.02,2.85,.91,3.38,2.32,.54,1.44,.15,3.04-1.01,4.2-.39,.39-1.2,1.19-2.38,1.48-1.93,.49-3.87,.73-5.76,.73-3.34,0-6.61-.76-9.73-2.26-1.09-.53-2.02-1.33-2.71-2.33-.48,.12-.96,.29-1.47,.49,.62,1.26,.92,2.59,.88,3.98-.04,1.69-.6,3.37-1.61,4.81,.8,.85,1.54,1.51,2.28,2.05,5.21,3.82,9.03,8.49,11.35,13.9,.88,2.04,1.48,4.13,2.06,6.15,.2,.7,.38,1.34,.58,1.99,1.12,3.71,2.21,7.43,3.3,11.16l.07,.23c.6,2.06,1.18,4.07,1.76,6.08,.8,2.78,1.6,5.53,2.41,8.28,.58,1.96,1.17,3.92,1.77,5.88,.57,1.88,1.12,3.69,1.66,5.52,.68,2.31,1.36,4.62,2.03,6.93l.05,.18c.6,2.08,1.21,4.15,1.82,6.22,.63,2.14,1.27,4.27,1.92,6.41,.55,1.84,1.11,3.68,1.66,5.53,.27,.91,.52,1.83,.77,2.74,.48,1.74,.92,3.38,1.5,4.93,1.11,2.98,3.17,5.21,6.31,6.81,.08,.04,.17,.06,.26,.09l.11,.04c.96,.31,3.21,1.05,3.58,3.66,.38,2.67-1.99,3.96-2.77,4.38l-.11,.06c-.1,.05-.19,.1-.27,.16-1.81,1.31-2.17,2.62-1.37,4.98,1.34,4,2.43,8.03,3.41,11.79,.46,1.76,1.04,3.6,1.55,5.23,.35,1.12,.7,2.23,1.03,3.36,.85,2.89,1.66,5.8,2.41,8.51,.73,2.64,1.44,5.29,2.16,7.93l.52,1.94c.19,.72,.38,1.44,.57,2.17l.05,.19c.4,1.54,.8,3.07,1.24,4.54,1.06,3.49,2.59,7.38,5.87,9.8,1.03,.76,2.05,1.12,3.21,1.12,.11,0,.22,0,.33,0,.22-.01,.44-.02,.66-.02,1.02,0,2.5,.15,3.59,1.46,1.28,1.54,.95,3.45,.77,4.47-.67,3.84-2.93,6.83-6.91,9.12-3.41,1.97-7.2,2.86-12.26,2.88-.25,.02-.5,.03-.76,.03h-.04Z"/>
          <path class="cls-3" d="M99.14,2.5c1.53,0,3,.44,4.28,1.29,1.82,1.21,3.08,3.17,3.55,5.5,.03,.13,.05,.26,.06,.4,.55,3.51,1.37,4.32,4.63,4.69,.84,.09,1.58,.35,2.24,.58,.62,.22,1.2,.43,1.68,.43,.03,0,.06,0,.09,0,1.02,.01,1.88,.58,2.23,1.51,.36,.97,.09,2.07-.72,2.87-.34,.33-.96,.95-1.81,1.16-1.84,.46-3.66,.69-5.46,.69-3.15,0-6.23-.71-9.19-2.14-.99-.48-1.81-1.23-2.39-2.17-.13-.21-.22-.36-.54-.36-.13,0-.29,.02-.51,.08-1.04,.26-2.05,.67-3.1,1.13,.99,1.41,1.48,2.95,1.44,4.55-.04,1.77-.74,3.49-1.99,4.9,1.14,1.29,2.15,2.25,3.17,3,5.03,3.68,8.71,8.19,10.95,13.38,.85,1.97,1.44,4.02,2,6.01,.19,.67,.38,1.33,.58,1.99,1.14,3.78,2.25,7.58,3.36,11.38,.6,2.07,1.19,4.08,1.77,6.1,.8,2.75,1.59,5.51,2.4,8.26,.58,1.98,1.19,3.96,1.79,5.94,.55,1.82,1.1,3.63,1.64,5.45,.68,2.3,1.35,4.61,2.03,6.92,.62,2.14,1.25,4.28,1.88,6.41,.63,2.14,1.28,4.28,1.92,6.41,.55,1.84,1.11,3.68,1.66,5.52,.27,.9,.52,1.81,.76,2.72,.48,1.76,.93,3.42,1.53,5.03,1.22,3.29,3.48,5.74,6.91,7.49,.17,.08,.36,.14,.56,.2,.86,.28,2.47,.81,2.73,2.65,.26,1.81-1.35,2.69-2.13,3.11-.19,.1-.37,.2-.52,.3-2.26,1.64-2.79,3.5-1.82,6.39,1.32,3.96,2.41,7.97,3.38,11.71,.46,1.76,1.02,3.56,1.56,5.29,.35,1.11,.69,2.22,1.02,3.33,.83,2.82,1.62,5.66,2.4,8.49,.75,2.71,1.48,5.43,2.22,8.15l.46,1.71c.21,.78,.41,1.56,.62,2.34,.39,1.52,.8,3.08,1.26,4.58,1.12,3.68,2.75,7.8,6.33,10.44,1.25,.92,2.51,1.36,3.96,1.36,.13,0,.26,0,.4-.01,.2-.01,.4-.02,.6-.02,.95,0,1.92,.16,2.62,1.01,.84,1.01,.7,2.31,.5,3.46-.6,3.46-2.67,6.16-6.31,8.25-3.22,1.86-6.83,2.7-11.7,2.72-.22,.02-.45,.03-.68,.03-.02,0-.03,0-.05,0-1.64,0-3.48-.53-5.26-1.12-2.39-.79-3.05-3.06-3.41-4.28-1.21-4.18-2.4-8.37-3.58-12.56-.51-1.83-1.02-3.67-1.52-5.51-.56-2.04-1.11-4.08-1.69-6.11-.43-1.53-.88-3.05-1.33-4.58-.41-1.37-.81-2.75-1.2-4.12-.67-2.34-1.32-4.68-1.98-7.03-.71-2.52-1.41-5.04-2.13-7.56-.43-1.52-.88-3.04-1.33-4.55-.44-1.47-.87-2.95-1.3-4.42-.46-1.6-.9-3.2-1.34-4.8-.4-1.45-.8-2.9-1.21-4.35-.39-1.39-.8-2.77-1.21-4.15-.51-1.74-1.02-3.49-1.51-5.24-.32-1.15-.62-2.31-.91-3.47-.48-1.87-.97-3.8-1.56-5.63-.9-2.79-1.67-5.63-2.41-8.39l-.04-.15c-.62-2.31-1.28-4.6-1.94-6.89-.79-2.75-1.61-5.59-2.35-8.41-.73-2.79-1.54-5.5-2.44-8.51-.64-2.13-1.23-4.27-1.83-6.41-.27-.96-.54-1.93-.81-2.89-.28-1-.58-1.99-.87-2.98-.67-2.25-1.36-4.58-1.89-6.94-.46-2.05-1.05-4.13-1.61-6.14-.32-1.13-.64-2.26-.94-3.39-1.16-4.39-2.88-10.08-5.87-15.17-2.74-4.66-5.7-8.24-9.06-10.94-.41-.33-.84-.64-1.27-.95-.46-.33-.93-.67-1.38-1.03-.35-.28-1.4-1.12-1.43-2.49-.03-1.38,.98-2.27,1.36-2.6,.4-.35,.8-.69,1.21-1.02,1.34-1.12,2.6-2.17,3.49-3.55,.07-.1,.12-.18,.15-.24-1.12-1.67-1.5-3.66-1.08-5.6,.44-2.01,1.68-3.74,3.41-4.76,.37-.22,.41-1.1,.1-2.01-.04-.11-.08-.21-.12-.32-.12-.29-.23-.58-.31-.88-.97-3.64-.1-5.54,3.19-7.01,3.41-1.52,6.25-2.54,8.96-3.21,.67-.17,1.35-.25,2.01-.25m0-2.5c-.87,0-1.75,.11-2.61,.32-2.86,.71-5.84,1.77-9.38,3.36-4.41,1.97-5.87,5.13-4.59,9.94,.11,.43,.26,.81,.4,1.16-1.76,1.39-3.01,3.39-3.5,5.64-.44,2.01-.23,4.06,.58,5.92-.63,.7-1.42,1.35-2.29,2.08-.42,.35-.84,.71-1.26,1.07-1.5,1.32-2.25,2.84-2.21,4.53,.04,1.68,.83,3.16,2.37,4.39,.51,.41,1.03,.78,1.48,1.11l.04,.03c.4,.29,.77,.56,1.12,.84,3.12,2.5,5.89,5.85,8.47,10.25,2.84,4.83,4.49,10.31,5.61,14.54,.3,1.12,.61,2.24,.93,3.36l.02,.07c.56,1.98,1.13,4.02,1.58,6.01,.55,2.43,1.25,4.78,1.92,7.06,.3,1.02,.59,2.01,.87,2.99,.27,.96,.54,1.92,.8,2.88,.59,2.12,1.2,4.31,1.84,6.46,.89,2.98,1.69,5.67,2.42,8.43,.75,2.85,1.57,5.7,2.36,8.45,.65,2.27,1.32,4.59,1.94,6.87l.04,.16v.05c.76,2.77,1.53,5.63,2.45,8.45,.57,1.76,1.05,3.65,1.52,5.48,.28,1.08,.59,2.31,.93,3.52,.51,1.81,1.04,3.65,1.52,5.27,.4,1.38,.81,2.75,1.2,4.13,.39,1.39,.78,2.78,1.16,4.17l.05,.17c.44,1.61,.89,3.22,1.35,4.82,.42,1.49,.86,2.97,1.3,4.45l.03,.09c.44,1.48,.88,2.95,1.3,4.43,.69,2.43,1.37,4.86,2.05,7.29l.07,.26c.66,2.35,1.32,4.69,1.98,7.04,.39,1.39,.8,2.77,1.21,4.15,.46,1.54,.9,3.04,1.32,4.54,.57,2.02,1.12,4.04,1.67,6.06,.51,1.88,1.02,3.72,1.53,5.56,1.18,4.21,2.38,8.45,3.58,12.59,.41,1.43,1.38,4.76,5.03,5.96,1.95,.64,4.02,1.23,6.03,1.24h.06c.27,0,.54-.01,.81-.03,5.27-.04,9.23-.98,12.83-3.05,4.26-2.45,6.79-5.82,7.52-9.99,.18-1.05,.61-3.49-1.04-5.48-1.59-1.91-3.81-1.91-4.55-1.91-.24,0-.49,0-.73,.02-.09,0-.18,0-.27,0-.9,0-1.64-.26-2.47-.87-2.99-2.21-4.42-5.87-5.42-9.16-.44-1.45-.84-2.98-1.22-4.46l-.05-.18c-.19-.74-.38-1.48-.58-2.21l-.46-1.71c-.73-2.72-1.47-5.44-2.22-8.16-.75-2.7-1.55-5.6-2.41-8.53-.33-1.12-.68-2.24-1.03-3.35-.54-1.72-1.09-3.47-1.54-5.2-.98-3.78-2.08-7.83-3.43-11.87-.67-2-.36-2.64,.92-3.57,.02,0,.08-.04,.14-.07l.11-.06c2.6-1.41,3.74-3.31,3.41-5.66-.49-3.38-3.46-4.35-4.43-4.67l-.12-.04s-.08-.03-.12-.04c-2.86-1.47-4.66-3.41-5.66-6.11-.56-1.51-1-3.12-1.46-4.82-.26-.94-.51-1.86-.78-2.77-.55-1.84-1.1-3.69-1.66-5.53-.65-2.14-1.29-4.27-1.92-6.4-.63-2.13-1.25-4.26-1.87-6.4-.68-2.34-1.35-4.64-2.03-6.93-.54-1.83-1.09-3.65-1.65-5.47-.6-1.98-1.2-3.95-1.78-5.92-.81-2.74-1.6-5.49-2.4-8.24-.58-2.02-1.17-4.04-1.77-6.11l-.02-.05c-1.09-3.72-2.21-7.57-3.35-11.35-.19-.62-.36-1.23-.54-1.85l-.03-.1c-.59-2.07-1.2-4.2-2.11-6.32-2.42-5.61-6.37-10.46-11.76-14.41-.47-.34-.94-.74-1.43-1.22,.8-1.43,1.24-3.01,1.28-4.61,.02-.72-.05-1.43-.19-2.13,.52,.43,1.09,.8,1.7,1.1,3.29,1.58,6.74,2.39,10.27,2.39,1.99,0,4.04-.26,6.07-.77,1.52-.38,2.53-1.38,2.96-1.81,1.52-1.5,2.02-3.62,1.31-5.53-.7-1.87-2.48-3.1-4.53-3.13h-.09c-.16-.04-.52-.16-.77-.25l-.13-.04c-.74-.26-1.67-.58-2.79-.71-2.06-.23-2.07-.23-2.43-2.56-.02-.18-.05-.36-.09-.54-.6-2.98-2.24-5.5-4.61-7.08-1.68-1.12-3.64-1.71-5.67-1.71h0Z"/>
        </g>
        <g>
          <path class="cls-1" d="M35.98,216.45c-1.87-.01-3.8-.36-5.75-1.05-1.71-.6-3.3-1.64-4.66-3.04-2.34,2.05-5.81,3.2-9.75,3.2-1.8,0-3.52-.25-4.96-.74-3.74-1.25-6.3-3.34-8.06-6.58-1.32-2.44-1.44-5.01-1.53-6.89-.11-2.38,1.16-3.51,1.72-3.89,.61-.41,1.32-.63,2.07-.63s1.55,.22,2.35,.66c1.36,.74,2.68,1.4,3.8,1.41,2.07,0,3.69-.93,4.99-2.85,1.62-2.41,2.49-5.3,3.4-8.37l.24-.82c.44-1.45,.89-2.9,1.35-4.34l.06-.18c.44-1.38,.87-2.76,1.29-4.14,.5-1.66,.98-3.33,1.45-5,.41-1.42,.81-2.84,1.23-4.25,.74-2.5,1.5-4.99,2.27-7.48l2.21-7.15,1.72-5.53c.67-2.13,1.33-4.26,1.97-6.39,.33-1.1,.64-2.22,.94-3.33,.54-1.94,1.09-3.94,1.76-5.91,.5-1.46,.94-2.97,1.36-4.44,.35-1.22,.69-2.36,1.05-3.5,.66-2.06,1.28-4.14,1.91-6.21,.32-1.05,.63-2.08,.94-3.1l1.12-3.67c.52-1.7,1.04-3.4,1.56-5.1,.38-1.27,.75-2.54,1.13-3.82l.08-.27c.53-1.82,1.07-3.64,1.62-5.45,.43-1.42,.88-2.82,1.34-4.23,.49-1.53,.96-2.98,1.4-4.43,.43-1.42,.85-2.86,1.26-4.29,.44-1.53,.86-2.98,1.3-4.43,.73-2.41,1.48-4.81,2.23-7.21l.14-.44c.68-2.19,1.36-4.38,2.03-6.57,.41-1.34,.8-2.68,1.19-4.02,.43-1.47,.86-2.94,1.31-4.4,.35-1.15,.69-2.31,1.02-3.47,1.47-5.16,2.99-10.48,6.49-15.14,.42-.56,.84-1.11,1.28-1.65,1.18-1.44,2.66-2.92,4.67-2.92,1.17,0,2.4,.48,3.98,1.56,5.9,4,10.43,9.63,13.84,17.22,2,4.43,3.24,9.06,4.45,13.54,.27,1.01,.52,1.92,.77,2.83,.71,2.55,1.43,5.1,2.16,7.65l.15,.52c.63,2.23,1.26,4.46,1.88,6.69,.5,1.79,.99,3.59,1.48,5.4,.6,2.22,1.18,4.36,1.78,6.5,.63,2.22,1.28,4.43,1.92,6.64l.09,.3c.49,1.67,.98,3.34,1.46,5.02,.44,1.54,.87,3.08,1.29,4.63,.34,1.23,.68,2.47,1.02,3.7,.52,1.84,1.05,3.68,1.57,5.52,.62,2.16,1.24,4.33,1.85,6.49,.63,2.24,1.25,4.49,1.87,6.74,.73,2.63,1.46,5.26,2.2,7.88,.42,1.5,.87,3,1.31,4.5,.44,1.48,.88,2.97,1.3,4.46,.45,1.6,.89,3.21,1.33,4.81l.04,.14c.43,1.59,.86,3.18,1.31,4.76,.42,1.49,.86,2.98,1.3,4.47,.42,1.41,.81,2.75,1.2,4.1,.45,1.56,.88,3.12,1.31,4.69,.4,1.45,.8,2.89,1.21,4.33,.41,1.43,.82,2.85,1.24,4.27l.14,.49c.4,1.36,.79,2.73,1.18,4.09,.92,3.23,1.83,6.46,2.73,9.71,.17,.63,.36,1.25,.54,1.88l.04,.15c.36,1.23,.74,2.49,1.05,3.81,.51,2.1,.17,4.11-1,5.98-1.67,2.65-4.14,4.41-7.57,5.39-2.18,.63-4.22,.94-6.23,.94h0c-.36,0-.71,0-1.07-.03-5.3-.31-11.42-1.24-16.56-5.75-1.7-1.49-3-3.26-3.86-5.27-.93-2.17-.5-3.74,.01-4.67,.43-.77,1.5-2.1,3.87-2.32,3.55-.33,4.91-3.98,4.73-6.46-.04-.62-.28-1.35-.52-2.12-.1-.32-.2-.62-.28-.92-.38-1.3-.75-2.61-1.12-3.91-.57-2.01-1.16-4.1-1.78-6.12-1.06-3.44-2.06-6.91-3.02-10.27l-.19-.67c-.35-1.21-.71-2.42-1.06-3.64-.81-2.75-1.64-5.58-2.39-8.42-.95-3.61-2.15-7.28-3.21-10.52-.2-.62-.33-1.2-.44-1.71-.1-.49-.2-.93-.33-1.26-.49-1.25-1.29-2.08-3.92-2.65-.07-.01-.15,0-.23-.01h-.15c-.56-.03-1.82-.08-2.88-.79-.53,.33-1.02,.47-1.24,.54l-.12,.03c-2.4,.83-4.19,1.66-5.51,3.18-.66,.77-1.08,1.89-1.53,3.09-.24,.63-.47,1.26-.74,1.88l-.02,.06c-.58,1.87-1.89,2.94-3.59,2.94h-.2c-1.67-.09-2.89-1.18-3.38-2.99l-.04-.09c-.32-.76-.64-1.54-.92-2.36-.95-2.84-2.87-4.56-6.4-5.75h-.05c-1.84-.3-2.83-1.27-3.25-2.39-.38,1.2-.76,2.4-1.12,3.61-.58,1.9-1.14,3.8-1.71,5.7l-.1,.35c-.57,1.92-1.14,3.84-1.72,5.76-.4,1.31-.82,2.62-1.25,3.92l-.04,.12c-.76,2.35-1.54,4.74-2.15,7.08-.43,1.65-.94,3.24-1.42,4.79-.44,1.4-.89,2.82-1.26,4.2-.53,1.96-1.15,3.87-1.74,5.71-.38,1.18-.77,2.37-1.12,3.57-.46,1.52-.89,3.05-1.32,4.58-.41,1.46-.81,2.86-1.22,4.27l-.09,.29c-.34,1.14-.65,2.2-.8,3.23-.48,3.33,.9,5.97,3.79,7.24,.2,.09,.39,.18,.58,.27,.28,.13,.66,.31,.8,.33,1.25,.12,2.31,.74,2.96,1.73,.48,.73,.95,1.98,.48,3.81-1,3.87-3.5,6.59-7.43,8.1-1.72,.66-3.53,1-5.38,1h-.09Zm35.97-96.4c1.47,.09,2.63,1.05,3.16,2.63,.28,.65,.54,1.36,.8,2.08,.34,.94,.67,1.83,1.08,2.61,1.05,1.97,2.79,2.92,5.45,3.9l.22,.08c.38,.13,1.11,.38,1.81,.94,.51-.37,.98-.59,1.23-.71l.12-.05c.07-.03,.13-.06,.19-.09,.78-.52,1.55-2.76,1.18-4.01-.73-2.5-1.45-5-2.17-7.5l-.16-.54c-.89-3.09-1.78-6.17-2.68-9.26-.42-1.44-.86-2.87-1.31-4.29-.75-2.42-1.52-4.92-2.19-7.47-.8-3.06-1.7-6.16-2.58-9.16l-.04-.12c-.48-1.65-.97-3.31-1.44-4.97-.19-.67-.37-1.34-.55-2.01,0,0-.06-.21-.07-.24-.71,2.45-1.43,4.91-2.17,7.35-.46,1.51-.95,3.01-1.45,4.51-.45,1.37-.88,2.68-1.29,3.99-.48,1.56-.92,3.13-1.37,4.7-.39,1.36-.76,2.69-1.16,4-.61,2.03-1.23,4.05-1.85,6.08l-.04,.15c-.5,1.63-1,3.27-1.5,4.9-.53,1.75-1.04,3.5-1.56,5.25-.68,2.28-1.35,4.56-2.05,6.83-.24,.79-.49,1.58-.74,2.38,.51-.34,1.12-.62,1.84-.82l.15-.04c3.04-.9,4.75-2.15,5.73-4.21,.42-.89,.78-1.83,1.17-2.82,.19-.49,.38-.98,.58-1.46,.89-2.25,2.51-2.59,3.39-2.59,.08,0,.16,0,.23,0Z"/>
          <path class="cls-3" d="M72.48,35.65c.95,0,1.98,.46,3.28,1.34,5.7,3.87,10.09,9.33,13.4,16.7,1.96,4.35,3.19,8.93,4.39,13.36,.26,.95,.51,1.89,.77,2.84,.71,2.56,1.43,5.11,2.16,7.66,.68,2.4,1.36,4.8,2.03,7.21,.5,1.79,.99,3.59,1.47,5.39,.59,2.17,1.18,4.34,1.79,6.51,.63,2.22,1.28,4.44,1.93,6.66,.52,1.77,1.04,3.54,1.54,5.31,.44,1.53,.86,3.08,1.29,4.62,.34,1.24,.68,2.47,1.03,3.71,.52,1.84,1.05,3.68,1.57,5.53,.62,2.16,1.24,4.32,1.84,6.49,.63,2.24,1.25,4.49,1.87,6.73,.73,2.63,1.46,5.26,2.2,7.89,.43,1.51,.87,3.01,1.32,4.52,.44,1.48,.88,2.96,1.3,4.45,.47,1.65,.91,3.29,1.36,4.94,.43,1.59,.87,3.18,1.31,4.77,.43,1.52,.88,3.03,1.32,4.55,.4,1.34,.79,2.68,1.17,4.03,.45,1.56,.88,3.12,1.31,4.68,.4,1.45,.8,2.9,1.21,4.34,.43,1.53,.88,3.05,1.32,4.57,.42,1.43,.83,2.86,1.24,4.29,.92,3.23,1.83,6.46,2.73,9.7,.19,.68,.39,1.36,.59,2.04,.36,1.21,.73,2.47,1.04,3.75,.43,1.78,.16,3.43-.85,5.02-1.5,2.37-3.74,3.96-6.85,4.86-2.07,.6-4.01,.89-5.89,.89-.33,0-.67,0-1-.03-5.09-.3-10.95-1.18-15.81-5.44-1.56-1.37-2.75-2.99-3.53-4.82-.73-1.71-.43-2.89-.04-3.58,.38-.68,1.19-1.52,2.9-1.68,4.39-.41,6.07-4.81,5.86-7.8-.05-.77-.31-1.57-.58-2.41-.09-.3-.19-.59-.27-.89-.38-1.3-.75-2.6-1.12-3.9-.58-2.06-1.16-4.11-1.79-6.15-1.05-3.41-2.05-6.89-3.02-10.25l-.19-.67c-.35-1.22-.71-2.43-1.07-3.65-.8-2.73-1.64-5.56-2.38-8.38-.96-3.64-2.17-7.33-3.23-10.59-.18-.56-.29-1.08-.4-1.59-.11-.52-.22-1.02-.38-1.44-.73-1.87-2.08-2.82-4.82-3.41-.17-.04-.38-.04-.59-.04-.7-.03-2.16-.1-2.89-1.26-.53,.73-1.31,.96-1.63,1.05l-.13,.04c-2.65,.91-4.6,1.82-6.1,3.56-.81,.94-1.27,2.17-1.75,3.47-.23,.63-.47,1.26-.74,1.87l-.04,.13c-.52,1.68-1.56,2.06-2.4,2.06h-.02s-.08,0-.13,0c-.79-.04-1.83-.44-2.25-2.14-.33-.8-.68-1.61-.96-2.44-1.09-3.24-3.34-5.26-7.29-6.57-.03,0-.09-.01-.15-.02-2.37-.38-2.49-2.1-2.44-2.82,.16-2.06,2-2.59,2.7-2.78l.15-.04c3.38-1,5.39-2.5,6.51-4.87,.44-.92,.81-1.88,1.21-2.9,.19-.48,.37-.97,.57-1.45,.59-1.48,1.51-1.81,2.23-1.81,.05,0,.1,0,.15,0,.68,.04,1.58,.39,2.05,1.78,.31,.73,.56,1.42,.81,2.11,.36,.99,.7,1.92,1.15,2.77,1.23,2.31,3.26,3.42,6.12,4.48l.24,.08c.58,.2,1.56,.54,2.17,1.55,.55-.76,1.42-1.18,1.82-1.37,.17-.08,.34-.15,.48-.24,1.3-.87,2.18-3.7,1.68-5.4-.75-2.58-1.49-5.17-2.24-7.76-.92-3.18-1.83-6.37-2.76-9.55-.42-1.44-.87-2.88-1.31-4.32-.75-2.41-1.52-4.91-2.17-7.41-.81-3.12-1.73-6.27-2.62-9.32-.48-1.65-.96-3.3-1.43-4.96-.2-.71-.4-1.43-.59-2.14-.4-1.47-.78-2.88-1.23-4.26-.32,1.1-.64,2.2-.96,3.3-.79,2.73-1.59,5.46-2.41,8.18-.45,1.5-.94,2.99-1.44,4.48-.44,1.34-.88,2.67-1.3,4.02-.48,1.57-.93,3.15-1.38,4.72-.38,1.33-.76,2.66-1.15,3.99-.61,2.03-1.23,4.05-1.85,6.07-.52,1.68-1.04,3.37-1.54,5.06-.53,1.75-1.05,3.5-1.56,5.25-.67,2.28-1.35,4.55-2.04,6.82-.56,1.83-1.14,3.66-1.72,5.49-.56,1.77-1.12,3.55-1.67,5.32-.6,1.97-1.19,3.94-1.77,5.91-.58,1.97-1.17,3.94-1.76,5.9-.41,1.35-.85,2.68-1.28,4.02-.76,2.34-1.54,4.75-2.17,7.14-.42,1.61-.92,3.19-1.41,4.73-.44,1.39-.89,2.83-1.28,4.25-.52,1.92-1.13,3.81-1.72,5.65-.39,1.19-.77,2.39-1.13,3.59-.46,1.54-.9,3.09-1.34,4.65-.4,1.4-.79,2.81-1.21,4.2l-.08,.28c-.35,1.17-.68,2.28-.84,3.41-.56,3.87,1.13,7.08,4.52,8.56,.19,.08,.37,.17,.55,.26,.46,.22,.85,.41,1.21,.44,1.12,.11,1.73,.7,2.04,1.18,.49,.75,.6,1.69,.31,2.81-.89,3.45-3.14,5.89-6.67,7.25-1.58,.61-3.23,.91-4.93,.91-.03,0-.05,0-.08,0-1.73-.01-3.52-.34-5.34-.98-1.9-.67-3.62-1.94-5.02-3.69-2.31,2.7-6.26,3.78-9.81,3.78-1.69,0-3.29-.24-4.57-.67-3.42-1.14-5.76-3.05-7.36-5.99-1.19-2.19-1.3-4.5-1.38-6.35-.08-1.68,.7-2.47,1.17-2.79,.33-.22,.78-.42,1.37-.42,.49,0,1.08,.14,1.76,.51,1.51,.82,2.98,1.55,4.39,1.56,0,0,.02,0,.03,0,2.46,0,4.48-1.15,6-3.4,1.73-2.57,2.62-5.55,3.56-8.71l.24-.82c.43-1.45,.89-2.89,1.34-4.33,.46-1.44,.91-2.89,1.35-4.34,.5-1.67,.98-3.34,1.46-5.01,.4-1.41,.81-2.83,1.23-4.24,.74-2.5,1.5-4.98,2.27-7.47l.26-.83c.65-2.11,1.3-4.21,1.95-6.32l1.72-5.53c.67-2.13,1.33-4.26,1.97-6.41,.33-1.11,.64-2.24,.95-3.36,.53-1.92,1.08-3.9,1.74-5.83,.5-1.47,.95-3.01,1.38-4.5,.34-1.16,.67-2.32,1.04-3.47,.66-2.08,1.29-4.17,1.92-6.27,.31-1.02,.62-2.04,.93-3.07l.98-3.2c.57-1.86,1.14-3.71,1.7-5.57,.41-1.36,.81-2.73,1.21-4.09,.53-1.82,1.06-3.63,1.61-5.44,.44-1.44,.9-2.87,1.36-4.3,.47-1.45,.93-2.9,1.37-4.35,.44-1.44,.86-2.89,1.28-4.34,.42-1.46,.84-2.92,1.28-4.37,.77-2.52,1.55-5.03,2.33-7.54,.69-2.22,1.38-4.45,2.06-6.68,.41-1.34,.8-2.69,1.2-4.04,.43-1.46,.85-2.93,1.3-4.38,.36-1.16,.69-2.33,1.02-3.5,1.44-5.04,2.92-10.26,6.29-14.73,.41-.54,.82-1.09,1.25-1.61,1.36-1.66,2.46-2.46,3.71-2.46m0-2.5c-2.53,0-4.27,1.71-5.64,3.37-.48,.58-.92,1.17-1.31,1.69-3.64,4.84-5.19,10.28-6.69,15.54-.33,1.14-.66,2.31-1.01,3.45-.45,1.45-.87,2.9-1.29,4.35l-.02,.07c-.39,1.34-.78,2.68-1.19,4.01-.66,2.15-1.33,4.31-2,6.46l-.07,.21-.07,.23c-.76,2.44-1.52,4.88-2.26,7.33-.44,1.44-.86,2.91-1.27,4.32l-.02,.08-.02,.08c-.4,1.39-.82,2.83-1.24,4.23-.44,1.43-.9,2.89-1.36,4.3l-.05,.14c-.45,1.4-.9,2.81-1.33,4.21-.53,1.75-1.03,3.44-1.62,5.47l-.08,.26c-.37,1.27-.75,2.55-1.13,3.82-.54,1.79-1.08,3.57-1.63,5.36l-.06,.2-.98,3.21c-.31,1.03-.62,2.05-.93,3.08l-.03,.1c-.61,2.02-1.23,4.1-1.88,6.13-.37,1.16-.71,2.34-1.04,3.47l-.02,.06c-.42,1.46-.86,2.97-1.35,4.39-.69,2-1.24,4.02-1.78,5.97l-.02,.08c-.29,1.07-.6,2.17-.92,3.23-.65,2.16-1.32,4.31-1.96,6.38l-1.72,5.53-.14,.46c-.61,1.95-1.21,3.91-1.81,5.86l-.26,.83c-.71,2.31-1.51,4.92-2.27,7.49-.42,1.42-.83,2.84-1.23,4.26-.48,1.68-.96,3.34-1.45,4.98-.42,1.4-.86,2.79-1.3,4.18l-.04,.12c-.46,1.45-.92,2.9-1.35,4.36l-.24,.82c-.89,2.97-1.72,5.78-3.24,8.03-1.06,1.57-2.31,2.3-3.93,2.3-.84,0-2.05-.62-3.22-1.26-.99-.54-1.98-.81-2.95-.81-1,0-1.95,.29-2.77,.85-1.54,1.05-2.37,2.86-2.26,4.98,.1,2,.23,4.73,1.68,7.42,1.89,3.49,4.76,5.84,8.77,7.17,1.57,.52,3.42,.8,5.36,.8,3.77,0,7.16-1,9.68-2.8,1.31,1.15,2.77,2.02,4.32,2.57,2.08,.73,4.15,1.11,6.16,1.12h.1c2,0,3.96-.36,5.82-1.08,4.27-1.64,7.1-4.74,8.19-8.96,.59-2.28-.02-3.87-.64-4.81-.85-1.29-2.19-2.09-3.78-2.28-.11-.04-.33-.15-.48-.22l-.06-.03c-.19-.09-.38-.18-.57-.26-2.37-1.04-3.45-3.14-3.05-5.91,.14-.95,.42-1.92,.76-3.04l.09-.3c.42-1.41,.82-2.83,1.22-4.24,.43-1.54,.87-3.09,1.33-4.61,.35-1.18,.74-2.38,1.12-3.54,.6-1.86,1.22-3.78,1.76-5.77,.37-1.36,.81-2.76,1.24-4.12,.5-1.59,1.01-3.2,1.45-4.87,.61-2.31,1.38-4.68,2.12-6.97l-2.36-.83,2.38,.77c.43-1.32,.87-2.68,1.29-4.04,.6-1.97,1.19-3.94,1.77-5.92l.05-.18c.56-1.91,1.13-3.81,1.71-5.71,.14-.46,.28-.91,.42-1.37,.66,.48,1.49,.84,2.51,1.01,3.09,1.06,4.69,2.5,5.51,4.93,.29,.86,.62,1.65,.94,2.43v.03c.66,2.29,2.32,3.72,4.51,3.83,.08,0,.16,0,.24,0,2.28,0,4.07-1.43,4.81-3.82,.28-.64,.52-1.29,.74-1.87,.42-1.14,.79-2.11,1.3-2.71,1.13-1.31,2.68-2.03,4.97-2.82l.07-.02c.3-.09,.58-.19,.85-.31,1.16,.55,2.33,.6,2.85,.62h.15s.06,0,.09,0c2.23,.5,2.64,1.11,2.93,1.87,.09,.23,.18,.63,.26,1.04,.12,.56,.25,1.17,.47,1.86,1.06,3.24,2.25,6.89,3.19,10.45,.75,2.84,1.58,5.67,2.39,8.41l.04,.12c.35,1.18,.7,2.37,1.04,3.55l.19,.67c.98,3.4,1.98,6.87,3.03,10.29,.62,2.02,1.2,4.09,1.77,6.09,.37,1.31,.74,2.62,1.12,3.93,.09,.29,.18,.59,.27,.88l.02,.06c.22,.7,.43,1.36,.47,1.84,.11,1.55-.62,4.85-3.6,5.13-2.94,.28-4.3,1.97-4.85,2.96-.54,.97-1.26,3-.07,5.77,.93,2.18,2.34,4.1,4.18,5.72,5.43,4.76,11.8,5.73,17.31,6.06,.38,.02,.76,.03,1.14,.03,2.12,0,4.28-.32,6.58-.98,3.73-1.07,6.44-3.01,8.28-5.93,1.36-2.16,1.75-4.5,1.16-6.94-.32-1.34-.7-2.62-1.07-3.86l-.03-.1c-.19-.64-.38-1.28-.55-1.92-.9-3.26-1.83-6.53-2.74-9.72-.39-1.36-.78-2.71-1.18-4.06l-.07-.23-.03-.1c-.43-1.48-.87-2.97-1.29-4.45-.41-1.43-.8-2.87-1.2-4.3-.44-1.59-.88-3.16-1.32-4.73-.38-1.32-.77-2.64-1.16-3.97l-.02-.08c-.44-1.51-.89-3.01-1.32-4.52-.44-1.57-.87-3.15-1.3-4.72l-.03-.12c-.44-1.62-.89-3.25-1.34-4.87-.42-1.5-.86-2.99-1.31-4.48-.45-1.51-.89-3-1.31-4.49-.72-2.57-1.44-5.14-2.15-7.71l-.05-.17c-.62-2.25-1.24-4.49-1.88-6.74-.6-2.15-1.22-4.29-1.83-6.43l-.02-.06-.02-.06c-.52-1.82-1.04-3.63-1.55-5.45-.35-1.23-.68-2.46-1.02-3.69-.43-1.56-.85-3.11-1.29-4.64-.48-1.69-.98-3.37-1.47-5.05l-.08-.27c-.64-2.17-1.3-4.42-1.92-6.63-.6-2.14-1.2-4.34-1.77-6.46l-2.43,.6,2.41-.65c-.49-1.79-.97-3.58-1.47-5.37-.64-2.3-1.29-4.59-1.94-6.88l-.1-.34c-.72-2.55-1.44-5.1-2.15-7.65-.25-.92-.5-1.84-.75-2.76l-.02-.06c-1.22-4.53-2.48-9.21-4.52-13.73-3.51-7.8-8.18-13.61-14.28-17.74-1.22-.82-2.85-1.77-4.68-1.77h0Zm-11.63,96.66c.68-2.21,1.33-4.43,1.99-6.65,.53-1.78,1.04-3.53,1.57-5.27,.51-1.68,1.02-3.36,1.54-5.04l.06-.2c.6-1.96,1.2-3.92,1.79-5.89,.39-1.31,.77-2.63,1.14-3.95l.02-.07c.44-1.54,.89-3.13,1.36-4.68,.4-1.32,.85-2.67,1.28-3.97,.46-1.4,.98-2.98,1.46-4.54,.32-1.05,.63-2.11,.94-3.17,.29,1.01,.59,2.02,.88,3.03l.02,.07c.88,3.01,1.79,6.12,2.58,9.18,.67,2.57,1.45,5.09,2.2,7.52,.43,1.4,.88,2.85,1.3,4.28,.92,3.13,1.82,6.28,2.72,9.41l.03,.12c.75,2.59,1.49,5.18,2.24,7.77,.19,.66-.25,2.17-.67,2.61,0,0-.02,0-.03,.01l-.13,.06c-.2,.09-.43,.21-.67,.34-.59-.34-1.12-.52-1.45-.63l-.22-.08c-2.73-1.01-3.98-1.88-4.74-3.3-.37-.69-.66-1.5-1.01-2.44-.25-.68-.51-1.39-.83-2.15-.71-2-2.28-3.26-4.23-3.38-.1,0-.2,0-.31,0-2.04,0-3.69,1.23-4.55,3.38-.19,.47-.38,.96-.57,1.45-.39,1-.74,1.92-1.14,2.76-.55,1.15-1.53,2.46-4.61,3.44h0Z"/>
        </g>
        <g>
          <g>
            <path class="cls-8" d="M220.23,215.89c-18.67,0-34.21-7.87-44.96-22.77-9.37-13-14.53-30.6-14.53-49.56,0-2.44-1.04-3.67-3.1-3.67-.14,0-.24,0-.27,.01l-1.39,.16v-1.4s-.01-6.1-.01-6.1l1.4,.17s.08,0,.18,0c1.14,0,3.84-.49,4.38-5.04,2.07-15.96,8.56-30.37,18.29-40.58,10.77-11.31,25.11-17.28,41.48-17.28,13.32,0,24.01,3.41,34.66,11.05,1.71,1.25,3.57,1.87,5.54,1.87,3.06,0,5.31-1.48,5.34-1.49l1.94-1.29v12.13l-1,.21c-.28,.06-.59,.13-.93,.22-1.15,.28-2.58,.63-4.23,.63-.64,0-1.26-.05-1.87-.16,2.22,7.65,1.33,15.96-2.51,22.65-3.34,5.82-8.5,9.58-14.53,10.56-1.27,.21-2.52,.32-3.71,.32-4.42,0-8.22-1.5-11-4.33-3.33-3.39-5.1-8.58-4.99-14.6l.05-2.8,2.05,1.91c1.86,1.73,3.79,2.61,5.73,2.61,5.62,0,10.93-7.77,10.93-16,0-3.08-.75-7.48-4.33-10.97-3.43-3.34-8.64-5.04-15.47-5.04-1.02,0-2.09,.04-3.17,.12-21.11,1.48-31.27,27.62-33.75,51.65,.28,3.17,2.53,3.64,3.86,3.64,.08,0,.13,0,.15,0l1.34-.09v1.34s0,6.08,0,6.08l-1.38-.14s-.22-.02-.53-.02c-1.84,0-4.04,.5-4.04,2.86,.19,30.65,11.93,64.11,37.29,65.11,.19,0,.39,0,.59,0,7.83,0,14.86-5.06,18.81-13.53,4-8.57,3.61-17.99-.96-23.43l-1.25-1.49,1.87-.52c2.88-.8,5.54-1.21,7.92-1.21,4.86,0,8.71,1.73,11.14,5,3.87,5.2,3.42,13.12,1.72,18.8-4.66,16.19-23.97,23.91-41.04,24.37-.57,.01-1.15,.02-1.71,.02h0Z"/>
            <path class="cls-3" d="M221.71,71.07c12.9,0,23.41,3.27,33.93,10.82,2.18,1.59,4.37,2.11,6.27,2.11,3.47,0,6.03-1.7,6.03-1.7v8.78c-1.23,.25-2.93,.83-4.9,.83-1.19,0-2.48-.21-3.83-.83,5.56,14.5-1.59,31.65-15.28,33.89-1.23,.2-2.4,.3-3.51,.3-9.96,0-14.92-7.92-14.74-17.66,2.21,2.05,4.45,2.94,6.58,2.94,13.29,0,22.15-34.5-8.87-34.5-1.04,0-2.13,.04-3.26,.12-20.44,1.43-32.14,25.73-34.92,52.88,.34,4.6,4.11,4.91,5.11,4.91,.15,0,.24,0,.24,0v4.7s-.25-.03-.66-.03c-1.55,0-5.29,.39-5.29,4.11,.2,32.67,12.7,65.34,38.49,66.36,.21,0,.43,.01,.64,.01,19.03,0,28.82-27.09,18.81-39.01,2.87-.8,5.39-1.16,7.58-1.16,12.93,0,14.55,12.59,11.66,22.19-4.76,16.54-24.8,23.07-39.88,23.48-.56,.01-1.12,.02-1.67,.02-39.53,0-58.24-35.64-58.24-71.08,0-4.51-3.19-4.92-4.35-4.92-.26,0-.41,.02-.41,.02v-4.7s.12,.01,.33,.01c1.15,0,4.95-.44,5.62-6.14,3.97-30.63,24.4-56.76,58.53-56.76m0-2.5c-16.72,0-31.37,6.11-42.38,17.67-9.91,10.4-16.52,25.06-18.62,41.27-.39,3.28-1.92,3.96-3.14,3.96-.02,0-.04,0-.06,0l-2.88-.47,.1,2.95v7.64l2.82-.46s0,0,0,0c.01,0,.05,0,.09,0,1.11,0,1.85,.41,1.85,2.42,0,19.22,5.25,37.08,14.77,50.29,10.99,15.23,26.88,23.29,45.97,23.29,.57,0,1.16,0,1.74-.02,8.85-.24,17.68-2.36,24.86-5.96,9.01-4.51,15.01-11.2,17.35-19.33,1.78-5.94,2.22-14.31-1.92-19.88-1.87-2.51-5.49-5.5-12.14-5.5-2.49,0-5.26,.42-8.25,1.25l-3.74,1.04,2.5,2.98c4.19,4.99,4.52,14.08,.78,22.09-3.74,8.02-10.34,12.81-17.67,12.81-.18,0-.37,0-.56,0-13.85-.55-22.17-11.16-26.7-19.96-5.94-11.54-9.27-27.13-9.37-43.92,0-.43,0-1.6,2.79-1.6,.22,0,.38,.01,.42,.01l2.73,.25,.02-2.74v-7.41l-2.71,.22h-.04c-2.21,0-2.53-1.57-2.6-2.38,1.42-13.64,5.13-26,10.47-34.82,5.88-9.73,13.32-14.98,22.12-15.59,1.06-.08,2.1-.11,3.09-.11,16.74,0,18.55,10.32,18.55,14.76,0,7.58-4.7,14.75-9.68,14.75-1.62,0-3.26-.76-4.88-2.27l-4.1-3.81-.1,5.6c-.12,6.36,1.78,11.87,5.35,15.5,3.02,3.08,7.13,4.7,11.89,4.7,1.26,0,2.57-.11,3.92-.34,6.4-1.05,11.87-5.02,15.4-11.17,3.72-6.48,4.79-14.39,3.08-21.86,.07,0,.14,0,.21,0,1.79,0,3.37-.39,4.52-.67,.32-.08,.61-.15,.88-.21l2-.41v-15.48l-3.88,2.58s-2.02,1.28-4.64,1.28c-1.71,0-3.32-.55-4.8-1.63-10.89-7.82-21.8-11.3-35.4-11.3h0Z"/>
          </g>
          <g>
            <path class="cls-10" d="M450.26,217.29c-17.53,0-28.73-3.41-36.29-11.05-8.23-8.31-11.98-21.62-11.78-41.87l.2-22.38c-.94-1.84-2.99-2.12-4.16-2.12-.33,0-.54,.02-.58,.03l-1.41,.18v-1.42s0-6.12,0-6.12l1.41,.18s.24,.03,.55,.03c1.25,0,3.43-.31,4.39-2.32l.39-37.11c-.2-8.6-1.84-13.81-9.63-14.88l-1.08-.15v-8.87h1.25c11.98,0,16.61,1.56,21.43,7.74,4.8-6.1,9.65-7.74,21.62-7.74h1.25v8.87l-1.08,.15c-9.17,1.27-9.64,8.04-9.64,18.98v32.3c.75,2.63,3.25,3.02,4.69,3.02,.27,0,.44-.02,.47-.02l1.38-.15v1.39s0,6.1,0,6.1l-1.39-.16s-.18-.02-.42-.02c-1.45,0-3.97,.42-4.73,3.22v22.1c0,31.43,6.71,43.67,23.95,43.67,23.89,0,28.91-24.3,28.91-44.69v-19.4c0-4.05-2.64-4.91-4.86-4.91-.28,0-.47,.02-.5,.02l-1.39,.16v-1.4s0-6.11,0-6.11l1.4,.17s.22,.02,.52,.02c2.2,0,4.83-.82,4.83-4.7v-33.4c-1.12-8.38-8.09-15.03-16.97-16.2l-1.09-.14v-8.88h1.25c11.98,0,16.61,1.56,21.43,7.74,4.8-6.1,9.65-7.74,21.63-7.74h1.25v8.87l-1.08,.15c-10,1.38-16.98,9.19-16.98,18.98v30.63c0,3.89,2.62,4.7,4.82,4.7,.3,0,.5-.02,.53-.02l1.39-.16v1.4s0,6.11,0,6.11l-1.4-.17s-.21-.02-.49-.02c-2.21,0-4.85,.85-4.85,4.91v19.4c0,34.75-13.54,53.11-39.15,53.11Z"/>
            <path class="cls-3" d="M506.21,70.67v6.53c-10.32,1.43-18.05,9.6-18.05,20.21v30.63c0,5.42,4.37,5.95,6.07,5.95,.41,0,.67-.03,.67-.03v4.7s-.24-.03-.64-.03c-1.68,0-6.11,.53-6.11,6.16v19.4c0,31.44-11.31,51.86-37.9,51.86-31.15,0-47.22-10.82-46.82-51.66l.2-22.66c-1.19-2.76-4.06-3.1-5.41-3.1-.45,0-.74,.04-.74,.04v-4.7s.27,.04,.71,.04c1.39,0,4.43-.35,5.64-3.3l.4-37.37c-.2-8.58-1.79-14.91-10.72-16.13v-6.53c12.3,0,16.47,1.63,21.43,8.58,4.96-6.94,9.32-8.58,21.63-8.58v6.53c-10.32,1.43-10.71,9.6-10.71,20.21v32.47c.94,3.72,4.51,4.11,5.94,4.11,.37,0,.6-.03,.6-.03v4.7s-.21-.02-.57-.02c-1.41,0-5.03,.39-5.98,4.31v22.26c0,28.99,5.36,44.92,25.2,44.92,21.03,0,30.16-17.97,30.16-45.94v-19.4c0-5.62-4.42-6.16-6.11-6.16-.4,0-.64,.03-.64,.03v-4.7s.26,.03,.67,.03c1.71,0,6.07-.53,6.07-5.95v-33.49c-1.19-9.19-8.73-16.13-18.05-17.36v-6.53c12.3,0,16.47,1.63,21.43,8.58,4.96-6.94,9.33-8.58,21.63-8.58m2.5-2.5h-2.5c-11.52,0-16.86,1.58-21.63,7.03-5.15-5.9-10.61-7.03-21.43-7.03h-2.5v11.23l2.17,.29c8.29,1.09,14.8,7.26,15.88,15.04v33.32c0,1.03,0,3.45-3.57,3.45-.24,0-.39-.02-.39-.02l-2.76-.29-.02,2.77v7.52l2.8-.34s.15-.01,.34-.01c3.61,0,3.61,2.56,3.61,3.66v19.4c0,13.97-2.3,24.79-6.82,32.15-4.67,7.6-11.49,11.29-20.84,11.29-8.65,0-14.31-3.24-17.8-10.21-3.34-6.65-4.89-16.88-4.89-32.21v-21.92c.45-1.43,1.62-2.15,3.48-2.15,.16,0,.27,0,.31,.01l2.74,.26,.03-2.75v-7.5l-2.78,.32s-.14,.01-.32,.01c-1.84,0-3-.66-3.44-1.96v-32.11c0-11.51,.81-16.67,8.56-17.74l2.16-.3v-11.21h-2.5c-11.52,0-16.86,1.58-21.63,7.03-5.15-5.9-10.61-7.03-21.43-7.03h-2.5v11.21l2.16,.3c6.25,.86,8.33,4.18,8.55,13.67l-.39,36.76c-.68,1.14-2.06,1.39-3.14,1.39-.25,0-.41-.02-.42-.02l-2.77-.31-.02,2.79v7.55l2.83-.38s0,0,0,0c0,0,.16-.02,.41-.02,.99,0,2.24,.22,2.91,1.21l-.19,22.04c-.2,20.61,3.66,34.19,12.14,42.76,7.82,7.9,19.29,11.42,37.18,11.42,13.68,0,24.1-5.13,30.98-15.23,6.25-9.17,9.41-22.34,9.41-39.13v-19.4c0-2.27,.95-2.88,1.26-3.08,.82-.52,1.91-.58,2.34-.58,.19,0,.32,0,.36,.01l2.75,.28,.02-2.77v-7.52l-2.8,.34s0,0,0,0c0,0-.15,.01-.37,.01-3.57,0-3.57-2.42-3.57-3.45v-30.63c0-9.15,6.54-16.44,15.9-17.74l2.16-.3v-11.21h0Z"/>
          </g>
          <g>
            <path class="cls-6" d="M557.19,214.84c-11.98,0-16.61-1.56-21.43-7.74-4.8,6.1-9.65,7.74-21.62,7.74h-1.25v-8.88l1.09-.14c7.26-.93,9.08-3.69,9.62-7.82v-53.21c0-4.05-2.74-4.91-5.04-4.91-.3,0-.49,.02-.52,.02l-1.39,.15v-1.39s0-6.1,0-6.1l1.4,.16s.23,.02,.54,.02h0c.7,0,2.04-.1,3.14-.76,1.25-.76,1.86-2.04,1.86-3.94v-30.63c0-10.94-.47-17.71-9.64-18.98l-1.08-.15v-8.87h1.25c11.98,0,16.61,1.56,21.43,7.74,4.8-6.11,9.65-7.74,21.62-7.74h1.25v8.87l-1.08,.15c-9.17,1.27-9.63,8.04-9.63,18.98v30.63c0,3.89,2.72,4.7,5,4.7,.31,0,.52-.02,.55-.02l1.39-.15v1.39s0,6.1,0,6.1l-1.4-.16s-.22-.02-.51-.02c-2.3,0-5.04,.85-5.04,4.91v53.21c.54,4.14,2.36,6.89,9.62,7.82l1.09,.14v8.88h-1.25Z"/>
            <path class="cls-3" d="M557.19,70.67v6.53c-10.32,1.43-10.71,9.6-10.71,20.21v30.63c0,5.42,4.5,5.95,6.25,5.95,.43,0,.69-.03,.69-.03v4.7s-.25-.03-.66-.03c-1.73,0-6.29,.53-6.29,6.16v53.29c.6,4.7,2.78,7.96,10.71,8.98v6.53c-12.3,0-16.47-1.63-21.43-8.58-4.96,6.94-9.33,8.58-21.63,8.58v-6.53c7.94-1.02,10.12-4.29,10.72-8.98v-53.29c0-5.62-4.55-6.16-6.29-6.16-.41,0-.66,.03-.66,.03v-4.7s.26,.03,.69,.03c1.76,0,6.25-.53,6.25-5.95v-30.63c0-10.62-.4-18.79-10.72-20.21v-6.53c12.3,0,16.47,1.63,21.43,8.58,4.96-6.94,9.32-8.58,21.63-8.58m2.5-2.5h-2.5c-11.52,0-16.86,1.58-21.63,7.03-5.15-5.9-10.61-7.03-21.43-7.03h-2.5v11.21l2.16,.3c7.75,1.07,8.56,6.23,8.56,17.74v30.63c0,1.03,0,3.45-3.75,3.45-.26,0-.42-.02-.42-.02l-2.75-.28-.02,2.77v7.51l2.79-.33s.16-.01,.37-.01c3.79,0,3.79,2.66,3.79,3.66v53.13c-.41,3.11-1.42,5.75-8.53,6.67l-2.18,.28v11.23h2.5c11.52,0,16.86-1.58,21.63-7.03,5.15,5.9,10.61,7.03,21.43,7.03h2.5v-11.23l-2.18-.28c-7.11-.92-8.12-3.55-8.53-6.67v-53.13c0-2.02,.75-2.71,1.31-3.06,.87-.54,2.02-.6,2.48-.6,.21,0,.35,.01,.39,.01l2.75,.28,.02-2.76v-7.51l-2.79,.33s0,0,0,0c0,0-.16,.01-.4,.01-3.75,0-3.75-2.42-3.75-3.45v-30.63c0-11.51,.81-16.67,8.56-17.74l2.16-.3v-11.21h0Z"/>
          </g>
          <g>
            <path class="cls-4" d="M678.81,214.84c-9.86,0-19.7-1-25.38-7.92-5.17,6.58-12.62,7.92-23.42,7.92h-1.25v-9.08l1.09-.14c4.4-.58,7.27-1.88,8.79-3.98,2.15-2.99,1.78-7.76,.47-14.5l-6.53-22.2c-3.86-10.58-7.81-17.17-17.56-21.46-4.05-1.77-6.24-3.08-6.16-4.95,.07-1.71,2-2.72,4.87-3.71,18.35-6.17,29.9-18.35,30.9-32.59,.51-7.92-1.83-15.13-6.61-20.29-4.51-4.87-10.85-7.49-18.34-7.57-10.21,0-21.16,8.36-21.16,20.8v35.92c.85,2.15,3.11,2.47,4.41,2.47,.31,0,.51-.02,.54-.02l1.39-.16v1.4s0,6.05,0,6.05l-1.35-.11s-.12,0-.27,0c-1.12,0-3.79,.26-4.72,2.66v51.03c.2,6.85,1.74,10.52,9.61,11.42l1.11,.13v8.9h-1.25c-12,0-16.64-1.59-21.43-7.9-4.79,6.31-9.43,7.9-21.43,7.9h-1.25v-8.9l1.11-.13c7.82-.89,9.41-4.72,9.61-11.46v-48.76c0-4.25-3.17-4.89-5.07-4.89-.18,0-.3,0-.32,0l-1.35,.11v-1.36s0-6.11,0-6.11l1.4,.17s.22,.02,.52,.02c2.2,0,4.83-.82,4.83-4.7v-35.73c0-9.54-1.43-14.17-9.54-14.68l-1.17-.07v-8.96h1.25c11.18,0,16.95,1.48,21.63,10.29,8.25-10.31,23.7-12.53,35.51-12.53,15.65,0,29,4.8,37.62,13.51,5.94,6.01,9.16,13.55,9.07,21.24,0,8.41-3.6,35.22-48.47,37.62,2.87,1.26,6.9,2.93,11.74,4.68,10.91,4,21.68,10.36,26.58,29.66l5.15,17.72c3.22,9.53,5.85,12.9,15.02,14.01l1.1,.13v9.09h-1.25Z"/>
            <path class="cls-3" d="M622.27,68.42c28.77,0,45.63,16.33,45.43,33.49,0,15.31-10.52,36.14-52.58,36.55,0,0,6.55,3.27,16.67,6.94,11.71,4.29,21.23,10.82,25.79,28.79l5.16,17.76c3.17,9.39,5.95,13.68,16.07,14.91v6.74c-11.9,0-20.64-1.63-25.4-8.78-4.76,7.15-11.71,8.78-23.41,8.78v-6.74c12.5-1.63,12.5-8.78,10.32-20.01l-6.55-22.26c-4.17-11.43-8.53-17.97-18.25-22.26-6.55-2.86-7.34-4.29-1.39-6.33,19.44-6.53,30.75-19.6,31.74-33.69,.99-15.31-8.53-28.99-26.19-29.2-10.32,0-22.42,8.37-22.42,22.05v36.14c1.07,3.14,4.25,3.5,5.66,3.5,.42,0,.69-.03,.69-.03v4.7s-.14-.01-.37-.01c-1.18,0-4.82,.28-5.97,3.69v51.25c.2,6.94,1.79,11.64,10.72,12.66v6.53c-12.3,0-16.47-1.63-21.43-8.78-4.96,7.15-9.13,8.78-21.43,8.78v-6.53c8.93-1.02,10.52-5.92,10.72-12.66v-48.8c0-5.7-4.83-6.14-6.32-6.14-.27,0-.43,.01-.43,.01v-4.7s.26,.03,.67,.03c1.71,0,6.08-.53,6.08-5.95v-35.73c0-8.78-.99-15.31-10.72-15.93v-6.53c12.3,0,17.06,2.04,21.43,11.44,6.94-10.41,21.43-13.68,35.71-13.68m0-2.5c-11.55,0-26.53,2.11-35.3,11.63-4.83-7.93-11.03-9.38-21.84-9.38h-2.5v11.38l2.34,.15c7.21,.45,8.37,4.33,8.37,13.43v35.73c0,1.03,0,3.45-3.58,3.45-.24,0-.39-.02-.39-.02l-2.76-.29-.02,2.77v7.43l2.73-.25s.09,0,.2,0c3.82,0,3.82,2.74,3.82,3.64v48.76c-.19,6.28-1.52,9.41-8.5,10.21l-2.22,.25v11.26h2.5c10.83,0,16.3-1.16,21.43-7.17,5.12,6.01,10.6,7.17,21.43,7.17h2.5v-11.26l-2.22-.25c-7.03-.8-8.31-3.8-8.5-10.21v-50.73c.74-1.5,2.65-1.67,3.47-1.67,.1,0,.16,0,.19,0l2.66,.17,.02-2.67v-7.52l-2.81,.35s0,0,0,0c0,0-.15,.01-.38,.01-1.13,0-2.55-.27-3.16-1.49v-35.65c0-12.76,11.57-19.55,19.92-19.55,7.11,.08,13.14,2.56,17.41,7.17,4.54,4.9,6.77,11.78,6.28,19.36-.97,13.71-12.2,25.48-30.05,31.48-2.72,.93-5.62,2.15-5.73,4.84-.12,2.84,3.06,4.47,6.91,6.15,8.28,3.65,12.55,8.89,16.88,20.75l6.49,22.07c1.23,6.37,1.61,10.85-.27,13.47-1.3,1.81-3.9,2.94-7.94,3.47l-2.18,.28v11.43h2.5c10.57,0,18.05-1.26,23.45-7.25,6.09,6.31,15.72,7.25,25.36,7.25h2.5v-11.45l-2.2-.27c-8.55-1.04-10.9-4.05-13.99-13.17l-5.13-17.67c-5.05-19.83-16.13-26.37-27.34-30.48-2.56-.93-4.89-1.83-6.94-2.66,14.31-1.47,25.44-5.75,33.16-12.77,9.86-8.97,11.33-19.96,11.33-25.71,.09-8-3.26-15.86-9.43-22.11-8.85-8.95-22.52-13.88-38.5-13.88h0Z"/>
          </g>
          <g>
            <path class="cls-7" d="M743.09,215.25c-14.9,0-26.52-1.53-34.38-8.76-4.88,6.6-9.68,8.35-21.96,8.35h-1.25v-8.87l1.07-.15c5.69-.81,8.37-3.74,9.25-10.08v-50.55c0-4.25-3.06-4.89-4.88-4.89-.17,0-.28,0-.31,0l-1.36,.11v-1.36s0-5.86,0-5.86l1.37,.13s.13,0,.3,0c1.82,0,4.88-.64,4.88-4.89v-38.54c-.57-6.41-2.33-10.57-9.23-11.48l-1.09-.14v-8.88h1.25c12.11,0,16.95,1.7,21.76,8.08,8.72-8.57,21.84-9.31,34.58-9.31s23.47,3.25,34.06,10.85c2.34,1.71,4.8,2.57,7.33,2.57,1.8,0,2.96-.46,2.97-.47l1.72-.7v1.85s0,9.8,0,9.8l-1,.21c-1.04,.21-1.94,.31-2.83,.31-1.04,0-2.05-.14-3.04-.42,1.76,7.33,.69,15.29-3.01,21.75-3.24,5.67-8.12,9.44-13.73,10.61-1.47,.32-2.92,.49-4.3,.49-4.07,0-7.63-1.45-10.32-4.18-3.38-3.44-5.25-8.87-5.14-14.91l.04-2.17,1.86,1.12c2.09,1.27,4.19,1.91,6.24,1.91,3.19,0,6.2-1.58,8.48-4.44,2.22-2.79,3.5-6.5,3.5-10.17,0-7.78-5.84-16.1-22.25-16.1-1,0-2.04,.03-3.1,.09-9.61,.61-20.85,5.35-20.85,16.72v35.53c0,4.25,3.06,4.89,4.88,4.89,.17,0,.28,0,.3,0l1.36-.11v1.36s0,5.86,0,5.86l-1.37-.13s-.13,0-.3,0c-1.82,0-4.88,.64-4.88,4.89v45.33c0,11.37,11.23,16.11,20.85,16.72,1.04,.06,2.07,.09,3.05,.09,7.54,0,13.33-1.73,17.18-5.16,3.11-2.76,4.83-6.65,4.83-10.96,0-6.99-4.82-14.78-11.72-14.78-2.04,0-4.12,.69-6.18,2.05l-1.9,1.26-.04-2.28c-.11-6.04,1.76-11.47,5.14-14.91,2.69-2.74,6.25-4.18,10.32-4.18h0c1.38,0,2.83,.16,4.31,.49,5.6,1.17,10.47,4.94,13.72,10.61,3.7,6.46,4.77,14.42,3.01,21.75,.99-.28,2-.42,3.04-.42,.9,0,1.8,.1,2.83,.31l1,.21v11.68l-1.73-.73s-1.17-.46-2.96-.46c-2.53,0-4.99,.86-7.32,2.57-10.59,7.61-20.78,10.86-34.07,10.86Zm3.5-50.87c-5.39,0-10.03-2.13-13.05-6-3.82-4.89-4.81-12.08-2.78-20.23,.84-3.21,2.29-6.15,3.69-9,3.22-6.55,4.99-10.77,.83-14.71l-3.55-3.36,4.73,1.24c4.28,1.12,7.84,4.38,10.03,9.18,2.99,6.57,2.88,14.96-.3,21.37-3.37,6.68-2.84,12.98-.83,16.25,1.02,1.65,2.39,2.57,3.87,2.57l.16,2.49c-.95,.12-1.89,.18-2.8,.18Z"/>
            <path class="cls-3" d="M743.09,69.44c12.9,0,22.82,3.06,33.33,10.62,3.08,2.25,5.95,2.81,8.06,2.81s3.45-.56,3.45-.56v8.78c-.77,.16-1.64,.29-2.58,.29-1.47,0-3.14-.31-4.96-1.31,4.76,14.09-2.38,30.63-15.08,33.28-1.43,.31-2.78,.46-4.04,.46-9.47,0-14.38-8.27-14.21-17.82,2.4,1.45,4.72,2.09,6.89,2.09,15.64,0,23.02-33.22-10.27-33.22-1.02,0-2.07,.03-3.17,.1-9.72,.61-22.02,5.51-22.02,17.97v35.53c0,5.7,4.69,6.14,6.13,6.14,.26,0,.42-.01,.42-.01v4.49s-.15-.01-.42-.01c-1.44,0-6.13,.44-6.13,6.14v45.33c0,12.46,12.3,17.35,22.02,17.97,1.08,.06,2.13,.09,3.13,.09,33.15,0,25.42-33.39,10.29-33.39-2.17,0-4.49,.69-6.87,2.26-.17-9.54,4.74-17.82,14.21-17.82,1.27,0,2.62,.15,4.04,.46,12.7,2.65,19.84,19.19,15.08,33.28,1.81-1,3.48-1.31,4.96-1.31,.94,0,1.81,.13,2.58,.29v8.78s-1.34-.56-3.45-.56-4.99,.56-8.06,2.81c-10.51,7.55-20.43,10.62-33.33,10.62-13.89,0-26.78-1.22-34.72-9.6v.41c-4.96,7.15-9.33,8.78-21.63,8.78v-6.53c7.14-1.02,9.52-5.31,10.32-11.23v-50.64c0-5.7-4.69-6.14-6.13-6.14-.26,0-.42,.01-.42,.01v-4.49s.15,.01,.42,.01c1.44,0,6.13-.44,6.13-6.14v-38.59c-.6-6.74-2.58-11.64-10.32-12.66v-6.53c12.3,0,16.67,1.63,21.63,8.78,7.94-8.78,20.44-10,34.72-10m-6.94,44.1c10.12,2.65,14.29,17.97,8.93,28.79-5.36,10.62-1.59,20.62,4.16,20.62-.91,.11-1.79,.17-2.65,.17-11.36,0-18.3-9.86-14.61-24.67,2.58-9.8,11.51-17.97,4.17-24.91m6.94-46.6c-11.98,0-25.36,.72-34.44,8.72-4.81-5.82-10.14-7.5-21.91-7.5h-2.5v11.23l2.17,.29c5.45,.72,7.51,3.32,8.15,10.29v38.48c0,1,0,3.64-3.63,3.64-.11,0-.18,0-.21,0l-2.68-.2-.03,2.69v7.24l2.73-.26s.08,0,.18,0c3.63,0,3.63,2.64,3.63,3.64v50.47c-.81,5.77-3.04,8.19-8.17,8.93l-2.15,.31v11.2h2.5c11.96,0,17.26-1.73,22.14-7.79,8.11,6.74,19.64,8.19,34.21,8.19,13.57,0,23.97-3.32,34.79-11.09,2.13-1.56,4.35-2.34,6.6-2.34,1.52,0,2.5,.37,2.51,.38l3.47,1.45-.03-3.77v-10.82l-2-.41c-1.12-.23-2.1-.34-3.09-.34-.48,0-.96,.03-1.44,.08,1.24-7.1,.01-14.6-3.53-20.79-3.42-5.99-8.59-9.97-14.56-11.22-1.55-.34-3.09-.51-4.56-.51-4.41,0-8.29,1.58-11.21,4.56-.24,.24-.47,.49-.69,.75l-.13-1.98c-1.39,0-2.35-1.23-2.81-1.97-1.83-2.98-2.28-8.78,.87-15.03,3.34-6.75,3.47-15.56,.32-22.46-2.34-5.15-6.2-8.65-10.85-9.87l-9.45-2.48,7.1,6.71c3.54,3.34,2.06,6.84-1.09,13.24-1.43,2.9-2.9,5.9-3.77,9.21-2.13,8.57-1.07,16.13,3,21.33,3.26,4.18,8.25,6.48,14.03,6.48,.2,0,.39,0,.59,0-1.79,3.32-2.7,7.4-2.62,11.88l.08,4.55,3.8-2.51c1.85-1.22,3.7-1.85,5.49-1.85,5.58,0,10.48,6.32,10.48,13.53,0,9.3-7.76,14.86-20.76,14.86-.96,0-1.97-.03-2.98-.09-9.07-.57-19.67-4.97-19.67-15.47v-45.33c0-2.03,.76-2.73,1.32-3.07,.84-.51,1.89-.57,2.31-.57,.11,0,.18,0,.21,0l2.68,.2,.03-2.69v-7.24l-2.73,.26s-.08,0-.18,0c-3.63,0-3.63-2.64-3.63-3.64v-35.53c0-10.5,10.6-14.9,19.68-15.47,1.02-.06,2.04-.09,3.01-.09,13.15,0,21,5.55,21,14.85,0,6.32-4.41,13.37-10.73,13.37-1.82,0-3.7-.58-5.6-1.73l-3.72-2.25-.08,4.34c-.12,6.46,1.83,12.08,5.5,15.81,2.93,2.98,6.8,4.56,11.21,4.56,1.47,0,3.01-.17,4.58-.52,5.94-1.24,11.11-5.23,14.53-11.21,3.54-6.19,4.77-13.69,3.53-20.79,.48,.06,.95,.08,1.44,.08,.98,0,1.96-.11,3.09-.34l2-.41v-14.58l-3.47,1.45s0,0,0,0c0,0-.98,.37-2.48,.37-2.26,0-4.47-.78-6.59-2.33-10.83-7.78-21.24-11.1-34.81-11.1h0Z"/>
          </g>
        </g>
        <g>
          <path class="cls-11" d="M417.43,271.78c-4.73,0-9.51-.46-14.19-1.35-3.04-.58-6.08-1.38-9.05-2.38-4.91-1.65-19.85-6.65-31.74-21.29-1.17-1.44-1.93-2.69-2.59-3.8,0,0-.6-.98-.67-1.11l-.58,.24c-.83,.35-20.95,8.57-25.28,10.24-8.76,3.37-32.02,12.33-54.59,12.33-9.79,0-18.39-1.7-25.54-5.06-6.74-3.17-11.02-7.14-13.07-12.17-.7-1.72-3.91-10.66,1.78-18.3,4.92-6.59,12.69-7.11,14.96-7.11,.42,0,.68,.02,.76,.02,7.58,.54,12.07,5.67,13.26,7.22l2.58,3.36-3.99-1.42c-1.16-.42-2.37-.63-3.57-.63-2.45,0-4.71,.87-6.37,2.44-.12,.12-3.05,2.95-2.71,7.04,.38,4.6,4.71,7.24,6.35,8.23,2.77,1.68,6.04,2.54,9.71,2.54,.36,0,.67,0,.92-.01,24.43-.72,51.36-10.7,51.63-10.8,10.66-3.99,19.33-7.65,26.3-10.59l1-.42c-2.79-6.74-4.75-13.36-6.36-19.2-8.28,4.15-16.17,4.62-19.29,4.62h-.37c-.91-.01-9.16-.24-18.35-4.55-20.11-9.44-32.47-33.81-33.06-65.19,0-3.05-1.32-4.58-3.92-4.58-.33,0-.55,.03-.58,.04l-1.44,.22v-1.46s0-5.91,0-5.91l1.34,.1s.09,0,.22,0c1.29,0,4.34-.33,5-3.32,4.14-36.07,24.79-59.38,52.62-59.38s48.35,22.17,52.43,57.85c.34,3.24,1.85,4.88,4.48,4.88,.23,0,.46-.01,.7-.03l1.37-.13v7.32l-1.38-.14s-.09,0-.22,0c-.53,0-1.86,.1-2.85,1.02-1.25,1.17-1.29,3.17-1.3,3.83-.14,5.9-6.88,38.8-24.09,56.43,1.53,4.78,4.48,13.26,8.66,21.84,3.27-1.34,5.29-2,9.16-3.05,12.28-3.33,23.26-5.01,32.62-5.01,7.86,0,14.57,1.11,21.1,3.51,8.92,3.27,15.7,8.23,19.61,14.35,3.77,5.91,5.28,11.95,4.47,17.97-.62,4.65-2.3,8.62-4.97,11.78-5.72,6.77-14,7.61-24.47,8.66-2.03,.2-4.19,.31-6.43,.31h0Zm-43.8-35.83c1.85,2.7,3.75,5.07,5.64,7.06,10,10.55,24.69,15.9,43.66,15.9,1.67,0,3.12-.04,4.3-.07,8.72-.22,14.51-2.18,16.73-5.68,2.92-4.58,.75-10.53,.73-10.59-1.31-3.5-4.36-6.13-10.88-9.38-6.83-3.4-14.77-5.13-23.61-5.13-4.62,0-9.45,.48-14.36,1.42-7.6,1.46-13.95,3.3-22.22,6.46Zm-69.5-95.81c-.74,0-2.58,.14-3.75,1.42-.94,1.02-1.1,2.4-1.14,3.35-1.73,39.64,14.22,54.59,14.38,54.74l.07,.06,.06,.07c.96,1.17,6.2,7.04,14.8,7.11h.16c8.38,0,13.58-5.45,15.01-7.17,.4-7.93-3.3-15-9.49-18.07-2.15-1.07-4.53-1.61-7.09-1.61-1.53,0-3.08,.19-4.6,.58l-2.31,.58,.83-2.23c.33-.88,3.42-8.64,10.86-10.02,.71-.13,1.44-.2,2.16-.2,4.03,0,7.25,2.09,8.98,3.21,5.41,3.51,8.05,8.86,9.32,12.8,4.3-10.85,6.13-24.24,5.46-39.86-.06-1.5-.43-2.57-1.14-3.35-1.18-1.29-3.02-1.42-3.75-1.42-.17,0-.27,0-.29,0l-1.35,.11v-1.36s0-5.9,0-5.9l1.33,.09h.11c1.35,0,4.48-.47,4.51-4.85-2.51-30.59-13.51-49.59-28.71-49.59s-26.2,19.08-28.71,49.79c0,1.89,.59,3.23,1.73,3.96,.98,.63,2.14,.7,2.6,.7,.15,0,.24,0,.26,0l1.36-.12v1.37s0,5.93,0,5.93l-1.37-.13s-.12,0-.29,0Z"/>
          <path class="cls-3" d="M328.54,71.66c27.58,0,47.22,22.02,51.19,56.74,.37,3.51,2.12,5.99,5.72,5.99,.26,0,.54-.01,.82-.04v4.56s-.13-.01-.35-.01c-.72,0-2.4,.14-3.7,1.36-1.7,1.6-1.68,4.16-1.7,4.8-.12,5.03-6.51,38.41-24.26,56.02,1.66,5.3,4.87,14.54,9.48,23.78,3.78-1.58,5.72-2.26,10.09-3.44,13.52-3.66,24-4.97,32.29-4.97,9.24,0,15.74,1.63,20.67,3.43,12.37,4.53,17.22,11.08,18.99,13.85,1.56,2.44,5.4,8.79,4.28,17.13-.23,1.74-.97,6.74-4.69,11.14-5.4,6.39-13.44,7.2-23.64,8.22-1.18,.12-3.37,.3-6.31,.3-3.67,0-8.49-.28-13.96-1.33-2.8-.54-5.77-1.29-8.88-2.33-5.64-1.89-19.73-6.82-31.16-20.89-1.36-1.68-2.13-3.07-2.95-4.4-.27-.43-.52-.86-.77-1.3-.31,.13-.88,.37-1.58,.67-.73,.31-20.84,8.53-25.24,10.23-8.76,3.37-31.81,12.25-54.14,12.25-8.74,0-17.38-1.36-25-4.94-8.36-3.93-11.22-8.51-12.44-11.51-.44-1.07-3.83-9.76,1.63-17.08,4.54-6.1,11.72-6.6,13.96-6.6,.37,0,.6,.01,.67,.02,7.46,.54,11.7,5.88,12.36,6.74-1.32-.47-2.67-.7-3.99-.7-2.71,0-5.3,.96-7.23,2.79-.24,.23-3.48,3.42-3.1,8.05,.43,5.23,5.17,8.11,6.94,9.19,3.99,2.43,8.1,2.72,10.36,2.72,.37,0,.69,0,.95-.02,24.92-.73,52.03-10.88,52.03-10.88,11.79-4.42,21.02-8.37,28.5-11.52-3.23-7.56-5.39-15.06-7.2-21.7-8.91,4.91-17.73,5.2-20.08,5.2-.14,0-.26,0-.35,0-2.46-.03-9.97-.74-17.83-4.43-19.44-9.13-31.74-32.54-32.34-64.08,0-5.21-3.55-5.81-5.17-5.81-.47,0-.78,.05-.78,.05v-4.56s.11,0,.31,0c1.19,0,5.39-.29,6.24-4.37,3.97-34.72,23.81-58.33,51.39-58.33m-24.39,62.71c.24,0,.38-.01,.38-.01v4.56s-.15-.01-.4-.01c-.91,0-3.16,.18-4.67,1.83-1.19,1.3-1.42,2.97-1.47,4.14-1.78,40.83,14.79,55.72,14.79,55.72,.75,.92,6.33,7.49,15.76,7.57,.06,0,.11,0,.17,0,9.82,0,15.57-7.1,16.23-7.95,.57-8.57-3.46-16.34-10.16-19.66-2.7-1.34-5.4-1.74-7.64-1.74s-3.97,.38-4.91,.61c.23-.6,3.1-7.96,9.92-9.23,.66-.12,1.31-.18,1.93-.18,3.66,0,6.58,1.9,8.3,3.01,7.43,4.83,9.26,13.24,9.69,15.62,4.17-8.92,7.92-22.9,7.02-43.78-.06-1.29-.33-2.89-1.47-4.14-1.51-1.65-3.76-1.83-4.67-1.83-.25,0-.4,.01-.4,.01v-4.56s.07,0,.19,0c1.03,0,5.76-.32,5.76-6.15-2.58-31.55-13.89-50.79-29.96-50.79s-27.38,19.24-29.96,50.99c0,5.54,4.26,5.97,5.57,5.97m118.78,125.81c1.68,0,3.14-.04,4.33-.07,13.3-.34,16.69-4.59,17.75-6.26,3.22-5.06,.96-11.38,.84-11.7-1.48-3.95-4.93-6.79-11.49-10.06-7.47-3.72-15.78-5.26-24.16-5.26-4.89,0-9.81,.52-14.59,1.44-8.51,1.63-15.26,3.72-23.89,7.09,2.04,3.1,4.26,6.01,6.64,8.53,13.99,14.76,33.77,16.29,44.58,16.29m-94.4-191.02c-14.16,0-26.76,5.88-36.43,17.01-9.36,10.77-15.38,25.78-17.42,43.41-.48,1.99-2.56,2.29-3.77,2.29-.08,0-.13,0-.15,0l-2.64-.15-.02,2.64v7.51l2.91-.48s0,0,0,0c0,0,.15-.02,.37-.02,1.87,0,2.67,.99,2.67,3.31,.3,15.78,3.54,30.15,9.38,41.59,5.84,11.45,14.28,20.01,24.4,24.76,9.43,4.43,17.92,4.66,18.86,4.67h.38c3.04,0,10.47-.43,18.48-4.09,1.45,5.18,3.19,10.9,5.54,16.76-6.93,2.93-15.55,6.56-26.12,10.52-.27,.1-27.01,10.01-51.23,10.72-.24,0-.54,.01-.88,.01-3.44,0-6.49-.79-9.06-2.36-1.62-.99-5.42-3.3-5.75-7.26-.29-3.48,2.3-6,2.33-6.03,1.43-1.35,3.39-2.1,5.51-2.1,1.06,0,2.12,.19,3.15,.55l7.99,2.85-5.16-6.72c-1.28-1.66-6.07-7.13-14.16-7.71-.08,0-.38-.03-.85-.03-2.41,0-10.7,.55-15.96,7.61-6.1,8.18-2.68,17.7-1.94,19.52,2.15,5.25,6.75,9.57,13.69,12.82,7.32,3.44,16.09,5.18,26.07,5.18,22.8,0,46.22-9.02,55.04-12.41,4.03-1.55,21.86-8.83,24.9-10.09,.04,.06,.07,.12,.11,.18,.69,1.14,1.47,2.44,2.7,3.94,12.12,14.92,27.32,20.01,32.31,21.69,3.02,1.01,6.12,1.83,9.21,2.42,4.76,.91,9.61,1.37,14.43,1.37,2.29,0,4.49-.11,6.56-.31,10.33-1.04,19.25-1.94,25.3-9.1,2.83-3.35,4.6-7.53,5.25-12.42,.85-6.32-.72-12.65-4.65-18.81-4.06-6.36-11.06-11.49-20.23-14.85-6.67-2.44-13.51-3.58-21.53-3.58-9.47,0-20.56,1.7-32.95,5.06-3.49,.94-5.49,1.58-8.21,2.66-3.69-7.74-6.36-15.28-7.86-19.91,18.21-19.14,23.82-52.7,23.92-56.63v-.1c.01-.53,.04-2.13,.91-2.94,.68-.64,1.7-.68,1.99-.68,.06,0,.1,0,.13,0l2.76,.29-.03-2.78v-7.31l-2.74,.26c-.2,.02-.4,.03-.58,.03-.85,0-2.84,0-3.24-3.75-2.01-17.61-8.02-32.4-17.37-42.8-9.52-10.58-22.07-16.18-36.31-16.18h0Zm-27.46,59.34c2.46-29.97,12.97-48.59,27.46-48.59s25,18.54,27.46,48.39c-.03,2.36-1.12,3.56-3.26,3.56h-.06s-2.67-.18-2.67-.18l.03,2.67v7.31l2.73-.26h0s.07,0,.17,0c.45,0,1.97,.07,2.83,1.02,.5,.55,.76,1.36,.81,2.56,.6,13.99-.82,26.15-4.24,36.26-1.61-3.54-4.26-7.47-8.61-10.3-1.84-1.19-5.26-3.41-9.66-3.41-.8,0-1.6,.07-2.39,.22-8.11,1.51-11.45,9.86-11.8,10.81l-1.66,4.46,4.62-1.16c1.42-.36,2.86-.54,4.3-.54,2.36,0,4.56,.5,6.53,1.48,5.63,2.8,9.03,9.2,8.81,16.46-1.55,1.74-6.4,6.41-13.78,6.41h-.15c-8.04-.07-12.95-5.56-13.85-6.66l-.19-.23-.13-.09c-1.09-1.07-15.55-16.04-13.91-53.7,.05-1.19,.31-2.01,.81-2.56,.86-.94,2.38-1.02,2.83-1.02,.1,0,.17,0,.2,0l2.73,.26-.02-2.75v-7.33l-2.75,.28s0,0,0,0c-.01,0-.06,0-.13,0-2.97,0-3.07-2.35-3.07-3.36h0Zm74.5,108.06c7.48-2.79,13.45-4.48,20.5-5.83,4.83-.93,9.58-1.4,14.12-1.4,8.64,0,16.4,1.68,23.05,5,6.2,3.09,9.08,5.53,10.27,8.7,.02,.05,1.97,5.44-.61,9.48-1.96,3.08-7.54,4.9-15.71,5.1-1.17,.03-2.62,.07-4.27,.07-18.62,0-33.01-5.22-42.76-15.51-1.54-1.62-3.08-3.5-4.59-5.6h0Z"/>
        </g>
      </g>
    </g>
  </g>
</svg>