<?xml version="1.0" encoding="UTF-8"?>
<svg id="Layer_2" data-name="Layer 2" xmlns="http://www.w3.org/2000/svg" xmlns:xlink="http://www.w3.org/1999/xlink" viewBox="0 0 786.04 865.31">
  <defs>
    <style>
      .cls-1 {
        fill: #39558a;
      }

      .cls-2 {
        fill: url(#linear-gradient-2);
      }

      .cls-3 {
        clip-path: url(#clippath-11);
      }

      .cls-4 {
        clip-path: url(#clippath-16);
      }

      .cls-5 {
        opacity: .64;
      }

      .cls-6 {
        opacity: .52;
      }

      .cls-7 {
        fill: #94c9cb;
      }

      .cls-8 {
        opacity: .46;
      }

      .cls-9 {
        fill: url(#linear-gradient-6);
      }

      .cls-10 {
        clip-path: url(#clippath-2);
      }

      .cls-11 {
        clip-path: url(#clippath-13);
      }

      .cls-12 {
        clip-path: url(#clippath-25);
      }

      .cls-13 {
        fill: url(#linear-gradient);
        filter: url(#drop-shadow-1);
        opacity: .91;
      }

      .cls-14 {
        fill: #334677;
      }

      .cls-15 {
        opacity: .58;
      }

      .cls-16 {
        opacity: .54;
      }

      .cls-17 {
        clip-path: url(#clippath-7);
      }

      .cls-18 {
        clip-path: url(#clippath-21);
      }

      .cls-19 {
        opacity: .39;
      }

      .cls-20 {
        clip-path: url(#clippath-12);
      }

      .cls-21 {
        clip-path: url(#clippath-24);
      }

      .cls-22 {
        clip-path: url(#clippath-22);
      }

      .cls-23 {
        fill: url(#linear-gradient-5);
      }

      .cls-24 {
        clip-path: url(#clippath-9);
      }

      .cls-25 {
        clip-path: url(#clippath);
      }

      .cls-26 {
        fill: none;
      }

      .cls-27 {
        clip-path: url(#clippath-19);
      }

      .cls-28 {
        fill: url(#linear-gradient-7);
      }

      .cls-29 {
        clip-path: url(#clippath-8);
      }

      .cls-30 {
        clip-path: url(#clippath-14);
      }

      .cls-31 {
        fill: url(#linear-gradient-3);
      }

      .cls-32 {
        clip-path: url(#clippath-5);
      }

      .cls-33 {
        clip-path: url(#clippath-10);
      }

      .cls-34 {
        clip-path: url(#clippath-23);
      }

      .cls-35 {
        fill: url(#linear-gradient-4);
      }

      .cls-36 {
        fill: url(#linear-gradient-8);
      }

      .cls-37 {
        fill: #804daf;
      }
    </style>
    <linearGradient id="linear-gradient" x1="-542.48" y1="973.58" x2="-171.12" y2="684.14" gradientTransform="translate(261.68 -141.22) rotate(-178.32) scale(1.01 -1)" gradientUnits="userSpaceOnUse">
      <stop offset=".27" stop-color="#7f1fe6"/>
      <stop offset=".4" stop-color="#b564ea" stop-opacity=".7"/>
      <stop offset=".7" stop-color="#cedcea"/>
    </linearGradient>
    <filter id="drop-shadow-1" filterUnits="userSpaceOnUse">
      <feOffset dx="7.52" dy="-3.76"/>
      <feGaussianBlur result="blur" stdDeviation="3.76"/>
      <feFlood flood-color="#39144a" flood-opacity=".15"/>
      <feComposite in2="blur" operator="in"/>
      <feComposite in="SourceGraphic"/>
    </filter>
    <linearGradient id="linear-gradient-2" x1="-2747.95" y1="760.28" x2="-2592.81" y2="635.87" gradientTransform="translate(3329.13)" gradientUnits="userSpaceOnUse">
      <stop offset=".27" stop-color="#3d85e6"/>
      <stop offset=".4" stop-color="#85c0ea"/>
      <stop offset=".7" stop-color="#cedcea"/>
    </linearGradient>
    <clipPath id="clippath">
      <path class="cls-2" d="M616.95,619.58c0,16.25,125.75,86.74,125.75,86.74v76.16s-96.26-2.18-96.26-2.18c-15.58-35.18-81.45-84.5-81.45-84.5-14.84,3.26-20.29-11.07-20.29-11.07,0,0-8.29-33.54,26.54-67.63,11.08-10.84,19.73-14.54,26.38-14.54,14.27,0,19.33,17.01,19.33,17.01"/>
    </clipPath>
    <linearGradient id="linear-gradient-3" x1="-2736.88" y1="728.3" x2="-2440.32" y2="503.99" xlink:href="#linear-gradient-2"/>
    <clipPath id="clippath-2">
      <path class="cls-14" d="M597.37,627.29c-2.59,6.86-8.96,16.01-9.48,17.16,0,0-11.03,20.01-25.33,32.98-14.3,12.96-13.37-4.97-12.41-11.25,1.21-7.91,23.78-45.94,37.74-52.83,2.64-1.3,4.71-1.86,6.32-1.86,6.89,0,5.25,10.25,3.16,15.81"/>
    </clipPath>
    <clipPath id="clippath-5">
      <path class="cls-7" d="M742.7,779.94v74.14s-126.96,0-126.96,0c-3.57-13.87-18.29-27.96-18.29-27.96l1.68-47.63,143.57,1.45Z"/>
    </clipPath>
    <clipPath id="clippath-7">
      <rect class="cls-26" x="0" y="0" width="742.7" height="854.08"/>
    </clipPath>
    <clipPath id="clippath-8">
      <rect class="cls-26" x="596.75" y="824.43" width="93.03" height="45.7"/>
    </clipPath>
    <clipPath id="clippath-9">
      <rect class="cls-26" x="712.61" y="801.7" width="30.47" height="37.5"/>
    </clipPath>
    <clipPath id="clippath-10">
      <rect class="cls-26" x="704.04" y="849.16" width="39.04" height="4.93"/>
    </clipPath>
    <clipPath id="clippath-11">
      <path class="cls-26" d="M603.99,833.33s.33,.37,.85,.97c2.18,2.54,7.79,9.27,7.21,10.76h-29.32s0-11.74,0-11.74h21.26Z"/>
    </clipPath>
    <linearGradient id="linear-gradient-4" x1="-1718.28" y1="-2072.47" x2="-1717.49" y2="-2072.47" gradientTransform="translate(-63178.56 -87639.41) rotate(-180) scale(37.12 42.69)" gradientUnits="userSpaceOnUse">
      <stop offset="0" stop-color="#fff"/>
      <stop offset="0" stop-color="#f2f0c3"/>
      <stop offset="1" stop-color="#c7c070"/>
    </linearGradient>
    <clipPath id="clippath-12">
      <path class="cls-26" d="M716.51,802.15c-.07,.13-.1,.2,0,0m0,0s0,0,0,0c0,0,0,0,0,0m0,0c.03-.06,.07-.13,.12-.23-.04,.08-.08,.16-.12,.23m.12-.23s0,0,0,0c0,0,0,0,0,0m0,0s0,0,0,0c0,0,0,0,0,0m0,0h0s0,0,0,0m0,0s0,0,0,0c0,0,0,0,0,0m0,0s0,0,0,0c0,0,0,0,0,0m0,0s0,0,0,0c0,0,0,0,0,0m0,0s0,0,0,0c0,0,0,0,0,0m0,0s0,0,0,0c0,0,0,0,0,0m0,0s0-.02,.01-.03c0,0,0,.02-.01,.03m.01-.03s0,0,0,0c0,0,0,0,0,0m0,0s0-.02,.01-.03c0,0,0,.02-.01,.03m.01-.03s0-.01,.01-.02c0,0,0,.02-.01,.02m.01-.02s.02-.04,.03-.05c-.01,.02-.02,.04-.03,.05m.03-.05s0,0,0,0c0,0,0,0,0,0m0,0s.01-.02,.01-.02c0,0,0,.02-.01,.02m6.43-10.48s-5.74,9.16-6.42,10.45c0,0,25.08,32.07,25.95,31.63v-19.3s-19.54-22.79-19.54-22.79Z"/>
    </clipPath>
    <linearGradient id="linear-gradient-5" x1="-1709.39" y1="-2079.5" x2="-1708.6" y2="-2079.5" gradientTransform="translate(-56845.85 -79751.88) rotate(-180) scale(33.69 38.74)" xlink:href="#linear-gradient-4"/>
    <clipPath id="clippath-13">
      <path class="cls-26" d="M704.15,849.16s-.08,2.83-.04,1.41c0-.25,.04-.75,.09-1.41h-.05Zm38.55-9.96c-1.18,0-4.94,0-9.66,0-11.28,0-28.04,0-28.04,0,0,0-.58,6.8-.81,9.96l38.5,.42v-10.38"/>
    </clipPath>
    <linearGradient id="linear-gradient-6" x1="-1736.61" y1="-2055.9" x2="-1735.82" y2="-2055.9" gradientTransform="translate(-84864 -115699.55) rotate(-180) scale(49.3 56.69)" xlink:href="#linear-gradient-4"/>
    <clipPath id="clippath-14">
      <rect class="cls-26" x="564.99" y="633.06" width="221.05" height="147.24"/>
    </clipPath>
    <clipPath id="clippath-16">
      <path class="cls-37" d="M742.7,770.87s-38.34,25.34-38.65,83.21h-28.07s-3.74-93.36,66.72-109.32v26.11Z"/>
    </clipPath>
    <clipPath id="clippath-19">
      <path class="cls-37" d="M639.74,768.43s-64.16,8.92-54.7,85.65h-26.49s-4.71-99.12,65.97-104.77l15.22,19.12Z"/>
    </clipPath>
    <clipPath id="clippath-21">
      <rect class="cls-26" x="0" y="0" width="742.7" height="854.08"/>
    </clipPath>
    <clipPath id="clippath-22">
      <rect class="cls-26" x="684.74" y="747.04" width="71.09" height="109.32"/>
    </clipPath>
    <clipPath id="clippath-23">
      <path class="cls-26" d="M741.05,747.04s-52.53,24.61-56.32,109.32h17.66s5.41-62.17,38.65-83.21c33.25-21.03,0-26.11,0-26.11"/>
    </clipPath>
    <linearGradient id="linear-gradient-7" x1="-1763.11" y1="-2033.2" x2="-1762.32" y2="-2033.2" gradientTransform="translate(-157746.12 -209391.71) rotate(-180) scale(89.9 103.38)" gradientUnits="userSpaceOnUse">
      <stop offset="0" stop-color="#334975"/>
      <stop offset="1" stop-color="#334975"/>
      <stop offset="1" stop-color="#697eb4"/>
    </linearGradient>
    <clipPath id="clippath-24">
      <rect class="cls-26" x="570.44" y="749.32" width="69.31" height="104.77"/>
    </clipPath>
    <clipPath id="clippath-25">
      <path class="cls-26" d="M624.53,749.32s-59.25,23.68-53.73,104.77h14.24s-7.29-75.15,54.7-85.65l-15.22-19.12Z"/>
    </clipPath>
    <linearGradient id="linear-gradient-8" x1="-1762.63" y1="-2033.91" x2="-1761.84" y2="-2033.91" gradientTransform="translate(-153837.33 -204182.35) rotate(-180) scale(87.64 100.78)" xlink:href="#linear-gradient-7"/>
  </defs>
  <g id="TENT_DLL" data-name="TENT DLL">
    <g>
      <path class="cls-13" d="M355.31,857.22c2.39-5,6.94-12.9,15.2-19.56,25.03-20.19,58.46-8.27,68.26-25.79,4.76-8.5-.82-15.41,6.31-23.16,7.1-7.73,15.04-3.48,21.82-9.84,9.77-9.18-.92-23.52,5.14-44.69,.78-2.73,7.77-25.82,28.64-34.24,24.66-9.96,49.58,8.3,51.36,9.64,.25-5.94,1.62-14.19,7.36-20.91,5.18-6.06,9.31-5.5,13.78-9.6,12.13-11.14-2.06-30.17,5.96-49.85,7.92-19.41,26.73-13.18,38.36-34.06,11.49-20.64-3.02-33.67,9.37-51.33,10.06-14.34,28.84-18.85,42.31-22.09,20.86-5.01,27.21-.07,39.26-4.35,12.6-4.47,27.69-17.69,37.67-56.7,1.12,129.85,2.25,259.69,3.37,389.54-131.39,2.33-262.77,4.65-394.16,6.98Z"/>
      <g>
        <path class="cls-2" d="M616.95,619.58c0,16.25,125.75,86.74,125.75,86.74v76.16s-96.26-2.18-96.26-2.18c-15.58-35.18-81.45-84.5-81.45-84.5-14.84,3.26-20.29-11.07-20.29-11.07,0,0-8.29-33.54,26.54-67.63,11.08-10.84,19.73-14.54,26.38-14.54,14.27,0,19.33,17.01,19.33,17.01"/>
        <g class="cls-25">
          <polygon class="cls-31" points="486.17 623.58 560.5 858.67 792.95 761.47 718.61 526.38 486.17 623.58"/>
        </g>
      </g>
      <g>
        <path class="cls-14" d="M597.37,627.29c-2.59,6.86-8.96,16.01-9.48,17.16,0,0-11.03,20.01-25.33,32.98-14.3,12.96-13.37-4.97-12.41-11.25,1.21-7.91,23.78-45.94,37.74-52.83,2.64-1.3,4.71-1.86,6.32-1.86,6.89,0,5.25,10.25,3.16,15.81"/>
        <g class="cls-10">
          <rect class="cls-14" x="548.25" y="611.48" width="52.85" height="78.9"/>
        </g>
      </g>
      <g>
        <path class="cls-7" d="M742.7,779.94v74.14s-126.96,0-126.96,0c-3.57-13.87-18.29-27.96-18.29-27.96l1.68-47.63,143.57,1.45Z"/>
        <g class="cls-32">
          <polygon class="cls-7" points="593.33 853.78 742.13 864.54 746.82 778.79 598.02 768.03 593.33 853.78"/>
        </g>
      </g>
      <g class="cls-17">
        <g class="cls-5">
          <g class="cls-29">
            <path class="cls-1" d="M596.75,826.36l93.03-1.93-2.84,45.7-70.96-10.96s-.95-17.82-19.24-32.81"/>
          </g>
        </g>
        <g class="cls-8">
          <g class="cls-24">
            <polygon class="cls-1" points="738.11 839.19 712.61 810.4 716.75 801.7 742.7 833.33 743.09 839.2 738.11 839.19"/>
          </g>
        </g>
        <g class="cls-16">
          <g class="cls-33">
            <polyline class="cls-1" points="742.7 849.57 742.7 854.08 704.05 854.08 704.15 849.16 743.09 849.39"/>
          </g>
        </g>
      </g>
      <g class="cls-3">
        <rect class="cls-35" x="582.73" y="833.33" width="29.9" height="11.74"/>
      </g>
      <g class="cls-20">
        <rect class="cls-23" x="716.41" y="791.24" width="26.29" height="42.53"/>
      </g>
      <g class="cls-11">
        <rect class="cls-9" x="704.08" y="839.19" width="38.62" height="12.8"/>
      </g>
      <g class="cls-19">
        <g class="cls-30">
          <path class="cls-1" d="M564.99,695.8c5.85-4.13,12.4-9.57,18.97-16.68,15.01-16.25,23.3-33.89,27.84-46.06,0,0-1.34,36.98-14.39,51.67,7.4,12.64,48.11,79.69,112.63,82.8,9.48,.46,21-.39,34.04-4.35-.46,5.58-.93,11.17-1.39,16.75-32.08,.12-64.17,.24-96.25,.36-15.16-24.43-28.71-38.83-38.52-47.56-4.85-4.31-22.81-19.71-30.26-26.1-5.31-4.55-9.7-8.31-12.67-10.84Z"/>
        </g>
      </g>
      <g>
        <path class="cls-37" d="M742.7,770.87s-38.34,25.34-38.65,83.21h-28.07s-3.74-93.36,66.72-109.32v26.11Z"/>
        <g class="cls-4">
          <rect class="cls-37" x="672.24" y="744.76" width="70.46" height="109.32"/>
        </g>
      </g>
      <g>
        <path class="cls-37" d="M639.74,768.43s-64.16,8.92-54.7,85.65h-26.49s-4.71-99.12,65.97-104.77l15.22,19.12Z"/>
        <g class="cls-27">
          <rect class="cls-37" x="553.84" y="749.32" width="85.9" height="104.77"/>
        </g>
      </g>
      <g class="cls-18">
        <g class="cls-6">
          <g class="cls-22">
            <g class="cls-34">
              <rect class="cls-28" x="684.73" y="747.04" width="89.57" height="109.32"/>
            </g>
          </g>
        </g>
        <g class="cls-15">
          <g class="cls-21">
            <g class="cls-12">
              <rect class="cls-36" x="565.28" y="749.32" width="74.46" height="104.77"/>
            </g>
          </g>
        </g>
      </g>
    </g>
  </g>
</svg>