<?xml version="1.0" encoding="UTF-8"?>
<svg id="Layer_2" data-name="Layer 2" xmlns="http://www.w3.org/2000/svg" xmlns:xlink="http://www.w3.org/1999/xlink" viewBox="0 0 241.32 675">
  <defs>
    <style>
      .cls-1 {
        fill: url(#linear-gradient-2);
      }

      .cls-2 {
        fill: #5b006d;
      }

      .cls-3 {
        fill: url(#linear-gradient-9);
        filter: url(#drop-shadow-2);
      }

      .cls-4 {
        fill: url(#linear-gradient);
      }

      .cls-4, .cls-5 {
        opacity: .8;
      }

      .cls-6 {
        fill: url(#linear-gradient-15);
      }

      .cls-7 {
        fill: url(#linear-gradient-14);
      }

      .cls-8 {
        fill: #2d327f;
      }

      .cls-9 {
        fill: url(#linear-gradient-11);
      }

      .cls-10 {
        fill: url(#linear-gradient-10);
      }

      .cls-11 {
        fill: url(#radial-gradient);
      }

      .cls-12 {
        fill: url(#linear-gradient-6);
        filter: url(#drop-shadow-1);
      }

      .cls-13 {
        fill: url(#linear-gradient-5);
      }

      .cls-14 {
        fill: #7b158f;
      }

      .cls-15 {
        fill: url(#linear-gradient-7);
      }

      .cls-16 {
        fill: #173378;
      }

      .cls-17 {
        fill: #6a4895;
      }

      .cls-18 {
        fill: #004280;
      }

      .cls-19 {
        fill: #7f0000;
        opacity: .7;
      }

      .cls-20 {
        fill: url(#linear-gradient-3);
      }

      .cls-21 {
        fill: #0a3e75;
      }

      .cls-22 {
        fill: #62007c;
      }

      .cls-5 {
        fill: #fde3ff;
      }

      .cls-23 {
        fill: url(#linear-gradient-4);
      }

      .cls-24 {
        fill: #2f4280;
      }

      .cls-25 {
        fill: url(#linear-gradient-8);
      }

      .cls-26 {
        fill: url(#linear-gradient-12);
      }

      .cls-27 {
        fill: #2a002c;
        opacity: .4;
      }

      .cls-28 {
        fill: url(#linear-gradient-13);
      }
    </style>
    <linearGradient id="linear-gradient" x1="-964.61" y1="3466.3" x2="-964.61" y2="3730.55" gradientTransform="translate(-2307.25 2322.29) rotate(-140.35) scale(1.22 .84) skewX(6.24)" gradientUnits="userSpaceOnUse">
      <stop offset="0" stop-color="#e6e7d9"/>
      <stop offset=".08" stop-color="#e6e7da" stop-opacity=".97"/>
      <stop offset=".2" stop-color="#e8e9dc" stop-opacity=".9"/>
      <stop offset=".33" stop-color="#ebece1" stop-opacity=".77"/>
      <stop offset=".47" stop-color="#f0f0e8" stop-opacity=".6"/>
      <stop offset=".63" stop-color="#f5f5f0" stop-opacity=".38"/>
      <stop offset=".79" stop-color="#fcfcfa" stop-opacity=".11"/>
      <stop offset=".85" stop-color="#fff" stop-opacity="0"/>
    </linearGradient>
    <linearGradient id="linear-gradient-2" x1="-110.4" y1="597.6" x2="-49.07" y2="656.18" gradientTransform="translate(39.5 -105.96) rotate(-11.76) scale(.84 1)" gradientUnits="userSpaceOnUse">
      <stop offset=".15" stop-color="#2d2c59"/>
      <stop offset=".28" stop-color="#2f2c5b"/>
      <stop offset=".36" stop-color="#382e63"/>
      <stop offset=".43" stop-color="#473270"/>
      <stop offset=".5" stop-color="#5d3883"/>
      <stop offset=".84" stop-color="#2d2c59"/>
    </linearGradient>
    <radialGradient id="radial-gradient" cx="-94.14" cy="608.65" fx="-104.12" fy="615.68" r="26.32" gradientTransform="translate(81.09 -114.61) rotate(-11.76) scale(1.02 1)" gradientUnits="userSpaceOnUse">
      <stop offset=".15" stop-color="#fff"/>
      <stop offset=".27" stop-color="#fff" stop-opacity=".99"/>
      <stop offset=".36" stop-color="#fff" stop-opacity=".95"/>
      <stop offset=".43" stop-color="#fff" stop-opacity=".89"/>
      <stop offset=".49" stop-color="#fff" stop-opacity=".81"/>
      <stop offset=".5" stop-color="#fff" stop-opacity=".8"/>
      <stop offset=".84" stop-color="#fff" stop-opacity=".6"/>
    </radialGradient>
    <linearGradient id="linear-gradient-3" x1="82.79" y1="215.76" x2="82.79" y2="500.79" gradientUnits="userSpaceOnUse">
      <stop offset=".2" stop-color="#8f0000"/>
      <stop offset=".85" stop-color="#cb0000"/>
      <stop offset="1" stop-color="#f30e00"/>
    </linearGradient>
    <linearGradient id="linear-gradient-4" x1="-515.38" y1="1305.66" x2="-526.54" y2="1528.25" gradientTransform="translate(-337.31 1814) rotate(177.13)" gradientUnits="userSpaceOnUse">
      <stop offset=".17" stop-color="#fff" stop-opacity="0"/>
      <stop offset=".63" stop-color="#7f0000"/>
    </linearGradient>
    <linearGradient id="linear-gradient-5" x1="-498.67" y1="1298.44" x2="-509.83" y2="1521.03" xlink:href="#linear-gradient-4"/>
    <linearGradient id="linear-gradient-6" x1="107.11" y1="8.62" x2="107.11" y2="660.54" xlink:href="#linear-gradient-3"/>
    <filter id="drop-shadow-1" filterUnits="userSpaceOnUse">
      <feOffset dx="2.76" dy="2.76"/>
      <feGaussianBlur result="blur" stdDeviation="3.54"/>
      <feFlood flood-color="#000" flood-opacity=".75"/>
      <feComposite in2="blur" operator="in"/>
      <feComposite in="SourceGraphic"/>
    </filter>
    <linearGradient id="linear-gradient-7" x1="-1904.2" y1="711.69" x2="-1904.2" y2="1054.6" gradientTransform="translate(-1813.05 1366.58) rotate(-180)" gradientUnits="userSpaceOnUse">
      <stop offset=".23" stop-color="#fff" stop-opacity="0"/>
      <stop offset=".76" stop-color="#f30e00"/>
    </linearGradient>
    <linearGradient id="linear-gradient-8" x1="-1878.43" y1="706.04" x2="-1878.43" y2="1058.49" xlink:href="#linear-gradient-7"/>
    <linearGradient id="linear-gradient-9" x1="24.59" y1="311.78" x2="77.33" y2="311.78" gradientUnits="userSpaceOnUse">
      <stop offset="0" stop-color="#ff6e00"/>
      <stop offset=".55" stop-color="#ffaf00"/>
    </linearGradient>
    <filter id="drop-shadow-2" filterUnits="userSpaceOnUse">
      <feOffset dx="2.76" dy="2.76"/>
      <feGaussianBlur result="blur-2" stdDeviation="3.54"/>
      <feFlood flood-color="#000" flood-opacity=".75"/>
      <feComposite in2="blur-2" operator="in"/>
      <feComposite in="SourceGraphic"/>
    </filter>
    <linearGradient id="linear-gradient-10" x1="55.57" y1="196.88" x2="135.82" y2="196.88" gradientUnits="userSpaceOnUse">
      <stop offset=".31" stop-color="#fff" stop-opacity="0"/>
      <stop offset=".97" stop-color="#ae0000"/>
    </linearGradient>
    <linearGradient id="linear-gradient-11" x1="38.42" y1="184.56" x2="97.52" y2="184.56" gradientUnits="userSpaceOnUse">
      <stop offset="0" stop-color="#fff" stop-opacity="0"/>
      <stop offset=".97" stop-color="#ae0000"/>
    </linearGradient>
    <linearGradient id="linear-gradient-12" x1="44.75" y1="89.61" x2="105.46" y2="89.61" gradientTransform="translate(71 104.45) rotate(11.97)" xlink:href="#linear-gradient-11"/>
    <linearGradient id="linear-gradient-13" x1="2.34" y1="490.25" x2="123.48" y2="490.25" gradientTransform="translate(-189.5 -233.73) rotate(-21.69)" xlink:href="#linear-gradient-11"/>
    <linearGradient id="linear-gradient-14" x1="12.34" y1="416.48" x2="133.47" y2="416.48" gradientTransform="translate(-189.5 -233.73) rotate(-21.69)" xlink:href="#linear-gradient-11"/>
    <linearGradient id="linear-gradient-15" x1="-1853.95" y1="707.88" x2="-1853.95" y2="1060.34" xlink:href="#linear-gradient-7"/>
  </defs>
  <g id="stage_lights" data-name="stage lights">
    <g>
      <path class="cls-17" d="M87.59,473.29c-.61,.54-3.04,2.79-4.24,6.63-.1,.31-.51,1.72-.63,3.64h0c.09,.42,0,.76-.02,.83-.22,.96,.12,2.26,.12,2.26,1.35,4.79,2.9,7.64,2.9,7.64s2.31,4.24,5.58,7.62c0,0,0,0,0,0,0,0,0,0,0,0,1.36,1.63,3.28,3.7,5.79,5.85,6.73,5.73,13.26,8.14,15.21,8.81,3.53,1.22,6.41,1.72,8.45,2.06,4.27,.72,6.68,1.13,9.89,.74,2.15-.26,7.28-.97,11.47-5.01,2.48-2.39,3.51-4.86,3.71-5.36,1.92-4.73,.74-9.02,.03-11.63-1.29-4.69-3.71-7.75-5.29-9.72-2.33-2.89-4.5-4.54-8.84-7.84-3.22-2.45-5.74-4.36-9.64-6.34-1.95-.99-5.26-2.64-9.94-3.74-.9-.21-3.51-.79-6.97-1.02-2.04-.14-3.99-.27-6.6,.08-1.56,.21-4.11,.57-7.07,2-1.1,.53-2.46,1.21-3.92,2.51Z"/>
      <path class="cls-4" d="M68.66,519.45c13.54,11.23,27.09,22.46,40.63,33.68,44.01-55.1,88.02-110.21,132.04-165.31-13.92-6.75-27.84-13.51-41.76-20.26l-.23-.16c-12.46-9.03-24.92-18.05-37.38-27.08-31.1,59.71-62.2,119.42-93.3,179.13Z"/>
      <path class="cls-1" d="M81.19,486.46c-5.47,14.59-10.58,28.12-14.09,37.45-.05,.14-.07,.3-.04,.45,.75,3.68,2.3,8.31,5.58,12.85,0,0,8.32,11.5,22.71,13.7,2.55,.39,3.56,.35,3.56,.35,2-.07,3.1-.58,4.74-.12,.65,.18,1.17,.45,1.56,.7,.21,.13,.47,.16,.7,.09,7.35-2.32,14.69-4.65,22.04-6.97,.16-.05,.3-.15,.4-.27,5.81-7.12,11.62-14.25,17.44-21.37,.16-.2,.22-.45,.17-.69-.59-2.69-1.17-5.39-1.76-8.08-.13-.62-.89-.86-1.38-.44-1.49,1.27-3.56,2.72-6.25,3.81-6.34,2.57-12.1,1.49-17.33,.44-8.23-1.65-14.75-5.14-19.44-8.43h0s-11.11-7.14-15.97-20.08c-.39-1.05-.68-2.05-.86-3.16-.37-2.22-.19-4.11,.03-5.38-.77,2.33-1.44,4.15-1.82,5.15Z"/>
      <path class="cls-24" d="M65.7,505.28c1.12-.51,2.24-1.01,3.35-1.52,.07-.03,.14-.05,.22-.07,2.45-.4,4.89-.79,7.34-1.19,.45-.07,.87,.21,.96,.65l2.27,10.92,5.89,27.56c.03,.16,.12,.31,.24,.43,6.7,6.29,13.39,12.58,20.09,18.88,.24,.22,.58,.29,.89,.17,7.44-2.84,14.89-5.68,22.33-8.53,.26-.1,.46-.33,.52-.6,.95-4.17,1.9-8.34,2.85-12.51,.03-.12,.09-.24,.17-.34,3.51-4.3,7.01-8.59,10.52-12.89,.46-.56,1.37-.33,1.49,.38,1.65,10.01,3.3,20.02,4.94,30.04,.06,.37-.14,.74-.49,.89-8.05,3.61-16.11,7.23-24.16,10.84-7.76,3.27-15.53,6.55-23.29,9.82-.14,.06-.29,.08-.43,.06-2.66-.32-5.31-.63-7.97-.95-.25-.03-.46-.16-.6-.36-4.96-7.45-9.86-15.87-14.32-25.3-1.2-2.54-2.32-5.05-3.37-7.52-.02-.04-.03-.08-.04-.11-3.29-12.59-6.58-25.18-9.86-37.78-.1-.39,.1-.8,.47-.96Z"/>
      <path class="cls-21" d="M107.92,562.17c1.29,1.02,1.84,1.08,2.31,1.35,.22,.13,.5,.15,.74,.06,8.12-3.18,16.25-6.36,24.37-9.55,.86-.34,.64-1.58-.28-1.6-1.68-.04-3.35-.07-5.03-.11-.11,0-.22,.02-.33,.06-3.87,1.48-13.63,5.37-21.65,8.3-.25,.09-.73,.27-1.35,.48,.48,.41,.89,.75,1.21,1Z"/>
      <path class="cls-18" d="M135.82,552.96c2.14-8.41,4.28-16.82,6.41-25.23-3.2,3.91-6.39,7.83-9.59,11.74-.95,4.2-1.91,8.41-2.86,12.61,2.01,.29,4.02,.59,6.03,.88Z"/>
      <path class="cls-2" d="M98.04,543.35c2.42,2.6,4.84,5.2,7.25,7.8,.36,.39,.99,.35,1.31-.08,5.36-7.33,10.71-14.66,16.07-21.98,.24-.33,.21-.77-.08-1.06-2.48-2.51-4.96-5.02-7.44-7.53-.36-.37-.98-.32-1.29,.1-5.29,7.24-10.59,14.48-15.88,21.72-.23,.32-.21,.75,.06,1.04Z"/>
      <path class="cls-22" d="M145.98,522.87c-2.43,3-17.45,21.61-17.62,21.81-.02,.02-.05,.06-.09,.09,0,0-.13,.12-.31,.18-.19,.06-9.23,2.71-21.58,6.32,5.53-7.61,11.06-15.21,16.6-22.82,7.67-1.86,15.33-3.73,23-5.59Z"/>
      <path class="cls-11" d="M91.52,473.27c-.27,.17-4.59,3.02-5.87,8.1-1.77,7.07,3.39,13.5,6.56,17.43,4.97,6.16,10.63,9.15,15.17,11.5,3.87,2,9.83,5,18.11,5.65,5.26,.41,10.95,.85,15.1-2.94,3.37-3.08,3.89-7.34,4-8.24,.54-4.42-1.26-7.74-3.05-11.05-2.77-5.11-6.35-8.18-9.22-10.64-.67-.58-3.46-2.93-7.66-5.42-3.23-1.91-7.28-4.32-13.08-5.7-2.76-.66-6.98-1.34-12.25-.92-1.35,0-4.6,.15-7.82,2.24Z"/>
      <path class="cls-14" d="M133.14,520.34c5.03-1.15,9.09-3.66,10.27-4.42,.34-.22,.62-.41,.8-.54,.59,2.5,1.18,5,1.76,7.5-7.67,1.86-15.33,3.73-23,5.59-2.68-2.74-5.37-5.48-8.05-8.22,.52,.03,1.3,.08,2.24,.12,8.66,.44,12.99,.66,15.97-.03Z"/>
      <path class="cls-16" d="M101.39,578.27c-7.39-11.61-14.79-23.22-22.18-34.83-1.36,.23-2.72,.46-4.08,.7,5.9,10.94,11.79,21.88,17.69,32.82,2.86,.44,5.71,.87,8.57,1.31Z"/>
      <path class="cls-8" d="M69.27,503.7c-1.07,.47-2.15,.95-3.22,1.42-.06,0-.44,.07-.68,.42-.21,.31-.15,.63-.14,.7,3.3,12.63,6.6,25.26,9.9,37.89,1.36-.23,2.72-.46,4.08-.7-3.31-13.25-6.63-26.49-9.94-39.74Z"/>
      <path class="cls-27" d="M114.44,535.45c-2.22,3.09-4.45,6.18-6.67,9.27-1.91-1.62-3.82-3.24-5.73-4.86,2.1-2.99,4.2-5.98,6.3-8.97,2.04,1.52,4.07,3.04,6.11,4.56Z"/>
      <path class="cls-5" d="M102.41,536.24c-2.57-.64-6.1-1.79-9.88-4-4.01-2.34-6.84-5.01-8.67-7.01-.27,.56-.54,1.12-.81,1.68,1.86,1.95,4.64,4.44,8.46,6.68,3.75,2.19,7.25,3.39,9.85,4.07,.35-.47,.69-.94,1.04-1.42Z"/>
      <path class="cls-5" d="M113.86,520.59c-3.05-.52-7.67-1.69-12.6-4.57-3.98-2.32-6.81-4.97-8.67-7.01-.27,.56-.54,1.12-.81,1.68,1.9,1.99,4.68,4.47,8.46,6.68,4.87,2.84,9.44,4.09,12.55,4.68,.35-.48,.71-.97,1.06-1.45Z"/>
      <path class="cls-5" d="M110.9,524.63c-2.98-.54-7.44-1.72-12.2-4.5-3.99-2.33-6.82-4.98-8.67-7.01-.27,.56-.54,1.12-.81,1.68,1.89,1.98,4.67,4.46,8.46,6.68,4.7,2.74,9.1,3.99,12.14,4.6,.36-.48,.71-.96,1.07-1.45Z"/>
      <path class="cls-5" d="M108.02,528.57c-2.83-.58-6.96-1.76-11.38-4.34-4-2.34-6.84-5-8.67-7.01-.27,.56-.54,1.12-.81,1.68,1.88,1.97,4.66,4.46,8.46,6.68,4.37,2.55,8.45,3.79,11.34,4.43l1.05-1.44Z"/>
      <path class="cls-5" d="M105.41,532.36c-2.72-.6-6.62-1.78-10.8-4.22-4.02-2.34-6.85-5.01-8.67-7.01l-.81,1.68c1.87,1.95,4.64,4.45,8.46,6.68,4.08,2.38,7.88,3.6,10.63,4.27,.39-.46,.79-.93,1.18-1.39Z"/>
    </g>
  </g>
  <g id="curtains">
    <g>
      <path class="cls-20" d="M114.45,215.76c-3.21,27.42-5.45,58.29-5.7,92.07-.49,67.09,7.05,124.78,15.93,169.83-.82,1.38-2.41,3.61-4.95,5.06-5.23,3-10.22,.26-11.13-.25-1.2,1.88-3.77,5.35-7.95,7.39-6.89,3.35-13.03,.29-14.5-.51-2.12,2.66-5.52,6.21-10.33,8.66-10.16,5.18-19.42,1.8-22.45,.51-4.15-76.23-8.31-152.45-12.46-228.68,24.51-18.02,49.03-36.05,73.54-54.07Z"/>
      <path class="cls-23" d="M124.45,477.65c-.67,1.12-2.98,4.65-7.11,6-4.45,1.45-8.02-.61-8.96-1.2-3.3-26.07-7.28-64.89-8.44-112.33-1.48-60.27,2.19-108.87,3.36-108.83,1.17,.03-1.87,49,4.51,114.08,4.29,43.69,11.28,78.94,16.64,102.28Z"/>
      <path class="cls-13" d="M108.12,485.7c-.67,1.12-2.98,4.65-7.11,6-4.45,1.45-8.02-.61-8.96-1.2-3.3-26.07-7.28-64.89-8.44-112.33-1.48-60.27,2.19-108.87,3.36-108.83,1.17,.03-1.87,49,4.51,114.08,4.29,43.69,11.28,78.94,16.64,102.28Z"/>
      <path class="cls-19" d="M95.01,228.72h0c3.95,.74,7.89,1.48,11.84,2.21-4.4,26.65-9.41,66.35-9.47,114.68-.08,74.87,11.77,136.67,10.99,136.85-.53,.12-5.99-29.38-10.1-65.38-5.22-45.81-9.13-109.82-3.27-188.36Z"/>
      <path class="cls-12" d="M184.98,14.49c.03,34.36-3.52,101.43-32.83,174.19-25.43,63.13-59.02,102.68-79.4,123.3,12.27,110.48,24.54,220.96,36.81,331.44-.56,1.2-4.47,9.31-12.51,11.13-8.65,1.96-14.8-5.01-15.51-5.84-1.96,6.43-6.54,10.95-11.86,11.72-5.17,.74-10.28-2.17-13.34-7.6-4.07,6.22-10.67,8.4-16.17,5.5-4.56-2.4-7.77-7.97-8.43-14.48-.83-211.74-1.66-423.49-2.5-635.23,51.92,1.96,103.83,3.91,155.75,5.87Z"/>
      <path class="cls-19" d="M54.93,311.17c4.48,1.3,8.96,2.61,13.44,3.91,4.39,111.21,8.78,222.42,13.17,333.63-8.87-112.51-17.74-225.02-26.61-337.54Z"/>
      <path class="cls-19" d="M31.73,314.32c4.48,1.29,8.96,2.58,13.44,3.87,3.72,111.54,7.44,223.08,11.16,334.63-8.2-112.83-16.4-225.67-24.61-338.5Z"/>
      <path class="cls-15" d="M109.56,643.41c-.56,1.2-4.47,9.31-12.51,11.13-8.65,1.96-14.8-5.01-15.51-5.84-2.93-112.24-5.86-224.48-8.79-336.73,12.27,110.48,24.54,220.96,36.81,331.44Z"/>
      <path class="cls-25" d="M81.54,648.7c-1.96,6.43-6.54,10.95-11.86,11.72-5.17,.74-10.28-2.17-13.34-7.6-2.37-114.91-4.74-229.83-7.12-344.74,10.77,113.54,21.55,227.08,32.32,340.62Z"/>
      <path class="cls-3" d="M26.12,300.68c5.98,2.88,13.79,5.83,23.1,7.4,10.92,1.84,20.33,1.18,27.33,0,.39,1.2,.84,3.09,.77,5.43-.16,5.18-2.78,8.54-3.46,9.37-8.35-.43-17.81-1.57-28.1-3.95-7.74-1.79-14.82-4.02-21.17-6.41,.51-3.95,1.03-7.89,1.54-11.84Z"/>
      <path class="cls-10" d="M117.78,79.16c-.46,28.69-3.44,67.33-13.88,110.89-13.25,55.26-33.21,96.32-48.34,122.5,3.57,.69,7.14,1.37,10.71,2.06,13.1-23.39,27.49-53.41,39.94-90.16,19.11-56.37,26.59-107.7,29.61-145.28h-18.04Z"/>
      <path class="cls-9" d="M77.53,63.35c3.8,26.56,6.89,65.84,1.29,112.29-7.55,62.69-27.33,108.63-40.41,134.13,3.6-.56,7.2-1.13,10.8-1.69,12.02-22.91,26.54-56.13,36.52-99.08,14.58-62.69,12.73-116.97,9.56-149.65-5.92,1.33-11.85,2.67-17.77,4Z"/>
      <path class="cls-26" d="M161.17,99.61c-6.22,29.66-15.94,65.82-31.52,104.78-18.43,46.09-39.31,81.75-56.9,107.58,17.47-18,39.72-44.83,60.33-82.52,26.13-47.78,39.06-93.66,45.74-125.05-5.88-1.6-11.77-3.2-17.65-4.8Z"/>
      <path class="cls-28" d="M55.93,93.15c2.95,17.77,5.97,47.39,.42,82.64-7.81,49.5-28.14,82.31-38.36,96.77,3.78,12.46,7.55,24.93,11.33,37.39,11.7-23.58,27.08-60.66,36.12-109.68,8.31-45.06,8.25-83.9,6.59-110.64-5.37,1.17-10.74,2.34-16.1,3.51Z"/>
      <path class="cls-7" d="M37.94,20.9c2.95,17.77,5.97,47.39,.42,82.64C30.55,153.05,10.22,185.85,0,200.32c3.78,12.46,7.55,24.93,11.33,37.39,11.7-23.58,27.08-60.66,36.12-109.68,8.31-45.06,8.25-83.9,6.59-110.64-5.37,1.17-10.74,2.34-16.1,3.51Z"/>
      <path class="cls-6" d="M57.07,646.86c-1.96,6.43-6.54,10.95-11.86,11.72-5.17,.74-10.28-2.17-13.34-7.6-2.37-114.91-4.74-229.83-7.12-344.74,10.77,113.54,21.55,227.08,32.32,340.62Z"/>
    </g>
  </g>
</svg>