<?xml version="1.0" encoding="UTF-8"?>
<svg id="Layer_2" data-name="Layer 2" xmlns="http://www.w3.org/2000/svg" xmlns:xlink="http://www.w3.org/1999/xlink" viewBox="0 0 314.21 371.94">
  <defs>
    <style>
      .cls-1 {
        fill: url(#linear-gradient);
      }

      .cls-1, .cls-2 {
        opacity: .8;
      }

      .cls-2 {
        fill: url(#linear-gradient-2);
      }
    </style>
    <linearGradient id="linear-gradient" x1="4450" y1="-8330.53" x2="4450" y2="-8138.91" gradientTransform="translate(7286.84 -15500.71) rotate(-173.69) scale(1.23 1.99)" gradientUnits="userSpaceOnUse">
      <stop offset="0" stop-color="#e6e7d9"/>
      <stop offset=".08" stop-color="#e6e7da" stop-opacity=".97"/>
      <stop offset=".2" stop-color="#e8e9dc" stop-opacity=".9"/>
      <stop offset=".33" stop-color="#ebece1" stop-opacity=".77"/>
      <stop offset=".47" stop-color="#f0f0e8" stop-opacity=".6"/>
      <stop offset=".63" stop-color="#f5f5f0" stop-opacity=".38"/>
      <stop offset=".79" stop-color="#fcfcfa" stop-opacity=".11"/>
      <stop offset=".85" stop-color="#fff" stop-opacity="0"/>
    </linearGradient>
    <linearGradient id="linear-gradient-2" x1="-1945.68" y1="-135.91" x2="-1945.68" y2="55.71" gradientTransform="translate(2649.55 -229.38) rotate(-8.08) scale(1.23 -1.94)" gradientUnits="userSpaceOnUse">
      <stop offset="0" stop-color="#e6e7d9"/>
      <stop offset=".08" stop-color="#e6e7da" stop-opacity=".97"/>
      <stop offset=".2" stop-color="#e8e9dc" stop-opacity=".9"/>
      <stop offset=".33" stop-color="#ebece1" stop-opacity=".77"/>
      <stop offset=".47" stop-color="#f0f0e8" stop-opacity=".6"/>
      <stop offset=".63" stop-color="#f5f5f0" stop-opacity=".38"/>
      <stop offset=".79" stop-color="#fcfcfa" stop-opacity=".11"/>
      <stop offset=".85" stop-color="#fff" stop-opacity="0"/>
    </linearGradient>
  </defs>
  <g id="tent">
    <g>
      <path class="cls-1" d="M0,370.66c3.85,.43,7.71,.85,11.56,1.28C34.82,251.96,58.07,131.98,81.33,12l-34.88-3.86-.15-.02L11.41,4.27C7.61,126.4,3.8,248.53,0,370.66Z"/>
      <path class="cls-2" d="M314.21,356.64c-3.84,.55-7.68,1.09-11.52,1.64-26.5-116.13-53-232.26-79.5-348.39l34.75-4.93,.15-.02L292.83,0c7.12,118.88,14.25,237.76,21.37,356.64Z"/>
    </g>
  </g>
</svg>