<?xml version="1.0" encoding="UTF-8"?>
<svg id="Layer_2" data-name="Layer 2" xmlns="http://www.w3.org/2000/svg" xmlns:xlink="http://www.w3.org/1999/xlink" viewBox="0 0 172.44 219.21">
  <defs>
    <style>
      .cls-1 {
        fill: url(#linear-gradient-2);
      }

      .cls-2 {
        fill: #df3e3a;
      }

      .cls-3 {
        fill: #ea5a49;
      }

      .cls-4 {
        fill: url(#linear-gradient);
      }
    </style>
    <linearGradient id="linear-gradient" x1="119.43" y1="219.58" x2="119.43" y2="4.72" gradientTransform="translate(1.81 -4.03) rotate(.33)" gradientUnits="userSpaceOnUse">
      <stop offset="0" stop-color="#faa826"/>
      <stop offset=".02" stop-color="#faa826"/>
      <stop offset=".41" stop-color="#ffe079"/>
      <stop offset="1" stop-color="#faa826"/>
    </linearGradient>
    <linearGradient id="linear-gradient-2" x1="66.88" y1="220.28" x2="66.88" y2="38.02" xlink:href="#linear-gradient"/>
  </defs>
  <g id="Layer_1-2" data-name="Layer 1">
    <g>
      <g>
        <path class="cls-2" d="M137.09,202.93c-.9-3.23-1.81-6.46-2.73-9.68-.84-2.96-1.72-5.9-2.56-8.86-.85-3-1.67-6.02-2.52-9.02-.82-2.86-1.69-5.71-2.5-8.58-.91-3.23-1.76-6.48-2.68-9.71-.85-3-1.77-5.97-2.61-8.97-1.37-4.87-2.71-9.75-4.07-14.63-1.13-4.01-2.29-8-3.42-12.01-.78-2.77-1.52-5.55-2.31-8.32-1.14-4-2.35-7.97-3.48-11.97-1.12-3.96-2.16-7.94-3.26-11.9-1.38-4.96-2.81-9.91-4.19-14.87-1.49-5.37-2.76-10.81-5.06-15.92-2.93-6.52-6.96-11.99-12.76-15.92-2.27-1.54-2.85-1.44-4.66,.76-.41,.5-.81,1.03-1.2,1.55-3.9,5.19-5.14,11.55-7.01,17.64-.86,2.8-1.64,5.62-2.5,8.42-1.45,4.74-2.95,9.47-4.39,14.22-.88,2.89-1.68,5.82-2.56,8.71-.88,2.9-1.85,5.76-2.74,8.66-.97,3.16-1.87,6.35-2.82,9.52-.88,2.93-1.79,5.86-2.68,8.79-.95,3.12-1.87,6.25-2.86,9.35-.85,2.66-1.53,5.36-2.43,8.01-1.02,2.99-1.76,6.08-2.67,9.12-.92,3.08-1.89,6.14-2.84,9.2-.94,3.02-1.88,6.04-2.81,9.06-.85,2.76-1.7,5.52-2.52,8.28-.91,3.08-1.77,6.18-2.69,9.26-.87,2.9-1.82,5.77-2.69,8.66-1.05,3.49-2,7-4.05,10.05-1.84,2.73-4.36,4.2-7.46,4.2-1.84,0-3.58-.87-5.24-1.77-1.08-.59-1.74-.31-1.68,.93,.09,1.89,.2,3.75,1.15,5.51,1.46,2.7,3.57,4.2,6.34,5.13,3.6,1.2,10.64,.71,13.05-3.33,.52-.87,.99-.84,1.61,.07,1.21,1.77,2.8,3.16,4.76,3.85,3.02,1.06,6.13,1.25,9.17,.08,2.72-1.04,4.75-2.89,5.55-5.97,.2-.78,.15-1.52-.78-1.61-.85-.08-1.54-.51-2.29-.83-4.17-1.83-6.28-5.89-5.6-10.59,.2-1.38,.6-2.67,.99-3.98,.87-2.94,1.67-5.91,2.55-8.85,.92-3.07,2.01-6.09,2.84-9.19,.81-3.02,1.88-5.94,2.68-8.97,1-3.79,2.33-7.49,3.47-11.24,1.2-3.93,2.33-7.88,3.53-11.81,1.1-3.61,2.28-7.2,3.39-10.81,1.23-4.01,2.39-8.05,3.6-12.07,1.12-3.71,2.28-7.41,3.39-11.12,.87-2.9,1.65-5.83,2.53-8.72,.87-2.84,1.87-5.64,2.73-8.49,1.4-4.66,2.73-9.35,4.11-14.02,.14-.48,.33-1.13,.9-1.11,.58,.01,.67,.66,.87,1.14,1.17,2.89,1.88,5.95,2.73,8.94,1.35,4.77,2.81,9.51,4.07,14.32,1.03,3.93,2.33,7.78,3.47,11.67,1.68,5.76,3.32,11.54,5,17.31,.73,2.5-.44,6.2-2.43,7.54-.73,.49-2.11,.75-1.91,1.65,.18,.82,1.57,.52,2.44,.71,2.66,.57,4.96,1.6,6.11,4.54,.41,1.04,.49,2.11,.83,3.14,1.16,3.54,2.32,7.1,3.27,10.7,1.06,4.02,2.28,7.99,3.43,11.98,1.05,3.63,2.09,7.27,3.2,10.89,1.02,3.34,1.93,6.72,2.91,10.08,.35,1.21,.83,2.41,.92,3.72,.28,4.01-2.08,9.31-7.49,9.82-1.58,.15-2.03,1.09-1.38,2.6,.7,1.64,1.73,2.99,3.04,4.15,4.29,3.76,9.43,4.7,14.76,5.01,2.16,.12,4.24-.2,6.31-.8,2.4-.69,4.44-1.87,5.83-4.08,.66-1.05,.94-2.14,.6-3.51-.47-1.94-1.08-3.82-1.61-5.73Z"/>
        <path class="cls-2" d="M44.14,219.21c-1.73,0-3.52-.34-5.34-.98-1.9-.67-3.62-1.94-5.02-3.69-3.41,3.99-10.4,4.43-14.38,3.11-3.42-1.14-5.76-3.05-7.36-5.99-1.19-2.19-1.3-4.5-1.38-6.35-.08-1.68,.7-2.47,1.17-2.79,.6-.41,1.63-.72,3.12,.09,1.51,.82,2.98,1.55,4.39,1.56h.03c2.46,0,4.48-1.15,6-3.4,1.73-2.57,2.62-5.55,3.56-8.71l.24-.82c.43-1.45,.89-2.89,1.34-4.33,.46-1.44,.91-2.89,1.35-4.34,.5-1.67,.98-3.34,1.46-5.01,.4-1.41,.81-2.83,1.23-4.24,.74-2.5,1.5-4.98,2.27-7.47l.26-.83c.65-2.11,1.3-4.21,1.95-6.32l1.72-5.53c.67-2.13,1.33-4.26,1.97-6.41,.33-1.11,.64-2.24,.95-3.36,.53-1.92,1.08-3.9,1.74-5.83,.5-1.47,.95-3.01,1.38-4.5,.34-1.16,.67-2.32,1.04-3.47,.66-2.08,1.29-4.17,1.92-6.27,.31-1.02,.62-2.04,.93-3.07l.98-3.2c.57-1.86,1.14-3.71,1.7-5.57,.41-1.36,.81-2.73,1.21-4.09,.53-1.82,1.06-3.63,1.61-5.44,.44-1.44,.9-2.87,1.36-4.3,.47-1.45,.93-2.9,1.37-4.35,.44-1.44,.86-2.89,1.28-4.34,.42-1.46,.84-2.92,1.28-4.37,.77-2.52,1.55-5.03,2.33-7.54,.69-2.22,1.38-4.45,2.06-6.68,.41-1.34,.8-2.69,1.2-4.04,.43-1.46,.85-2.93,1.3-4.38,.36-1.16,.69-2.33,1.02-3.5,1.44-5.04,2.92-10.26,6.29-14.73,.41-.54,.82-1.09,1.25-1.61,2.4-2.92,3.96-3.17,6.99-1.12,5.7,3.87,10.09,9.33,13.41,16.7,1.96,4.35,3.19,8.93,4.39,13.36,.26,.95,.51,1.89,.77,2.84,.71,2.56,1.43,5.11,2.16,7.66,.68,2.4,1.36,4.8,2.03,7.21,.5,1.79,.99,3.59,1.47,5.39,.59,2.17,1.18,4.34,1.79,6.51,.63,2.22,1.28,4.44,1.93,6.66,.52,1.77,1.04,3.54,1.54,5.31,.44,1.54,.86,3.08,1.29,4.62,.34,1.24,.68,2.47,1.03,3.71,.52,1.84,1.05,3.68,1.57,5.53,.62,2.16,1.24,4.32,1.84,6.49,.63,2.24,1.25,4.49,1.87,6.73,.73,2.63,1.46,5.26,2.2,7.89,.43,1.51,.87,3.01,1.32,4.52,.44,1.48,.88,2.96,1.3,4.45,.47,1.65,.91,3.29,1.36,4.94,.43,1.59,.87,3.18,1.31,4.77,.43,1.52,.88,3.03,1.32,4.55,.4,1.34,.79,2.68,1.17,4.03,.45,1.56,.88,3.12,1.31,4.68,.4,1.45,.8,2.9,1.21,4.34,.43,1.53,.88,3.05,1.32,4.57,.42,1.43,.83,2.86,1.24,4.29,.92,3.23,1.83,6.46,2.73,9.7h0c.19,.68,.39,1.36,.59,2.04,.36,1.21,.73,2.47,1.04,3.75,.43,1.78,.16,3.43-.85,5.02-1.5,2.37-3.74,3.96-6.85,4.86-2.44,.7-4.7,.98-6.88,.86-5.09-.3-10.95-1.18-15.81-5.44-1.56-1.37-2.75-2.99-3.53-4.82-.73-1.71-.43-2.89-.04-3.58,.38-.68,1.19-1.52,2.9-1.68,4.39-.41,6.07-4.81,5.86-7.8-.05-.77-.31-1.57-.58-2.41-.09-.3-.19-.59-.27-.89-.38-1.3-.75-2.6-1.12-3.9-.58-2.06-1.16-4.11-1.79-6.15-1.05-3.41-2.05-6.89-3.02-10.25l-.19-.67c-.35-1.22-.71-2.43-1.07-3.65-.8-2.73-1.64-5.56-2.38-8.38-.96-3.64-2.17-7.33-3.23-10.59-.18-.56-.29-1.08-.4-1.59-.11-.52-.22-1.02-.38-1.44-.73-1.87-2.08-2.82-4.82-3.41-.17-.04-.38-.04-.59-.04-.84-.03-2.81-.11-3.24-2.09-.47-2.17,1.55-3.11,2.22-3.42,.17-.08,.34-.15,.48-.24,1.3-.87,2.18-3.7,1.68-5.4-.75-2.58-1.49-5.17-2.24-7.76-.92-3.18-1.83-6.37-2.76-9.55-.42-1.44-.87-2.88-1.31-4.32-.75-2.41-1.52-4.91-2.17-7.41-.81-3.12-1.73-6.27-2.62-9.32-.48-1.65-.96-3.3-1.43-4.96-.2-.71-.4-1.43-.59-2.14-.4-1.47-.78-2.88-1.23-4.26-.32,1.1-.64,2.2-.96,3.3-.79,2.73-1.59,5.46-2.41,8.18-.45,1.5-.94,2.99-1.44,4.48-.44,1.34-.88,2.67-1.3,4.02-.48,1.57-.93,3.15-1.38,4.72-.38,1.33-.76,2.66-1.15,3.99-.61,2.03-1.23,4.05-1.85,6.07-.52,1.68-1.04,3.37-1.54,5.06-.53,1.75-1.05,3.5-1.56,5.25-.67,2.28-1.35,4.55-2.04,6.82-.56,1.83-1.14,3.66-1.72,5.49-.56,1.77-1.12,3.55-1.67,5.32-.6,1.97-1.19,3.94-1.77,5.91-.58,1.97-1.17,3.94-1.76,5.9-.41,1.35-.85,2.68-1.28,4.02-.76,2.34-1.54,4.75-2.17,7.14-.42,1.61-.92,3.19-1.41,4.73-.44,1.39-.89,2.83-1.28,4.25-.52,1.92-1.13,3.81-1.72,5.65-.39,1.19-.77,2.39-1.13,3.59-.46,1.54-.9,3.09-1.34,4.64-.4,1.4-.79,2.81-1.21,4.2l-.08,.28c-.35,1.17-.68,2.28-.84,3.41-.56,3.87,1.13,7.08,4.52,8.56,.19,.08,.37,.17,.55,.26,.46,.22,.85,.41,1.21,.44,1.12,.11,1.73,.7,2.04,1.18,.49,.75,.6,1.69,.31,2.81-.89,3.45-3.14,5.89-6.67,7.25-1.61,.62-3.28,.92-5.01,.91Zm-10.39-9.21c.86,0,1.63,.5,2.3,1.48,1.08,1.57,2.38,2.64,3.88,3.17,2.86,1.01,5.55,1.04,7.99,.1,2.19-.84,3.59-2.19,4.26-4.11-.54-.16-1-.38-1.41-.57-.15-.07-.3-.14-.45-.21-4.93-2.16-7.5-7-6.69-12.61,.21-1.42,.59-2.72,.96-3.98l.08-.28c.41-1.38,.8-2.77,1.19-4.16,.44-1.57,.89-3.14,1.36-4.71,.37-1.23,.76-2.45,1.16-3.67,.58-1.79,1.18-3.64,1.67-5.46,.4-1.5,.87-2.98,1.32-4.41,.47-1.49,.95-3.03,1.35-4.55,.66-2.5,1.46-4.97,2.23-7.35,.43-1.32,.85-2.63,1.26-3.96,.6-1.95,1.18-3.91,1.76-5.87,.59-1.98,1.17-3.97,1.78-5.95,.55-1.79,1.11-3.58,1.68-5.36,.58-1.81,1.15-3.63,1.71-5.45,.69-2.26,1.36-4.53,2.03-6.79,.52-1.76,1.04-3.52,1.57-5.27,.51-1.69,1.03-3.38,1.55-5.08,.62-2.01,1.24-4.02,1.84-6.04,.39-1.31,.76-2.62,1.14-3.94,.46-1.6,.91-3.21,1.4-4.8,.42-1.38,.87-2.74,1.32-4.1,.48-1.46,.96-2.91,1.4-4.38,.82-2.71,1.61-5.42,2.39-8.14,.57-1.96,1.14-3.91,1.72-5.87,.48-1.63,1.36-2.45,2.61-2.44h.03c1.13,.02,1.95,.73,2.42,2.11l.06,.18c.94,2.32,1.59,4.72,2.22,7.04,.19,.7,.38,1.4,.58,2.1,.47,1.65,.95,3.29,1.43,4.93,.9,3.08,1.83,6.26,2.65,9.43,.63,2.42,1.39,4.87,2.12,7.24,.45,1.46,.9,2.91,1.33,4.38,.93,3.18,1.85,6.37,2.77,9.56,.74,2.58,1.49,5.17,2.24,7.75,.85,2.93-.17,6.74-2.21,8.86,2.39,.66,5.01,1.98,6.35,5.41,.29,.73,.44,1.44,.57,2.07,.09,.4,.17,.8,.29,1.19,1.08,3.31,2.31,7.07,3.3,10.81,.73,2.77,1.55,5.57,2.35,8.27,.36,1.22,.72,2.44,1.07,3.67l.19,.67c.96,3.35,1.96,6.81,3,10.18,.63,2.07,1.22,4.15,1.81,6.23,.36,1.29,.73,2.58,1.11,3.87,.08,.27,.16,.54,.25,.8,.31,.98,.66,2.09,.75,3.33,.38,5.33-2.88,11.19-9,11.83,.57,1.31,1.4,2.43,2.54,3.43,4.05,3.55,8.98,4.3,13.71,4.57,1.79,.1,3.67-.14,5.74-.73,2.27-.65,3.8-1.7,4.81-3.3,.44-.7,.54-1.26,.36-1.99-.29-1.19-.63-2.34-.99-3.57-.21-.7-.41-1.4-.61-2.1h0c-.9-3.23-1.8-6.45-2.72-9.67-.41-1.42-.82-2.84-1.24-4.26-.45-1.53-.89-3.06-1.33-4.59-.41-1.45-.82-2.91-1.22-4.37-.43-1.55-.86-3.1-1.3-4.65-.38-1.33-.77-2.66-1.17-3.99-.45-1.53-.9-3.06-1.34-4.59-.45-1.6-.89-3.2-1.32-4.8-.45-1.64-.89-3.27-1.35-4.91-.42-1.47-.85-2.94-1.28-4.41-.45-1.52-.9-3.04-1.33-4.56-.74-2.63-1.47-5.27-2.21-7.91-.62-2.24-1.24-4.48-1.87-6.72-.61-2.16-1.22-4.31-1.84-6.47-.53-1.85-1.06-3.69-1.58-5.54-.35-1.24-.69-2.49-1.03-3.73-.42-1.53-.84-3.05-1.27-4.57-.51-1.76-1.02-3.52-1.54-5.28-.65-2.23-1.31-4.46-1.94-6.7-.61-2.18-1.21-4.36-1.8-6.55-.48-1.79-.97-3.58-1.47-5.36-.67-2.4-1.35-4.79-2.03-7.19-.73-2.56-1.45-5.12-2.16-7.68-.27-.95-.52-1.91-.78-2.87-1.21-4.48-2.35-8.71-4.18-12.77-3.02-6.71-6.98-11.67-12.11-15.14-.94-.64-1.24-.73-1.32-.74,.01,.03-.27,.24-1.02,1.15-.4,.48-.77,.99-1.15,1.49-2.94,3.9-4.26,8.55-5.66,13.47-.34,1.2-.68,2.39-1.05,3.58-.44,1.44-.86,2.88-1.29,4.33-.4,1.36-.8,2.73-1.21,4.09-.68,2.23-1.38,4.47-2.07,6.7-.78,2.5-1.56,5.01-2.32,7.52-.44,1.43-.85,2.87-1.27,4.31-.42,1.47-.85,2.94-1.29,4.4-.45,1.48-.92,2.94-1.39,4.41-.45,1.41-.91,2.83-1.34,4.25-.55,1.79-1.07,3.59-1.6,5.39-.4,1.37-.8,2.75-1.22,4.12-.56,1.87-1.13,3.73-1.71,5.6l-.98,3.2c-.31,1.02-.62,2.03-.92,3.05-.64,2.11-1.27,4.23-1.94,6.33-.36,1.12-.68,2.24-1.01,3.37-.44,1.53-.9,3.12-1.44,4.68-.62,1.82-1.15,3.75-1.67,5.61-.32,1.15-.63,2.3-.98,3.44-.64,2.16-1.32,4.3-1.99,6.45l-1.72,5.52c-.65,2.1-1.3,4.2-1.95,6.3l-.26,.83c-.76,2.47-1.52,4.95-2.26,7.43-.41,1.4-.82,2.8-1.22,4.21-.48,1.69-.97,3.38-1.47,5.06-.44,1.47-.9,2.93-1.36,4.39-.45,1.42-.9,2.84-1.33,4.27l-.24,.81c-.98,3.3-2,6.71-4.06,9.77-2.2,3.26-5.29,4.99-8.92,4.99-1.8-.02-3.48-.66-5.04-1.44,.1,1.19,.29,2.29,.83,3.29,1.14,2.1,2.78,3.42,5.33,4.27,3.18,1.06,9.2,.47,10.99-2.53,.58-.98,1.32-1.48,2.19-1.51,.03,0,.06,0,.09,0Z"/>
      </g>
      <g>
        <path class="cls-2" d="M168.65,205.58c-2.04,.1-3.82-.47-5.47-1.69-3.81-2.81-5.65-6.95-7-11.41-.7-2.3-1.26-4.66-1.89-6.99-.89-3.28-1.77-6.57-2.68-9.85-.78-2.83-1.57-5.65-2.39-8.46-.85-2.9-1.84-5.76-2.6-8.68-1.01-3.89-2.07-7.78-3.35-11.58-1.21-3.62-.5-6.4,2.5-8.57,.69-.5,1.98-.91,1.89-1.57-.14-.95-1.47-1.01-2.3-1.44-3.6-1.84-6.34-4.57-7.8-8.5-.95-2.55-1.55-5.25-2.34-7.87-1.18-3.98-2.4-7.95-3.58-11.94-1.31-4.44-2.59-8.89-3.9-13.33-1.13-3.81-2.31-7.59-3.43-11.4-1.4-4.76-2.76-9.54-4.16-14.31-1.11-3.81-2.22-7.62-3.37-11.41-.79-2.62-1.44-5.31-2.51-7.8-2.26-5.24-5.86-9.33-10.34-12.61-1.41-1.03-2.65-2.31-3.8-3.65-.54-.63-.69-1.14,0-1.81,2.25-2.19,2.67-5.48,.13-8.2-.62-.67-.56-1.21,.2-1.54,1.5-.66,2.98-1.37,4.57-1.76,1.2-.3,2.22-.11,2.96,1.1,.39,.64,.95,1.15,1.63,1.48,4.35,2.09,8.85,2.49,13.48,1.33,.37-.09,.71-.42,1-.7,.52-.52,.36-1.11-.28-1.11-1.5,0-2.76-.86-4.21-1.03-4.09-.46-5.53-1.93-6.19-6.15-.02-.14-.04-.28-.06-.42-.77-3.84-4.1-5.99-7.68-5.1-2.99,.74-5.85,1.85-8.67,3.11-2.47,1.1-2.9,2.01-2.16,4.77,.1,.36,.27,.71,.4,1.06,.63,1.83,.33,3.58-.91,4.31-2.43,1.42-3.6,4.83-1.73,7.62,.63,.95,.42,1.54-.13,2.39-1.33,2.07-3.27,3.41-5.03,4.96-.95,.83-.96,1.36,0,2.14,.86,.69,1.79,1.29,2.65,1.98,3.9,3.13,6.93,7.07,9.5,11.44,2.85,4.86,4.63,10.21,6.07,15.65,.85,3.2,1.83,6.36,2.57,9.6,.75,3.31,1.81,6.55,2.74,9.82,.87,3.09,1.71,6.2,2.63,9.27,.85,2.85,1.71,5.71,2.46,8.58,1.34,5.13,2.91,10.18,4.29,15.29,.76,2.83,1.52,5.66,2.43,8.45,.97,3.01,1.65,6.12,2.5,9.17,.88,3.14,1.82,6.25,2.71,9.38,.87,3.04,1.68,6.1,2.55,9.15,.86,3,1.78,5.98,2.63,8.98,1.38,4.86,2.73,9.73,4.11,14.59,.83,2.91,1.72,5.79,2.54,8.7,1.09,3.87,2.12,7.76,3.21,11.63,1.17,4.19,2.36,8.37,3.57,12.55,.37,1.29,.84,2.57,2.22,3.03,1.95,.64,3.92,1.17,5.37,1,4.24,0,7.74-.65,10.93-2.48,2.65-1.52,4.82-3.59,5.4-6.94,.34-1.93,.06-2.32-1.87-2.22Z"/>
        <path class="cls-2" d="M153.55,219.15c-1.64,0-3.48-.53-5.26-1.12-2.39-.79-3.05-3.06-3.41-4.28-1.21-4.18-2.4-8.37-3.58-12.56-.51-1.83-1.02-3.67-1.52-5.51-.56-2.04-1.11-4.08-1.69-6.11-.43-1.53-.88-3.05-1.33-4.58-.41-1.37-.81-2.75-1.2-4.12-.67-2.34-1.32-4.68-1.98-7.03-.71-2.52-1.41-5.04-2.13-7.56-.43-1.52-.88-3.04-1.33-4.55-.44-1.47-.87-2.95-1.3-4.42-.46-1.6-.9-3.2-1.34-4.8-.4-1.45-.8-2.9-1.21-4.35-.39-1.39-.8-2.77-1.21-4.15-.51-1.74-1.02-3.49-1.51-5.24-.32-1.15-.62-2.31-.91-3.47-.48-1.87-.97-3.8-1.56-5.63-.9-2.79-1.67-5.63-2.41-8.39l-.04-.15c-.62-2.31-1.28-4.6-1.94-6.89-.79-2.75-1.61-5.59-2.35-8.41-.73-2.79-1.54-5.5-2.44-8.51-.64-2.13-1.23-4.27-1.83-6.41-.27-.96-.54-1.93-.81-2.89-.28-1-.58-1.99-.87-2.98-.67-2.25-1.36-4.58-1.89-6.94-.46-2.05-1.05-4.13-1.61-6.14-.32-1.13-.64-2.26-.94-3.39-1.16-4.39-2.88-10.08-5.87-15.17-2.74-4.66-5.7-8.24-9.06-10.94-.41-.33-.84-.64-1.27-.95-.46-.33-.93-.67-1.38-1.03-.35-.28-1.4-1.12-1.43-2.49-.03-1.38,.98-2.27,1.36-2.6,.4-.35,.8-.69,1.21-1.02,1.34-1.12,2.6-2.17,3.49-3.55,.07-.1,.12-.18,.15-.24-1.12-1.67-1.5-3.66-1.08-5.6,.44-2.01,1.68-3.74,3.41-4.76,.37-.22,.41-1.1,.1-2.01-.04-.11-.08-.21-.12-.32-.12-.29-.23-.58-.31-.88-.97-3.64-.1-5.54,3.19-7.01,3.41-1.52,6.25-2.54,8.96-3.21,2.23-.55,4.46-.18,6.3,1.04,1.82,1.21,3.08,3.17,3.55,5.5,.03,.13,.05,.26,.06,.4,.55,3.51,1.37,4.32,4.63,4.69,.84,.09,1.58,.35,2.24,.58,.66,.23,1.27,.46,1.77,.43,1.02,.01,1.88,.58,2.23,1.51,.36,.97,.09,2.07-.72,2.87-.34,.33-.96,.95-1.81,1.16-5.08,1.28-10,.79-14.64-1.44-.99-.48-1.81-1.23-2.39-2.17-.18-.29-.29-.47-1.05-.28-1.04,.26-2.05,.67-3.1,1.13,.99,1.41,1.48,2.95,1.44,4.55-.04,1.77-.74,3.49-1.99,4.9,1.14,1.29,2.15,2.25,3.17,3,5.03,3.68,8.71,8.19,10.95,13.38,.85,1.97,1.44,4.02,2,6.01,.19,.67,.38,1.33,.58,1.99,1.14,3.78,2.25,7.58,3.36,11.38,.6,2.07,1.19,4.08,1.77,6.1,.8,2.75,1.59,5.51,2.4,8.26,.58,1.98,1.19,3.96,1.79,5.94,.55,1.82,1.1,3.63,1.64,5.45,.68,2.3,1.35,4.61,2.03,6.92,.62,2.14,1.25,4.28,1.88,6.41,.63,2.14,1.28,4.28,1.92,6.41,.55,1.84,1.11,3.68,1.66,5.52,.27,.9,.52,1.81,.76,2.72,.48,1.76,.93,3.42,1.53,5.03,1.22,3.29,3.48,5.74,6.91,7.49,.17,.08,.36,.14,.56,.2,.86,.28,2.47,.81,2.73,2.65,.26,1.81-1.35,2.69-2.13,3.11-.19,.1-.37,.2-.52,.3-2.26,1.64-2.79,3.5-1.82,6.39,1.32,3.96,2.41,7.97,3.38,11.71,.46,1.76,1.02,3.56,1.56,5.29,.35,1.11,.69,2.22,1.02,3.33,.83,2.82,1.62,5.66,2.4,8.49,.75,2.71,1.48,5.43,2.22,8.15l.46,1.71c.21,.78,.41,1.56,.62,2.34,.39,1.52,.8,3.08,1.26,4.58,1.12,3.68,2.75,7.8,6.33,10.44,1.36,1,2.74,1.44,4.35,1.35,1.11-.06,2.37-.03,3.22,.99,.84,1.01,.7,2.31,.5,3.46-.6,3.46-2.67,6.16-6.31,8.25-3.22,1.86-6.83,2.7-11.7,2.72-.24,.02-.48,.03-.73,.03ZM89.07,37.86c.23,.17,.47,.34,.7,.51,.48,.35,.96,.69,1.42,1.06,3.71,2.98,6.96,6.89,9.93,11.95,3.23,5.5,5.05,11.51,6.27,16.14,.3,1.11,.61,2.23,.92,3.34,.58,2.06,1.18,4.18,1.67,6.34,.51,2.23,1.18,4.5,1.83,6.69,.3,1.01,.6,2.02,.88,3.03,.27,.97,.54,1.94,.81,2.9,.59,2.12,1.18,4.23,1.81,6.34,.91,3.04,1.73,5.8,2.48,8.64,.73,2.78,1.54,5.6,2.32,8.32,.67,2.31,1.33,4.63,1.96,6.96l.04,.15c.73,2.71,1.49,5.51,2.36,8.2,.63,1.95,1.14,3.94,1.63,5.87,.29,1.13,.58,2.26,.89,3.38,.48,1.73,.99,3.46,1.5,5.19,.41,1.39,.82,2.79,1.21,4.19,.41,1.46,.82,2.92,1.22,4.38,.44,1.59,.88,3.18,1.33,4.76,.42,1.47,.85,2.93,1.29,4.39,.45,1.53,.91,3.06,1.34,4.59,.72,2.52,1.43,5.05,2.14,7.58,.66,2.34,1.31,4.68,1.97,7.01,.39,1.36,.79,2.72,1.19,4.08,.46,1.54,.91,3.08,1.35,4.63,.58,2.04,1.14,4.09,1.7,6.14,.5,1.83,1,3.66,1.51,5.49,1.17,4.18,2.36,8.36,3.57,12.53,.39,1.36,.64,1.64,1.04,1.78,.9,.3,3.31,1.09,4.63,.93,.07,0,.13-.01,.2-.01,4.28,0,7.39-.7,10.08-2.25,2.7-1.56,4.09-3.29,4.5-5.61,0,0-.01,0-.02,0h0c-2.42,.12-4.56-.54-6.58-2.03-4.45-3.28-6.38-8.1-7.68-12.38-.48-1.58-.9-3.19-1.3-4.74-.2-.77-.4-1.54-.61-2.3l-.46-1.71c-.73-2.71-1.46-5.42-2.21-8.13-.78-2.82-1.56-5.63-2.38-8.43-.32-1.09-.66-2.18-1-3.26-.56-1.78-1.13-3.62-1.62-5.47-.96-3.67-2.02-7.6-3.31-11.45-1.47-4.4-.5-7.95,2.9-10.56-4.17-2.15-7.06-5.34-8.59-9.47-.66-1.77-1.16-3.6-1.64-5.37-.24-.88-.48-1.76-.74-2.63-.55-1.84-1.1-3.67-1.65-5.51-.65-2.14-1.29-4.28-1.93-6.43-.63-2.14-1.26-4.28-1.88-6.43-.67-2.3-1.34-4.6-2.02-6.9-.54-1.81-1.09-3.62-1.64-5.43-.6-1.99-1.21-3.98-1.8-5.97-.81-2.76-1.61-5.52-2.41-8.28-.58-2.01-1.16-4.02-1.75-6.03-1.12-3.84-2.23-7.62-3.37-11.4-.2-.68-.4-1.36-.6-2.05-.56-1.96-1.09-3.81-1.84-5.54-2-4.63-5.18-8.51-9.73-11.85-1.34-.99-2.65-2.24-4.11-3.94-1.89-2.2-.4-3.97,.11-4.46,.81-.79,1.27-1.75,1.29-2.69,.02-.95-.4-1.92-1.22-2.8-.96-1.03-1.01-2-.89-2.63,.1-.5,.44-1.43,1.68-1.98l.5-.23c1.37-.61,2.8-1.25,4.35-1.63,2.66-.66,4.12,.67,4.88,1.91,.21,.34,.51,.61,.87,.78,2.35,1.13,4.79,1.73,7.3,1.79-3.63-.85-5.32-3-6.01-7.42l-.05-.34c-.27-1.33-.96-2.43-1.96-3.1-1.01-.68-2.27-.87-3.56-.56-2.51,.62-5.17,1.58-8.38,3.01q-1.61,.72-1.13,2.52c.04,.14,.1,.27,.15,.4,.07,.18,.14,.35,.21,.53,.96,2.78,.26,5.43-1.72,6.6-.83,.49-1.45,1.35-1.65,2.3-.14,.62-.15,1.58,.52,2.58,1.43,2.14,.35,3.82-.12,4.54-1.2,1.85-2.74,3.14-4.23,4.39-.22,.18-.44,.37-.66,.55Z"/>
      </g>
      <g>
        <path class="cls-3" d="M88.37,138.22c-2.85-1.05-5.5-2.36-7.09-5.34-.85-1.59-1.31-3.33-2.02-4.97-.13-.3-.16-.71-.55-.73-.38-.02-.5,.35-.62,.66-.6,1.49-1.14,3.01-1.82,4.45-1.58,3.32-4.4,4.9-7.63,5.85-.67,.2-1.48,.36-1.54,1.17-.07,.85,.83,.71,1.34,.88,3.89,1.29,7.01,3.48,8.44,7.74,.26,.76,.57,1.5,.89,2.23,.18,.41,.13,1.07,.71,1.1,.65,.03,.67-.65,.87-1.1,.87-1.97,1.33-4.12,2.79-5.81,1.89-2.18,4.32-3.21,6.87-4.08,.41-.14,.92-.17,1.02-.79-.25-.87-.98-.99-1.67-1.25Z"/>
        <path class="cls-3" d="M78.52,153.14s-.08,0-.13,0c-.79-.04-1.83-.44-2.25-2.14-.33-.8-.68-1.61-.96-2.44-1.09-3.24-3.34-5.26-7.29-6.57-.03,0-.09-.01-.15-.02-2.37-.38-2.49-2.1-2.44-2.82,.16-2.06,2-2.59,2.7-2.78l.15-.04c3.38-1,5.39-2.5,6.51-4.87,.44-.92,.81-1.88,1.21-2.9,.19-.48,.37-.97,.57-1.44,.63-1.59,1.65-1.85,2.38-1.8,.68,.04,1.58,.39,2.05,1.78,.31,.73,.56,1.42,.81,2.11,.36,.99,.7,1.92,1.15,2.77,1.23,2.31,3.26,3.42,6.12,4.48l.24,.08c.72,.25,2.06,.7,2.55,2.4,.08,.28,.1,.58,.05,.88-.29,1.7-1.66,2.09-2.11,2.22l-.13,.04c-2.65,.91-4.6,1.82-6.1,3.56-.81,.94-1.27,2.17-1.75,3.47-.23,.63-.47,1.26-.74,1.87l-.04,.13c-.53,1.69-1.58,2.07-2.41,2.06Zm-7.35-13.9c3.71,1.72,6.14,4.35,7.38,7.99,.52-1.37,1.14-2.87,2.27-4.17,1.58-1.82,3.46-2.93,5.31-3.72-2.5-1.09-4.86-2.64-6.41-5.54-.43-.81-.77-1.63-1.07-2.44-.24,.59-.49,1.18-.77,1.76-1.61,3.4-4.3,5.13-6.71,6.12Z"/>
      </g>
    </g>
    <g>
      <path class="cls-4" d="M145.39,216.39c-1.83,0-3.79-.57-5.64-1.18-3.02-.99-3.83-3.78-4.22-5.12-1.21-4.19-2.41-8.38-3.58-12.58-.51-1.83-1.02-3.67-1.52-5.51-.56-2.05-1.12-4.08-1.69-6.12-.42-1.51-.87-3.01-1.31-4.5l-.04-.13c-.4-1.35-.8-2.7-1.18-4.06-.67-2.34-1.32-4.69-1.98-7.03-.71-2.52-1.41-5.04-2.13-7.56-.42-1.46-.85-2.92-1.28-4.37l-.05-.17c-.44-1.48-.88-2.95-1.3-4.44-.45-1.59-.89-3.18-1.33-4.77-.42-1.52-.81-2.95-1.22-4.38-.39-1.38-.8-2.77-1.2-4.15-.51-1.75-1.02-3.5-1.52-5.25-.32-1.16-.62-2.33-.92-3.49-.47-1.85-.96-3.76-1.54-5.56-.91-2.81-1.68-5.66-2.42-8.42l-.05-.18c-.62-2.3-1.28-4.59-1.94-6.87-.8-2.77-1.61-5.61-2.36-8.45-.73-2.77-1.53-5.48-2.43-8.47-.65-2.15-1.25-4.33-1.84-6.44-.27-.96-.53-1.92-.8-2.88-.28-.99-.57-1.98-.87-2.97-.68-2.3-1.37-4.63-1.91-7.02-.46-2.02-1.04-4.08-1.6-6.08l-.04-.13c-.31-1.09-.61-2.19-.91-3.28-1.14-4.31-2.83-9.89-5.74-14.86-2.66-4.53-5.53-8-8.76-10.59-.38-.3-.77-.58-1.16-.86-.54-.39-1.02-.74-1.49-1.11-1.24-.99-1.88-2.15-1.9-3.44-.04-1.96,1.33-3.17,1.79-3.57,.4-.35,.82-.7,1.23-1.04,1.13-.94,2.19-1.83,2.96-2.87-.97-1.79-1.26-3.83-.83-5.83,.48-2.23,1.82-4.17,3.68-5.38,0-.15-.03-.4-.14-.72-.02-.07-.06-.14-.09-.21-.14-.35-.28-.7-.38-1.07-1.12-4.22,.04-6.76,3.89-8.48,3.48-1.55,6.39-2.6,9.17-3.29,.77-.19,1.55-.29,2.32-.29,1.79,0,3.51,.52,4.98,1.5,2.09,1.4,3.54,3.63,4.08,6.29,.03,.15,.05,.32,.08,.48,.48,3.05,.93,3.32,3.53,3.61,.98,.11,1.83,.41,2.51,.65l.12,.04c.43,.15,.91,.32,1.15,.32h.1c1.56,.02,2.85,.91,3.38,2.32,.54,1.44,.15,3.04-1.01,4.2-.39,.38-1.2,1.19-2.38,1.48-1.93,.49-3.87,.73-5.76,.73-3.34,0-6.61-.76-9.73-2.26-1.09-.53-2.02-1.33-2.71-2.33-.48,.12-.96,.29-1.47,.49,.62,1.26,.92,2.59,.88,3.98-.04,1.69-.6,3.37-1.61,4.81,.8,.85,1.54,1.51,2.27,2.05,5.21,3.82,9.03,8.49,11.35,13.9,.88,2.04,1.48,4.13,2.06,6.16,.21,.72,.39,1.35,.58,1.98,1.12,3.71,2.21,7.44,3.3,11.16l.07,.23c.6,2.07,1.19,4.09,1.77,6.1,.8,2.75,1.59,5.5,2.4,8.25,.56,1.92,1.15,3.83,1.73,5.74l.06,.19c.55,1.82,1.1,3.64,1.65,5.46,.68,2.31,1.36,4.62,2.03,6.93,.64,2.2,1.25,4.31,1.88,6.41,.63,2.14,1.27,4.27,1.92,6.41,.56,1.85,1.11,3.68,1.66,5.53,.27,.9,.51,1.8,.76,2.71,.48,1.77,.93,3.4,1.51,4.96,1.11,2.98,3.17,5.21,6.31,6.81,.08,.04,.17,.06,.27,.09l.11,.04c.96,.31,3.21,1.05,3.58,3.66,.38,2.67-1.99,3.96-2.77,4.38l-.1,.05c-.1,.05-.2,.1-.29,.16-1.8,1.31-2.16,2.62-1.37,4.98,1.34,4,2.43,8.03,3.41,11.79,.46,1.76,1.04,3.6,1.55,5.23,.36,1.15,.7,2.25,1.03,3.36,.85,2.9,1.66,5.81,2.41,8.51,.75,2.71,1.49,5.44,2.22,8.15l.46,1.71c.19,.7,.37,1.41,.56,2.12l.06,.24c.39,1.51,.79,3.06,1.24,4.54,1.06,3.49,2.59,7.38,5.87,9.8,1.05,.77,2.04,1.12,3.22,1.12,.11,0,.22,0,.33,0,.22-.01,.44-.02,.67-.02,1.02,0,2.5,.15,3.58,1.46,1.28,1.54,.95,3.45,.77,4.47-.67,3.84-2.93,6.83-6.91,9.12-3.41,1.97-7.19,2.86-12.26,2.88-.24,.02-.49,.03-.73,.03h-.07Z"/>
      <path class="cls-2" d="M99.14,2.5c1.53,0,3,.44,4.28,1.29,1.82,1.21,3.08,3.17,3.55,5.5,.03,.13,.05,.26,.06,.4,.55,3.51,1.37,4.32,4.63,4.69,.84,.09,1.58,.35,2.24,.58,.62,.22,1.2,.43,1.68,.43,.03,0,.06,0,.09,0,1.02,.01,1.88,.58,2.23,1.51,.36,.97,.09,2.07-.72,2.87-.34,.33-.96,.95-1.81,1.16-1.84,.46-3.66,.69-5.46,.69-3.15,0-6.23-.71-9.19-2.14-.99-.48-1.81-1.23-2.39-2.17-.13-.21-.22-.36-.54-.36-.13,0-.29,.02-.51,.08-1.04,.26-2.05,.67-3.1,1.13,.99,1.41,1.48,2.95,1.44,4.55-.04,1.77-.74,3.49-1.99,4.9,1.14,1.29,2.15,2.25,3.17,3,5.03,3.68,8.71,8.19,10.95,13.38,.85,1.97,1.44,4.02,2,6.01,.19,.67,.38,1.33,.58,1.99,1.14,3.78,2.25,7.58,3.36,11.38,.6,2.07,1.19,4.08,1.77,6.1,.8,2.75,1.59,5.51,2.4,8.26,.58,1.98,1.19,3.96,1.79,5.94,.55,1.82,1.1,3.63,1.64,5.45,.68,2.3,1.35,4.61,2.03,6.92,.62,2.14,1.25,4.28,1.88,6.41,.63,2.14,1.28,4.28,1.92,6.41,.55,1.84,1.11,3.68,1.66,5.52,.27,.9,.52,1.81,.76,2.72,.48,1.76,.93,3.42,1.53,5.03,1.22,3.29,3.48,5.74,6.91,7.49,.17,.08,.36,.14,.56,.2,.86,.28,2.47,.81,2.73,2.65,.26,1.81-1.35,2.69-2.13,3.11-.19,.1-.37,.2-.52,.3-2.26,1.64-2.79,3.5-1.82,6.39,1.32,3.96,2.41,7.97,3.38,11.71,.46,1.76,1.02,3.56,1.56,5.29,.35,1.11,.69,2.22,1.02,3.33,.83,2.82,1.62,5.66,2.4,8.49,.75,2.71,1.48,5.43,2.22,8.15l.46,1.71c.21,.78,.41,1.56,.62,2.34,.39,1.52,.8,3.08,1.26,4.58,1.12,3.68,2.75,7.8,6.33,10.44,1.25,.92,2.51,1.36,3.96,1.36,.13,0,.26,0,.4-.01,.2-.01,.4-.02,.6-.02,.95,0,1.92,.16,2.62,1.01,.84,1.01,.7,2.31,.5,3.46-.6,3.46-2.67,6.16-6.31,8.25-3.22,1.86-6.83,2.7-11.7,2.72-.22,.02-.45,.03-.68,.03-.02,0-.03,0-.05,0-1.64,0-3.48-.53-5.26-1.12-2.39-.79-3.05-3.06-3.41-4.28-1.21-4.18-2.4-8.37-3.58-12.56-.51-1.83-1.02-3.67-1.52-5.51-.56-2.04-1.11-4.08-1.69-6.12-.43-1.53-.88-3.05-1.33-4.58-.41-1.37-.81-2.75-1.2-4.12-.67-2.34-1.32-4.68-1.98-7.03-.71-2.52-1.41-5.04-2.13-7.56-.43-1.52-.88-3.04-1.33-4.55-.44-1.47-.87-2.95-1.3-4.42-.46-1.6-.9-3.2-1.34-4.8-.4-1.45-.8-2.9-1.21-4.35-.39-1.39-.8-2.77-1.21-4.15-.51-1.74-1.02-3.49-1.51-5.24-.32-1.15-.62-2.31-.91-3.47-.48-1.87-.97-3.8-1.56-5.63-.9-2.79-1.67-5.63-2.41-8.39l-.04-.15c-.62-2.31-1.28-4.6-1.94-6.89-.79-2.75-1.61-5.59-2.35-8.41-.73-2.79-1.54-5.5-2.44-8.51-.64-2.13-1.23-4.27-1.83-6.41-.27-.96-.54-1.93-.81-2.89-.28-1-.58-1.99-.87-2.98-.67-2.25-1.36-4.58-1.89-6.94-.46-2.05-1.05-4.13-1.61-6.14-.32-1.13-.64-2.26-.94-3.39-1.16-4.39-2.88-10.08-5.87-15.17-2.74-4.66-5.7-8.24-9.06-10.94-.41-.33-.84-.64-1.27-.95-.46-.33-.93-.67-1.38-1.03-.35-.28-1.4-1.12-1.43-2.49-.03-1.38,.98-2.27,1.36-2.6,.4-.35,.8-.69,1.21-1.02,1.34-1.12,2.6-2.17,3.49-3.55,.07-.1,.12-.18,.15-.24-1.12-1.67-1.5-3.66-1.08-5.6,.44-2.01,1.68-3.74,3.41-4.76,.37-.22,.41-1.1,.1-2.01-.04-.11-.08-.21-.12-.32-.12-.29-.23-.58-.31-.88-.97-3.64-.1-5.54,3.19-7.01,3.41-1.52,6.25-2.54,8.96-3.21,.67-.17,1.35-.25,2.01-.25m0-2.5c-.87,0-1.75,.11-2.61,.32-2.86,.71-5.84,1.77-9.38,3.36-4.41,1.97-5.87,5.13-4.59,9.94,.11,.43,.26,.81,.4,1.16-1.76,1.39-3.01,3.39-3.5,5.64-.44,2.01-.23,4.06,.58,5.92-.63,.7-1.42,1.35-2.29,2.08-.42,.35-.84,.71-1.26,1.07-1.5,1.32-2.25,2.84-2.21,4.53,.04,1.68,.83,3.16,2.37,4.39,.51,.41,1.02,.78,1.48,1.1l.04,.03c.4,.29,.78,.56,1.12,.84,3.12,2.5,5.89,5.85,8.47,10.25,2.84,4.83,4.49,10.31,5.61,14.54,.3,1.13,.61,2.25,.93,3.37l.02,.06c.56,1.98,1.13,4.02,1.58,6.01,.55,2.43,1.25,4.78,1.92,7.06,.3,1.02,.59,2.01,.87,2.99,.27,.96,.54,1.92,.8,2.88,.59,2.11,1.2,4.3,1.84,6.46,.89,2.98,1.69,5.67,2.42,8.43,.75,2.85,1.56,5.69,2.36,8.45,.65,2.27,1.32,4.59,1.94,6.87l.04,.16v.05c.76,2.77,1.53,5.63,2.45,8.46,.57,1.75,1.05,3.65,1.52,5.48,.28,1.09,.59,2.31,.93,3.52,.51,1.81,1.04,3.65,1.52,5.27,.4,1.38,.81,2.75,1.2,4.13,.39,1.37,.77,2.75,1.15,4.13l.06,.21c.44,1.61,.89,3.22,1.35,4.82,.42,1.49,.86,2.97,1.3,4.45l.03,.1c.44,1.47,.87,2.95,1.3,4.43,.69,2.43,1.38,4.87,2.06,7.3l.07,.25c.66,2.35,1.31,4.69,1.98,7.04,.39,1.39,.8,2.77,1.21,4.15,.45,1.54,.9,3.04,1.32,4.54,.56,2,1.11,4.01,1.66,6.02l.02,.08c.5,1.84,1.01,3.69,1.52,5.53,1.18,4.21,2.38,8.44,3.58,12.59,.41,1.43,1.38,4.76,5.03,5.96,1.95,.64,4.02,1.23,6.03,1.24h.06c.27,0,.54-.01,.81-.03,5.27-.03,9.23-.98,12.83-3.05,4.26-2.45,6.79-5.82,7.52-9.99,.18-1.05,.61-3.49-1.04-5.48-1.59-1.91-3.81-1.91-4.55-1.91-.24,0-.49,0-.73,.02-.09,0-.18,0-.27,0-.9,0-1.64-.26-2.47-.87-2.99-2.21-4.42-5.87-5.42-9.16-.44-1.45-.84-2.98-1.22-4.46l-.04-.15c-.19-.75-.39-1.5-.59-2.24l-.46-1.71c-.73-2.72-1.47-5.44-2.22-8.16-.75-2.7-1.55-5.6-2.41-8.53-.33-1.12-.68-2.24-1.03-3.35-.54-1.72-1.09-3.48-1.54-5.2-.98-3.78-2.08-7.83-3.43-11.87-.67-2-.36-2.65,.92-3.57,.02,0,.08-.04,.14-.07l.11-.06c2.6-1.41,3.74-3.31,3.41-5.66-.49-3.38-3.46-4.35-4.43-4.67l-.12-.04s-.08-.03-.12-.04c-2.86-1.47-4.66-3.41-5.66-6.11-.56-1.51-1-3.12-1.46-4.82-.26-.94-.51-1.86-.78-2.77-.55-1.84-1.1-3.69-1.66-5.53-.64-2.13-1.28-4.26-1.92-6.4-.63-2.13-1.25-4.27-1.87-6.4-.68-2.34-1.35-4.64-2.03-6.93-.54-1.83-1.09-3.65-1.65-5.47-.6-1.98-1.2-3.95-1.78-5.92-.81-2.74-1.6-5.49-2.4-8.24-.58-2.02-1.17-4.04-1.77-6.11v-.05c-1.1-3.72-2.23-7.57-3.37-11.35-.19-.62-.36-1.24-.54-1.86l-.03-.1c-.59-2.07-1.2-4.2-2.11-6.32-2.42-5.61-6.37-10.46-11.76-14.41-.47-.34-.94-.74-1.43-1.22,.8-1.43,1.24-3.01,1.28-4.61,.02-.72-.05-1.43-.19-2.13,.52,.43,1.09,.8,1.7,1.1,3.29,1.58,6.74,2.39,10.27,2.39,1.99,0,4.04-.26,6.07-.77,1.52-.38,2.53-1.38,2.96-1.81,1.52-1.5,2.02-3.62,1.31-5.53-.7-1.87-2.48-3.1-4.53-3.13h-.09c-.16-.04-.52-.16-.77-.25l-.12-.04c-.74-.26-1.67-.58-2.79-.71-2.06-.23-2.07-.23-2.43-2.56-.02-.18-.05-.36-.09-.54-.6-2.98-2.23-5.5-4.61-7.08-1.68-1.12-3.64-1.71-5.67-1.71h0Z"/>
    </g>
    <g>
      <path class="cls-1" d="M35.98,216.45c-1.86-.01-3.8-.36-5.75-1.05-1.71-.6-3.3-1.64-4.66-3.04-2.35,2.05-5.81,3.2-9.75,3.2-1.8,0-3.52-.25-4.96-.74-3.74-1.25-6.3-3.34-8.06-6.58-1.32-2.44-1.44-5.01-1.53-6.89-.11-2.29,1.03-3.42,1.72-3.89,.61-.41,1.33-.63,2.07-.63s1.55,.22,2.35,.66c1.36,.74,2.68,1.4,3.8,1.41,2.07,0,3.69-.94,4.99-2.85,1.62-2.41,2.49-5.3,3.4-8.37l.25-.82c.44-1.45,.89-2.9,1.35-4.34l.07-.22c.43-1.36,.86-2.73,1.27-4.1,.5-1.66,.98-3.33,1.45-5,.41-1.42,.81-2.84,1.23-4.25,.74-2.5,1.5-4.99,2.27-7.48l.25-.83c.6-1.96,1.21-3.91,1.82-5.87l1.86-5.98c.67-2.13,1.33-4.26,1.97-6.39,.33-1.1,.63-2.21,.94-3.31,.54-1.95,1.09-3.95,1.77-5.93,.5-1.45,.94-2.97,1.36-4.44,.36-1.23,.69-2.37,1.05-3.5,.65-2.05,1.27-4.11,1.89-6.17,.33-1.1,.64-2.13,.95-3.15l1.11-3.62c.53-1.72,1.05-3.43,1.57-5.15,.38-1.27,.75-2.55,1.13-3.82l.08-.27c.53-1.82,1.07-3.64,1.62-5.45,.43-1.41,.88-2.82,1.34-4.23,.49-1.53,.96-2.98,1.4-4.43,.43-1.41,.84-2.83,1.25-4.24l.03-.12c.42-1.45,.84-2.91,1.28-4.35,.75-2.45,1.51-4.9,2.27-7.34l.13-.4c.67-2.16,1.34-4.31,2-6.47,.41-1.34,.8-2.68,1.19-4.02l.04-.13c.42-1.43,.83-2.85,1.27-4.27,.35-1.15,.69-2.31,1.02-3.47,1.47-5.16,2.99-10.48,6.49-15.14,.42-.56,.84-1.11,1.28-1.65,1.18-1.44,2.66-2.92,4.67-2.92,1.17,0,2.4,.48,3.98,1.56,5.9,4,10.43,9.63,13.84,17.22,2,4.44,3.25,9.07,4.45,13.54,.26,.97,.51,1.9,.77,2.83,.71,2.55,1.43,5.1,2.16,7.65l.15,.52c.63,2.23,1.26,4.46,1.88,6.69,.5,1.8,.99,3.6,1.48,5.4,.59,2.17,1.18,4.34,1.78,6.5,.63,2.22,1.28,4.43,1.92,6.64l.06,.2c.5,1.71,1,3.41,1.49,5.12,.44,1.53,.86,3.06,1.28,4.6,.35,1.27,.69,2.5,1.03,3.73,.52,1.84,1.05,3.68,1.57,5.52,.62,2.16,1.24,4.33,1.85,6.49,.63,2.24,1.25,4.49,1.87,6.74,.73,2.63,1.46,5.26,2.2,7.89,.42,1.5,.87,3,1.31,4.5,.44,1.49,.88,2.97,1.3,4.46,.45,1.58,.88,3.17,1.31,4.76l.09,.32c.42,1.54,.84,3.09,1.28,4.63,.43,1.51,.87,3.02,1.32,4.53,.41,1.4,.8,2.72,1.18,4.04,.45,1.56,.88,3.12,1.31,4.69,.4,1.45,.8,2.89,1.21,4.33,.41,1.43,.82,2.85,1.24,4.28l.14,.48c.4,1.36,.79,2.73,1.18,4.09,.92,3.23,1.83,6.47,2.73,9.71,.17,.62,.35,1.23,.53,1.84l.05,.18c.36,1.23,.74,2.5,1.05,3.81,.51,2.1,.17,4.11-1,5.98-1.67,2.64-4.14,4.41-7.57,5.39-2.19,.63-4.22,.93-6.23,.93-.36,0-.71,0-1.07-.03-5.3-.31-11.41-1.24-16.56-5.75-1.7-1.49-3-3.26-3.86-5.27-.93-2.17-.5-3.74,.01-4.67,.43-.77,1.5-2.1,3.87-2.32,3.55-.33,4.91-3.98,4.73-6.46-.04-.62-.28-1.35-.52-2.12-.11-.34-.2-.63-.28-.92-.38-1.3-.75-2.61-1.12-3.92-.57-2.01-1.16-4.1-1.78-6.12-1.06-3.45-2.06-6.92-3.02-10.27l-.19-.67c-.35-1.21-.71-2.42-1.06-3.64-.81-2.76-1.65-5.59-2.39-8.42-.95-3.6-2.15-7.27-3.21-10.51-.21-.63-.33-1.21-.44-1.73-.1-.48-.2-.92-.33-1.25-.49-1.25-1.29-2.08-3.92-2.65-.07-.01-.15,0-.23-.01h-.15c-.56-.03-1.82-.08-2.88-.79-.53,.33-1.02,.47-1.24,.54l-.11,.03c-2.4,.83-4.19,1.66-5.51,3.18-.66,.76-1.08,1.89-1.52,3.08-.24,.64-.47,1.27-.74,1.88l-.02,.06c-.58,1.87-1.89,2.94-3.59,2.94-.08,0-.15,0-.22,0-1.65-.08-2.88-1.17-3.36-2.99l-.04-.1c-.32-.75-.64-1.53-.92-2.35-.95-2.84-2.87-4.56-6.4-5.75h-.05c-1.84-.3-2.83-1.27-3.25-2.39-.38,1.2-.76,2.4-1.12,3.61-.58,1.88-1.14,3.77-1.7,5.67l-.07,.24c-.58,1.97-1.17,3.94-1.77,5.91-.4,1.33-.83,2.65-1.26,3.97l-1.24-.23,1.19,.39c-.74,2.29-1.51,4.67-2.12,7-.43,1.65-.94,3.24-1.42,4.79-.45,1.42-.89,2.83-1.26,4.2-.53,1.96-1.17,3.95-1.74,5.71-.38,1.19-.77,2.37-1.12,3.57-.46,1.54-.9,3.08-1.33,4.62-.4,1.41-.8,2.82-1.21,4.22l-.09,.29c-.34,1.14-.65,2.2-.8,3.23-.48,3.33,.9,5.97,3.79,7.24,.16,.07,.32,.15,.49,.22l.1,.05c.28,.13,.66,.31,.8,.33,1.26,.12,2.31,.74,2.96,1.73,.48,.73,.95,1.97,.48,3.81-1,3.87-3.5,6.59-7.43,8.1-1.72,.66-3.52,1-5.37,1h-.1Zm35.97-96.4c1.47,.09,2.63,1.05,3.16,2.63,.28,.66,.54,1.37,.8,2.08,.34,.94,.67,1.83,1.08,2.61,1.05,1.96,2.79,2.92,5.45,3.9l.22,.08c.42,.14,1.13,.39,1.82,.94,.5-.37,.98-.59,1.23-.71l.11-.05c.07-.03,.14-.06,.2-.1,.77-.52,1.54-2.76,1.18-4.01-.75-2.59-1.5-5.17-2.24-7.76l-.13-.44c-.87-3.04-1.75-6.07-2.63-9.1-.42-1.44-.86-2.87-1.31-4.29-.76-2.44-1.53-4.94-2.19-7.47-.8-3.06-1.71-6.17-2.58-9.17l-.03-.11c-.48-1.65-.97-3.31-1.44-4.97-.19-.67-.37-1.34-.55-2.01,0,0-.06-.21-.07-.24-.71,2.45-1.43,4.91-2.17,7.35-.46,1.51-.95,3.01-1.45,4.51-.44,1.33-.88,2.66-1.29,3.99-.48,1.56-.92,3.13-1.37,4.7-.39,1.37-.76,2.69-1.16,4.01-.6,2.01-1.22,4.02-1.83,6.02-.53,1.74-1.05,3.42-1.56,5.1-.53,1.75-1.05,3.5-1.56,5.24-.68,2.28-1.35,4.56-2.05,6.83-.24,.79-.49,1.58-.73,2.38,.51-.34,1.12-.62,1.84-.82l.15-.04c3.04-.9,4.76-2.16,5.73-4.21,.42-.88,.78-1.82,1.17-2.82,.19-.49,.38-.98,.58-1.46,.89-2.25,2.5-2.59,3.38-2.59,.08,0,.16,0,.24,0Z"/>
      <path class="cls-2" d="M72.48,35.65c.95,0,1.98,.46,3.28,1.34,5.7,3.87,10.09,9.33,13.4,16.7,1.96,4.35,3.19,8.93,4.39,13.36,.26,.95,.51,1.89,.77,2.84,.71,2.56,1.43,5.11,2.16,7.66,.68,2.4,1.36,4.8,2.03,7.21,.5,1.79,.99,3.59,1.47,5.39,.59,2.17,1.18,4.34,1.79,6.51,.63,2.22,1.28,4.44,1.93,6.66,.52,1.77,1.04,3.54,1.54,5.31,.44,1.54,.86,3.08,1.29,4.62,.34,1.24,.68,2.47,1.03,3.71,.52,1.84,1.05,3.68,1.57,5.53,.62,2.16,1.24,4.32,1.84,6.49,.63,2.24,1.25,4.49,1.87,6.73,.73,2.63,1.46,5.26,2.2,7.89,.43,1.51,.87,3.01,1.32,4.52,.44,1.48,.88,2.96,1.3,4.45,.47,1.65,.91,3.29,1.36,4.94,.43,1.59,.87,3.18,1.31,4.77,.43,1.52,.88,3.03,1.32,4.55,.4,1.34,.79,2.68,1.17,4.03,.45,1.56,.88,3.12,1.31,4.68,.4,1.45,.8,2.9,1.21,4.34,.43,1.53,.88,3.05,1.32,4.57,.42,1.43,.83,2.86,1.24,4.29,.92,3.23,1.83,6.46,2.73,9.7,.19,.68,.39,1.36,.59,2.04,.36,1.21,.73,2.47,1.04,3.75,.43,1.78,.16,3.43-.85,5.02-1.5,2.37-3.74,3.96-6.85,4.86-2.07,.6-4.01,.89-5.88,.89-.33,0-.67,0-1-.03-5.09-.3-10.95-1.18-15.81-5.44-1.56-1.37-2.75-2.99-3.53-4.82-.73-1.71-.43-2.89-.04-3.58,.38-.68,1.19-1.52,2.9-1.68,4.39-.41,6.07-4.81,5.86-7.8-.05-.77-.31-1.57-.58-2.41-.09-.3-.19-.59-.27-.89-.38-1.3-.75-2.6-1.12-3.9-.58-2.06-1.16-4.11-1.79-6.15-1.05-3.41-2.05-6.89-3.02-10.25l-.19-.67c-.35-1.22-.71-2.43-1.07-3.65-.8-2.73-1.64-5.56-2.38-8.38-.96-3.64-2.17-7.33-3.23-10.59-.18-.56-.29-1.08-.4-1.59-.11-.52-.22-1.02-.38-1.44-.73-1.87-2.08-2.82-4.82-3.41-.17-.04-.38-.04-.59-.04-.7-.03-2.16-.1-2.89-1.26-.53,.73-1.31,.96-1.63,1.05l-.13,.04c-2.65,.91-4.6,1.82-6.1,3.56-.81,.94-1.27,2.17-1.75,3.47-.23,.63-.47,1.26-.74,1.87l-.04,.13c-.52,1.68-1.56,2.06-2.4,2.06,0,0-.01,0-.02,0-.04,0-.08,0-.13,0-.79-.04-1.83-.44-2.25-2.14-.33-.8-.68-1.61-.96-2.44-1.09-3.24-3.34-5.26-7.29-6.57-.03,0-.09-.01-.15-.02-2.37-.38-2.49-2.1-2.44-2.82,.16-2.06,2-2.59,2.7-2.78l.15-.04c3.38-1,5.39-2.5,6.51-4.87,.44-.92,.81-1.88,1.21-2.9,.19-.48,.37-.97,.57-1.44,.59-1.48,1.51-1.81,2.23-1.81,.05,0,.1,0,.15,0,.68,.04,1.58,.39,2.05,1.78,.31,.73,.56,1.42,.81,2.11,.36,.99,.7,1.92,1.15,2.77,1.23,2.31,3.26,3.42,6.12,4.48l.24,.08c.58,.2,1.56,.54,2.17,1.55,.55-.76,1.42-1.18,1.82-1.37,.17-.08,.34-.15,.48-.24,1.3-.87,2.18-3.7,1.68-5.4-.75-2.58-1.49-5.17-2.24-7.76-.92-3.18-1.83-6.37-2.76-9.55-.42-1.44-.87-2.88-1.31-4.32-.75-2.41-1.52-4.91-2.17-7.41-.81-3.12-1.73-6.27-2.62-9.32-.48-1.65-.96-3.3-1.43-4.96-.2-.71-.4-1.43-.59-2.14-.4-1.47-.78-2.88-1.23-4.26-.32,1.1-.64,2.2-.96,3.3-.79,2.73-1.59,5.46-2.41,8.18-.45,1.5-.94,2.99-1.44,4.48-.44,1.34-.88,2.67-1.3,4.02-.48,1.57-.93,3.15-1.38,4.72-.38,1.33-.76,2.66-1.15,3.99-.61,2.03-1.23,4.05-1.85,6.07-.52,1.68-1.04,3.37-1.54,5.06-.53,1.75-1.05,3.5-1.56,5.25-.67,2.28-1.35,4.55-2.04,6.82-.56,1.83-1.14,3.66-1.72,5.49-.56,1.77-1.12,3.55-1.67,5.32-.6,1.97-1.19,3.94-1.77,5.91-.58,1.97-1.17,3.94-1.76,5.9-.41,1.35-.85,2.68-1.28,4.02-.76,2.34-1.54,4.75-2.17,7.14-.42,1.61-.92,3.19-1.41,4.73-.44,1.39-.89,2.83-1.28,4.25-.52,1.92-1.13,3.81-1.72,5.65-.39,1.19-.77,2.39-1.13,3.59-.46,1.54-.9,3.09-1.34,4.64-.4,1.4-.79,2.81-1.21,4.2l-.08,.28c-.35,1.17-.68,2.28-.84,3.41-.56,3.87,1.13,7.08,4.52,8.56,.19,.08,.37,.17,.55,.26,.46,.22,.85,.41,1.21,.44,1.12,.11,1.73,.7,2.04,1.18,.49,.75,.6,1.69,.31,2.81-.89,3.45-3.14,5.89-6.67,7.25-1.58,.61-3.23,.91-4.93,.91-.03,0-.05,0-.08,0-1.73-.01-3.52-.34-5.34-.98-1.9-.67-3.62-1.94-5.02-3.69-2.31,2.7-6.26,3.78-9.81,3.78-1.69,0-3.29-.24-4.57-.67-3.42-1.14-5.76-3.05-7.36-5.99-1.19-2.19-1.3-4.5-1.38-6.35-.08-1.68,.7-2.47,1.17-2.79,.33-.22,.78-.42,1.37-.42,.49,0,1.08,.14,1.76,.51,1.51,.82,2.98,1.55,4.39,1.56,0,0,.02,0,.03,0,2.46,0,4.48-1.15,6-3.4,1.73-2.57,2.62-5.55,3.56-8.71l.24-.82c.43-1.45,.89-2.89,1.34-4.33,.46-1.44,.91-2.89,1.35-4.34,.5-1.67,.98-3.34,1.46-5.01,.4-1.41,.81-2.83,1.23-4.24,.74-2.5,1.5-4.98,2.27-7.47l.26-.83c.65-2.11,1.3-4.21,1.95-6.32l1.72-5.53c.67-2.13,1.33-4.26,1.97-6.41,.33-1.11,.64-2.24,.95-3.36,.53-1.92,1.08-3.9,1.74-5.83,.5-1.47,.95-3.01,1.38-4.5,.34-1.16,.67-2.32,1.04-3.47,.66-2.08,1.29-4.17,1.92-6.27,.31-1.02,.62-2.04,.93-3.07l.98-3.2c.57-1.86,1.14-3.71,1.7-5.57,.41-1.36,.81-2.73,1.21-4.09,.53-1.82,1.06-3.63,1.61-5.44,.44-1.44,.9-2.87,1.36-4.3,.47-1.45,.93-2.9,1.37-4.35,.44-1.44,.86-2.89,1.28-4.34,.42-1.46,.84-2.92,1.28-4.37,.77-2.52,1.55-5.03,2.33-7.54,.69-2.22,1.38-4.45,2.06-6.68,.41-1.34,.8-2.69,1.2-4.04,.43-1.46,.85-2.93,1.3-4.38,.36-1.16,.69-2.33,1.02-3.5,1.44-5.04,2.92-10.26,6.29-14.73,.41-.54,.82-1.09,1.25-1.61,1.36-1.66,2.46-2.46,3.71-2.46m0-2.5c-2.53,0-4.27,1.71-5.64,3.37-.48,.58-.92,1.17-1.31,1.69-3.64,4.84-5.19,10.28-6.69,15.54-.32,1.14-.66,2.31-1.01,3.45-.45,1.45-.87,2.9-1.3,4.36l-.02,.06c-.39,1.34-.78,2.68-1.19,4.01-.66,2.15-1.33,4.3-1.99,6.45l-.07,.21-.08,.26c-.75,2.43-1.51,4.86-2.25,7.29-.44,1.45-.86,2.91-1.27,4.33l-.02,.07-.03,.11c-.4,1.38-.81,2.81-1.23,4.2-.44,1.44-.91,2.9-1.36,4.31l-.04,.14c-.45,1.4-.9,2.8-1.33,4.2-.54,1.75-1.03,3.44-1.62,5.47l-.08,.26c-.37,1.27-.75,2.55-1.13,3.82-.53,1.78-1.08,3.56-1.63,5.34l-.07,.22-.98,3.21c-.31,1.03-.62,2.05-.93,3.07l-.03,.1c-.61,2.02-1.24,4.1-1.88,6.13-.37,1.17-.71,2.34-1.04,3.48-.44,1.51-.87,3.01-1.36,4.43-.69,2-1.24,4.02-1.78,5.97l-.02,.08c-.29,1.07-.6,2.17-.92,3.23-.65,2.17-1.35,4.41-1.96,6.38l-1.72,5.53-.16,.52c-.6,1.93-1.2,3.87-1.79,5.8l-.26,.83c-.71,2.3-1.51,4.92-2.27,7.49-.42,1.41-.83,2.83-1.23,4.25-.48,1.67-.96,3.33-1.45,4.99-.42,1.4-.86,2.79-1.3,4.18l-.04,.12c-.46,1.45-.92,2.9-1.35,4.36l-.24,.82c-.89,2.97-1.72,5.78-3.24,8.03-1.06,1.57-2.31,2.3-3.93,2.3-.84,0-2.05-.62-3.22-1.26-.99-.54-1.98-.81-2.95-.81-1,0-1.95,.29-2.77,.85-1.54,1.05-2.37,2.86-2.26,4.98,.1,2,.23,4.73,1.68,7.42,1.89,3.49,4.76,5.84,8.77,7.17,1.57,.52,3.42,.8,5.36,.8,3.77,0,7.16-1,9.68-2.8,1.31,1.15,2.77,2.02,4.32,2.57,2.08,.73,4.15,1.11,6.16,1.12h.1c2,0,3.96-.36,5.82-1.08,4.27-1.64,7.1-4.74,8.19-8.96,.59-2.28-.02-3.87-.64-4.81-.85-1.29-2.19-2.09-3.78-2.28-.11-.04-.33-.15-.48-.22h0s-.05-.02-.05-.02c-.19-.09-.38-.18-.58-.27-2.37-1.04-3.45-3.14-3.05-5.91,.14-.95,.42-1.92,.76-3.04l.09-.3c.42-1.41,.82-2.82,1.22-4.24,.44-1.54,.87-3.09,1.33-4.61,.36-1.19,.74-2.38,1.12-3.54,.6-1.86,1.22-3.78,1.76-5.77,.37-1.36,.81-2.76,1.23-4.11,.5-1.59,1.01-3.2,1.45-4.88,.61-2.31,1.38-4.68,2.12-6.97l-2.35-.85,2.38,.77c.43-1.32,.87-2.68,1.28-4.03,.6-1.97,1.19-3.94,1.77-5.92l.06-.19c.56-1.9,1.13-3.81,1.71-5.71,.14-.46,.28-.91,.42-1.37,.66,.48,1.49,.84,2.51,1.01,3.09,1.06,4.69,2.5,5.51,4.93,.29,.86,.62,1.66,.95,2.43v.03c.65,2.29,2.32,3.72,4.5,3.83,.08,0,.16,0,.24,0,2.28,0,4.07-1.43,4.81-3.82,.28-.64,.52-1.29,.74-1.87,.42-1.14,.79-2.11,1.3-2.71,1.13-1.31,2.68-2.03,4.97-2.82l.07-.02c.3-.08,.58-.19,.85-.31,1.16,.55,2.33,.6,2.85,.62h.15s.06,0,.09,0c2.23,.5,2.64,1.11,2.93,1.87,.09,.23,.18,.63,.26,1.05,.12,.56,.25,1.17,.47,1.85,1.06,3.24,2.25,6.89,3.19,10.45,.75,2.84,1.58,5.67,2.39,8.41l.04,.14c.35,1.18,.69,2.36,1.03,3.54l.19,.67c.98,3.4,1.98,6.87,3.03,10.29,.62,2.02,1.2,4.09,1.77,6.09,.37,1.31,.74,2.62,1.12,3.93,.09,.29,.18,.59,.27,.88l.02,.06c.22,.7,.43,1.36,.47,1.84,.11,1.55-.62,4.85-3.6,5.13-2.94,.28-4.3,1.97-4.85,2.96-.54,.97-1.26,3-.07,5.77,.93,2.18,2.34,4.1,4.18,5.72,5.43,4.76,11.8,5.73,17.31,6.06,.38,.02,.76,.03,1.14,.03,2.12,0,4.28-.32,6.58-.98,3.73-1.07,6.44-3.01,8.28-5.93,1.36-2.16,1.75-4.5,1.16-6.94-.32-1.34-.7-2.62-1.07-3.85l-.03-.11c-.19-.63-.37-1.27-.55-1.91-.9-3.25-1.82-6.52-2.74-9.72-.39-1.36-.78-2.71-1.18-4.07l-.07-.23-.02-.08c-.43-1.49-.87-2.98-1.29-4.47-.41-1.43-.81-2.87-1.21-4.31-.44-1.58-.87-3.15-1.32-4.71-.38-1.34-.77-2.67-1.17-4-.46-1.55-.9-3.06-1.33-4.57-.45-1.58-.88-3.16-1.31-4.74l-.03-.11c-.44-1.62-.88-3.25-1.34-4.86-.42-1.5-.86-2.99-1.31-4.48-.45-1.52-.89-3-1.31-4.49-.72-2.54-1.42-5.09-2.13-7.64l-.07-.24c-.62-2.25-1.24-4.49-1.88-6.74-.6-2.14-1.21-4.27-1.82-6.4l-.03-.1c-.53-1.84-1.05-3.68-1.57-5.52-.35-1.23-.68-2.46-1.02-3.69-.43-1.55-.85-3.1-1.29-4.64-.48-1.68-.97-3.35-1.46-5.03l-.09-.3c-.64-2.18-1.3-4.42-1.92-6.63-.61-2.15-1.2-4.35-1.78-6.47-.49-1.81-.98-3.61-1.48-5.41-.64-2.3-1.29-4.59-1.94-6.88l-.09-.33c-.72-2.55-1.44-5.1-2.15-7.65-.25-.91-.5-1.83-.75-2.75l-.02-.07c-1.22-4.53-2.48-9.21-4.52-13.73-3.51-7.8-8.18-13.61-14.28-17.74-1.22-.82-2.85-1.77-4.68-1.77h0Zm-11.63,96.66c.68-2.22,1.34-4.45,2-6.68,.52-1.75,1.04-3.49,1.56-5.24,.51-1.68,1.02-3.36,1.54-5.04l.06-.2c.6-1.96,1.2-3.92,1.79-5.88,.39-1.31,.77-2.62,1.14-3.94l.02-.08c.44-1.54,.89-3.13,1.36-4.68,.4-1.32,.85-2.67,1.28-3.97,.46-1.4,.99-2.98,1.46-4.54,.32-1.05,.63-2.11,.94-3.17,.29,1.01,.59,2.02,.88,3.03l.02,.07c.88,3.01,1.79,6.12,2.58,9.18,.67,2.57,1.45,5.09,2.2,7.52,.43,1.4,.88,2.85,1.3,4.28,.92,3.14,1.82,6.29,2.73,9.44l.03,.1c.75,2.61,1.49,5.19,2.24,7.77,.19,.66-.25,2.17-.67,2.61,0,0-.02,0-.03,.01l-.13,.06c-.2,.09-.43,.21-.67,.34-.59-.34-1.12-.52-1.45-.63l-.22-.08c-2.73-1.01-3.98-1.88-4.74-3.3-.37-.69-.67-1.5-1.01-2.44-.25-.68-.51-1.39-.83-2.15-.71-2-2.28-3.26-4.23-3.38-.1,0-.2,0-.31,0-2.04,0-3.69,1.23-4.55,3.38-.19,.46-.38,.95-.56,1.43-.39,1.01-.75,1.93-1.15,2.77-.55,1.15-1.53,2.46-4.61,3.44h0Z"/>
    </g>
  </g>
</svg>