<?xml version="1.0" encoding="UTF-8"?>
<svg id="Layer_2" data-name="Layer 2" xmlns="http://www.w3.org/2000/svg" xmlns:xlink="http://www.w3.org/1999/xlink" viewBox="0 0 761.3 1518">
  <defs>
    <style>
      .cls-1 {
        fill: #740103;
        opacity: .7;
      }

      .cls-2 {
        fill: url(#linear-gradient-2);
      }

      .cls-3 {
        fill: url(#linear-gradient-9);
        filter: url(#drop-shadow-2);
      }

      .cls-4 {
        fill: url(#linear-gradient);
      }

      .cls-4, .cls-5 {
        opacity: .8;
      }

      .cls-6 {
        fill: url(#linear-gradient-15);
      }

      .cls-7 {
        fill: url(#linear-gradient-14);
      }

      .cls-8 {
        fill: #654991;
      }

      .cls-9 {
        fill: url(#linear-gradient-11);
      }

      .cls-10 {
        fill: #711f8b;
      }

      .cls-11 {
        fill: #0d417d;
      }

      .cls-12 {
        fill: url(#linear-gradient-10);
      }

      .cls-13 {
        fill: #530b69;
      }

      .cls-14 {
        fill: url(#radial-gradient);
      }

      .cls-15 {
        fill: url(#linear-gradient-6);
        filter: url(#drop-shadow-1);
      }

      .cls-16 {
        fill: #1b3d71;
      }

      .cls-17 {
        fill: url(#linear-gradient-5);
      }

      .cls-5 {
        fill: #fae5ff;
      }

      .cls-18 {
        fill: #33417d;
      }

      .cls-19 {
        fill: #25002a;
        opacity: .4;
      }

      .cls-20 {
        fill: url(#linear-gradient-7);
      }

      .cls-21 {
        fill: #590b77;
      }

      .cls-22 {
        fill: #1e3274;
      }

      .cls-23 {
        fill: url(#linear-gradient-3);
      }

      .cls-24 {
        fill: #2e327a;
      }

      .cls-25 {
        fill: url(#linear-gradient-4);
      }

      .cls-26 {
        fill: url(#linear-gradient-8);
      }

      .cls-27 {
        fill: url(#linear-gradient-12);
      }

      .cls-28 {
        fill: url(#linear-gradient-13);
      }
    </style>
    <linearGradient id="linear-gradient" x1="-1352.75" y1="2415.56" x2="-1352.75" y2="3246.06" gradientTransform="translate(2779.77 2020.62) rotate(-39.65) scale(1.22 -.84) skewX(6.24)" gradientUnits="userSpaceOnUse">
      <stop offset="0" stop-color="#e7e8db"/>
      <stop offset=".08" stop-color="#e7e8db" stop-opacity=".97"/>
      <stop offset=".2" stop-color="#e9eade" stop-opacity=".9"/>
      <stop offset=".33" stop-color="#ecede3" stop-opacity=".77"/>
      <stop offset=".47" stop-color="#f0f1e9" stop-opacity=".6"/>
      <stop offset=".63" stop-color="#f5f6f1" stop-opacity=".38"/>
      <stop offset=".79" stop-color="#fcfcfa" stop-opacity=".11"/>
      <stop offset=".85" stop-color="#fff" stop-opacity="0"/>
    </linearGradient>
    <linearGradient id="linear-gradient-2" x1="-1588.37" y1="1105.73" x2="-1395.61" y2="1289.82" gradientTransform="translate(-544.36 -197.77) rotate(-168.24) scale(.84 -1)" gradientUnits="userSpaceOnUse">
      <stop offset=".15" stop-color="#2d2c56"/>
      <stop offset=".28" stop-color="#2f2c58"/>
      <stop offset=".37" stop-color="#382f61"/>
      <stop offset=".45" stop-color="#473470"/>
      <stop offset=".5" stop-color="#583a80"/>
      <stop offset=".84" stop-color="#2d2c56"/>
    </linearGradient>
    <radialGradient id="radial-gradient" cx="-1325.99" cy="1140.45" fx="-1357.35" fy="1162.53" r="82.73" gradientTransform="translate(-681.12 -226.23) rotate(-168.24) scale(1.02 -1)" gradientUnits="userSpaceOnUse">
      <stop offset=".15" stop-color="#fff"/>
      <stop offset=".27" stop-color="#fff" stop-opacity=".99"/>
      <stop offset=".36" stop-color="#fff" stop-opacity=".95"/>
      <stop offset=".43" stop-color="#fff" stop-opacity=".89"/>
      <stop offset=".49" stop-color="#fff" stop-opacity=".81"/>
      <stop offset=".5" stop-color="#fff" stop-opacity=".8"/>
      <stop offset=".84" stop-color="#fff" stop-opacity=".6"/>
    </radialGradient>
    <linearGradient id="linear-gradient-3" x1="-795.52" y1="485.54" x2="-795.52" y2="1124.77" gradientTransform="translate(-272.22) rotate(-180) scale(1 -1)" gradientUnits="userSpaceOnUse">
      <stop offset=".2" stop-color="#830002"/>
      <stop offset=".85" stop-color="#ba0002"/>
      <stop offset="1" stop-color="#e03402"/>
    </linearGradient>
    <linearGradient id="linear-gradient-4" x1="-755.67" y1="859.67" x2="-780.71" y2="1358.87" gradientTransform="translate(1150.95 1983.94) rotate(2.87) scale(1 -1)" gradientUnits="userSpaceOnUse">
      <stop offset=".17" stop-color="#fff" stop-opacity="0"/>
      <stop offset=".63" stop-color="#740103"/>
    </linearGradient>
    <linearGradient id="linear-gradient-5" x1="-707.9" y1="844" x2="-732.94" y2="1343.21" xlink:href="#linear-gradient-4"/>
    <linearGradient id="linear-gradient-6" x1="-725.63" y1="20.98" x2="-725.63" y2="1483.05" xlink:href="#linear-gradient-3"/>
    <filter id="drop-shadow-1" filterUnits="userSpaceOnUse">
      <feOffset dx="7" dy="7"/>
      <feGaussianBlur result="blur" stdDeviation="9"/>
      <feFlood flood-color="#000" flood-opacity=".75"/>
      <feComposite in2="blur" operator="in"/>
      <feComposite in="SourceGraphic"/>
    </filter>
    <linearGradient id="linear-gradient-7" x1="-2131.68" y1="38.93" x2="-2131.68" y2="807.98" gradientTransform="translate(2630.94 1509.31) scale(1 -1)" gradientUnits="userSpaceOnUse">
      <stop offset=".23" stop-color="#fff" stop-opacity="0"/>
      <stop offset=".76" stop-color="#e03402"/>
    </linearGradient>
    <linearGradient id="linear-gradient-8" x1="-2057.59" y1="26.25" x2="-2057.59" y2="816.72" xlink:href="#linear-gradient-7"/>
    <linearGradient id="linear-gradient-9" x1="-962.85" y1="700.89" x2="-811.23" y2="700.89" gradientTransform="translate(-272.22) rotate(-180) scale(1 -1)" gradientUnits="userSpaceOnUse">
      <stop offset="0" stop-color="#ff7903"/>
      <stop offset=".55" stop-color="#ffb40a"/>
    </linearGradient>
    <filter id="drop-shadow-2" filterUnits="userSpaceOnUse">
      <feOffset dx="7" dy="7"/>
      <feGaussianBlur result="blur-2" stdDeviation="9"/>
      <feFlood flood-color="#000" flood-opacity=".75"/>
      <feComposite in2="blur-2" operator="in"/>
      <feComposite in="SourceGraphic"/>
    </filter>
    <linearGradient id="linear-gradient-10" x1="-873.79" y1="443.19" x2="-643.08" y2="443.19" gradientTransform="translate(-272.22) rotate(-180) scale(1 -1)" gradientUnits="userSpaceOnUse">
      <stop offset=".31" stop-color="#fff" stop-opacity="0"/>
      <stop offset=".97" stop-color="#a01e02"/>
    </linearGradient>
    <linearGradient id="linear-gradient-11" x1="-923.08" y1="415.57" x2="-753.2" y2="415.57" gradientTransform="translate(-272.22) rotate(-180) scale(1 -1)" gradientUnits="userSpaceOnUse">
      <stop offset="0" stop-color="#fff" stop-opacity="0"/>
      <stop offset=".97" stop-color="#a01e02"/>
    </linearGradient>
    <linearGradient id="linear-gradient-12" x1="-778.78" y1="398.79" x2="-577.04" y2="398.79" gradientTransform="translate(-346.18 219.06) rotate(168.03) scale(1 -1)" xlink:href="#linear-gradient-11"/>
    <linearGradient id="linear-gradient-13" x1="-1062.13" y1="578.55" x2="-765.38" y2="578.55" gradientTransform="translate(-17.74 -430.16) rotate(-158.31) scale(1 -1)" xlink:href="#linear-gradient-11"/>
    <linearGradient id="linear-gradient-14" x1="-1050.28" y1="408.89" x2="-753.53" y2="408.89" gradientTransform="translate(-17.74 -430.16) rotate(-158.31) scale(1 -1)" xlink:href="#linear-gradient-11"/>
    <linearGradient id="linear-gradient-15" x1="-1987.24" y1="30.4" x2="-1987.24" y2="820.86" xlink:href="#linear-gradient-7"/>
  </defs>
  <g id="STAGE_LIGHTS" data-name="STAGE LIGHTS">
    <g>
      <path class="cls-8" d="M483.16,1078.99c1.9,1.69,9.54,8.78,13.34,20.82,.31,.97,1.61,5.42,1.97,11.44,0,0,0,0,0,0-.27,1.31,.02,2.38,.07,2.6,.71,3.03-.38,7.09-.38,7.09-4.24,15.07-9.13,24.02-9.13,24.02s-7.26,13.31-17.53,23.95c0,0,0,0,0,0,0,0,0,0,0,0-4.29,5.13-10.29,11.63-18.21,18.37-21.16,18.02-41.66,25.58-47.81,27.7-11.1,3.83-20.13,5.39-26.54,6.48-13.42,2.27-20.99,3.55-31.08,2.31-6.77-.83-22.87-3.04-36.06-15.76-7.78-7.51-11.04-15.29-11.67-16.84-6.03-14.87-2.34-28.33-.09-36.54,4.04-14.73,11.65-24.36,16.62-30.54,7.32-9.09,14.14-14.28,27.79-24.65,10.13-7.7,18.05-13.71,30.3-19.93,6.14-3.12,16.54-8.31,31.24-11.76,2.81-.66,11.02-2.48,21.9-3.21,6.4-.42,12.55-.83,20.75,.26,4.9,.65,12.93,1.79,22.2,6.3,3.46,1.68,7.74,3.8,12.33,7.88Z"/>
      <path class="cls-4" d="M542.66,1224.07c-42.56,35.29-85.13,70.58-127.69,105.86C276.65,1156.75,138.32,983.57,0,810.38c43.75-21.23,87.49-42.45,131.24-63.68l.73-.51c39.15-28.37,78.31-56.73,117.46-85.1,97.74,187.66,195.48,375.32,293.23,562.98Z"/>
      <path class="cls-2" d="M503.28,1120.38c17.2,45.84,33.24,88.37,44.27,117.71,.17,.46,.21,.94,.12,1.42-2.35,11.56-7.24,26.13-17.53,40.37,0,0-26.16,36.16-71.38,43.07-8.02,1.22-11.2,1.11-11.2,1.11-6.27-.23-9.73-1.82-14.89-.38-2.04,.57-3.68,1.42-4.89,2.19-.65,.42-1.47,.5-2.21,.27-23.09-7.3-46.18-14.61-69.27-21.91-.5-.16-.94-.46-1.27-.86-18.27-22.39-36.53-44.78-54.8-67.17-.5-.61-.7-1.42-.53-2.18,1.84-8.47,3.68-16.94,5.52-25.41,.42-1.94,2.79-2.7,4.32-1.4,4.68,3.99,11.2,8.56,19.64,11.98,19.93,8.08,38.02,4.7,54.47,1.4,25.86-5.19,46.36-16.14,61.1-26.48h0s34.91-22.43,50.2-63.11c1.24-3.3,2.14-6.46,2.71-9.92,1.15-6.98,.59-12.92-.09-16.91,2.42,7.32,4.52,13.03,5.71,16.2Z"/>
      <path class="cls-18" d="M551.96,1179.55c-3.51-1.59-7.03-3.18-10.54-4.77-.22-.1-.45-.17-.68-.2-7.69-1.25-15.37-2.49-23.06-3.74-1.4-.23-2.73,.67-3.01,2.03l-7.14,34.31-18.51,86.63c-.11,.51-.37,.98-.76,1.34-21.05,19.77-42.1,39.55-63.14,59.32-.74,.69-1.82,.9-2.78,.54-23.39-8.93-46.78-17.86-70.18-26.8-.83-.32-1.45-1.02-1.64-1.88-2.99-13.11-5.98-26.22-8.97-39.33-.09-.39-.27-.76-.52-1.07-11.02-13.5-22.04-27.01-33.05-40.51-1.44-1.77-4.31-1.04-4.68,1.19-5.18,31.47-10.36,62.93-15.54,94.4-.19,1.16,.44,2.31,1.53,2.8,25.31,11.36,50.62,22.71,75.94,34.07,24.4,10.29,48.8,20.58,73.2,30.87,.43,.18,.9,.25,1.37,.19,8.35-.99,16.69-1.98,25.04-2.97,.77-.09,1.46-.51,1.89-1.15,15.6-23.4,30.99-49.86,45.02-79.52,3.78-7.98,7.3-15.87,10.58-23.63,.05-.12,.09-.24,.12-.36,10.33-39.57,20.66-79.15,31-118.72,.32-1.22-.3-2.5-1.47-3.03Z"/>
      <path class="cls-16" d="M419.26,1358.33c-4.04,3.19-5.79,3.4-7.25,4.26-.71,.41-1.57,.48-2.34,.18-25.53-10-51.06-20-76.59-30-2.69-1.05-2-4.96,.89-5.03,5.26-.11,10.53-.23,15.79-.34,.35,0,.7,.05,1.02,.18,12.16,4.66,42.83,16.88,68.05,26.08,.8,.29,2.31,.84,4.23,1.51-1.5,1.3-2.81,2.37-3.81,3.16Z"/>
      <path class="cls-11" d="M331.57,1329.4c-6.72-26.44-13.44-52.87-20.16-79.31,10.05,12.3,20.09,24.61,30.14,36.91,2.99,13.21,5.99,26.42,8.98,39.63-6.32,.92-12.64,1.85-18.96,2.77Z"/>
      <path class="cls-13" d="M450.32,1299.19c-7.6,8.17-15.2,16.34-22.79,24.51-1.13,1.22-3.12,1.09-4.11-.26-16.84-23.03-33.67-46.06-50.51-69.1-.75-1.03-.65-2.43,.24-3.33,7.8-7.89,15.59-15.78,23.39-23.68,1.15-1.16,3.09-1.01,4.06,.31,16.64,22.75,33.28,45.51,49.92,68.26,.73,1,.66,2.37-.19,3.28Z"/>
      <path class="cls-21" d="M299.66,1234.83c7.63,9.44,54.85,67.91,55.37,68.54,.05,.07,.15,.18,.28,.3,0,0,.41,.37,.98,.56,.59,.2,29.01,8.53,67.81,19.87-17.39-23.9-34.77-47.81-52.16-71.71-24.1-5.85-48.19-11.71-72.29-17.56Z"/>
      <path class="cls-14" d="M470.79,1078.93c.85,.55,14.44,9.48,18.43,25.45,5.56,22.22-10.65,42.44-20.62,54.78-15.62,19.35-33.41,28.77-47.69,36.14-12.15,6.28-30.89,15.73-56.92,17.75-16.54,1.28-34.41,2.67-47.46-9.25-10.6-9.68-12.22-23.08-12.57-25.91-1.7-13.9,3.95-24.33,9.58-34.73,8.69-16.05,19.96-25.71,28.97-33.42,2.11-1.81,10.87-9.2,24.07-17.03,10.14-6.01,22.88-13.57,41.1-17.92,8.67-2.07,21.93-4.21,38.51-2.9,4.26-.03,14.45,.49,24.59,7.03Z"/>
      <path class="cls-10" d="M340.01,1226.85c-15.79-3.61-28.56-11.5-32.28-13.9-1.07-.69-1.95-1.28-2.53-1.68-1.85,7.85-3.7,15.71-5.54,23.56,24.1,5.85,48.19,11.71,72.29,17.56,8.43-8.62,16.87-17.23,25.3-25.85-1.63,.1-4.08,.24-7.04,.39-27.21,1.38-40.81,2.07-50.2-.08Z"/>
      <path class="cls-22" d="M439.79,1408.94c23.23-36.49,46.47-72.97,69.7-109.46,4.27,.73,8.55,1.46,12.82,2.19-18.53,34.38-37.07,68.77-55.6,103.15-8.97,1.37-17.95,2.75-26.92,4.12Z"/>
      <path class="cls-24" d="M540.73,1174.58c3.38,1.49,6.75,2.99,10.13,4.48,.19,.03,1.39,.22,2.12,1.32,.66,.98,.49,1.99,.45,2.2-10.37,39.69-20.75,79.39-31.12,119.08-4.27-.73-8.55-1.46-12.82-2.19,10.41-41.63,20.83-83.27,31.24-124.9Z"/>
      <path class="cls-19" d="M398.76,1274.34c6.99,9.71,13.98,19.41,20.97,29.12,6-5.09,12-10.19,18-15.28-6.6-9.39-13.19-18.79-19.79-28.18-6.4,4.78-12.79,9.56-19.19,14.34Z"/>
      <path class="cls-5" d="M436.57,1276.85c8.09-2,19.16-5.64,31.04-12.57,12.61-7.36,21.51-15.73,27.25-22.03,.85,1.76,1.69,3.52,2.54,5.27-5.84,6.12-14.57,13.97-26.6,20.99-11.8,6.89-22.79,10.65-30.96,12.79-1.08-1.48-2.17-2.97-3.25-4.45Z"/>
      <path class="cls-5" d="M400.59,1227.65c9.57-1.64,24.12-5.32,39.61-14.36,12.52-7.3,21.42-15.64,27.25-22.03,.85,1.76,1.69,3.52,2.54,5.27-5.97,6.24-14.7,14.04-26.6,20.99-15.3,8.93-29.66,12.85-39.46,14.7-1.11-1.52-2.23-3.05-3.34-4.57Z"/>
      <path class="cls-5" d="M409.89,1240.36c9.36-1.7,23.38-5.41,38.34-14.14,12.54-7.32,21.44-15.66,27.25-22.03,.85,1.76,1.69,3.52,2.54,5.27-5.95,6.22-14.68,14.03-26.6,20.99-14.76,8.62-28.6,12.54-38.16,14.45-1.12-1.51-2.24-3.03-3.36-4.54Z"/>
      <path class="cls-5" d="M418.95,1252.75c8.9-1.82,21.87-5.53,35.76-13.64,12.59-7.35,21.49-15.71,27.25-22.03,.85,1.76,1.69,3.52,2.54,5.27-5.91,6.18-14.64,14-26.6,20.99-13.73,8.01-26.56,11.91-35.64,13.92-1.1-1.5-2.2-3.01-3.3-4.51Z"/>
      <path class="cls-5" d="M427.14,1264.66c8.56-1.89,20.81-5.59,33.94-13.25,12.62-7.37,21.52-15.74,27.25-22.03,.85,1.76,1.69,3.52,2.54,5.27-5.87,6.14-14.6,13.98-26.6,20.99-12.82,7.48-24.76,11.33-33.41,13.4-1.24-1.46-2.48-2.92-3.72-4.38Z"/>
    </g>
  </g>
  <g id="cur_right_2_FIX" data-name="cur right 2 FIX">
    <path class="cls-23" d="M432.3,485.54c9.22,61.5,15.68,130.73,16.39,206.48,1.41,150.46-20.27,279.85-45.8,380.88,2.37,3.09,6.92,8.09,14.22,11.36,15.03,6.73,29.39,.59,31.99-.57,3.46,4.22,10.85,12.01,22.85,16.56,19.81,7.52,37.46,.64,41.69-1.14,6.1,5.97,15.88,13.92,29.7,19.42,29.2,11.61,55.83,4.04,64.54,1.14,11.94-170.95,23.88-341.91,35.83-512.86-70.47-40.42-140.93-80.85-211.4-121.27Z"/>
    <path class="cls-25" d="M403.55,1072.89c1.93,2.5,8.56,10.44,20.45,13.47,12.79,3.25,23.05-1.36,25.75-2.68,9.5-58.47,20.91-145.54,24.27-251.93,4.26-135.17-6.3-244.16-9.66-244.08-3.37,.08,5.38,109.89-12.97,255.85-12.32,97.98-32.42,177.04-47.83,229.38Z"/>
    <path class="cls-17" d="M450.48,1090.94c1.93,2.5,8.56,10.44,20.45,13.47,12.79,3.25,23.05-1.36,25.75-2.68,9.5-58.47,20.91-145.54,24.27-251.93,4.26-135.17-6.3-244.16-9.66-244.08-3.37,.08,5.38,109.89-12.97,255.85-12.32,97.98-32.42,177.04-47.83,229.38Z"/>
    <path class="cls-1" d="M488.17,514.61h0c-11.34,1.66-22.68,3.31-34.03,4.97,12.66,59.76,27.06,148.8,27.22,257.19,.24,167.9-33.82,306.52-31.6,306.91,1.53,.27,17.23-65.89,29.03-146.62,15.02-102.75,26.24-246.29,9.39-422.45Z"/>
    <path class="cls-15" d="M229.55,34.15c-.08,77.06,10.13,227.49,94.37,390.65,73.1,141.58,169.68,230.28,228.25,276.53-35.27,247.77-70.55,495.55-105.82,743.32,1.61,2.7,12.84,20.88,35.97,24.96,24.87,4.39,42.55-11.23,44.59-13.09,5.64,14.42,18.79,24.56,34.1,26.28,14.86,1.67,29.55-4.87,38.36-17.05,11.69,13.95,30.66,18.83,46.49,12.34,13.12-5.38,22.34-17.87,24.24-32.47,2.39-474.88,4.79-949.76,7.18-1424.64-149.24,4.39-298.48,8.78-447.72,13.17Z"/>
    <path class="cls-1" d="M603.4,699.51c-12.88,2.92-25.77,5.85-38.65,8.77-12.62,249.41-25.24,498.82-37.85,748.23,25.5-252.33,51-504.67,76.5-757Z"/>
    <path class="cls-1" d="M670.09,706.59c-12.88,2.9-25.77,5.79-38.65,8.69-10.7,250.16-21.39,500.32-32.09,750.47,23.58-253.05,47.16-506.11,70.74-759.16Z"/>
    <path class="cls-20" d="M446.35,1444.65c1.61,2.7,12.84,20.88,35.97,24.96,24.87,4.39,42.55-11.23,44.59-13.09,8.42-251.73,16.85-503.46,25.27-755.19-35.27,247.77-70.55,495.55-105.82,743.32Z"/>
    <path class="cls-26" d="M526.9,1456.52c5.64,14.42,18.79,24.56,34.1,26.28,14.86,1.67,29.55-4.87,38.36-17.05,6.82-257.72,13.64-515.44,20.45-773.16-30.97,254.64-61.94,509.28-92.91,763.92Z"/>
    <path class="cls-3" d="M686.2,675.99c-17.2,6.45-39.63,13.07-66.39,16.6-31.4,4.14-58.43,2.65-78.56,0-1.11,2.69-2.41,6.94-2.21,12.17,.45,11.62,7.98,19.16,9.96,21.02,24.01-.95,51.21-3.51,80.78-8.85,22.25-4.02,42.59-9.02,60.86-14.39-1.48-8.85-2.95-17.7-4.43-26.56Z"/>
    <path class="cls-12" d="M422.72,179.18c1.32,64.34,9.88,151,39.9,248.69,38.08,123.93,95.48,216.03,138.95,274.73-10.26,1.54-20.52,3.08-30.77,4.62-37.65-52.45-79.02-119.79-114.83-202.21-54.92-126.42-76.44-241.54-85.11-325.82,17.29,0,34.58,0,51.86,0Z"/>
    <path class="cls-9" d="M538.41,143.72c-10.93,59.57-19.8,147.66-3.71,251.84,21.72,140.6,78.57,243.63,116.15,300.82-10.35-1.26-20.7-2.53-31.05-3.79-34.55-51.38-76.28-125.89-104.99-222.21-41.9-140.6-36.59-262.34-27.49-335.63,17.03,2.99,34.06,5.98,51.08,8.97Z"/>
    <path class="cls-27" d="M297.98,225.05c17.88,66.53,45.82,147.61,90.61,235,52.98,103.37,113,183.35,163.57,241.27-50.23-40.36-114.18-100.55-173.44-185.07-75.12-107.16-112.28-210.06-131.49-280.44,16.91-3.59,33.82-7.17,50.74-10.76Z"/>
    <path class="cls-28" d="M600.52,210.55c-8.49,39.85-17.18,106.27-1.19,185.35,22.44,111.01,80.89,184.59,110.27,217.03-10.86,27.95-21.71,55.91-32.57,83.86-33.63-52.88-77.86-136.05-103.85-245.99-23.89-101.05-23.72-188.16-18.95-248.13,15.43,2.63,30.86,5.25,46.29,7.88Z"/>
    <path class="cls-7" d="M652.22,48.53c-8.49,39.85-17.18,106.27-1.19,185.35,22.44,111.01,80.89,184.59,110.27,217.03-10.86,27.95-21.71,55.91-32.57,83.86-33.63-52.88-77.86-136.05-103.85-245.99-23.89-101.05-23.72-188.16-18.95-248.13,15.43,2.63,30.86,5.25,46.29,7.88Z"/>
    <path class="cls-6" d="M597.25,1452.37c5.64,14.42,18.79,24.56,34.1,26.28,14.86,1.67,29.55-4.87,38.36-17.05,6.82-257.72,13.64-515.44,20.45-773.16-30.97,254.64-61.94,509.28-92.91,763.92Z"/>
  </g>
</svg>