<svg xmlns="http://www.w3.org/2000/svg" width="1439" height="1102" fill="none" xmlns:v="https://vecta.io/nano"><style><![CDATA[.B{color-interpolation-filters:sRGB}.C{flood-opacity:0}.D{fill:#ffedb9}.E{opacity:.42}]]></style><path d="M1426.28.337v673.279h-216.07c-13.93-301.942-262.885-533.784-515.983-528.941-246.508 4.72-482.679 233.697-495.508 528.941H-21.448V.337H1426.28z" fill="url(#s)"/><path d="M1048.25 673.616c2.26-217.202-173.905-387.366-353.122-383.927-174.685 3.338-341.787 171.413-339.079 383.927H236.377c8.801-272.594 224.978-486.373 453.527-492.784 237.009-6.645 471.026 210.146 481.486 492.784h-123.14z" fill="url(#t)"/><path d="M1021.46 673.616H382.104c-5.65-196.881 147.629-354.656 310.066-359.212 168.212-4.719 334.22 155.205 329.29 359.212z" fill="url(#u)"/><path d="M503.329 688.395l3.818-94.505c7.498-95.592 87.207-169.845 180.747-170.87 97.071-1.063 180.343 77.048 185.139 176.521l.707 88.908-370.411-.062v.008z" fill="#740103"/><path d="M523.322 687.782l3.407-84.298c3.074-88.093 74.944-158.334 160.047-159.925 89.17-1.676 165.845 72.523 166.326 164.971l.637 79.306-330.409-.054h-.008z" fill="url(#v)"/><g clip-path="url(#AZ)"><g filter="url(#A)"><path d="M1191.07 761.405l-37.21-17.817c3.62-28.721 4.81-56.955 3.77-84.541-10.25-274.268-239.628-484.641-471.935-478.194-224.015 6.221-435.907 213.673-444.533 478.194-.876 26.845.342 54.29 3.854 82.157l-37.385 8.881c-3.633-30.922-4.687-61.322-3.384-91.038 12.574-286.499 244.062-508.7 485.687-513.277 248.079-4.698 492.096 220.275 505.756 513.284 1.55 33.313.13 67.515-4.61 102.358l-.01-.007z" fill="url(#w)"/></g><g filter="url(#B)" class="D"><use href="#Ab"/></g><g filter="url(#C)" class="D"><use href="#Ac"/></g><g filter="url(#D)" class="D"><use href="#Ad"/></g><g filter="url(#E)" class="D"><path d="M260.873 484.52c3.91 0 7.081-3.139 7.081-7.011s-3.171-7.011-7.081-7.011-7.081 3.139-7.081 7.011 3.17 7.011 7.081 7.011z"/></g><g filter="url(#F)" class="D"><path d="M296.605 415.616c3.91 0 7.081-3.139 7.081-7.011s-3.171-7.011-7.081-7.011-7.081 3.139-7.081 7.011 3.17 7.011 7.081 7.011z"/></g><g filter="url(#G)" class="D"><path d="M343.628 349.907c3.91 0 7.081-3.139 7.081-7.011s-3.171-7.011-7.081-7.011-7.081 3.139-7.081 7.011 3.17 7.011 7.081 7.011z"/></g><g filter="url(#H)" class="D"><path d="M398.458 292.994c3.91 0 7.081-3.139 7.081-7.011s-3.171-7.011-7.081-7.011-7.081 3.139-7.081 7.011 3.17 7.011 7.081 7.011z"/></g><g filter="url(#I)" class="D"><path d="M458.104 246.435c3.91 0 7.081-3.139 7.081-7.011s-3.171-7.011-7.081-7.011-7.081 3.139-7.081 7.011 3.17 7.011 7.081 7.011z"/></g><g filter="url(#J)" class="D"><use href="#Ae"/></g><g filter="url(#K)" class="D"><path d="M596.572 183.216c3.911 0 7.081-3.139 7.081-7.011s-3.17-7.011-7.081-7.011-7.081 3.139-7.081 7.011 3.17 7.011 7.081 7.011z"/></g><g filter="url(#L)" class="D"><path d="M692.918 169.201c3.911 0 7.081-3.139 7.081-7.011s-3.17-7.011-7.081-7.011-7.081 3.139-7.081 7.011 3.171 7.011 7.081 7.011z"/></g><g filter="url(#M)" class="D"><path d="M798.07 183.216c3.91 0 7.08-3.139 7.08-7.011s-3.17-7.011-7.08-7.011-7.081 3.139-7.081 7.011 3.17 7.011 7.081 7.011z"/></g><g filter="url(#N)" class="D"><path d="M895.464 220.598c3.91 0 7.081-3.139 7.081-7.011s-3.171-7.011-7.081-7.011-7.081 3.139-7.081 7.011 3.17 7.011 7.081 7.011z"/></g><g filter="url(#O)" class="D"><path d="M966.243 263.659c3.911 0 7.081-3.139 7.081-7.011s-3.17-7.011-7.081-7.011-7.08 3.139-7.08 7.011 3.17 7.011 7.08 7.011z"/></g><g filter="url(#P)" class="D"><use href="#Af"/></g><g filter="url(#Q)" class="D"><path d="M1082.39 385.188c3.91 0 7.08-3.139 7.08-7.011s-3.17-7.011-7.08-7.011-7.08 3.139-7.08 7.011 3.17 7.011 7.08 7.011z"/></g><g filter="url(#R)" class="D"><use href="#Ag"/></g><g filter="url(#S)" class="D"><path d="M1154.05 532.405c3.91 0 7.08-3.139 7.08-7.011s-3.17-7.011-7.08-7.011-7.08 3.139-7.08 7.011 3.17 7.011 7.08 7.011z"/></g><g filter="url(#T)" class="D"><path d="M1173.68 619.838c3.91 0 7.08-3.139 7.08-7.011s-3.17-7.011-7.08-7.011c-3.92 0-7.09 3.139-7.09 7.011s3.17 7.011 7.09 7.011z"/></g><g filter="url(#U)" class="D"><path d="M1176.86 690.83c3.91 0 7.08-3.139 7.08-7.011s-3.17-7.012-7.08-7.012-7.08 3.139-7.08 7.012 3.17 7.011 7.08 7.011z"/></g><g filter="url(#V)"><path d="M1036.93 659.047c-.16 15.856-1.32 31.966-3.54 48.287l-25.44-12.181a353.98 353.98 0 0 0 2.72-36.113c4.83-197.966-157.884-353.16-322.759-348.575-159.22 4.422-309.456 157.529-303.921 348.575.328 11.356 1.211 22.86 2.671 34.477l-25.559 6.08a391.38 391.38 0 0 1-2.65-40.557c-2.657-206.225 161.135-369.326 332.358-372.564 175.661-3.336 348.34 161.79 346.11 372.564l.01.007z" fill="url(#x)"/></g><g filter="url(#W)" class="D"><use href="#Ah"/></g><g filter="url(#X)" class="D"><path d="M374.188 613.723c2.671 0 4.837-2.145 4.837-4.79s-2.166-4.789-4.837-4.789-4.837 2.144-4.837 4.789 2.166 4.79 4.837 4.79z"/></g><g filter="url(#Y)" class="D"><path d="M382.65 564.843c2.672 0 4.837-2.144 4.837-4.789s-2.165-4.789-4.837-4.789-4.837 2.144-4.837 4.789 2.166 4.789 4.837 4.789z"/></g><g filter="url(#Z)" class="D"><use href="#Ai"/></g><g filter="url(#a)" class="D"><path d="M421.93 470.956c2.672 0 4.837-2.144 4.837-4.789s-2.165-4.789-4.837-4.789-4.837 2.144-4.837 4.789 2.166 4.789 4.837 4.789z"/></g><g filter="url(#b)" class="D"><use href="#Aj"/></g><g filter="url(#c)" class="D"><path d="M491.556 387.12c2.672 0 4.837-2.144 4.837-4.789s-2.165-4.789-4.837-4.789-4.837 2.144-4.837 4.789 2.166 4.789 4.837 4.789z"/></g><g filter="url(#d)" class="D"><path d="M532.332 355.296c2.671 0 4.836-2.144 4.836-4.789s-2.165-4.79-4.836-4.79-4.837 2.145-4.837 4.79 2.165 4.789 4.837 4.789z"/></g><g filter="url(#e)" class="D"><use href="#Ak"/></g><g filter="url(#f)" class="D"><path d="M626.99 312.08c2.671 0 4.837-2.144 4.837-4.789s-2.166-4.789-4.837-4.789-4.837 2.144-4.837 4.789 2.165 4.789 4.837 4.789z"/></g><g filter="url(#g)" class="D"><path d="M692.854 302.502c2.672 0 4.837-2.145 4.837-4.79s-2.165-4.789-4.837-4.789-4.836 2.144-4.836 4.789 2.165 4.79 4.836 4.79z"/></g><g filter="url(#h)" class="D"><path d="M764.738 312.08c2.672 0 4.837-2.144 4.837-4.789s-2.165-4.789-4.837-4.789-4.837 2.144-4.837 4.789 2.166 4.789 4.837 4.789z"/></g><g filter="url(#i)" class="D"><path d="M831.315 337.634c2.672 0 4.837-2.144 4.837-4.789s-2.165-4.789-4.837-4.789-4.836 2.144-4.836 4.789 2.165 4.789 4.836 4.789z"/></g><g filter="url(#j)" class="D"><path d="M879.699 367.075c2.672 0 4.837-2.144 4.837-4.789s-2.165-4.79-4.837-4.79-4.837 2.145-4.837 4.79 2.166 4.789 4.837 4.789z"/></g><g filter="url(#k)" class="D"><path d="M924.236 407.787c2.671 0 4.837-2.145 4.837-4.79s-2.166-4.789-4.837-4.789-4.837 2.144-4.837 4.789 2.165 4.79 4.837 4.79z"/></g><g filter="url(#l)" class="D"><path d="M959.099 450.149c2.671 0 4.837-2.144 4.837-4.789s-2.166-4.79-4.837-4.79-4.837 2.145-4.837 4.79 2.165 4.789 4.837 4.789z"/></g><g filter="url(#m)" class="D"><path d="M986.054 494.289c2.672 0 4.837-2.145 4.837-4.79s-2.165-4.789-4.837-4.789-4.837 2.144-4.837 4.789 2.166 4.79 4.837 4.79z"/></g><g filter="url(#n)" class="D"><path d="M1008.09 550.786c2.67 0 4.83-2.144 4.83-4.789s-2.16-4.79-4.83-4.79-4.84 2.145-4.84 4.79 2.17 4.789 4.84 4.789z"/></g><g filter="url(#o)" class="D"><use href="#Al"/></g><g filter="url(#p)" class="D"><path d="M1023.68 659.09c2.67 0 4.84-2.145 4.84-4.79s-2.17-4.789-4.84-4.789-4.84 2.144-4.84 4.789 2.17 4.79 4.84 4.79z"/></g></g><g filter="url(#q)"><path d="M79.59 713.801a1523.44 1523.44 0 0 1 236.589-53.358c84.009-12.016 160.257-15.757 226.042-15.307l-.706 59.474c-59.421-.07-137.136 5.504-225.243 27.323-94.168 23.318-169.539 57.588-223.806 87.31L79.59 713.793v.008z" fill="url(#y)"/></g><path d="M542.221 645.136a1446.2 1446.2 0 0 0-236.776 19.289 1447.73 1447.73 0 0 0-254.86 66.328l-27.002-40.27c104.631-16.262 215.169-30.024 331.208-40.146a4954.29 4954.29 0 0 1 174.917-12.156l12.52 6.963-.008-.008z" fill="url(#z)"/><g class="E"><path d="M201.132 685.966l1.529 81.953 14.273-5.418-1.839-80.207-13.963 3.672z" fill="url(#AA)"/></g><g class="E"><path d="M162.706 696.219l1.436 87.667 14.576-6.28-2.041-85.058-13.963 3.671h-.008z" fill="url(#AB)"/></g><g class="E"><path d="M126.631 711.495l1.676 89.118 14.048-6.776-1.761-86.021-13.963 3.672v.007z" fill="url(#AC)"/></g><g class="E"><path d="M239.272 676.814l1.638 76.892 14.079-4.346-1.747-76.218-13.962 3.672h-.008z" fill="url(#AD)"/></g><g class="E"><path d="M279.91 668.679l1.653 72.553 13.963-3.912-1.622-70.954-13.994 2.305v.008z" fill="url(#AE)"/></g><g class="E"><path d="M323.071 661.266l1.646 68.509 13.9-3.081-1.536-67.128-14.01 1.7z" fill="url(#AF)"/></g><g class="E"><path d="M360.799 655.91l1.382 65.894 13.225-2.376-.512-64.76-14.095 1.242z" fill="url(#AG)"/></g><g class="E"><path d="M404.053 651.618l1.863 62.555 13.699-1.715-1.436-62.719-14.134 1.879h.008z" fill="url(#AH)"/></g><g class="E"><path d="M441.688 648.777l1.692 60.824 12.884-1.187-.59-60.763-13.994 1.126h.008z" fill="url(#AI)"/></g><g class="E"><path d="M478.655 646.301l1.025 60.289 13.737-.8-.916-59.699-13.846.21z" fill="url(#AJ)"/></g><g class="E"><path d="M517.959 645.323l.9 59.466 14.289-.148-1.366-59.536-13.823.218z" fill="url(#AK)"/></g><g filter="url(#r)"><path d="M1321.42 718.179c-72.76-23.085-160.17-45.052-260.2-59.047-83.432-11.675-159.578-15.556-226.039-15.308l.707 59.475c60.22.046 137.748 5.829 225.242 27.323 105.56 25.933 188.9 65.714 247.33 99.402l12.95-111.845h.01z" fill="url(#AL)"/></g><path d="M835.189 643.832a1446.11 1446.11 0 0 1 236.771 19.289 1447.53 1447.53 0 0 1 254.86 66.328l27.01-40.27c-104.63-16.262-215.17-30.024-331.21-40.146a4954.62 4954.62 0 0 0-174.92-12.156l-12.519 6.963.008-.008z" fill="url(#AM)"/><g class="E"><path d="M1176.28 684.661l-1.53 81.954-14.27-5.418 1.83-80.207 13.97 3.671z" fill="url(#AN)"/></g><g class="E"><path d="M1214.7 694.915l-1.43 87.667-14.58-6.28 2.04-85.058 13.97 3.671h0z" fill="url(#AO)"/></g><g class="E"><path d="M1250.78 710.184l-1.68 89.118-14.05-6.777 1.77-86.021 13.96 3.672v.008z" fill="url(#AP)"/></g><g class="E"><path d="M1138.14 675.502l-1.64 76.893-14.08-4.347 1.75-76.217 13.96 3.671h.01z" fill="url(#AQ)"/></g><g class="E"><path d="M1097.5 667.367l-1.65 72.554-13.97-3.912 1.63-70.955 13.99 2.305v.008z" fill="url(#AR)"/></g><g class="E"><path d="M1054.34 659.954l-1.65 68.51-13.9-3.082 1.54-67.128 14.01 1.7z" fill="url(#AS)"/></g><g class="E"><path d="M1016.61 654.606l-1.38 65.894-13.23-2.376.52-64.76 14.09 1.242z" fill="url(#AT)"/></g><g class="E"><path d="M973.356 650.306l-1.862 62.556-13.699-1.716 1.436-62.719 14.133 1.879h-.008z" fill="url(#AU)"/></g><g class="E"><path d="M935.722 647.465l-1.692 60.825-12.884-1.188.59-60.763 13.994 1.126h-.008z" fill="url(#AV)"/></g><g class="E"><path d="M898.754 644.989l-1.024 60.289-13.738-.8.916-59.699 13.846.21z" fill="url(#AW)"/></g><g class="E"><path d="M859.451 644.011l-.9 59.466-14.289-.147 1.366-59.537 13.823.218z" fill="url(#AX)"/></g><g clip-path="url(#Aa)"><path d="M679.779 996.702c361.381 0 654.341-70.214 654.341-156.827s-292.96-156.828-654.341-156.828S25.434 753.261 25.434 839.875s292.96 156.827 654.345 156.827z" fill="url(#AY)"/></g><path fill="#3a3a3a" fill-opacity=".37" d="M0 27h1439v1075H0z"/><defs><filter id="A" x="200.711" y="142.697" width="1012.58" height="635.715" filterUnits="userSpaceOnUse" class="B"><feFlood result="A" class="C"/><feColorMatrix in="SourceAlpha" values="0 0 0 0 0 0 0 0 0 0 0 0 0 0 0 0 0 0 127 0"/><feOffset dx="7" dy="7"/><feGaussianBlur stdDeviation="5"/><feColorMatrix values="0 0 0 0 0 0 0 0 0 0 0 0 0 0 0 0 0 0 0.72 0"/><feBlend in2="A"/><feBlend in="SourceGraphic"/></filter><filter id="B" x="205.453" y="662.124" width="34.162" height="34.022" filterUnits="userSpaceOnUse" class="B"><feFlood result="A" class="C"/><feColorMatrix in="SourceAlpha" values="0 0 0 0 0 0 0 0 0 0 0 0 0 0 0 0 0 0 127 0"/><feOffset/><feGaussianBlur stdDeviation="5"/><feColorMatrix values="0 0 0 0 1 0 0 0 0 1 0 0 0 0 1 0 0 0 1 0"/><feBlend in2="A"/><feBlend in="SourceGraphic"/></filter><filter id="C" x="209.677" y="600.443" width="34.162" height="34.022" filterUnits="userSpaceOnUse" class="B"><feFlood result="A" class="C"/><feColorMatrix in="SourceAlpha" values="0 0 0 0 0 0 0 0 0 0 0 0 0 0 0 0 0 0 127 0"/><feOffset/><feGaussianBlur stdDeviation="5"/><feColorMatrix values="0 0 0 0 1 0 0 0 0 1 0 0 0 0 1 0 0 0 1 0"/><feBlend in2="A"/><feBlend in="SourceGraphic"/></filter><filter id="D" x="222.065" y="528.943" width="34.162" height="34.022" filterUnits="userSpaceOnUse" class="B"><feFlood result="A" class="C"/><feColorMatrix in="SourceAlpha" values="0 0 0 0 0 0 0 0 0 0 0 0 0 0 0 0 0 0 127 0"/><feOffset/><feGaussianBlur stdDeviation="5"/><feColorMatrix values="0 0 0 0 1 0 0 0 0 1 0 0 0 0 1 0 0 0 1 0"/><feBlend in2="A"/><feBlend in="SourceGraphic"/></filter><filter id="E" x="243.792" y="460.498" width="34.162" height="34.022" filterUnits="userSpaceOnUse" class="B"><feFlood result="A" class="C"/><feColorMatrix in="SourceAlpha" values="0 0 0 0 0 0 0 0 0 0 0 0 0 0 0 0 0 0 127 0"/><feOffset/><feGaussianBlur stdDeviation="5"/><feColorMatrix values="0 0 0 0 1 0 0 0 0 1 0 0 0 0 1 0 0 0 1 0"/><feBlend in2="A"/><feBlend in="SourceGraphic"/></filter><filter id="F" x="279.524" y="391.594" width="34.162" height="34.022" filterUnits="userSpaceOnUse" class="B"><feFlood result="A" class="C"/><feColorMatrix in="SourceAlpha" values="0 0 0 0 0 0 0 0 0 0 0 0 0 0 0 0 0 0 127 0"/><feOffset/><feGaussianBlur stdDeviation="5"/><feColorMatrix values="0 0 0 0 1 0 0 0 0 1 0 0 0 0 1 0 0 0 1 0"/><feBlend in2="A"/><feBlend in="SourceGraphic"/></filter><filter id="G" x="326.547" y="325.885" width="34.162" height="34.022" filterUnits="userSpaceOnUse" class="B"><feFlood result="A" class="C"/><feColorMatrix in="SourceAlpha" values="0 0 0 0 0 0 0 0 0 0 0 0 0 0 0 0 0 0 127 0"/><feOffset/><feGaussianBlur stdDeviation="5"/><feColorMatrix values="0 0 0 0 1 0 0 0 0 1 0 0 0 0 1 0 0 0 1 0"/><feBlend in2="A"/><feBlend in="SourceGraphic"/></filter><filter id="H" x="381.377" y="268.972" width="34.162" height="34.022" filterUnits="userSpaceOnUse" class="B"><feFlood result="A" class="C"/><feColorMatrix in="SourceAlpha" values="0 0 0 0 0 0 0 0 0 0 0 0 0 0 0 0 0 0 127 0"/><feOffset/><feGaussianBlur stdDeviation="5"/><feColorMatrix values="0 0 0 0 1 0 0 0 0 1 0 0 0 0 1 0 0 0 1 0"/><feBlend in2="A"/><feBlend in="SourceGraphic"/></filter><filter id="I" x="441.023" y="222.413" width="34.162" height="34.022" filterUnits="userSpaceOnUse" class="B"><feFlood result="A" class="C"/><feColorMatrix in="SourceAlpha" values="0 0 0 0 0 0 0 0 0 0 0 0 0 0 0 0 0 0 127 0"/><feOffset/><feGaussianBlur stdDeviation="5"/><feColorMatrix values="0 0 0 0 1 0 0 0 0 1 0 0 0 0 1 0 0 0 1 0"/><feBlend in2="A"/><feBlend in="SourceGraphic"/></filter><filter id="J" x="503.967" y="187.181" width="34.162" height="34.022" filterUnits="userSpaceOnUse" class="B"><feFlood result="A" class="C"/><feColorMatrix in="SourceAlpha" values="0 0 0 0 0 0 0 0 0 0 0 0 0 0 0 0 0 0 127 0"/><feOffset/><feGaussianBlur stdDeviation="5"/><feColorMatrix values="0 0 0 0 1 0 0 0 0 1 0 0 0 0 1 0 0 0 1 0"/><feBlend in2="A"/><feBlend in="SourceGraphic"/></filter><filter id="K" x="579.491" y="159.194" width="34.162" height="34.022" filterUnits="userSpaceOnUse" class="B"><feFlood result="A" class="C"/><feColorMatrix in="SourceAlpha" values="0 0 0 0 0 0 0 0 0 0 0 0 0 0 0 0 0 0 127 0"/><feOffset/><feGaussianBlur stdDeviation="5"/><feColorMatrix values="0 0 0 0 1 0 0 0 0 1 0 0 0 0 1 0 0 0 1 0"/><feBlend in2="A"/><feBlend in="SourceGraphic"/></filter><filter id="L" x="675.837" y="145.179" width="34.162" height="34.022" filterUnits="userSpaceOnUse" class="B"><feFlood result="A" class="C"/><feColorMatrix in="SourceAlpha" values="0 0 0 0 0 0 0 0 0 0 0 0 0 0 0 0 0 0 127 0"/><feOffset/><feGaussianBlur stdDeviation="5"/><feColorMatrix values="0 0 0 0 1 0 0 0 0 1 0 0 0 0 1 0 0 0 1 0"/><feBlend in2="A"/><feBlend in="SourceGraphic"/></filter><filter id="M" x="780.989" y="159.194" width="34.162" height="34.022" filterUnits="userSpaceOnUse" class="B"><feFlood result="A" class="C"/><feColorMatrix in="SourceAlpha" values="0 0 0 0 0 0 0 0 0 0 0 0 0 0 0 0 0 0 127 0"/><feOffset/><feGaussianBlur stdDeviation="5"/><feColorMatrix values="0 0 0 0 1 0 0 0 0 1 0 0 0 0 1 0 0 0 1 0"/><feBlend in2="A"/><feBlend in="SourceGraphic"/></filter><filter id="N" x="878.383" y="196.576" width="34.162" height="34.022" filterUnits="userSpaceOnUse" class="B"><feFlood result="A" class="C"/><feColorMatrix in="SourceAlpha" values="0 0 0 0 0 0 0 0 0 0 0 0 0 0 0 0 0 0 127 0"/><feOffset/><feGaussianBlur stdDeviation="5"/><feColorMatrix values="0 0 0 0 1 0 0 0 0 1 0 0 0 0 1 0 0 0 1 0"/><feBlend in2="A"/><feBlend in="SourceGraphic"/></filter><filter id="O" x="949.163" y="239.637" width="34.162" height="34.022" filterUnits="userSpaceOnUse" class="B"><feFlood result="A" class="C"/><feColorMatrix in="SourceAlpha" values="0 0 0 0 0 0 0 0 0 0 0 0 0 0 0 0 0 0 127 0"/><feOffset/><feGaussianBlur stdDeviation="5"/><feColorMatrix values="0 0 0 0 1 0 0 0 0 1 0 0 0 0 1 0 0 0 1 0"/><feBlend in2="A"/><feBlend in="SourceGraphic"/></filter><filter id="P" x="1014.31" y="299.195" width="34.162" height="34.022" filterUnits="userSpaceOnUse" class="B"><feFlood result="A" class="C"/><feColorMatrix in="SourceAlpha" values="0 0 0 0 0 0 0 0 0 0 0 0 0 0 0 0 0 0 127 0"/><feOffset/><feGaussianBlur stdDeviation="5"/><feColorMatrix values="0 0 0 0 1 0 0 0 0 1 0 0 0 0 1 0 0 0 1 0"/><feBlend in2="A"/><feBlend in="SourceGraphic"/></filter><filter id="Q" x="1065.31" y="361.166" width="34.162" height="34.022" filterUnits="userSpaceOnUse" class="B"><feFlood result="A" class="C"/><feColorMatrix in="SourceAlpha" values="0 0 0 0 0 0 0 0 0 0 0 0 0 0 0 0 0 0 127 0"/><feOffset/><feGaussianBlur stdDeviation="5"/><feColorMatrix values="0 0 0 0 1 0 0 0 0 1 0 0 0 0 1 0 0 0 1 0"/><feBlend in2="A"/><feBlend in="SourceGraphic"/></filter><filter id="R" x="1104.73" y="425.732" width="34.162" height="34.022" filterUnits="userSpaceOnUse" class="B"><feFlood result="A" class="C"/><feColorMatrix in="SourceAlpha" values="0 0 0 0 0 0 0 0 0 0 0 0 0 0 0 0 0 0 127 0"/><feOffset/><feGaussianBlur stdDeviation="5"/><feColorMatrix values="0 0 0 0 1 0 0 0 0 1 0 0 0 0 1 0 0 0 1 0"/><feBlend in2="A"/><feBlend in="SourceGraphic"/></filter><filter id="S" x="1136.97" y="508.383" width="34.162" height="34.022" filterUnits="userSpaceOnUse" class="B"><feFlood result="A" class="C"/><feColorMatrix in="SourceAlpha" values="0 0 0 0 0 0 0 0 0 0 0 0 0 0 0 0 0 0 127 0"/><feOffset/><feGaussianBlur stdDeviation="5"/><feColorMatrix values="0 0 0 0 1 0 0 0 0 1 0 0 0 0 1 0 0 0 1 0"/><feBlend in2="A"/><feBlend in="SourceGraphic"/></filter><filter id="T" x="1156.59" y="595.816" width="34.162" height="34.022" filterUnits="userSpaceOnUse" class="B"><feFlood result="A" class="C"/><feColorMatrix in="SourceAlpha" values="0 0 0 0 0 0 0 0 0 0 0 0 0 0 0 0 0 0 127 0"/><feOffset/><feGaussianBlur stdDeviation="5"/><feColorMatrix values="0 0 0 0 1 0 0 0 0 1 0 0 0 0 1 0 0 0 1 0"/><feBlend in2="A"/><feBlend in="SourceGraphic"/></filter><filter id="U" x="1159.78" y="666.807" width="34.162" height="34.022" filterUnits="userSpaceOnUse" class="B"><feFlood result="A" class="C"/><feColorMatrix in="SourceAlpha" values="0 0 0 0 0 0 0 0 0 0 0 0 0 0 0 0 0 0 127 0"/><feOffset/><feGaussianBlur stdDeviation="5"/><feColorMatrix values="0 0 0 0 1 0 0 0 0 1 0 0 0 0 1 0 0 0 1 0"/><feBlend in2="A"/><feBlend in="SourceGraphic"/></filter><filter id="V" x="356.37" y="284.377" width="692.205" height="434.588" filterUnits="userSpaceOnUse" class="B"><feFlood result="A" class="C"/><feColorMatrix in="SourceAlpha" values="0 0 0 0 0 0 0 0 0 0 0 0 0 0 0 0 0 0 127 0"/><feOffset dx="4.79" dy="4.79"/><feGaussianBlur stdDeviation="3.42"/><feColorMatrix values="0 0 0 0 0 0 0 0 0 0 0 0 0 0 0 0 0 0 0.72 0"/><feBlend in2="A"/><feBlend in="SourceGraphic"/></filter><filter id="W" x="359.618" y="639.469" width="23.354" height="23.258" filterUnits="userSpaceOnUse" class="B"><feFlood result="A" class="C"/><feColorMatrix in="SourceAlpha" values="0 0 0 0 0 0 0 0 0 0 0 0 0 0 0 0 0 0 127 0"/><feOffset/><feGaussianBlur stdDeviation="3.42"/><feColorMatrix values="0 0 0 0 1 0 0 0 0 1 0 0 0 0 1 0 0 0 1 0"/><feBlend in2="A"/><feBlend in="SourceGraphic"/></filter><filter id="X" x="362.511" y="597.304" width="23.354" height="23.258" filterUnits="userSpaceOnUse" class="B"><feFlood result="A" class="C"/><feColorMatrix in="SourceAlpha" values="0 0 0 0 0 0 0 0 0 0 0 0 0 0 0 0 0 0 127 0"/><feOffset/><feGaussianBlur stdDeviation="3.42"/><feColorMatrix values="0 0 0 0 1 0 0 0 0 1 0 0 0 0 1 0 0 0 1 0"/><feBlend in2="A"/><feBlend in="SourceGraphic"/></filter><filter id="Y" x="370.973" y="548.425" width="23.354" height="23.258" filterUnits="userSpaceOnUse" class="B"><feFlood result="A" class="C"/><feColorMatrix in="SourceAlpha" values="0 0 0 0 0 0 0 0 0 0 0 0 0 0 0 0 0 0 127 0"/><feOffset/><feGaussianBlur stdDeviation="3.42"/><feColorMatrix values="0 0 0 0 1 0 0 0 0 1 0 0 0 0 1 0 0 0 1 0"/><feBlend in2="A"/><feBlend in="SourceGraphic"/></filter><filter id="Z" x="385.827" y="501.64" width="23.354" height="23.258" filterUnits="userSpaceOnUse" class="B"><feFlood result="A" class="C"/><feColorMatrix in="SourceAlpha" values="0 0 0 0 0 0 0 0 0 0 0 0 0 0 0 0 0 0 127 0"/><feOffset/><feGaussianBlur stdDeviation="3.42"/><feColorMatrix values="0 0 0 0 1 0 0 0 0 1 0 0 0 0 1 0 0 0 1 0"/><feBlend in2="A"/><feBlend in="SourceGraphic"/></filter><filter id="a" x="410.253" y="454.538" width="23.354" height="23.258" filterUnits="userSpaceOnUse" class="B"><feFlood result="A" class="C"/><feColorMatrix in="SourceAlpha" values="0 0 0 0 0 0 0 0 0 0 0 0 0 0 0 0 0 0 127 0"/><feOffset/><feGaussianBlur stdDeviation="3.42"/><feColorMatrix values="0 0 0 0 1 0 0 0 0 1 0 0 0 0 1 0 0 0 1 0"/><feBlend in2="A"/><feBlend in="SourceGraphic"/></filter><filter id="b" x="442.395" y="409.615" width="23.354" height="23.258" filterUnits="userSpaceOnUse" class="B"><feFlood result="A" class="C"/><feColorMatrix in="SourceAlpha" values="0 0 0 0 0 0 0 0 0 0 0 0 0 0 0 0 0 0 127 0"/><feOffset/><feGaussianBlur stdDeviation="3.42"/><feColorMatrix values="0 0 0 0 1 0 0 0 0 1 0 0 0 0 1 0 0 0 1 0"/><feBlend in2="A"/><feBlend in="SourceGraphic"/></filter><filter id="c" x="479.879" y="370.702" width="23.354" height="23.258" filterUnits="userSpaceOnUse" class="B"><feFlood result="A" class="C"/><feColorMatrix in="SourceAlpha" values="0 0 0 0 0 0 0 0 0 0 0 0 0 0 0 0 0 0 127 0"/><feOffset/><feGaussianBlur stdDeviation="3.42"/><feColorMatrix values="0 0 0 0 1 0 0 0 0 1 0 0 0 0 1 0 0 0 1 0"/><feBlend in2="A"/><feBlend in="SourceGraphic"/></filter><filter id="d" x="520.655" y="338.877" width="23.354" height="23.258" filterUnits="userSpaceOnUse" class="B"><feFlood result="A" class="C"/><feColorMatrix in="SourceAlpha" values="0 0 0 0 0 0 0 0 0 0 0 0 0 0 0 0 0 0 127 0"/><feOffset/><feGaussianBlur stdDeviation="3.42"/><feColorMatrix values="0 0 0 0 1 0 0 0 0 1 0 0 0 0 1 0 0 0 1 0"/><feBlend in2="A"/><feBlend in="SourceGraphic"/></filter><filter id="e" x="563.688" y="314.797" width="23.354" height="23.258" filterUnits="userSpaceOnUse" class="B"><feFlood result="A" class="C"/><feColorMatrix in="SourceAlpha" values="0 0 0 0 0 0 0 0 0 0 0 0 0 0 0 0 0 0 127 0"/><feOffset/><feGaussianBlur stdDeviation="3.42"/><feColorMatrix values="0 0 0 0 1 0 0 0 0 1 0 0 0 0 1 0 0 0 1 0"/><feBlend in2="A"/><feBlend in="SourceGraphic"/></filter><filter id="f" x="615.313" y="295.662" width="23.354" height="23.258" filterUnits="userSpaceOnUse" class="B"><feFlood result="A" class="C"/><feColorMatrix in="SourceAlpha" values="0 0 0 0 0 0 0 0 0 0 0 0 0 0 0 0 0 0 127 0"/><feOffset/><feGaussianBlur stdDeviation="3.42"/><feColorMatrix values="0 0 0 0 1 0 0 0 0 1 0 0 0 0 1 0 0 0 1 0"/><feBlend in2="A"/><feBlend in="SourceGraphic"/></filter><filter id="g" x="681.178" y="286.083" width="23.354" height="23.258" filterUnits="userSpaceOnUse" class="B"><feFlood result="A" class="C"/><feColorMatrix in="SourceAlpha" values="0 0 0 0 0 0 0 0 0 0 0 0 0 0 0 0 0 0 127 0"/><feOffset/><feGaussianBlur stdDeviation="3.42"/><feColorMatrix values="0 0 0 0 1 0 0 0 0 1 0 0 0 0 1 0 0 0 1 0"/><feBlend in2="A"/><feBlend in="SourceGraphic"/></filter><filter id="h" x="753.061" y="295.662" width="23.354" height="23.258" filterUnits="userSpaceOnUse" class="B"><feFlood result="A" class="C"/><feColorMatrix in="SourceAlpha" values="0 0 0 0 0 0 0 0 0 0 0 0 0 0 0 0 0 0 127 0"/><feOffset/><feGaussianBlur stdDeviation="3.42"/><feColorMatrix values="0 0 0 0 1 0 0 0 0 1 0 0 0 0 1 0 0 0 1 0"/><feBlend in2="A"/><feBlend in="SourceGraphic"/></filter><filter id="i" x="819.639" y="321.216" width="23.354" height="23.258" filterUnits="userSpaceOnUse" class="B"><feFlood result="A" class="C"/><feColorMatrix in="SourceAlpha" values="0 0 0 0 0 0 0 0 0 0 0 0 0 0 0 0 0 0 127 0"/><feOffset/><feGaussianBlur stdDeviation="3.42"/><feColorMatrix values="0 0 0 0 1 0 0 0 0 1 0 0 0 0 1 0 0 0 1 0"/><feBlend in2="A"/><feBlend in="SourceGraphic"/></filter><filter id="j" x="868.022" y="350.656" width="23.354" height="23.258" filterUnits="userSpaceOnUse" class="B"><feFlood result="A" class="C"/><feColorMatrix in="SourceAlpha" values="0 0 0 0 0 0 0 0 0 0 0 0 0 0 0 0 0 0 127 0"/><feOffset/><feGaussianBlur stdDeviation="3.42"/><feColorMatrix values="0 0 0 0 1 0 0 0 0 1 0 0 0 0 1 0 0 0 1 0"/><feBlend in2="A"/><feBlend in="SourceGraphic"/></filter><filter id="k" x="912.559" y="391.368" width="23.354" height="23.258" filterUnits="userSpaceOnUse" class="B"><feFlood result="A" class="C"/><feColorMatrix in="SourceAlpha" values="0 0 0 0 0 0 0 0 0 0 0 0 0 0 0 0 0 0 127 0"/><feOffset/><feGaussianBlur stdDeviation="3.42"/><feColorMatrix values="0 0 0 0 1 0 0 0 0 1 0 0 0 0 1 0 0 0 1 0"/><feBlend in2="A"/><feBlend in="SourceGraphic"/></filter><filter id="l" x="947.422" y="433.73" width="23.354" height="23.258" filterUnits="userSpaceOnUse" class="B"><feFlood result="A" class="C"/><feColorMatrix in="SourceAlpha" values="0 0 0 0 0 0 0 0 0 0 0 0 0 0 0 0 0 0 127 0"/><feOffset/><feGaussianBlur stdDeviation="3.42"/><feColorMatrix values="0 0 0 0 1 0 0 0 0 1 0 0 0 0 1 0 0 0 1 0"/><feBlend in2="A"/><feBlend in="SourceGraphic"/></filter><filter id="m" x="974.377" y="477.87" width="23.354" height="23.258" filterUnits="userSpaceOnUse" class="B"><feFlood result="A" class="C"/><feColorMatrix in="SourceAlpha" values="0 0 0 0 0 0 0 0 0 0 0 0 0 0 0 0 0 0 127 0"/><feOffset/><feGaussianBlur stdDeviation="3.42"/><feColorMatrix values="0 0 0 0 1 0 0 0 0 1 0 0 0 0 1 0 0 0 1 0"/><feBlend in2="A"/><feBlend in="SourceGraphic"/></filter><filter id="n" x="996.41" y="534.367" width="23.354" height="23.258" filterUnits="userSpaceOnUse" class="B"><feFlood result="A" class="C"/><feColorMatrix in="SourceAlpha" values="0 0 0 0 0 0 0 0 0 0 0 0 0 0 0 0 0 0 127 0"/><feOffset/><feGaussianBlur stdDeviation="3.42"/><feColorMatrix values="0 0 0 0 1 0 0 0 0 1 0 0 0 0 1 0 0 0 1 0"/><feBlend in2="A"/><feBlend in="SourceGraphic"/></filter><filter id="o" x="1009.82" y="594.137" width="23.354" height="23.258" filterUnits="userSpaceOnUse" class="B"><feFlood result="A" class="C"/><feColorMatrix in="SourceAlpha" values="0 0 0 0 0 0 0 0 0 0 0 0 0 0 0 0 0 0 127 0"/><feOffset/><feGaussianBlur stdDeviation="3.42"/><feColorMatrix values="0 0 0 0 1 0 0 0 0 1 0 0 0 0 1 0 0 0 1 0"/><feBlend in2="A"/><feBlend in="SourceGraphic"/></filter><filter id="p" x="1012" y="642.671" width="23.354" height="23.258" filterUnits="userSpaceOnUse" class="B"><feFlood result="A" class="C"/><feColorMatrix in="SourceAlpha" values="0 0 0 0 0 0 0 0 0 0 0 0 0 0 0 0 0 0 127 0"/><feOffset/><feGaussianBlur stdDeviation="3.42"/><feColorMatrix values="0 0 0 0 1 0 0 0 0 1 0 0 0 0 1 0 0 0 1 0"/><feBlend in2="A"/><feBlend in="SourceGraphic"/></filter><filter id="q" x="76.59" y="642.101" width="482.631" height="194.142" filterUnits="userSpaceOnUse" class="B"><feFlood result="A" class="C"/><feColorMatrix in="SourceAlpha" values="0 0 0 0 0 0 0 0 0 0 0 0 0 0 0 0 0 0 127 0"/><feOffset dx="7" dy="7"/><feGaussianBlur stdDeviation="5"/><feColorMatrix values="0 0 0 0 0 0 0 0 0 0 0 0 0 0 0 0 0 0 0.2 0"/><feBlend in2="A"/><feBlend in="SourceGraphic"/></filter><filter id="r" x="832.181" y="640.813" width="506.241" height="206.211" filterUnits="userSpaceOnUse" class="B"><feFlood result="A" class="C"/><feColorMatrix in="SourceAlpha" values="0 0 0 0 0 0 0 0 0 0 0 0 0 0 0 0 0 0 127 0"/><feOffset dx="7" dy="7"/><feGaussianBlur stdDeviation="5"/><feColorMatrix values="0 0 0 0 0 0 0 0 0 0 0 0 0 0 0 0 0 0 0.2 0"/><feBlend in2="A"/><feBlend in="SourceGraphic"/></filter><radialGradient id="s" cx="0" cy="0" r="1" gradientTransform="translate(678.712 563.237) scale(658.179 658.251)" href="#Am"><stop offset=".06" stop-color="#cc5df8"/><stop offset=".92" stop-color="#2d2c59"/></radialGradient><radialGradient id="t" cx="0" cy="0" r="1" gradientTransform="translate(703.649 591.167) rotate(-91.6498) scale(355.385 380.22)" href="#Am"><stop offset=".39" stop-color="#cc5df8"/><stop offset="1" stop-color="#2d2c59"/></radialGradient><radialGradient id="u" cx="0" cy="0" r="1" gradientTransform="translate(704.286 581.122) scale(259.369 241.24)" href="#Am"><stop offset=".33" stop-color="#cc5df8"/><stop offset="1" stop-color="#2d2c59"/></radialGradient><linearGradient id="v" x1="523.322" y1="565.682" x2="853.739" y2="565.682" href="#Am"><stop stop-color="#a82623"/><stop offset=".16" stop-color="#bb2c23"/><stop offset=".37" stop-color="#d13424"/><stop offset=".52" stop-color="#d93725"/><stop offset=".64" stop-color="#d33524"/><stop offset=".81" stop-color="#c22f24"/><stop offset="1" stop-color="#a82623"/></linearGradient><linearGradient id="w" x1="203.713" y1="453.549" x2="1196.29" y2="453.549" href="#Am"><stop offset=".02" stop-color="#f79000"/><stop offset=".41" stop-color="#ffd25f"/><stop offset="1" stop-color="#f79000"/></linearGradient><linearGradient id="x" x1="358.423" y1="496.891" x2="1036.95" y2="496.891" href="#Am"><stop offset=".02" stop-color="#f79000"/><stop offset=".41" stop-color="#ffd25f"/><stop offset="1" stop-color="#f79000"/></linearGradient><linearGradient id="y" x1="79.59" y1="732.174" x2="542.221" y2="732.174" href="#Am"><stop stop-color="#b86a2c"/><stop offset="1" stop-color="#a45925"/></linearGradient><linearGradient id="z" x1="23.576" y1="684.467" x2="542.221" y2="684.467" href="#Am"><stop stop-color="#b86a2c"/><stop offset="1" stop-color="#8e4b12"/></linearGradient><linearGradient id="AA" x1="201.132" y1="725.11" x2="216.934" y2="725.11" href="#Am"><stop offset=".02" stop-color="#fb9400"/><stop offset=".41" stop-color="#ffd65f"/><stop offset="1" stop-color="#fb9400"/></linearGradient><linearGradient id="AB" x1="162.706" y1="738.221" x2="178.718" y2="738.221" href="#Am"><stop offset=".02" stop-color="#fb9400"/><stop offset=".41" stop-color="#ffd65f"/><stop offset="1" stop-color="#fb9400"/></linearGradient><linearGradient id="AC" x1="126.631" y1="754.219" x2="142.355" y2="754.219" href="#Am"><stop offset=".02" stop-color="#fb9400"/><stop offset=".41" stop-color="#ffd65f"/><stop offset="1" stop-color="#fb9400"/></linearGradient><linearGradient id="AD" x1="239.272" y1="713.42" x2="254.981" y2="713.42" href="#Am"><stop offset=".02" stop-color="#fb9400"/><stop offset=".41" stop-color="#ffd65f"/><stop offset="1" stop-color="#fb9400"/></linearGradient><linearGradient id="AE" x1="279.91" y1="703.803" x2="295.534" y2="703.803" href="#Am"><stop offset=".02" stop-color="#fb9400"/><stop offset=".41" stop-color="#ffd65f"/><stop offset="1" stop-color="#fb9400"/></linearGradient><linearGradient id="AF" x1="323.071" y1="694.667" x2="338.625" y2="694.667" href="#Am"><stop offset=".02" stop-color="#fb9400"/><stop offset=".41" stop-color="#ffd65f"/><stop offset="1" stop-color="#fb9400"/></linearGradient><linearGradient id="AG" x1="360.799" y1="688.232" x2="375.406" y2="688.232" href="#Am"><stop offset=".02" stop-color="#fb9400"/><stop offset=".41" stop-color="#ffd65f"/><stop offset="1" stop-color="#fb9400"/></linearGradient><linearGradient id="AH" x1="404.053" y1="681.952" x2="419.623" y2="681.952" href="#Am"><stop offset=".02" stop-color="#fb9400"/><stop offset=".41" stop-color="#ffd65f"/><stop offset="1" stop-color="#fb9400"/></linearGradient><linearGradient id="AI" x1="441.688" y1="678.622" x2="456.264" y2="678.622" href="#Am"><stop offset=".02" stop-color="#fb9400"/><stop offset=".41" stop-color="#ffd65f"/><stop offset="1" stop-color="#fb9400"/></linearGradient><linearGradient id="AJ" x1="478.655" y1="676.34" x2="493.417" y2="676.34" href="#Am"><stop offset=".02" stop-color="#fb9400"/><stop offset=".41" stop-color="#ffd65f"/><stop offset="1" stop-color="#fb9400"/></linearGradient><linearGradient id="AK" x1="517.959" y1="674.943" x2="533.148" y2="674.943" href="#Am"><stop offset=".02" stop-color="#fb9400"/><stop offset=".41" stop-color="#ffd65f"/><stop offset="1" stop-color="#fb9400"/></linearGradient><linearGradient id="AL" x1="1321.42" y1="736.924" x2="835.189" y2="736.924" href="#Am"><stop stop-color="#b86a2c"/><stop offset="1" stop-color="#a45925"/></linearGradient><linearGradient id="AM" x1="1353.83" y1="683.156" x2="835.189" y2="683.156" href="#Am"><stop stop-color="#b86a2c"/><stop offset="1" stop-color="#8e4b12"/></linearGradient><linearGradient id="AN" x1="1176.27" y1="723.799" x2="1160.47" y2="723.799" href="#Am"><stop offset=".02" stop-color="#fb9400"/><stop offset=".41" stop-color="#ffd65f"/><stop offset="1" stop-color="#fb9400"/></linearGradient><linearGradient id="AO" x1="1214.7" y1="736.909" x2="1198.69" y2="736.909" href="#Am"><stop offset=".02" stop-color="#fb9400"/><stop offset=".41" stop-color="#ffd65f"/><stop offset="1" stop-color="#fb9400"/></linearGradient><linearGradient id="AP" x1="1250.78" y1="752.907" x2="1235.05" y2="752.907" href="#Am"><stop offset=".02" stop-color="#fb9400"/><stop offset=".41" stop-color="#ffd65f"/><stop offset="1" stop-color="#fb9400"/></linearGradient><linearGradient id="AQ" x1="1138.14" y1="712.116" x2="1122.42" y2="712.116" href="#Am"><stop offset=".02" stop-color="#fb9400"/><stop offset=".41" stop-color="#ffd65f"/><stop offset="1" stop-color="#fb9400"/></linearGradient><linearGradient id="AR" x1="1097.49" y1="702.499" x2="1081.88" y2="702.499" href="#Am"><stop offset=".02" stop-color="#fb9400"/><stop offset=".41" stop-color="#ffd65f"/><stop offset="1" stop-color="#fb9400"/></linearGradient><linearGradient id="AS" x1="1054.33" y1="693.355" x2="1038.79" y2="693.355" href="#Am"><stop offset=".02" stop-color="#fb9400"/><stop offset=".41" stop-color="#ffd65f"/><stop offset="1" stop-color="#fb9400"/></linearGradient><linearGradient id="AT" x1="1016.6" y1="686.928" x2="1002" y2="686.928" href="#Am"><stop offset=".02" stop-color="#fb9400"/><stop offset=".41" stop-color="#ffd65f"/><stop offset="1" stop-color="#fb9400"/></linearGradient><linearGradient id="AU" x1="973.356" y1="680.648" x2="957.787" y2="680.648" href="#Am"><stop offset=".02" stop-color="#fb9400"/><stop offset=".41" stop-color="#ffd65f"/><stop offset="1" stop-color="#fb9400"/></linearGradient><linearGradient id="AV" x1="935.722" y1="677.318" x2="921.138" y2="677.318" href="#Am"><stop offset=".02" stop-color="#fb9400"/><stop offset=".41" stop-color="#ffd65f"/><stop offset="1" stop-color="#fb9400"/></linearGradient><linearGradient id="AW" x1="898.754" y1="675.029" x2="883.992" y2="675.029" href="#Am"><stop offset=".02" stop-color="#fb9400"/><stop offset=".41" stop-color="#ffd65f"/><stop offset="1" stop-color="#fb9400"/></linearGradient><linearGradient id="AX" x1="859.451" y1="673.639" x2="844.262" y2="673.639" href="#Am"><stop offset=".02" stop-color="#fb9400"/><stop offset=".41" stop-color="#ffd65f"/><stop offset="1" stop-color="#fb9400"/></linearGradient><radialGradient id="AY" cx="0" cy="0" r="1" gradientTransform="translate(681.955 839.875) scale(471.335 663.925)" href="#Am"><stop offset=".03" stop-color="#353a70"/><stop offset=".53" stop-color="#414f8d"/></radialGradient><clipPath id="AZ"><path fill="#fff" transform="translate(198 140)" d="M0 0h1014v637H0z"/></clipPath><clipPath id="Aa"><path fill="#fff" transform="translate(25.434 683.047)" d="M0 0h1308.68v313.656H0z"/></clipPath><path id="Ab" d="M222.533 686.146c3.911 0 7.081-3.139 7.081-7.011s-3.17-7.011-7.081-7.011-7.08 3.139-7.08 7.011 3.17 7.011 7.08 7.011z"/><path id="Ac" d="M226.758 624.465c3.911 0 7.081-3.139 7.081-7.011s-3.17-7.011-7.081-7.011-7.081 3.139-7.081 7.011 3.17 7.011 7.081 7.011z"/><path id="Ad" d="M239.146 552.965c3.91 0 7.081-3.139 7.081-7.011s-3.171-7.011-7.081-7.011-7.081 3.139-7.081 7.011 3.17 7.011 7.081 7.011z"/><path id="Ae" d="M521.048 211.203c3.91 0 7.08-3.139 7.08-7.011s-3.17-7.011-7.08-7.011-7.081 3.139-7.081 7.011 3.17 7.011 7.081 7.011z"/><path id="Af" d="M1031.39 323.217c3.91 0 7.08-3.139 7.08-7.011s-3.17-7.011-7.08-7.011-7.08 3.139-7.08 7.011 3.17 7.011 7.08 7.011z"/><path id="Ag" d="M1121.82 449.754c3.91 0 7.08-3.139 7.08-7.011s-3.17-7.011-7.08-7.011c-3.92 0-7.09 3.139-7.09 7.011s3.17 7.011 7.09 7.011z"/><path id="Ah" d="M371.295 655.887c2.672 0 4.837-2.144 4.837-4.789s-2.165-4.789-4.837-4.789-4.837 2.144-4.837 4.789 2.166 4.789 4.837 4.789z"/><path id="Ai" d="M397.503 518.058c2.672 0 4.837-2.144 4.837-4.789s-2.165-4.789-4.837-4.789-4.836 2.144-4.836 4.789 2.165 4.789 4.836 4.789z"/><path id="Aj" d="M454.072 426.034c2.671 0 4.837-2.145 4.837-4.79s-2.166-4.789-4.837-4.789-4.837 2.144-4.837 4.789 2.165 4.79 4.837 4.79z"/><path id="Ak" d="M575.365 331.216c2.672 0 4.837-2.145 4.837-4.79s-2.165-4.789-4.837-4.789-4.837 2.144-4.837 4.789 2.166 4.79 4.837 4.79z"/><path id="Al" d="M1021.5 610.556c2.67 0 4.84-2.145 4.84-4.79s-2.17-4.789-4.84-4.789-4.84 2.144-4.84 4.789 2.17 4.79 4.84 4.79z"/><linearGradient id="Am" gradientUnits="userSpaceOnUse"/></defs></svg>