<svg id="Layer_1" data-name="Layer 1" xmlns="http://www.w3.org/2000/svg" xmlns:xlink="http://www.w3.org/1999/xlink" viewBox="0 0 1080 1080"><defs><style>.cls-1{filter:url(#filter);}.cls-2{fill:url(#linear-gradient);}.cls-3{fill:url(#linear-gradient-2);}.cls-4,.cls-5,.cls-6{fill:#e8d7bd;stroke:#a13b37;stroke-width:5.4px;}.cls-4,.cls-5,.cls-6,.cls-7{stroke-miterlimit:10;}.cls-5{filter:url(#filter-2);}.cls-6{filter:url(#filter-3);}.cls-7{fill:#c498f4;stroke:#c498f4;stroke-width:0.56px;}.cls-8{fill:#2d2c59;}</style><filter id="filter"><feOffset dx="4.1" dy="4.1" input="SourceAlpha"/><feGaussianBlur stdDeviation="2.93" result="blur"/><feFlood/><feComposite operator="in" in2="blur"/><feComposite in="SourceGraphic"/></filter><linearGradient id="linear-gradient" x1="340.43" y1="472.15" x2="393.14" y2="472.15" gradientUnits="userSpaceOnUse"><stop offset="0.54" stop-color="#873634"/><stop offset="1" stop-color="#a13b37"/></linearGradient><linearGradient id="linear-gradient-2" x1="666.15" y1="565.5" x2="715.91" y2="615.26" gradientUnits="userSpaceOnUse"><stop offset="0.26" stop-color="#873634"/><stop offset="0.69" stop-color="#a13b37"/></linearGradient><filter id="filter-2" x="340" y="476.43" width="22.56" height="105.36" filterUnits="userSpaceOnUse"><feOffset dx="-3.91" dy="-3.91" input="SourceAlpha"/><feGaussianBlur stdDeviation="2.79" result="blur-2"/><feFlood/><feComposite operator="in" in2="blur-2"/><feComposite in="SourceGraphic"/></filter><filter id="filter-3" x="697.12" y="505.95" width="48.48" height="94.56" filterUnits="userSpaceOnUse"><feOffset dx="3.91" dy="3.91" input="SourceAlpha"/><feGaussianBlur stdDeviation="2.79" result="blur-3"/><feFlood/><feComposite operator="in" in2="blur-3"/><feComposite in="SourceGraphic"/></filter></defs><g class="cls-1"><path class="cls-2" d="M389.72,446.23l3.42,45.71c-25.95,9-47.08,7.69-51.7-1.28-4.47-8.69,6.82-24,15.38-31.62C369.53,447.8,384.4,446.45,389.72,446.23Z"/><path class="cls-3" d="M665.72,565.93q7.24,26.73,14.51,53.44A94.78,94.78,0,0,0,707.37,614c11.56-4.09,19.08-6.76,21.24-12.91,3.72-10.58-10.27-26-23.58-32.85C687.89,559.51,670.56,564.39,665.72,565.93Z"/><path class="cls-4" d="M44,511.06l59.88,1.28c18.72-6,45.25-14.39,77.24-24,63.53-19.12,51.52-13.94,87.14-25C311.3,450,370.53,429.5,383.58,441.39c1.08,1,4.11,3.74,4.06,7.39-.05,4.11-4,6.72-14,14-14.54,10.58-17.33,13.12-18.48,17.37-1,3.63-1,9.34,2.22,12.19,4.81,4.27,14.74.28,31-7,22.34-10,33.51-15,38.63-18.15,61.87-38.07,253.45,4.49,273.74,9,9.26,2.06,24.12,6.13,29.33,17,1.07,2.22,3.44,8.3.4,18.12a260.75,260.75,0,0,0,103.88,13.11,264.29,264.29,0,0,0,167.95-79l5.61,70.72,9.89,10.73,27.3,29.63c-98,71-159.76,79.63-199,72.73-16.8-3-111.82-23.24-146.51-12.5-2.07.64-14.66,4.72-17,1-2.17-3.42,4.93-12.12,8.68-16.72,8.59-10.53,13.42-11.32,13.5-15.43.15-7.33-15-15.56-29.89-17.36-16.78-2-26.32,4.92-39.87,9-27.55,8.29-39-5.13-82.61-10.61-11.69-1.46-45.82-5.46-85.83,3.54-49.61,11.16-74.42,16.74-83.58,21.54-3.77,2-14.56,7.88-21.54,3.53-5.67-3.52-6.46-12.31-6.43-18A120.41,120.41,0,0,0,306.46,564c-33.55-1.61-62.52,12.12-80.37,20.58-32.82,15.55-41.55,28.54-60.76,25.39-6.24-1-16-4.15-31.5-3.86a104.61,104.61,0,0,0-21.22,2.9c-20.44,5.47-39.56,27.62-40.94,29.25a194.21,194.21,0,0,0,22.44-47.52,192.63,192.63,0,0,0,7-31.24Z"/></g><line class="cls-5" x1="355.11" y1="488.73" x2="355" y2="577.15"/><line class="cls-6" x1="730.48" y1="511.31" x2="704.37" y2="587.23"/><path class="cls-7" d="M384.51,523.64l.38,8.42a1.25,1.25,0,0,0,.42.65,1.85,1.85,0,0,0,.61.31,3.32,3.32,0,0,0,.72,0l.06,1.22a4.4,4.4,0,0,0-.72.09,1.84,1.84,0,0,0-.58.37,1.23,1.23,0,0,0-.35.73l.26,5.78a35.31,35.31,0,0,0,.54,5,12.53,12.53,0,0,0,1.19,3.61,5.3,5.3,0,0,0,2.11,2.16,6.16,6.16,0,0,0,3.23.62,6.58,6.58,0,0,0,5.79-3.5,11.58,11.58,0,0,0,1.24-3.83,23.14,23.14,0,0,0,.24-5l-.23-5a1.72,1.72,0,0,0-.3-1,1.13,1.13,0,0,0-.64-.43,1.79,1.79,0,0,0-.88-.06l-.05-1.22a1.7,1.7,0,0,0,.87-.15,1.18,1.18,0,0,0,.59-.48,1.52,1.52,0,0,0,.22-1l-.4-8.69a5,5,0,0,0-1.7-3A5.74,5.74,0,0,0,394,518l-.08-1.7a16.79,16.79,0,0,1,2,0,6.53,6.53,0,0,1,1.48.27,3.88,3.88,0,0,1,1.13.62,5.52,5.52,0,0,1,1,1.07,5.07,5.07,0,0,1,.9-1.16,3.59,3.59,0,0,1,1.1-.71,6.69,6.69,0,0,1,1.48-.42,16.78,16.78,0,0,1,2-.19l.08,1.69a5.35,5.35,0,0,0-3.27,1.88,5,5,0,0,0-1.17,3.58l.36,8a1.52,1.52,0,0,0,.33,1,1.3,1.3,0,0,0,.61.42,1.67,1.67,0,0,0,.88.07l0,1.22a1.81,1.81,0,0,0-.87.14,1.38,1.38,0,0,0-.57.48,1.55,1.55,0,0,0-.23,1.05l.22,5a24.91,24.91,0,0,1-.31,5.59,12.27,12.27,0,0,1-1.56,4.32,8,8,0,0,1-2.93,2.84,9.84,9.84,0,0,1-4.41,1.16,20.72,20.72,0,0,1-5.35-.37,8.37,8.37,0,0,1-3.91-1.95,9.39,9.39,0,0,1-2.47-4,22.09,22.09,0,0,1-1-6.54l-.22-5.88a1,1,0,0,0-.43-.51,1.48,1.48,0,0,0-.53-.19,1.5,1.5,0,0,0-.67,0l-.06-1.21a1.46,1.46,0,0,0,.67-.09,4,4,0,0,0,.53-.29,1,1,0,0,0,.41-.55l-.33-9.7a7.61,7.61,0,0,0-.67-2.78,2.64,2.64,0,0,0-2.3-1.28l-.08-1.7a16.79,16.79,0,0,1,2,0,6,6,0,0,1,1.48.28,3.53,3.53,0,0,1,1.13.61,5.52,5.52,0,0,1,1,1.07,5.36,5.36,0,0,1,.9-1.16,3.59,3.59,0,0,1,1.1-.71,6.2,6.2,0,0,1,1.48-.41,15,15,0,0,1,2-.2l.08,1.69a3.36,3.36,0,0,0-1.51.68,2.76,2.76,0,0,0-.8,1.18,4.59,4.59,0,0,0-.26,1.58C384.47,522.28,384.48,522.93,384.51,523.64Zm-2.05-3.2a1,1,0,1,0-2,.09c0,.7.38,1,1,1S382.49,521.14,382.46,520.44Zm-.57,2.25-.67,0,1,22.1a6.13,6.13,0,0,0,.39,1.89,9.86,9.86,0,0,0,.88,1.85,8.34,8.34,0,0,0,1.15,1.46,3.44,3.44,0,0,0,1.15.8,7.11,7.11,0,0,1-1.91-2.3,9.5,9.5,0,0,1-.87-2.67,21.09,21.09,0,0,1-.27-3.12q0-1.71-.12-3.66Z"/><path class="cls-7" d="M410.65,522.15c-.1-.7-.21-1.34-.32-1.91a4.73,4.73,0,0,0-.55-1.51,2.85,2.85,0,0,0-1-1,3.18,3.18,0,0,0-1.64-.39l-.23-1.68a16.84,16.84,0,0,1,2-.18,6.21,6.21,0,0,1,1.51.14,3.55,3.55,0,0,1,1.18.51,5.32,5.32,0,0,1,1.1,1,5.76,5.76,0,0,1,.79-1.24,3.93,3.93,0,0,1,1-.81,6.77,6.77,0,0,1,1.43-.55,15.25,15.25,0,0,1,2-.38l.24,1.68a2.86,2.86,0,0,0-1.61.94,3.34,3.34,0,0,0-.6,1.51L432.14,542l-1.43-10.24a1.57,1.57,0,0,0-.42-1,1.38,1.38,0,0,0-.65-.36,2,2,0,0,0-.93,0l-.17-1.21a2,2,0,0,0,.9-.23,1.48,1.48,0,0,0,.53-.53,1.53,1.53,0,0,0,.14-1l-1.35-9.72a5.24,5.24,0,0,0-1-2.17,2.68,2.68,0,0,0-2.22-.82l-.23-1.68a16.64,16.64,0,0,1,2-.17,6.41,6.41,0,0,1,1.51.14,3.82,3.82,0,0,1,1.21.5,5.93,5.93,0,0,1,1.1,1,5.12,5.12,0,0,1,.79-1.23,3.49,3.49,0,0,1,1-.82,7.3,7.3,0,0,1,1.4-.54,15.93,15.93,0,0,1,2-.38l.23,1.68a3.22,3.22,0,0,0-1.44.82,2.77,2.77,0,0,0-.69,1.24,4.88,4.88,0,0,0-.11,1.6c0,.58.12,1.22.21,1.92l1.1,7.88a1.5,1.5,0,0,0,.42.94,1.31,1.31,0,0,0,.7.36,1.76,1.76,0,0,0,.88,0l.17,1.21a1.82,1.82,0,0,0-.86.22,1.4,1.4,0,0,0-.57.54,1.58,1.58,0,0,0-.14,1.06l1.91,13.72a2.59,2.59,0,0,0,.87,1.4,3.5,3.5,0,0,0,2.21.52l.23,1.69a19.06,19.06,0,0,1-2,.17,7,7,0,0,1-1.52-.13,3.43,3.43,0,0,1-1.22-.53,6.23,6.23,0,0,1-1.1-1,6.67,6.67,0,0,1-.79,1.26,3.25,3.25,0,0,1-1,.84,6.57,6.57,0,0,1-1.43.55,14.93,14.93,0,0,1-2,.38l-.23-1.68a4,4,0,0,0,1.78-.86,2.18,2.18,0,0,0,.63-1.24l-16.24-24,1,7.14a1.55,1.55,0,0,0,.41.94,1.26,1.26,0,0,0,.7.35,1.65,1.65,0,0,0,.88,0l.17,1.21a1.67,1.67,0,0,0-.85.22,1.28,1.28,0,0,0-.57.54,1.53,1.53,0,0,0-.14,1.06l1.91,13.71a2.58,2.58,0,0,0,.87,1.41,3.47,3.47,0,0,0,2.2.52l.24,1.68a17,17,0,0,1-2,.18,6.17,6.17,0,0,1-1.5-.14,3.81,3.81,0,0,1-1.19-.5,5.66,5.66,0,0,1-1.1-1,5.4,5.4,0,0,1-.79,1.24,3.59,3.59,0,0,1-1,.81,6.57,6.57,0,0,1-1.43.55,16.53,16.53,0,0,1-2,.39l-.24-1.69a3.53,3.53,0,0,0,2-1.1,2.63,2.63,0,0,0,.46-1.59l-1.91-13.71a1.63,1.63,0,0,0-.43-1,1.29,1.29,0,0,0-.65-.36,2,2,0,0,0-.93,0l-.17-1.21a2,2,0,0,0,.91-.23,1.39,1.39,0,0,0,.52-.53,1.46,1.46,0,0,0,.15-1Zm1.33-3.51c.1.7.47,1,1.12.92s.92-.49.82-1.19a1,1,0,1,0-1.94.27Zm1,2.11,3.49,25,.66-.09-3.49-25Zm3.25,27.4a.81.81,0,0,0,1,.77c.54-.08.77-.41.69-1s-.4-.91-.95-.83A.83.83,0,0,0,416.2,548.15Zm14.09-32.06c.1.7.47,1,1.12.92s.92-.49.82-1.19a1,1,0,1,0-1.94.27Zm1,2.11,3.49,25,.66-.09-3.48-25Zm3.25,27.4a.81.81,0,0,0,1,.77c.55-.08.78-.41.69-1s-.4-.91-.95-.83A.82.82,0,0,0,434.51,545.6Z"/><path class="cls-7" d="M442.46,517c-.16-.69-.32-1.32-.48-1.88a5,5,0,0,0-.68-1.45,2.94,2.94,0,0,0-1.06-.93,3.19,3.19,0,0,0-1.66-.24l-.39-1.65a16.68,16.68,0,0,1,2-.36,6.85,6.85,0,0,1,1.51,0,3.78,3.78,0,0,1,1.23.4,5.64,5.64,0,0,1,1.18.87,5.44,5.44,0,0,1,.67-1.3,3.75,3.75,0,0,1,1-.9,6.83,6.83,0,0,1,1.38-.67,18.92,18.92,0,0,1,2-.56l.38,1.66a3.29,3.29,0,0,0-1.37.94,2.78,2.78,0,0,0-.57,1.3,4.55,4.55,0,0,0,0,1.6c.1.58.22,1.21.38,1.9l1.78,7.75a1.51,1.51,0,0,0,.5.9,1.3,1.3,0,0,0,.73.29,1.74,1.74,0,0,0,.88-.09l.27,1.19a1.68,1.68,0,0,0-.83.3,1.26,1.26,0,0,0-.53.58,1.64,1.64,0,0,0,0,1.07l3.1,13.5a2.56,2.56,0,0,0,1,1.32,3.56,3.56,0,0,0,2.24.33l.38,1.65a16.68,16.68,0,0,1-2,.36,6.76,6.76,0,0,1-1.5,0,3.7,3.7,0,0,1-1.23-.4,5.64,5.64,0,0,1-1.18-.87,5.64,5.64,0,0,1-.68,1.3,3.55,3.55,0,0,1-.95.9,7.39,7.39,0,0,1-1.38.67,16.88,16.88,0,0,1-2,.55l-.38-1.65a3.51,3.51,0,0,0,1.87-1.27,2.63,2.63,0,0,0,.32-1.63L445.22,529a1.71,1.71,0,0,0-.51-1,1.35,1.35,0,0,0-.68-.3,2,2,0,0,0-.93.1l-.27-1.19a1.89,1.89,0,0,0,.88-.31,1.33,1.33,0,0,0,.48-.57,1.5,1.5,0,0,0,.05-1Zm1-3.61c.16.69.56,1,1.19.81s.88-.56.72-1.25a1,1,0,1,0-1.91.44Zm1.15,2L450.29,540l.65-.15-5.65-24.61Zm5.63,27a.8.8,0,0,0,1.1.67c.54-.12.74-.48.6-1.06s-.48-.87-1-.75A.83.83,0,0,0,450.26,542.39Z"/><path class="cls-7" d="M476.4,507.83a5.63,5.63,0,0,0-.78-3.45c-.56-.78-1.64-1.05-3.25-.82l-.47-1.69a6.9,6.9,0,0,1,3.34-.3,5.19,5.19,0,0,1,2.07,1.1,5.27,5.27,0,0,1,1.37-2.18,6.42,6.42,0,0,1,2.49-1.22l.47,1.69a5.12,5.12,0,0,0-1.71,1.14,5.3,5.3,0,0,0-1,1.47,5.64,5.64,0,0,0-.48,1.63c-.08.55-.13,1.09-.16,1.61l-.3,9.62a.81.81,0,0,0,.36.53,1.61,1.61,0,0,0,.53.15,1.94,1.94,0,0,0,.67-.07l0,.61,0,.71a3.22,3.22,0,0,0-.77.32,2.54,2.54,0,0,0-.57.52,2.07,2.07,0,0,0-.36.9l-.43,12.41a3.83,3.83,0,0,0,.95,3,3.06,3.06,0,0,0,3.12.42l.47,1.69a10.32,10.32,0,0,1-3.57.5,4.35,4.35,0,0,1-2.51-1.22,4.28,4.28,0,0,1-.69,1.65,4,4,0,0,1-1.22,1.09,7.92,7.92,0,0,1-1.62.7c-.59.19-1.24.36-1.94.52l-.48-1.69c1.19-.33,1.85-.93,2-1.79a4.91,4.91,0,0,0-.85-3q-1.56-2.7-3.24-5.26c-1.12-1.7-2.24-3.45-3.34-5.23a1.78,1.78,0,0,0-.82-.62,2.86,2.86,0,0,0-.74-.15,2.06,2.06,0,0,0-.81.17l-.33-.62-.36-.51a1.76,1.76,0,0,0,.82-.34,1.1,1.1,0,0,0,.33-.53,1.07,1.07,0,0,0-.31-.91l-5.4-8.57a6.87,6.87,0,0,0-1.95-2.18,4.19,4.19,0,0,0-2.92-.31l-.47-1.68a15.63,15.63,0,0,1,3.91-.66,4.29,4.29,0,0,1,2.94,1.05,4.23,4.23,0,0,1,1.77-2.37,13.3,13.3,0,0,1,3.48-1.42l.47,1.69c-1.5.64-2.27,1.43-2.33,2.36a5.83,5.83,0,0,0,1.16,3.37l4.56,7.31a2.4,2.4,0,0,0,.83.68,2.09,2.09,0,0,0,.81.18,1.52,1.52,0,0,0,.82-.12l.33.63.36.5a2.72,2.72,0,0,0-.72.31,1,1,0,0,0-.31.5,1.31,1.31,0,0,0,.16.87l5.88,9.31.38-11.4a.69.69,0,0,0-.34-.56,1.59,1.59,0,0,0-.56-.18,1.9,1.9,0,0,0-.67.08l0-.62,0-.7a1.93,1.93,0,0,0,.82-.34,2.51,2.51,0,0,0,.59-.55,1.72,1.72,0,0,0,.31-1Zm-18.2,2.41a.81.81,0,0,0,1.13.62c.53-.15.71-.52.55-1.1s-.52-.84-1.05-.69A.83.83,0,0,0,458.2,510.24Zm2.36,1.93-.65.18,13.38,21,.64-.18Zm9.17,10.37a.08.08,0,0,0,0,.07.13.13,0,0,1,.05.07Zm4,12.71a.8.8,0,0,0,1.14.61c.53-.14.71-.51.55-1.09s-.53-.84-1.05-.69A.83.83,0,0,0,473.72,535.25Z"/><path class="cls-7" d="M509.19,507.49a3.92,3.92,0,0,1-2.05.36,3.44,3.44,0,0,1-1.64-.63,3.92,3.92,0,0,1-1.15-1.38,6.67,6.67,0,0,1-.66-1.9,3.48,3.48,0,0,0,1.87.19,2.82,2.82,0,0,0,1.7-1,4.4,4.4,0,0,0,.9-1.87,4.71,4.71,0,0,0-.07-2.17,3.77,3.77,0,0,0-1.21-1.93,5.09,5.09,0,0,0-2.46-1.1,9,9,0,0,0-3.9.31,9.09,9.09,0,0,0-1.86.7,6.3,6.3,0,0,0-1.66,1.18,4.88,4.88,0,0,0-1.08,1.64,3.76,3.76,0,0,0-.15,2.13l1.73,9.07a1.59,1.59,0,0,0,.44.92,1.16,1.16,0,0,0,.69.32,2.14,2.14,0,0,0,.84,0l.21,1.14a2.09,2.09,0,0,0-.78.31,1.21,1.21,0,0,0-.52.53,1.64,1.64,0,0,0-.07,1l2.2,11.57a3.76,3.76,0,0,0,.92,1.93A4.71,4.71,0,0,0,503,530a6.69,6.69,0,0,0,2,.49,9.35,9.35,0,0,0,2,0,9,9,0,0,0,3.69-1.13,5,5,0,0,0,1.86-1.92,3.8,3.8,0,0,0,.39-2.24,4.84,4.84,0,0,0-.73-2.07,4.58,4.58,0,0,0-1.49-1.45,2.62,2.62,0,0,0-1.89-.34,3.26,3.26,0,0,0-1.67.91,6.85,6.85,0,0,1-.09-2,3.94,3.94,0,0,1,.57-1.7,3.53,3.53,0,0,1,1.29-1.19,3.94,3.94,0,0,1,2.05-.41,4.55,4.55,0,0,1,2.36.71,6.3,6.3,0,0,1,1.85,1.75,7.2,7.2,0,0,1,1.1,2.47,7.47,7.47,0,0,1,.15,2.83,2.44,2.44,0,0,1,1-.54,3.61,3.61,0,0,1,.9-.09l.43,2.24a2.42,2.42,0,0,0-.89,0,3.12,3.12,0,0,0-.91.34,3.89,3.89,0,0,0-1,.79,13.94,13.94,0,0,1-3.63,2.84,14.72,14.72,0,0,1-4.36,1.48,29.11,29.11,0,0,1-5.08.54,7,7,0,0,1-4.24-1.3l0,.1a5.89,5.89,0,0,1-.72,1.3,3.35,3.35,0,0,1-1,.89,7.45,7.45,0,0,1-1.41.62,18.44,18.44,0,0,1-2,.48l-.32-1.67a2.84,2.84,0,0,0,1.74-1.33,4.08,4.08,0,0,0,.34-2l-2.45-12.93a1.68,1.68,0,0,0-.44-.94,1.27,1.27,0,0,0-.64-.31,2.42,2.42,0,0,0-.89,0l-.22-1.15a2.32,2.32,0,0,0,.83-.32,1.18,1.18,0,0,0,.47-.55,1.57,1.57,0,0,0,.07-1l-1.87-9.85a4.79,4.79,0,0,0-1-2,2.66,2.66,0,0,0-2.2-.69l-.32-1.67a14.9,14.9,0,0,1,2-.27,6.28,6.28,0,0,1,1.53.06,3.38,3.38,0,0,1,1.24.46,6.26,6.26,0,0,1,1.15.94,6.83,6.83,0,0,1,3.42-2.83,26.51,26.51,0,0,1,5-1.4,15.17,15.17,0,0,1,4.6-.23,14.13,14.13,0,0,1,4.41,1.32,4.38,4.38,0,0,0,1.25.36,3.36,3.36,0,0,0,1,0,2.21,2.21,0,0,0,.83-.32l.42,2.25a2.77,2.77,0,0,1-.87.24,2.33,2.33,0,0,1-1.1-.14,7.46,7.46,0,0,1,.91,2.69,7.35,7.35,0,0,1-.12,2.7,6.53,6.53,0,0,1-1.08,2.31A4.67,4.67,0,0,1,509.19,507.49Zm-17.4-6.9c.13.7.51,1,1.16.86s.89-.53.76-1.23a.88.88,0,0,0-1.15-.8A.87.87,0,0,0,491.79,500.59Zm1.07,2.06,4.72,24.81.65-.13-4.71-24.8Zm4.6,27.21a.8.8,0,0,0,1.08.71c.53-.1.75-.45.64-1s-.45-.89-1-.78A.82.82,0,0,0,497.46,529.86Zm3.82-23.46a3.29,3.29,0,0,1,1.84.73,4.89,4.89,0,0,1,1.34,1.66,6.46,6.46,0,0,1,.65,2.2,5.84,5.84,0,0,1-.16,2.32,5.61,5.61,0,0,0-.23,2.07,5,5,0,0,0,.39,1.68,2.59,2.59,0,0,0,.83,1.06,1.39,1.39,0,0,0,1.08.26,4.51,4.51,0,0,1-2.25.18,3.63,3.63,0,0,1-1.83-.92,4.62,4.62,0,0,1-1.17-1.91,7.46,7.46,0,0,1-.35-2.77,9,9,0,0,1,.37-1.93,14.2,14.2,0,0,0,.45-1.79,4.15,4.15,0,0,0,0-1.57A2,2,0,0,0,501.28,506.4Zm6.84.16a3,3,0,0,0,2.54-1.7,4.9,4.9,0,0,0,0-3.82,6.76,6.76,0,0,1-.2,2.77,4.85,4.85,0,0,1-.9,1.66A4.54,4.54,0,0,1,508.12,506.56Zm2.14,12.06a4.42,4.42,0,0,1,1.77.48,5,5,0,0,1,1.44,1.21,6.54,6.54,0,0,1,1.2,2.5,4.86,4.86,0,0,0-1.43-3.54A3,3,0,0,0,510.26,518.62Z"/><path class="cls-7" d="M544.71,517.28l1.64,4.52a7.54,7.54,0,0,0,1.59,2.63,4.44,4.44,0,0,0,2.83,1l.11,1.75a15.37,15.37,0,0,1-4-.19,4.41,4.41,0,0,1-2.72-1.66,4.34,4.34,0,0,1-2.22,2,12.62,12.62,0,0,1-3.69.69l-.12-1.74a4.49,4.49,0,0,0,1.84-.71,2.26,2.26,0,0,0,.83-1.14,3.43,3.43,0,0,0,.08-1.55c-.09-.58-.23-1.23-.41-2l-2.08-5.66a14.55,14.55,0,0,0-2-3.46,7.33,7.33,0,0,0-3.05-2c-.88-.33-1.37-.6-1.47-.8s.23-.48,1-.81a13.63,13.63,0,0,0,5.68-4,8.59,8.59,0,0,0,2-5.26A7.94,7.94,0,0,0,540,496a6.54,6.54,0,0,0-1.44-2.33,6.65,6.65,0,0,0-2.29-1.52,6.84,6.84,0,0,0-3-.44,5.78,5.78,0,0,0-2,.53,6,6,0,0,0-1.8,1.26,6.2,6.2,0,0,0-1.24,1.89,5.3,5.3,0,0,0-.39,2.41l.62,9.38a1,1,0,0,0,.47.55,5.1,5.1,0,0,0,.56.23,1.37,1.37,0,0,0,.67,0l.08,1.21a4.49,4.49,0,0,0-.67.1,2.79,2.79,0,0,0-.52.33,1.21,1.21,0,0,0-.4.63l.87,13.29a4.76,4.76,0,0,0,.69,2.19,2.8,2.8,0,0,0,2.3.91l.11,1.7a15.71,15.71,0,0,1-2,0,5.63,5.63,0,0,1-1.48-.25,3.35,3.35,0,0,1-1.15-.61,6.31,6.31,0,0,1-1-1.08,6.65,6.65,0,0,1-.87,1.2,3.44,3.44,0,0,1-1.06.76,6.22,6.22,0,0,1-1.45.44,15.82,15.82,0,0,1-2,.24l-.11-1.69a2.76,2.76,0,0,0,2.16-1.23,4.91,4.91,0,0,0,.4-2.24l-.82-12.65a1.57,1.57,0,0,0-.33-1,1.25,1.25,0,0,0-.64-.38,2.2,2.2,0,0,0-.88-.1l-.09-1.22a1.76,1.76,0,0,0,.87-.16,1.21,1.21,0,0,0,.59-.49,1.59,1.59,0,0,0,.19-1l-.6-9.26c0-.57-.1-1.09-.18-1.59a3.37,3.37,0,0,0-.45-1.24,2.31,2.31,0,0,0-.9-.82,3.34,3.34,0,0,0-1.52-.3L519,492c.41,0,.86-.05,1.34-.06a7.49,7.49,0,0,1,1.48.09,5.65,5.65,0,0,1,1.5.43,4.28,4.28,0,0,1,1.35,1,10,10,0,0,1,4-2.14,24.57,24.57,0,0,1,5.11-.84,15.88,15.88,0,0,1,5,.41,12.49,12.49,0,0,1,3.85,1.69,8.05,8.05,0,0,1,2.47,2.61,7.2,7.2,0,0,1,1,3.2,9.36,9.36,0,0,1-.38,3.19,7.36,7.36,0,0,1-1.94,3.18,12.18,12.18,0,0,1-4,2.58,21.66,21.66,0,0,1-6.67,1.42c.35.15.76.3,1.22.45s.85.31,1.4.49,1.15.37,1.82.57a19.57,19.57,0,0,1,2.22.84,7.86,7.86,0,0,1,2,1.31,9.71,9.71,0,0,1,1.65,2A13,13,0,0,1,544.71,517.28Zm-20.88-21.92c0,.71.39,1,1,1s1-.42.91-1.13a1,1,0,1,0-1.95.13Zm.81,2.18,1.64,25.2.67,0-1.64-25.19Zm1.23,27.56a.81.81,0,0,0,1,.84c.55,0,.8-.35.77-1s-.34-.94-.89-.9A.83.83,0,0,0,525.87,525.1Zm11-14.11a3.41,3.41,0,0,1,1.31.71,6.69,6.69,0,0,1,1,1.1A8.11,8.11,0,0,1,540,514c.2.41.36.77.48,1.09l2.81,7.41.67,0-2.81-7.42a8.29,8.29,0,0,0-1.91-2.77A4.55,4.55,0,0,0,536.87,511Zm2.61-18.56-.26,0a3.55,3.55,0,0,1,1.76,1.35,7,7,0,0,1,1.08,2.29,11.8,11.8,0,0,1,.44,2.79,12.16,12.16,0,0,1-.17,2.8,7.8,7.8,0,0,1-.83,2.34,3.2,3.2,0,0,1-1.43,1.4l.25-.07a3.09,3.09,0,0,0,1.8-1.26,6.4,6.4,0,0,0,1-2.27,9.36,9.36,0,0,0,.2-2.78,10,10,0,0,0-.57-2.81,7.84,7.84,0,0,0-1.28-2.33A4.35,4.35,0,0,0,539.48,492.43ZM542.93,524a.81.81,0,0,0,1,.84c.54,0,.8-.35.76-1s-.34-.94-.89-.9A.83.83,0,0,0,542.93,524Z"/><path class="cls-7" d="M571.88,518.12a10.68,10.68,0,0,0-2.06-4.76,34.18,34.18,0,0,0-3.42-3.72l.25.28a5,5,0,0,0-1-.66,2.26,2.26,0,0,0-.86-.23,2,2,0,0,0-.86.11,2.63,2.63,0,0,0-.56.29l-1.08-1.07a1.22,1.22,0,0,0,.55-.55,1.6,1.6,0,0,0,.11-.71,2,2,0,0,0-.38-1.06,16.12,16.12,0,0,1-2.24-3,10.54,10.54,0,0,1-1.22-3.71,7,7,0,0,1,.43-3.19,8,8,0,0,1,2-3.05,9.56,9.56,0,0,1,3.59-2.12,11.64,11.64,0,0,1,5.11-.45,9.66,9.66,0,0,1,4.06,1.23,6.6,6.6,0,0,1,2.49,2.57,7.2,7.2,0,0,1,3.08-1.64l.63,1.74a3.2,3.2,0,0,0-2,1.75,14.33,14.33,0,0,0-.89,2.61,5.84,5.84,0,0,1-1.19,3,4.42,4.42,0,0,1-2.77,1.61,4.77,4.77,0,0,1-2-.11,3.41,3.41,0,0,1-1.52-.9,4,4,0,0,1-.95-1.54,5,5,0,0,1-.26-2,3.06,3.06,0,0,0,1.57.56,2.71,2.71,0,0,0,1.43-.32,3.44,3.44,0,0,0,1.14-1,4,4,0,0,0,.67-1.53,4.39,4.39,0,0,0,0-1.91,3.42,3.42,0,0,0-1.22-2.14,4.74,4.74,0,0,0-3-.79,5.77,5.77,0,0,0-2.46.5,5.59,5.59,0,0,0-2,1.47A5.21,5.21,0,0,0,564,496a7.35,7.35,0,0,0,1,5.25,14.2,14.2,0,0,0,1.61,2.19,4,4,0,0,0,1.07.77,2.7,2.7,0,0,0,.89.24,1.33,1.33,0,0,0,.62-.1,3.8,3.8,0,0,0,.42-.22l1.08,1.07a1.4,1.4,0,0,0-.39.61,1.34,1.34,0,0,0-.06.72,2.45,2.45,0,0,0,.43,1.05c.82.79,1.62,1.6,2.4,2.42a28.55,28.55,0,0,1,2.13,2.5,15,15,0,0,1,1.62,2.66,9.48,9.48,0,0,1,.82,2.84,8.88,8.88,0,0,1-.41,4,8.47,8.47,0,0,1-2.2,3.39,10.6,10.6,0,0,1-3.83,2.29,13.5,13.5,0,0,1-5.35.67,17.11,17.11,0,0,1-4.69-1,9.53,9.53,0,0,1-4-2.58,5.5,5.5,0,0,1-1.43,1.2,5,5,0,0,1-1.92.64l-.63-1.73a2.39,2.39,0,0,0,1.34-1,4,4,0,0,0,.52-1.52,12.29,12.29,0,0,0,.12-1.74,9,9,0,0,1,.14-1.69,6.61,6.61,0,0,1,1.31-3.36,4.63,4.63,0,0,1,3-1.78,3.7,3.7,0,0,1,3.45,1,4,4,0,0,1,1,1.53,5,5,0,0,1,.26,2,3,3,0,0,0-1.52-.51,3.25,3.25,0,0,0-2.29.81,3.2,3.2,0,0,0-1.09,2.52,5.14,5.14,0,0,0,1.81,4.29,6.87,6.87,0,0,0,4.33,1.45,6.09,6.09,0,0,0,2.61-.58,6.38,6.38,0,0,0,2.29-1.71,7.1,7.1,0,0,0,1.43-2.76A7.92,7.92,0,0,0,571.88,518.12Zm-11.13-3a3,3,0,0,0-2.87,1,4.86,4.86,0,0,0-.94,3.69,6.66,6.66,0,0,1,.86-2.64,4.65,4.65,0,0,1,1.31-1.39A4.06,4.06,0,0,1,560.75,515.13Zm3.84-22.79a5.6,5.6,0,0,0-2.84,2.5,6.62,6.62,0,0,0-.85,3,5.71,5.71,0,0,0,.6,2.64,14.58,14.58,0,0,0,1.55,2.5,26,26,0,0,0,1.94,2.23c.69.69,1.27,1.33,1.76,1.92s1.19,1.36,1.94,2.18,1.49,1.72,2.23,2.69a25.75,25.75,0,0,1,2,3.08,12.35,12.35,0,0,1,1.27,3.29,9.64,9.64,0,0,1,0,3.82,5.37,5.37,0,0,1-2.32,3.38l.42-.08a5.07,5.07,0,0,0,1.41-1.47,6.8,6.8,0,0,0,.85-1.86,9.29,9.29,0,0,0,.34-2,9.89,9.89,0,0,0-1.11-5.26,22.08,22.08,0,0,0-2-3.13c-.74-1-1.5-1.92-2.27-2.78l-2.1-2.29c-.49-.56-1.07-1.17-1.73-1.84a22.6,22.6,0,0,1-1.88-2.15,15.62,15.62,0,0,1-1.49-2.39,6.18,6.18,0,0,1-.67-2.58,7.2,7.2,0,0,1,.6-2.89,5.89,5.89,0,0,1,2.8-2.72Zm8,9.88a3,3,0,0,0,2.86-1,4.9,4.9,0,0,0,1-3.7,6.7,6.7,0,0,1-.86,2.64,5.13,5.13,0,0,1-1.26,1.39A4.53,4.53,0,0,1,572.63,502.22Z"/><path class="cls-7" d="M587.84,499.57c.09-.7.16-1.34.2-1.92a4.84,4.84,0,0,0-.13-1.6,2.93,2.93,0,0,0-.67-1.24,3.18,3.18,0,0,0-1.48-.8l.22-1.69a19.46,19.46,0,0,1,2,.37,6.21,6.21,0,0,1,1.41.53,3.76,3.76,0,0,1,1,.8,6,6,0,0,1,.8,1.23,6,6,0,0,1,1.09-1,3.54,3.54,0,0,1,1.21-.51,6.92,6.92,0,0,1,1.52-.15,15,15,0,0,1,2,.16l-.22,1.68a3.42,3.42,0,0,0-1.62.4,2.77,2.77,0,0,0-1,1,4.76,4.76,0,0,0-.54,1.5q-.16.87-.3,1.92l-1,7.89a1.52,1.52,0,0,0,.16,1,1.28,1.28,0,0,0,.58.53,1.78,1.78,0,0,0,.85.22l-.16,1.21a1.65,1.65,0,0,0-.88,0,1.29,1.29,0,0,0-.69.36,1.63,1.63,0,0,0-.42,1L590,526.23a2.53,2.53,0,0,0,.46,1.59,3.57,3.57,0,0,0,2,1.08l-.22,1.69a16.89,16.89,0,0,1-2-.37,6,6,0,0,1-1.41-.53,3.81,3.81,0,0,1-1-.8,5.82,5.82,0,0,1-.8-1.23,5.6,5.6,0,0,1-1.08,1,3.71,3.71,0,0,1-1.21.51,6,6,0,0,1-1.53.15,16.3,16.3,0,0,1-2-.15l.22-1.69a3.52,3.52,0,0,0,2.2-.54,2.6,2.6,0,0,0,.86-1.41l1.78-13.73a1.64,1.64,0,0,0-.14-1.06,1.41,1.41,0,0,0-.53-.53,2,2,0,0,0-.91-.22l.16-1.21a2,2,0,0,0,.93,0,1.36,1.36,0,0,0,.65-.37,1.58,1.58,0,0,0,.41-.94Zm-1.53,26.55a.8.8,0,0,0,.8,1c.55.08.86-.19.94-.78s-.15-1-.7-1.06A.83.83,0,0,0,586.31,526.12Zm4.12-27.28-3.26,25,.67.09,3.26-25Zm-.37-2.3c-.1.71.18,1.1.83,1.18s1-.22,1.11-.92a.89.89,0,0,0-.84-1.13A.88.88,0,0,0,590.06,496.54Z"/><path class="cls-7" d="M624.56,498.9a13.3,13.3,0,0,1,4.6,1.26,13.55,13.55,0,0,1,3.72,3,3.94,3.94,0,0,0,1,.81,3.13,3.13,0,0,0,.9.35,2.43,2.43,0,0,0,.89,0l-.46,2.23a5.27,5.27,0,0,1-.63-.05,2.36,2.36,0,0,1-.74-.24,8,8,0,0,1-.11,3,7.48,7.48,0,0,1-1.09,2.56,5.5,5.5,0,0,1-1.84,1.73,3.65,3.65,0,0,1-2.31.47,4.11,4.11,0,0,1-3.3-1.8,4.7,4.7,0,0,1-.41-3.58,2.23,2.23,0,0,0,1.68,1,3.14,3.14,0,0,0,2.41-.8,5,5,0,0,0,1.5-2.29,5.35,5.35,0,0,0,.14-2.81,3.56,3.56,0,0,0-1.64-2.32,5.62,5.62,0,0,0-1.94-.79,5.17,5.17,0,0,0-2.11,0,5.78,5.78,0,0,0-1.92.79,5.59,5.59,0,0,0-1.53,1.5,6.06,6.06,0,0,0-.9,2.17l-1.67,8a1.59,1.59,0,0,0,.05,1,1.19,1.19,0,0,0,.51.57,2.1,2.1,0,0,0,.78.32l-.24,1.14a2.17,2.17,0,0,0-.84,0,1.24,1.24,0,0,0-.69.29,1.56,1.56,0,0,0-.46.93L615.68,528a11.76,11.76,0,0,0-.23,1.87,4.27,4.27,0,0,0,.24,1.63,3.23,3.23,0,0,0,.95,1.33,5.67,5.67,0,0,0,1.87,1l-.35,1.66a16.1,16.1,0,0,1-3.94-1.29,4.35,4.35,0,0,1-2.19-2.32,4.44,4.44,0,0,1-2.95,1.25,16.31,16.31,0,0,1-4.12-.4l.34-1.66a4.17,4.17,0,0,0,3.49-1.06,7,7,0,0,0,1.45-3.17l2.24-10.7a1.62,1.62,0,0,0-.05-1,1.33,1.33,0,0,0-.47-.54,2.36,2.36,0,0,0-.82-.33l.24-1.14a2.42,2.42,0,0,0,.89,0,1.17,1.17,0,0,0,.64-.33,1.57,1.57,0,0,0,.46-.9l1.67-8a5.84,5.84,0,0,0,0-2.35,5.56,5.56,0,0,0-.79-2,5.63,5.63,0,0,0-1.46-1.5,5,5,0,0,0-1.92-.83,5.35,5.35,0,0,0-2.1-.06,3.6,3.6,0,0,0-2.43,1.47,5.26,5.26,0,0,0-1,2.63,5,5,0,0,0,.46,2.7,3.15,3.15,0,0,0,1.88,1.7,2.28,2.28,0,0,0,1.95-.25,4.74,4.74,0,0,1-1.81,3.12,4.12,4.12,0,0,1-3.76.33,3.65,3.65,0,0,1-1.94-1.39,5.33,5.33,0,0,1-1-2.34,7.91,7.91,0,0,1,.06-2.78,8.15,8.15,0,0,1,1.08-2.76,2,2,0,0,1-.82,0,2.15,2.15,0,0,1-.66-.24l.47-2.23a2.36,2.36,0,0,0,.82.33,3.5,3.5,0,0,0,1,0,3.23,3.23,0,0,0,1.22-.33,13.1,13.1,0,0,1,4.68-1.25,14.19,14.19,0,0,1,4.75.72,16.26,16.26,0,0,1,2.7,1.06A5.36,5.36,0,0,1,618.7,500a5.5,5.5,0,0,1,3-1.17A15.61,15.61,0,0,1,624.56,498.9Zm-18.86,8.9a4.12,4.12,0,0,1-1.55-.92,4.59,4.59,0,0,1-1.06-1.58,6.85,6.85,0,0,1-.46-2.69,4.75,4.75,0,0,0,.39,3.76A3,3,0,0,0,605.7,507.8Zm5.7,22.55a.81.81,0,0,0,.72,1.07q.81.17,1-.72c.14-.62-.07-1-.61-1.1A.83.83,0,0,0,611.4,530.35Zm6.2-26.89-5.17,24.72.66.13,5.17-24.71Zm-.2-2.32c-.14.7.1,1.11.74,1.24s1-.14,1.18-.84a.87.87,0,0,0-.75-1.18A.88.88,0,0,0,617.4,501.14Zm10.38,11.28a3,3,0,0,0,3-.24,4.74,4.74,0,0,0,1.87-3.29,6.16,6.16,0,0,1-1.47,2.29,4.77,4.77,0,0,1-1.64,1A4,4,0,0,1,627.78,512.42Z"/><path class="cls-7" d="M658,514.44a16.37,16.37,0,0,0,1.3-1.76,4.2,4.2,0,0,0,.62-1.51,1.49,1.49,0,0,0-.32-1.21,3.15,3.15,0,0,0-1.55-.88l.45-1.7a5.6,5.6,0,0,1,3,1.37,3.6,3.6,0,0,1,1.05,2,8.61,8.61,0,0,1,2.71-1,7,7,0,0,1,2.9.23l-.5,1.84a5.93,5.93,0,0,0-2.21-.2,5.79,5.79,0,0,0-1.86.49,8.26,8.26,0,0,0-1.58.92c-.49.36-.94.73-1.36,1.09l-8.2,8.13a1.6,1.6,0,0,0,.32.5,1.62,1.62,0,0,0,.43.31,5.71,5.71,0,0,0,.58.21l-.32,1.18a1.64,1.64,0,0,0-.87-.13,1.42,1.42,0,0,0-.69.28,1.67,1.67,0,0,0-.54.93l-3.57,13.38a2.57,2.57,0,0,0,.25,1.63,3.52,3.52,0,0,0,1.83,1.34l-.44,1.64a15.32,15.32,0,0,1-1.94-.63,5.79,5.79,0,0,1-1.32-.71,3.61,3.61,0,0,1-.9-.93,5.24,5.24,0,0,1-.64-1.32,5.42,5.42,0,0,1-1.2.83,3.57,3.57,0,0,1-1.27.35,7.32,7.32,0,0,1-1.53-.05,16.31,16.31,0,0,1-2-.43l.44-1.64a3.52,3.52,0,0,0,2.26-.25,2.54,2.54,0,0,0,1-1.28l3.7-13.84a1.21,1.21,0,0,0-.19-.79,1.87,1.87,0,0,0-.48-.49c-.19-.08-.42-.16-.68-.24l.31-1.17.45.12a2.19,2.19,0,0,0,.94-.14l-3.66-13a7.61,7.61,0,0,0-1.21-2.36,4.91,4.91,0,0,0-2.18-1.35l.48-1.79a16,16,0,0,1,2,.56,6.36,6.36,0,0,1,1.45.74,4.85,4.85,0,0,1,1.1,1.07,11.2,11.2,0,0,1,.94,1.46,3.34,3.34,0,0,1,2.58-1.35,8.18,8.18,0,0,1,3.69.66l-.37,1.77c-1.5-.37-2.39-.12-2.68.74a6.93,6.93,0,0,0,.21,3.7l2.68,9.12Zm-13.64,23.92a.8.8,0,0,0,.66,1.11c.53.14.87-.08,1-.66s0-1-.55-1.13A.83.83,0,0,0,644.35,538.36Zm.27-30.73a.8.8,0,0,0,.66,1.11c.53.14.88-.08,1-.66s0-1-.55-1.13A.82.82,0,0,0,644.62,507.63Zm.84,1.65,3.28,11,.6.16-3.29-11Zm3.23,15-3.19,11.94.64.17,3.19-11.94Zm-.1-1.84a.81.81,0,0,0,.67,1.11c.53.15.87-.07,1-.65s0-1-.55-1.14A.84.84,0,0,0,648.59,522.47Z"/><path class="cls-7" d="M674.81,512.56a3.11,3.11,0,0,1,1.79,1.24,5,5,0,0,1,.85,2.08,6.58,6.58,0,0,1,0,2.34,5.54,5.54,0,0,1-.8,2.08,3.4,3.4,0,0,1-1.55,1.31,3.15,3.15,0,0,1-2.25,0,3,3,0,0,1-2-1.77,3.68,3.68,0,0,1-.07-2.47,3.63,3.63,0,0,1,1.49-2,2.91,2.91,0,0,1,2.68-.26,3.1,3.1,0,0,1,.78.36,7.47,7.47,0,0,1,.63.48,2.32,2.32,0,0,0-.56-1.46,2.57,2.57,0,0,0-1.77-.9ZM673,520.78a2.86,2.86,0,0,1-.83-.94,3.53,3.53,0,0,1-.34-1.25,4,4,0,0,1,.31-1.71,2.91,2.91,0,0,0-.56,2.35A2.26,2.26,0,0,0,673,520.78Z"/><path class="cls-7" d="M690.86,546.6a10.72,10.72,0,0,0-.54-5.16,33.19,33.19,0,0,0-2.14-4.57l.15.34a4.73,4.73,0,0,0-.75-.93,2.63,2.63,0,0,0-.75-.48,2,2,0,0,0-.85-.15,2.9,2.9,0,0,0-.62.11l-.71-1.34a1.23,1.23,0,0,0,.69-.37,1.81,1.81,0,0,0,.32-.64,2.08,2.08,0,0,0,0-1.12,15.75,15.75,0,0,1-1.23-3.55,10.59,10.59,0,0,1,0-3.9,7,7,0,0,1,1.37-2.92,7.9,7.9,0,0,1,2.84-2.3,9.64,9.64,0,0,1,4.07-.94,11.55,11.55,0,0,1,5,1.11,9.67,9.67,0,0,1,3.51,2.39,6.7,6.7,0,0,1,1.6,3.2,7.16,7.16,0,0,1,3.43-.64l.08,1.84a3.21,3.21,0,0,0-2.46,1.07,15.1,15.1,0,0,0-1.63,2.22,5.8,5.8,0,0,1-2,2.47,4.42,4.42,0,0,1-3.12.7,4.81,4.81,0,0,1-1.86-.7A3.49,3.49,0,0,1,694,531a4.15,4.15,0,0,1-.44-1.75,5,5,0,0,1,.34-1.94,3,3,0,0,0,1.33,1,2.61,2.61,0,0,0,1.46.12,3.53,3.53,0,0,0,1.39-.61,4,4,0,0,0,1.1-1.26,4.64,4.64,0,0,0,.58-1.83,3.42,3.42,0,0,0-.53-2.4,4.77,4.77,0,0,0-2.62-1.67,5.89,5.89,0,0,0-2.5-.25,5.26,5.26,0,0,0-4.06,2.7,7.35,7.35,0,0,0-.87,3,7.46,7.46,0,0,0,.21,2.31,14.79,14.79,0,0,0,.88,2.57,4,4,0,0,0,.78,1.06,2.58,2.58,0,0,0,.78.49,1.44,1.44,0,0,0,.63.09,3.78,3.78,0,0,0,.47-.08l.7,1.34a1.49,1.49,0,0,0-.56.47,1.4,1.4,0,0,0-.27.66,2.61,2.61,0,0,0,.09,1.14c.55,1,1.07,2,1.57,3a30.13,30.13,0,0,1,1.28,3,15,15,0,0,1,.74,3,9.69,9.69,0,0,1-.06,3,8.87,8.87,0,0,1-1.61,3.7,8.51,8.51,0,0,1-3.11,2.58,10.63,10.63,0,0,1-4.35,1,13.35,13.35,0,0,1-5.3-1,16.85,16.85,0,0,1-4.19-2.33,9.49,9.49,0,0,1-3-3.65,5.68,5.68,0,0,1-1.72.71,5.06,5.06,0,0,1-2,0l-.08-1.84a2.34,2.34,0,0,0,1.58-.54,4.2,4.2,0,0,0,1-1.29,11.26,11.26,0,0,0,.63-1.63,9.36,9.36,0,0,1,.65-1.57,6.51,6.51,0,0,1,2.26-2.8,4.61,4.61,0,0,1,3.38-.81,3.72,3.72,0,0,1,3,2,4,4,0,0,1,.44,1.75,5,5,0,0,1-.34,1.94,3.08,3.08,0,0,0-1.29-.94,3.26,3.26,0,0,0-2.43.09,3.18,3.18,0,0,0-1.79,2.07,5.13,5.13,0,0,0,.43,4.64,7,7,0,0,0,3.7,2.69,6,6,0,0,0,2.66.23,6.52,6.52,0,0,0,2.69-.94,7.24,7.24,0,0,0,2.2-2.21A8,8,0,0,0,690.86,546.6Zm-9.72-6.19a3,3,0,0,0-3,.13,4.92,4.92,0,0,0-2,3.24,6.47,6.47,0,0,1,1.62-2.25,4.59,4.59,0,0,1,1.67-.94A4.1,4.1,0,0,1,681.14,540.41Zm10.52-20.59a5.68,5.68,0,0,0-3.47,1.54,6.74,6.74,0,0,0-1.71,2.58,5.79,5.79,0,0,0-.21,2.7,14.52,14.52,0,0,0,.72,2.85,22.68,22.68,0,0,0,1.19,2.71c.44.86.81,1.65,1.09,2.36s.74,1.66,1.2,2.66.91,2.09,1.32,3.24a25.8,25.8,0,0,1,1,3.54,12.4,12.4,0,0,1,.23,3.51,9.82,9.82,0,0,1-1.17,3.64,5.38,5.38,0,0,1-3.23,2.53l.42.05a5.28,5.28,0,0,0,1.79-1,6.89,6.89,0,0,0,1.37-1.53,9.31,9.31,0,0,0,.93-1.8,10.66,10.66,0,0,0,.5-1.8,10.13,10.13,0,0,0,0-3.56,22.28,22.28,0,0,0-.92-3.57c-.4-1.17-.85-2.28-1.33-3.34s-.93-2-1.32-2.81-.66-1.44-1.09-2.28a20.21,20.21,0,0,1-1.14-2.61,13.71,13.71,0,0,1-.71-2.73,6.09,6.09,0,0,1,.14-2.66,7.1,7.1,0,0,1,1.44-2.58,5.85,5.85,0,0,1,3.48-1.75Zm4.69,11.84a3,3,0,0,0,3-.13,4.92,4.92,0,0,0,2-3.24,6.52,6.52,0,0,1-1.62,2.26,5,5,0,0,1-1.62,1A4.37,4.37,0,0,1,696.35,531.66Z"/><path class="cls-8" d="M382.22,523.64l.38,8.42a1.25,1.25,0,0,0,.42.65,1.85,1.85,0,0,0,.61.31,3.32,3.32,0,0,0,.72,0l.06,1.22a3.53,3.53,0,0,0-.72.09,1.84,1.84,0,0,0-.58.37,1.23,1.23,0,0,0-.35.73l.26,5.78a36.87,36.87,0,0,0,.54,5,12.53,12.53,0,0,0,1.19,3.61,5.3,5.3,0,0,0,2.11,2.16,6.16,6.16,0,0,0,3.23.62,6.58,6.58,0,0,0,5.79-3.5,11.58,11.58,0,0,0,1.24-3.83,23.14,23.14,0,0,0,.24-5l-.23-5a1.72,1.72,0,0,0-.3-1,1.13,1.13,0,0,0-.64-.43,1.79,1.79,0,0,0-.88-.06l-.05-1.22a1.7,1.7,0,0,0,.87-.15,1.18,1.18,0,0,0,.59-.48,1.52,1.52,0,0,0,.22-1l-.4-8.69a5,5,0,0,0-1.7-3,5.74,5.74,0,0,0-3.18-1.34l-.08-1.7a16.79,16.79,0,0,1,2,0,6,6,0,0,1,1.48.27,3.76,3.76,0,0,1,1.13.62,5.52,5.52,0,0,1,1,1.07,5.36,5.36,0,0,1,.9-1.16,3.59,3.59,0,0,1,1.1-.71,6.2,6.2,0,0,1,1.48-.41,14.79,14.79,0,0,1,2-.2l.08,1.69a5.35,5.35,0,0,0-3.27,1.88,5.05,5.05,0,0,0-1.17,3.58l.36,8a1.52,1.52,0,0,0,.33,1,1.3,1.3,0,0,0,.61.42,1.67,1.67,0,0,0,.88.07l.05,1.22a1.7,1.7,0,0,0-.87.14,1.38,1.38,0,0,0-.57.48,1.55,1.55,0,0,0-.23,1.05l.23,5a25.48,25.48,0,0,1-.32,5.59,12.27,12.27,0,0,1-1.56,4.32,8,8,0,0,1-2.93,2.84,9.84,9.84,0,0,1-4.41,1.16,20.72,20.72,0,0,1-5.35-.37,8.37,8.37,0,0,1-3.91-1.95,9.39,9.39,0,0,1-2.47-4,22.09,22.09,0,0,1-1-6.54L377,535.4a1,1,0,0,0-.43-.51,1.48,1.48,0,0,0-.53-.19,1.5,1.5,0,0,0-.67,0l-.06-1.21a1.46,1.46,0,0,0,.67-.09,4,4,0,0,0,.53-.29,1,1,0,0,0,.41-.55l-.33-9.7a7.61,7.61,0,0,0-.67-2.78,2.64,2.64,0,0,0-2.3-1.28l-.08-1.7a16.79,16.79,0,0,1,2,0,6,6,0,0,1,1.48.28,3.53,3.53,0,0,1,1.13.61,5.52,5.52,0,0,1,1,1.07,5.36,5.36,0,0,1,.9-1.16,3.59,3.59,0,0,1,1.1-.71,6.34,6.34,0,0,1,1.48-.41,15,15,0,0,1,2-.2l.08,1.69a3.36,3.36,0,0,0-1.51.68,2.76,2.76,0,0,0-.8,1.18,4.59,4.59,0,0,0-.26,1.58C382.18,522.28,382.19,522.93,382.22,523.64Zm-2.05-3.2a1,1,0,1,0-2,.09c0,.7.38,1,1,1S380.2,521.14,380.17,520.44Zm-.57,2.25-.67,0,1,22.1a6.13,6.13,0,0,0,.39,1.89,9.86,9.86,0,0,0,.88,1.85,8.34,8.34,0,0,0,1.15,1.46,3.44,3.44,0,0,0,1.15.8,7.11,7.11,0,0,1-1.91-2.3,9.5,9.5,0,0,1-.87-2.67,21.09,21.09,0,0,1-.27-3.12q0-1.71-.12-3.66Z"/><path class="cls-8" d="M408.36,522.15c-.1-.7-.21-1.34-.32-1.91a4.73,4.73,0,0,0-.55-1.51,2.77,2.77,0,0,0-1-1,3.18,3.18,0,0,0-1.64-.39l-.23-1.68a16.81,16.81,0,0,1,2-.18,6.17,6.17,0,0,1,1.5.14,3.55,3.55,0,0,1,1.18.51,5,5,0,0,1,1.1,1,6.17,6.17,0,0,1,.79-1.24,3.93,3.93,0,0,1,1-.81,6.77,6.77,0,0,1,1.43-.55,15.25,15.25,0,0,1,2-.38l.24,1.68a2.86,2.86,0,0,0-1.61.94,3.34,3.34,0,0,0-.6,1.51L429.85,542l-1.43-10.24a1.57,1.57,0,0,0-.42-1,1.38,1.38,0,0,0-.65-.36,2,2,0,0,0-.93,0l-.17-1.21a2,2,0,0,0,.9-.23,1.41,1.41,0,0,0,.53-.53,1.53,1.53,0,0,0,.14-1l-1.35-9.72a5.37,5.37,0,0,0-1-2.17,2.72,2.72,0,0,0-2.23-.82l-.23-1.68a16.64,16.64,0,0,1,2-.17,6.41,6.41,0,0,1,1.51.14,3.6,3.6,0,0,1,1.21.5,5.93,5.93,0,0,1,1.1,1,5.12,5.12,0,0,1,.79-1.23,3.49,3.49,0,0,1,1-.82,7.3,7.3,0,0,1,1.4-.54,15.93,15.93,0,0,1,2-.38l.23,1.68a3.22,3.22,0,0,0-1.44.82,2.77,2.77,0,0,0-.69,1.24,4.88,4.88,0,0,0-.11,1.6c0,.58.12,1.22.21,1.92l1.1,7.88a1.5,1.5,0,0,0,.42.94,1.35,1.35,0,0,0,.7.36,1.76,1.76,0,0,0,.88,0l.17,1.21a1.82,1.82,0,0,0-.86.22,1.4,1.4,0,0,0-.57.54A1.58,1.58,0,0,0,434,531l1.91,13.72a2.59,2.59,0,0,0,.87,1.4,3.5,3.5,0,0,0,2.21.52l.23,1.69a19.06,19.06,0,0,1-2,.17,7,7,0,0,1-1.52-.13,3.43,3.43,0,0,1-1.22-.53,6.23,6.23,0,0,1-1.1-1,6.2,6.2,0,0,1-.79,1.26,3.25,3.25,0,0,1-1,.84,6.57,6.57,0,0,1-1.43.55,14.93,14.93,0,0,1-2,.38l-.23-1.68a4,4,0,0,0,1.78-.86,2.18,2.18,0,0,0,.63-1.24l-16.24-24,1,7.14a1.55,1.55,0,0,0,.41.94,1.26,1.26,0,0,0,.7.35,1.65,1.65,0,0,0,.88,0l.17,1.21a1.67,1.67,0,0,0-.85.22,1.28,1.28,0,0,0-.57.54,1.53,1.53,0,0,0-.14,1.06l1.91,13.71a2.58,2.58,0,0,0,.87,1.41,3.47,3.47,0,0,0,2.2.52l.24,1.68a17,17,0,0,1-2,.18,6.17,6.17,0,0,1-1.5-.14,3.81,3.81,0,0,1-1.19-.5,5.66,5.66,0,0,1-1.1-1,5.4,5.4,0,0,1-.79,1.24,3.59,3.59,0,0,1-1,.81,6.57,6.57,0,0,1-1.43.55,16.53,16.53,0,0,1-2,.39l-.24-1.69a3.53,3.53,0,0,0,2-1.1,2.63,2.63,0,0,0,.46-1.59l-1.91-13.71a1.63,1.63,0,0,0-.43-1A1.29,1.29,0,0,0,409,533a2,2,0,0,0-.93,0l-.17-1.21a2,2,0,0,0,.91-.23,1.39,1.39,0,0,0,.52-.53,1.46,1.46,0,0,0,.15-1Zm1.33-3.51c.1.7.47,1,1.12.92s.92-.49.82-1.19a1,1,0,1,0-1.94.27Zm1,2.11,3.49,25,.66-.09-3.48-25Zm3.25,27.4a.81.81,0,0,0,1,.77c.54-.08.77-.41.69-1s-.4-.91-.95-.83A.83.83,0,0,0,413.91,548.15ZM428,516.09c.1.7.47,1,1.12.92s.92-.49.82-1.19a1,1,0,1,0-1.94.27Zm1,2.11,3.49,25,.66-.09-3.48-25Zm3.25,27.4a.81.81,0,0,0,1,.77c.55-.08.78-.41.69-1s-.4-.91-.94-.83A.83.83,0,0,0,432.22,545.6Z"/><path class="cls-8" d="M440.17,517c-.16-.69-.32-1.32-.48-1.88a5,5,0,0,0-.68-1.45,2.85,2.85,0,0,0-1.06-.93,3.19,3.19,0,0,0-1.66-.24l-.39-1.65a17,17,0,0,1,2-.36,6.85,6.85,0,0,1,1.51,0,3.7,3.7,0,0,1,1.23.4,5.64,5.64,0,0,1,1.18.87,5.44,5.44,0,0,1,.67-1.3,3.75,3.75,0,0,1,1-.9,6.83,6.83,0,0,1,1.38-.67,18.92,18.92,0,0,1,2-.56l.38,1.66a3.29,3.29,0,0,0-1.37.94,2.78,2.78,0,0,0-.57,1.3,4.55,4.55,0,0,0,0,1.6c.1.58.23,1.21.38,1.9l1.78,7.75a1.51,1.51,0,0,0,.5.9,1.3,1.3,0,0,0,.73.29,1.74,1.74,0,0,0,.88-.09l.27,1.19a1.68,1.68,0,0,0-.83.3,1.37,1.37,0,0,0-.53.58,1.64,1.64,0,0,0,0,1.07l3.1,13.5a2.56,2.56,0,0,0,1,1.32,3.56,3.56,0,0,0,2.24.33l.38,1.65a16.68,16.68,0,0,1-2,.36,6.76,6.76,0,0,1-1.5,0,3.7,3.7,0,0,1-1.23-.4,5.64,5.64,0,0,1-1.18-.87,5.64,5.64,0,0,1-.68,1.3,3.55,3.55,0,0,1-.95.9,7.39,7.39,0,0,1-1.38.67,16.88,16.88,0,0,1-2,.55l-.38-1.65a3.51,3.51,0,0,0,1.87-1.27,2.63,2.63,0,0,0,.32-1.63L442.93,529a1.71,1.71,0,0,0-.51-1,1.35,1.35,0,0,0-.68-.3,2,2,0,0,0-.93.1l-.27-1.19a1.89,1.89,0,0,0,.88-.31,1.33,1.33,0,0,0,.48-.57,1.5,1.5,0,0,0,.05-1Zm1-3.61c.16.69.56,1,1.19.81a.9.9,0,0,0,.72-1.25,1,1,0,1,0-1.91.44Zm1.15,2L448,540l.65-.15L443,515.23Zm5.63,27a.8.8,0,0,0,1.1.67c.54-.12.74-.48.6-1.06s-.48-.87-1-.75A.83.83,0,0,0,448,542.39Z"/><path class="cls-8" d="M474.11,507.83a5.63,5.63,0,0,0-.78-3.45c-.55-.78-1.64-1.05-3.25-.82l-.47-1.69a6.9,6.9,0,0,1,3.34-.3,5.19,5.19,0,0,1,2.07,1.1,5.27,5.27,0,0,1,1.37-2.18,6.42,6.42,0,0,1,2.49-1.22l.47,1.69a5.22,5.22,0,0,0-1.71,1.14,5.3,5.3,0,0,0-1,1.47,6,6,0,0,0-.48,1.63c-.08.55-.13,1.09-.16,1.61l-.3,9.62a.81.81,0,0,0,.36.53,1.61,1.61,0,0,0,.53.15,1.74,1.74,0,0,0,.67-.08l0,.62,0,.71a3.22,3.22,0,0,0-.77.32,2.54,2.54,0,0,0-.57.52,2.07,2.07,0,0,0-.36.9l-.43,12.41a3.83,3.83,0,0,0,.95,3,3.06,3.06,0,0,0,3.12.42l.47,1.69a10.32,10.32,0,0,1-3.57.5,4.35,4.35,0,0,1-2.51-1.22,4.28,4.28,0,0,1-.69,1.65,4,4,0,0,1-1.22,1.09,7.92,7.92,0,0,1-1.62.7c-.59.19-1.24.36-1.94.52l-.47-1.69c1.18-.33,1.84-.93,1.95-1.79a4.91,4.91,0,0,0-.85-3q-1.56-2.7-3.24-5.26c-1.12-1.7-2.24-3.45-3.34-5.23a1.78,1.78,0,0,0-.82-.62,2.78,2.78,0,0,0-.74-.15,2.06,2.06,0,0,0-.81.17l-.33-.63-.36-.5a1.76,1.76,0,0,0,.82-.34,1.1,1.1,0,0,0,.33-.53,1.07,1.07,0,0,0-.31-.91l-5.4-8.57a6.87,6.87,0,0,0-1.95-2.18,4.19,4.19,0,0,0-2.92-.31l-.47-1.68a15.64,15.64,0,0,1,3.9-.66A4.3,4.3,0,0,1,456,508a4.23,4.23,0,0,1,1.77-2.37,13.3,13.3,0,0,1,3.48-1.42l.47,1.69c-1.5.64-2.27,1.43-2.33,2.36a5.91,5.91,0,0,0,1.16,3.37l4.56,7.31a2.4,2.4,0,0,0,.83.68,2.13,2.13,0,0,0,.81.18,1.52,1.52,0,0,0,.82-.12l.33.63.36.5a2.72,2.72,0,0,0-.72.31,1,1,0,0,0-.31.5,1.31,1.31,0,0,0,.16.87l5.88,9.31.38-11.4a.69.69,0,0,0-.34-.56,1.59,1.59,0,0,0-.56-.18,1.9,1.9,0,0,0-.67.08l0-.62,0-.7a1.93,1.93,0,0,0,.82-.34,2.33,2.33,0,0,0,.59-.55,1.72,1.72,0,0,0,.31-1Zm-18.2,2.41a.81.81,0,0,0,1.13.62c.53-.15.71-.52.55-1.1s-.52-.84-1-.69A.83.83,0,0,0,455.91,510.24Zm2.36,1.93-.65.18,13.38,21,.65-.18Zm9.17,10.37s0,.06,0,.07a.13.13,0,0,1,0,.07Zm4,12.71a.8.8,0,0,0,1.14.61c.53-.14.71-.51.55-1.09s-.53-.84-1.05-.69A.83.83,0,0,0,471.43,535.25Z"/><path class="cls-8" d="M506.9,507.49a3.92,3.92,0,0,1-2,.36,3.44,3.44,0,0,1-1.64-.63,3.92,3.92,0,0,1-1.15-1.38,6.36,6.36,0,0,1-.65-1.9,3.47,3.47,0,0,0,1.87.19,2.83,2.83,0,0,0,1.69-1,4.4,4.4,0,0,0,.9-1.87,4.71,4.71,0,0,0-.07-2.17,3.77,3.77,0,0,0-1.21-1.93,5.09,5.09,0,0,0-2.46-1.1,10.56,10.56,0,0,0-5.76,1,6.3,6.3,0,0,0-1.66,1.18,4.88,4.88,0,0,0-1.08,1.64,3.76,3.76,0,0,0-.15,2.13l1.73,9.07a1.59,1.59,0,0,0,.44.92,1.16,1.16,0,0,0,.69.32,2.14,2.14,0,0,0,.84,0l.21,1.14a2.09,2.09,0,0,0-.78.31,1.21,1.21,0,0,0-.52.53,1.64,1.64,0,0,0-.07,1l2.2,11.57a3.72,3.72,0,0,0,.92,1.93,4.71,4.71,0,0,0,1.6,1.13,6.69,6.69,0,0,0,2,.49,9.35,9.35,0,0,0,2,0,9,9,0,0,0,3.69-1.13,5,5,0,0,0,1.86-1.92,3.8,3.8,0,0,0,.39-2.24,4.84,4.84,0,0,0-.73-2.07,4.58,4.58,0,0,0-1.49-1.45,2.62,2.62,0,0,0-1.89-.34,3.26,3.26,0,0,0-1.67.91,6.85,6.85,0,0,1-.09-2,3.94,3.94,0,0,1,.57-1.7,3.53,3.53,0,0,1,1.29-1.19,4,4,0,0,1,2.05-.41,4.55,4.55,0,0,1,2.36.71,6.3,6.3,0,0,1,1.85,1.75,7.2,7.2,0,0,1,1.1,2.47,7.47,7.47,0,0,1,.15,2.83,2.44,2.44,0,0,1,1-.54,3.61,3.61,0,0,1,.9-.09l.43,2.24a2.42,2.42,0,0,0-.89,0,3.12,3.12,0,0,0-.91.34,4.06,4.06,0,0,0-1,.79,14.2,14.2,0,0,1-3.63,2.85,15,15,0,0,1-4.35,1.47,29.31,29.31,0,0,1-5.09.54,7,7,0,0,1-4.24-1.3l0,.1a5.89,5.89,0,0,1-.72,1.3,3.35,3.35,0,0,1-1,.89,7.45,7.45,0,0,1-1.41.62,18.44,18.44,0,0,1-2,.48l-.32-1.67a2.84,2.84,0,0,0,1.74-1.33,4.2,4.2,0,0,0,.35-2l-2.46-12.93a1.68,1.68,0,0,0-.44-.94,1.23,1.23,0,0,0-.64-.31,2.42,2.42,0,0,0-.89,0l-.22-1.15a2.32,2.32,0,0,0,.83-.32,1.18,1.18,0,0,0,.47-.55,1.57,1.57,0,0,0,.07-1l-1.87-9.85a4.79,4.79,0,0,0-1-2,2.66,2.66,0,0,0-2.2-.69l-.32-1.67a16.92,16.92,0,0,1,2-.28,7.47,7.47,0,0,1,1.53.06,3.58,3.58,0,0,1,1.24.47,6.26,6.26,0,0,1,1.15.94,6.83,6.83,0,0,1,3.42-2.83,26.51,26.51,0,0,1,4.95-1.4,15.17,15.17,0,0,1,4.6-.23,14.13,14.13,0,0,1,4.41,1.32,4.38,4.38,0,0,0,1.25.36,3.36,3.36,0,0,0,1,0,2.21,2.21,0,0,0,.83-.32l.43,2.25a2.91,2.91,0,0,1-.88.24,2.33,2.33,0,0,1-1.1-.14A7.46,7.46,0,0,1,510,501a7.35,7.35,0,0,1-.12,2.7,6.36,6.36,0,0,1-1.08,2.31A4.67,4.67,0,0,1,506.9,507.49Zm-17.4-6.9c.13.7.51,1,1.16.86s.89-.53.76-1.23a.88.88,0,0,0-1.15-.8A.87.87,0,0,0,489.5,500.59Zm1.07,2.06,4.72,24.81.66-.13-4.72-24.8Zm4.6,27.21a.8.8,0,0,0,1.08.71c.54-.1.75-.45.64-1s-.45-.89-1-.78A.82.82,0,0,0,495.17,529.86ZM499,506.4a3.29,3.29,0,0,1,1.84.73,4.77,4.77,0,0,1,1.34,1.66,6.46,6.46,0,0,1,.65,2.2,5.84,5.84,0,0,1-.16,2.32,5.61,5.61,0,0,0-.23,2.07,4.71,4.71,0,0,0,.4,1.68,2.44,2.44,0,0,0,.83,1.06,1.36,1.36,0,0,0,1.07.26,4.62,4.62,0,0,1-2.25.18,3.63,3.63,0,0,1-1.83-.92,4.62,4.62,0,0,1-1.17-1.91,7.47,7.47,0,0,1-.34-2.77,8.43,8.43,0,0,1,.36-1.93,14.2,14.2,0,0,0,.45-1.79,4.15,4.15,0,0,0,0-1.57A2,2,0,0,0,499,506.4Zm6.84.16a3,3,0,0,0,2.54-1.7,4.9,4.9,0,0,0,0-3.82,6.76,6.76,0,0,1-.2,2.77,4.85,4.85,0,0,1-.9,1.66A4.54,4.54,0,0,1,505.83,506.56ZM508,518.62a4.42,4.42,0,0,1,1.77.48,5,5,0,0,1,1.44,1.21,6.57,6.57,0,0,1,1.2,2.49,4.83,4.83,0,0,0-1.43-3.53A3,3,0,0,0,508,518.62Z"/><path class="cls-8" d="M542.42,517.28l1.64,4.52a7.54,7.54,0,0,0,1.59,2.63,4.44,4.44,0,0,0,2.83,1l.11,1.75a15.37,15.37,0,0,1-4-.19,4.41,4.41,0,0,1-2.72-1.66,4.34,4.34,0,0,1-2.22,2A12.62,12.62,0,0,1,536,528l-.12-1.74a4.49,4.49,0,0,0,1.84-.71,2.26,2.26,0,0,0,.83-1.14,3.43,3.43,0,0,0,.08-1.55c-.09-.58-.23-1.23-.41-2l-2.07-5.66a14.89,14.89,0,0,0-2.06-3.46,7.33,7.33,0,0,0-3-2c-.88-.33-1.37-.6-1.47-.8s.23-.48,1-.81a13.63,13.63,0,0,0,5.68-4,8.59,8.59,0,0,0,2-5.26,7.94,7.94,0,0,0-.5-2.84,6.41,6.41,0,0,0-3.73-3.85,6.84,6.84,0,0,0-3.05-.44,5.67,5.67,0,0,0-2,.53,5.89,5.89,0,0,0-1.81,1.26,6.2,6.2,0,0,0-1.24,1.89,5.33,5.33,0,0,0-.39,2.42l.62,9.37a1,1,0,0,0,.47.55,5.1,5.1,0,0,0,.56.23,1.37,1.37,0,0,0,.67,0l.08,1.21a4.49,4.49,0,0,0-.67.1,3.16,3.16,0,0,0-.52.33,1.14,1.14,0,0,0-.39.63l.86,13.29a4.76,4.76,0,0,0,.69,2.19,2.8,2.8,0,0,0,2.3.91l.11,1.7a15.56,15.56,0,0,1-2,0,5.71,5.71,0,0,1-1.49-.25,3.35,3.35,0,0,1-1.15-.61,6.31,6.31,0,0,1-1-1.08,6.2,6.2,0,0,1-.87,1.2,3.44,3.44,0,0,1-1.06.76,6.07,6.07,0,0,1-1.45.44,15.82,15.82,0,0,1-2,.24l-.11-1.69a2.76,2.76,0,0,0,2.16-1.23,4.91,4.91,0,0,0,.4-2.24l-.82-12.65a1.57,1.57,0,0,0-.33-1,1.25,1.25,0,0,0-.64-.38,2.2,2.2,0,0,0-.88-.1l-.08-1.22a1.74,1.74,0,0,0,.86-.16,1.21,1.21,0,0,0,.59-.49,1.59,1.59,0,0,0,.19-1l-.6-9.26c0-.57-.1-1.09-.18-1.59a3.55,3.55,0,0,0-.44-1.24,2.42,2.42,0,0,0-.91-.82,3.33,3.33,0,0,0-1.51-.3l-.12-1.69c.41,0,.86-.05,1.34-.06a7.49,7.49,0,0,1,1.48.09,5.65,5.65,0,0,1,1.5.43,4.28,4.28,0,0,1,1.35,1,10,10,0,0,1,4-2.14,24.68,24.68,0,0,1,5.11-.84,15.88,15.88,0,0,1,5,.41,12.49,12.49,0,0,1,3.85,1.69,8,8,0,0,1,2.47,2.61,7.2,7.2,0,0,1,1,3.2,9.36,9.36,0,0,1-.38,3.19,7.36,7.36,0,0,1-1.94,3.18,12.18,12.18,0,0,1-4,2.58,21.66,21.66,0,0,1-6.67,1.42c.35.15.76.3,1.22.45s.85.31,1.4.49,1.15.37,1.82.57a19.57,19.57,0,0,1,2.22.84,7.86,7.86,0,0,1,2,1.31,10,10,0,0,1,1.65,2A13,13,0,0,1,542.42,517.28Zm-20.88-21.92c0,.71.39,1,1,1s1-.42.91-1.13a1,1,0,1,0-2,.13Zm.81,2.18,1.64,25.2.67,0L523,497.5Zm1.23,27.56a.81.81,0,0,0,1,.84c.55,0,.81-.35.77-1s-.34-.94-.89-.9A.83.83,0,0,0,523.58,525.1Zm11-14.11a3.41,3.41,0,0,1,1.31.71,6.69,6.69,0,0,1,1,1.1,8.11,8.11,0,0,1,.75,1.23c.2.41.36.77.48,1.09l2.81,7.41.67,0-2.81-7.42a8.29,8.29,0,0,0-1.91-2.77A4.55,4.55,0,0,0,534.58,511Zm2.61-18.56-.26,0a3.62,3.62,0,0,1,1.77,1.35,7.21,7.21,0,0,1,1.07,2.29,11.8,11.8,0,0,1,.44,2.79,12.16,12.16,0,0,1-.17,2.8,7.8,7.8,0,0,1-.83,2.34,3.2,3.2,0,0,1-1.43,1.4l.25-.07a3.06,3.06,0,0,0,1.8-1.26,6.4,6.4,0,0,0,1-2.27A9.36,9.36,0,0,0,541,499a10,10,0,0,0-.57-2.81,7.84,7.84,0,0,0-1.28-2.33A4.35,4.35,0,0,0,537.19,492.43ZM540.64,524a.81.81,0,0,0,1,.84c.54,0,.8-.35.76-1s-.34-.94-.89-.9A.83.83,0,0,0,540.64,524Z"/><path class="cls-8" d="M569.59,518.12a10.68,10.68,0,0,0-2.06-4.76,33.2,33.2,0,0,0-3.42-3.72l.25.28a4.75,4.75,0,0,0-1-.66,2.26,2.26,0,0,0-.86-.23,2,2,0,0,0-.86.11,2.63,2.63,0,0,0-.56.29L560,508.36a1.22,1.22,0,0,0,.55-.55,1.6,1.6,0,0,0,.11-.71,2,2,0,0,0-.38-1.06,15.86,15.86,0,0,1-2.24-3,10.41,10.41,0,0,1-1.22-3.7,7,7,0,0,1,.43-3.19,7.83,7.83,0,0,1,2-3.05,9.53,9.53,0,0,1,3.6-2.12,11.58,11.58,0,0,1,5.1-.45,9.66,9.66,0,0,1,4.06,1.23,6.6,6.6,0,0,1,2.49,2.57,7.2,7.2,0,0,1,3.08-1.64l.63,1.73a3.29,3.29,0,0,0-2,1.76,15.11,15.11,0,0,0-.88,2.61,5.84,5.84,0,0,1-1.19,3,4.41,4.41,0,0,1-2.77,1.6,4.61,4.61,0,0,1-2-.1,3.41,3.41,0,0,1-1.52-.9,4.07,4.07,0,0,1-1-1.54,5,5,0,0,1-.26-2,3,3,0,0,0,1.57.57,2.63,2.63,0,0,0,1.43-.33,3.4,3.4,0,0,0,1.14-1,4,4,0,0,0,.67-1.53,4.39,4.39,0,0,0,0-1.91,3.46,3.46,0,0,0-1.22-2.14,4.8,4.8,0,0,0-3-.8,5.77,5.77,0,0,0-2.46.51,5.69,5.69,0,0,0-2,1.46,5.3,5.3,0,0,0-1.1,2.34,7.31,7.31,0,0,0,.07,3.11,7.11,7.11,0,0,0,.89,2.14,14.7,14.7,0,0,0,1.61,2.19,4,4,0,0,0,1.07.77,2.4,2.4,0,0,0,.89.23,1.23,1.23,0,0,0,.62-.1,3.48,3.48,0,0,0,.43-.21l1.07,1.06a1.49,1.49,0,0,0-.39.62,1.33,1.33,0,0,0-.06.72,2.45,2.45,0,0,0,.43,1.05c.82.79,1.62,1.6,2.4,2.42a28.55,28.55,0,0,1,2.13,2.5,15,15,0,0,1,1.62,2.66,9.81,9.81,0,0,1,.83,2.84,9,9,0,0,1-.42,4,8.47,8.47,0,0,1-2.2,3.39,10.6,10.6,0,0,1-3.83,2.29,13.5,13.5,0,0,1-5.35.67,17.11,17.11,0,0,1-4.69-1,9.53,9.53,0,0,1-4-2.58,5.5,5.5,0,0,1-1.43,1.2,5.18,5.18,0,0,1-1.92.64l-.63-1.73a2.39,2.39,0,0,0,1.34-1,4,4,0,0,0,.52-1.52,12.29,12.29,0,0,0,.12-1.74A9.21,9.21,0,0,1,553,519a6.71,6.71,0,0,1,1.31-3.35,4.63,4.63,0,0,1,3-1.78,3.63,3.63,0,0,1,3.45,1,4,4,0,0,1,1,1.53,5,5,0,0,1,.26,2,3,3,0,0,0-1.52-.51,3.25,3.25,0,0,0-2.29.81,3.2,3.2,0,0,0-1.09,2.52,5.17,5.17,0,0,0,1.81,4.29,6.93,6.93,0,0,0,4.33,1.45,6.09,6.09,0,0,0,2.61-.58,6.38,6.38,0,0,0,2.29-1.71,7.1,7.1,0,0,0,1.43-2.76A7.92,7.92,0,0,0,569.59,518.12Zm-11.13-3a3,3,0,0,0-2.87,1,4.9,4.9,0,0,0-.94,3.7,6.66,6.66,0,0,1,.86-2.64,4.65,4.65,0,0,1,1.31-1.39A4.06,4.06,0,0,1,558.46,515.13Zm3.84-22.8a5.71,5.71,0,0,0-2.84,2.51,6.62,6.62,0,0,0-.85,3,5.71,5.71,0,0,0,.6,2.64,14,14,0,0,0,1.55,2.5,26,26,0,0,0,1.94,2.23c.69.69,1.27,1.33,1.76,1.92s1.19,1.36,1.94,2.18,1.49,1.71,2.23,2.69a25.75,25.75,0,0,1,2,3.08,12.29,12.29,0,0,1,1.27,3.28,9.69,9.69,0,0,1,0,3.83,5.37,5.37,0,0,1-2.32,3.38l.42-.08A5.37,5.37,0,0,0,571.4,524a7,7,0,0,0,.84-1.87,8.55,8.55,0,0,0,.34-2,9.89,9.89,0,0,0-1.11-5.26,22.08,22.08,0,0,0-2-3.13c-.74-1-1.5-1.92-2.27-2.78l-2.1-2.29c-.49-.56-1.07-1.17-1.73-1.85a21.32,21.32,0,0,1-1.88-2.14,15.62,15.62,0,0,1-1.49-2.39,6.19,6.19,0,0,1-.67-2.59,7.27,7.27,0,0,1,.6-2.89,6,6,0,0,1,2.8-2.72Zm8,9.89a3,3,0,0,0,2.86-1,4.9,4.9,0,0,0,.95-3.7,6.76,6.76,0,0,1-.86,2.64,5,5,0,0,1-1.27,1.39A4.42,4.42,0,0,1,570.34,502.22Z"/><path class="cls-8" d="M585.55,499.57c.09-.7.16-1.34.2-1.92a4.84,4.84,0,0,0-.13-1.6,2.93,2.93,0,0,0-.67-1.24,3.18,3.18,0,0,0-1.48-.8l.22-1.69a17.5,17.5,0,0,1,2,.37,6.21,6.21,0,0,1,1.41.53,3.76,3.76,0,0,1,1,.8,6,6,0,0,1,.8,1.23,5.63,5.63,0,0,1,1.09-1,3.54,3.54,0,0,1,1.21-.51,6.92,6.92,0,0,1,1.52-.15,14.89,14.89,0,0,1,2,.16l-.22,1.68a3.45,3.45,0,0,0-1.62.4,2.7,2.7,0,0,0-1,1,4.76,4.76,0,0,0-.54,1.5q-.17.87-.3,1.92l-1,7.89a1.52,1.52,0,0,0,.16,1,1.28,1.28,0,0,0,.58.53,1.78,1.78,0,0,0,.85.22l-.15,1.21a1.68,1.68,0,0,0-.89,0,1.29,1.29,0,0,0-.69.36,1.63,1.63,0,0,0-.42,1l-1.78,13.73a2.53,2.53,0,0,0,.46,1.59,3.57,3.57,0,0,0,2,1.08l-.22,1.69a16.89,16.89,0,0,1-2-.37,6.21,6.21,0,0,1-1.41-.53,3.81,3.81,0,0,1-1-.8,5.82,5.82,0,0,1-.8-1.23,5.6,5.6,0,0,1-1.08,1,3.71,3.71,0,0,1-1.21.51,6,6,0,0,1-1.53.15,16.3,16.3,0,0,1-2-.15l.22-1.69a3.52,3.52,0,0,0,2.2-.54,2.64,2.64,0,0,0,.86-1.41L584,511.78a1.64,1.64,0,0,0-.14-1.06,1.41,1.41,0,0,0-.53-.53,2,2,0,0,0-.91-.22l.16-1.21a2,2,0,0,0,.93,0,1.36,1.36,0,0,0,.65-.37,1.58,1.58,0,0,0,.41-.94ZM584,526.12a.8.8,0,0,0,.8,1c.55.08.86-.19.94-.78s-.15-1-.7-1.06A.83.83,0,0,0,584,526.12Zm4.12-27.28-3.26,25,.67.09,3.26-25Zm-.37-2.3c-.1.71.18,1.1.83,1.18s1-.22,1.11-.92a.89.89,0,0,0-.84-1.13A.88.88,0,0,0,587.77,496.54Z"/><path class="cls-8" d="M622.27,498.9a13.3,13.3,0,0,1,4.6,1.26,13.55,13.55,0,0,1,3.72,3,3.94,3.94,0,0,0,1,.81,3.36,3.36,0,0,0,.9.35,2.44,2.44,0,0,0,.89,0l-.46,2.23a5,5,0,0,1-.62-.05,2.21,2.21,0,0,1-.74-.24,8.16,8.16,0,0,1-.12,3,7.48,7.48,0,0,1-1.09,2.56,5.5,5.5,0,0,1-1.84,1.73,3.62,3.62,0,0,1-2.3.47,4.13,4.13,0,0,1-3.31-1.8,4.7,4.7,0,0,1-.41-3.58,2.25,2.25,0,0,0,1.69,1,3.13,3.13,0,0,0,2.4-.8,4.89,4.89,0,0,0,1.5-2.29,5.25,5.25,0,0,0,.14-2.81,3.56,3.56,0,0,0-1.64-2.32,5.36,5.36,0,0,0-1.94-.79,5.12,5.12,0,0,0-2.1,0,5.74,5.74,0,0,0-1.93.79,5.59,5.59,0,0,0-1.53,1.5,6.06,6.06,0,0,0-.9,2.17l-1.67,8a1.67,1.67,0,0,0,.05,1,1.19,1.19,0,0,0,.51.57,2.1,2.1,0,0,0,.78.32l-.24,1.14a2.17,2.17,0,0,0-.84,0,1.24,1.24,0,0,0-.69.29,1.56,1.56,0,0,0-.46.93L613.39,528a11.76,11.76,0,0,0-.23,1.87,4.27,4.27,0,0,0,.24,1.63,3.25,3.25,0,0,0,1,1.33,5.52,5.52,0,0,0,1.86,1l-.34,1.66a16,16,0,0,1-4-1.29,4.37,4.37,0,0,1-2.19-2.33,4.4,4.4,0,0,1-3,1.26,16.35,16.35,0,0,1-4.12-.4l.34-1.67A4.13,4.13,0,0,0,606.5,530a7,7,0,0,0,1.45-3.17l2.24-10.7a1.6,1.6,0,0,0-.05-1,1.29,1.29,0,0,0-.47-.53,2.28,2.28,0,0,0-.82-.33l.24-1.14a2.43,2.43,0,0,0,.89,0,1.24,1.24,0,0,0,.64-.33,1.6,1.6,0,0,0,.46-.9l1.67-8a5.84,5.84,0,0,0,0-2.35,5.56,5.56,0,0,0-.79-2,5.74,5.74,0,0,0-1.45-1.5,5,5,0,0,0-1.93-.83,5.3,5.3,0,0,0-2.09-.06,3.6,3.6,0,0,0-2.44,1.47,5.35,5.35,0,0,0-1,2.63,5,5,0,0,0,.46,2.7,3.15,3.15,0,0,0,1.88,1.7,2.28,2.28,0,0,0,2-.25,4.74,4.74,0,0,1-1.81,3.12,4.13,4.13,0,0,1-3.75.33,3.67,3.67,0,0,1-2-1.39,5.32,5.32,0,0,1-1-2.34,7.68,7.68,0,0,1,.05-2.78,8.28,8.28,0,0,1,1.08-2.76,2.05,2.05,0,0,1-.82,0,2.15,2.15,0,0,1-.66-.24l.47-2.24a2.35,2.35,0,0,0,.83.34,3.44,3.44,0,0,0,1,0,3.23,3.23,0,0,0,1.22-.33,13.1,13.1,0,0,1,4.69-1.25,14.17,14.17,0,0,1,4.74.72,16.26,16.26,0,0,1,2.7,1.06,5.44,5.44,0,0,1,2.24,2.25,5.44,5.44,0,0,1,3-1.17A15.61,15.61,0,0,1,622.27,498.9Zm-18.86,8.9a4,4,0,0,1-1.54-.92,4.47,4.47,0,0,1-1.07-1.58,6.87,6.87,0,0,1-.46-2.7,4.77,4.77,0,0,0,.39,3.77A3,3,0,0,0,603.41,507.8Zm5.7,22.55a.81.81,0,0,0,.72,1.07c.54.11.87-.13,1-.72s-.08-1-.61-1.1A.83.83,0,0,0,609.11,530.35Zm6.2-26.89-5.16,24.72.65.13L616,503.6Zm-.19-2.32c-.15.7.1,1.11.74,1.24s1-.14,1.17-.84a1,1,0,1,0-1.91-.4Zm10.37,11.28a3,3,0,0,0,3-.24,4.78,4.78,0,0,0,1.88-3.29,6.25,6.25,0,0,1-1.48,2.29,4.68,4.68,0,0,1-1.64,1A4,4,0,0,1,625.49,512.42Z"/><path class="cls-8" d="M655.7,514.44a15.12,15.12,0,0,0,1.3-1.76,4.2,4.2,0,0,0,.62-1.51,1.49,1.49,0,0,0-.32-1.21,3.1,3.1,0,0,0-1.55-.88l.45-1.7a5.6,5.6,0,0,1,3,1.37,3.68,3.68,0,0,1,1.06,2,8.48,8.48,0,0,1,2.7-1,7,7,0,0,1,2.9.23l-.5,1.84a5.93,5.93,0,0,0-2.21-.2,6.14,6.14,0,0,0-1.86.49,8.26,8.26,0,0,0-1.58.92c-.49.36-.94.73-1.36,1.09l-8.2,8.13a1.6,1.6,0,0,0,.32.5,1.62,1.62,0,0,0,.43.31,5.71,5.71,0,0,0,.58.21l-.31,1.18a1.69,1.69,0,0,0-.88-.13,1.5,1.5,0,0,0-.69.28,1.67,1.67,0,0,0-.54.93l-3.57,13.38a2.57,2.57,0,0,0,.25,1.63,3.52,3.52,0,0,0,1.83,1.34l-.44,1.64a14.62,14.62,0,0,1-1.93-.63,5.88,5.88,0,0,1-1.33-.71,3.61,3.61,0,0,1-.9-.93,6,6,0,0,1-.64-1.32,5.78,5.78,0,0,1-1.2.83,3.57,3.57,0,0,1-1.27.35,7.34,7.34,0,0,1-1.53-.05,15.81,15.81,0,0,1-2-.43l.43-1.64a3.51,3.51,0,0,0,2.26-.25,2.61,2.61,0,0,0,1-1.28l3.69-13.84a1.21,1.21,0,0,0-.18-.79,2.07,2.07,0,0,0-.49-.49c-.19-.08-.42-.16-.68-.24l.32-1.17.44.12a2.17,2.17,0,0,0,.94-.14l-3.66-13a7.4,7.4,0,0,0-1.21-2.36,4.87,4.87,0,0,0-2.17-1.35l.47-1.79a15.55,15.55,0,0,1,2,.56,6.36,6.36,0,0,1,1.45.74,4.85,4.85,0,0,1,1.1,1.07,12.34,12.34,0,0,1,1,1.46,3.32,3.32,0,0,1,2.57-1.35,8.18,8.18,0,0,1,3.69.66l-.37,1.77c-1.5-.37-2.39-.12-2.68.74a7,7,0,0,0,.21,3.71l2.68,9.11Zm-13.64,23.92a.8.8,0,0,0,.66,1.11c.53.14.87-.08,1-.66s0-1-.55-1.13A.83.83,0,0,0,642.06,538.36Zm.27-30.73a.81.81,0,0,0,.66,1.11c.53.14.88-.08,1-.66s0-1-.55-1.13A.83.83,0,0,0,642.33,507.63Zm.84,1.65,3.29,11,.59.16-3.28-11Zm3.23,15-3.19,11.94.65.18,3.19-11.95Zm-.09-1.84a.8.8,0,0,0,.66,1.11c.53.15.87-.07,1-.65s0-1-.55-1.14A.83.83,0,0,0,646.31,522.47Z"/><path class="cls-8" d="M672.52,512.56a3.08,3.08,0,0,1,1.79,1.24,5,5,0,0,1,.85,2.08,6.57,6.57,0,0,1,0,2.34,5.73,5.73,0,0,1-.81,2.08,3.4,3.4,0,0,1-1.55,1.31,3.15,3.15,0,0,1-2.25,0,3,3,0,0,1-2-1.77,3.68,3.68,0,0,1-.07-2.47,3.72,3.72,0,0,1,1.49-2,2.92,2.92,0,0,1,2.68-.26,3.13,3.13,0,0,1,.78.36,7.47,7.47,0,0,1,.63.48,2.32,2.32,0,0,0-.56-1.46,2.57,2.57,0,0,0-1.77-.9Zm-1.82,8.22a2.86,2.86,0,0,1-.83-.94,3.33,3.33,0,0,1-.33-1.25,3.81,3.81,0,0,1,.3-1.71,2.91,2.91,0,0,0-.56,2.35A2.26,2.26,0,0,0,670.7,520.78Z"/><path class="cls-8" d="M688.58,546.6a10.84,10.84,0,0,0-.55-5.16,33.19,33.19,0,0,0-2.14-4.57l.15.34a4.73,4.73,0,0,0-.75-.93,2.63,2.63,0,0,0-.75-.48,2,2,0,0,0-.85-.15,2.9,2.9,0,0,0-.62.11l-.71-1.34a1.23,1.23,0,0,0,.69-.37,1.81,1.81,0,0,0,.32-.64,2.08,2.08,0,0,0,0-1.12,16.26,16.26,0,0,1-1.23-3.55,10.59,10.59,0,0,1-.05-3.9,7,7,0,0,1,1.37-2.92,7.9,7.9,0,0,1,2.84-2.3,9.64,9.64,0,0,1,4.07-.94,11.52,11.52,0,0,1,5,1.11,9.58,9.58,0,0,1,3.51,2.39,6.61,6.61,0,0,1,1.6,3.2,7.16,7.16,0,0,1,3.43-.64l.08,1.84a3.21,3.21,0,0,0-2.46,1.07,15.1,15.1,0,0,0-1.63,2.22,5.8,5.8,0,0,1-2,2.47,4.42,4.42,0,0,1-3.12.7,4.7,4.7,0,0,1-1.85-.7,3.43,3.43,0,0,1-1.19-1.32,4.15,4.15,0,0,1-.44-1.75,5,5,0,0,1,.34-1.94,2.93,2.93,0,0,0,1.33,1,2.53,2.53,0,0,0,1.46.13,3.53,3.53,0,0,0,1.39-.61,4.1,4.1,0,0,0,1.1-1.26,4.64,4.64,0,0,0,.58-1.83,3.42,3.42,0,0,0-.53-2.4,4.77,4.77,0,0,0-2.62-1.67,5.86,5.86,0,0,0-2.49-.25,5.25,5.25,0,0,0-4.07,2.7,7.35,7.35,0,0,0-.87,3,7.46,7.46,0,0,0,.21,2.31,14.79,14.79,0,0,0,.88,2.57,4,4,0,0,0,.78,1.06,2.58,2.58,0,0,0,.78.49,1.44,1.44,0,0,0,.63.09,3.78,3.78,0,0,0,.47-.08l.7,1.34a1.49,1.49,0,0,0-.56.47,1.35,1.35,0,0,0-.27.66,2.61,2.61,0,0,0,.09,1.14c.55,1,1.07,2,1.57,3a30.13,30.13,0,0,1,1.28,3,15,15,0,0,1,.74,3,9.69,9.69,0,0,1-.06,3,8.87,8.87,0,0,1-1.61,3.7,8.41,8.41,0,0,1-3.11,2.58,10.63,10.63,0,0,1-4.35,1,13.38,13.38,0,0,1-5.3-1,16.8,16.8,0,0,1-4.18-2.33,9.43,9.43,0,0,1-3-3.65,5.68,5.68,0,0,1-1.72.71,5.06,5.06,0,0,1-2,0l-.08-1.84a2.34,2.34,0,0,0,1.58-.54,4.2,4.2,0,0,0,1-1.29,11.26,11.26,0,0,0,.63-1.63,9.36,9.36,0,0,1,.65-1.57,6.51,6.51,0,0,1,2.26-2.8,4.61,4.61,0,0,1,3.38-.81,3.83,3.83,0,0,1,1.82.66,3.67,3.67,0,0,1,1.17,1.34,4,4,0,0,1,.45,1.75,5.21,5.21,0,0,1-.35,1.94,3.08,3.08,0,0,0-1.29-.94,3.26,3.26,0,0,0-2.43.09,3.18,3.18,0,0,0-1.79,2.07,5.13,5.13,0,0,0,.43,4.64,7,7,0,0,0,3.7,2.69,6,6,0,0,0,2.66.23,6.52,6.52,0,0,0,2.69-.94,7.24,7.24,0,0,0,2.2-2.21A8.11,8.11,0,0,0,688.58,546.6Zm-9.73-6.19a3,3,0,0,0-3.05.13,4.92,4.92,0,0,0-2,3.24,6.47,6.47,0,0,1,1.62-2.25,4.59,4.59,0,0,1,1.67-.94A4.1,4.1,0,0,1,678.85,540.41Zm10.52-20.59a5.68,5.68,0,0,0-3.47,1.54,6.74,6.74,0,0,0-1.71,2.58,5.79,5.79,0,0,0-.21,2.7,14.52,14.52,0,0,0,.72,2.85,22.68,22.68,0,0,0,1.19,2.71c.44.86.81,1.65,1.09,2.36s.74,1.66,1.2,2.66.91,2.09,1.32,3.24a25.8,25.8,0,0,1,1,3.54,12.4,12.4,0,0,1,.23,3.51,9.92,9.92,0,0,1-1.17,3.65,5.4,5.4,0,0,1-3.23,2.52l.42.05a5.28,5.28,0,0,0,1.79-1,6.65,6.65,0,0,0,1.37-1.53,9.11,9.11,0,0,0,.93-1.81,10.31,10.31,0,0,0,.5-1.79,9.9,9.9,0,0,0,0-3.56,22.28,22.28,0,0,0-.92-3.57c-.4-1.17-.85-2.28-1.33-3.34s-.93-2-1.32-2.81-.66-1.44-1.09-2.28a20.21,20.21,0,0,1-1.14-2.61,14.43,14.43,0,0,1-.71-2.73,6.09,6.09,0,0,1,.14-2.66,7.1,7.1,0,0,1,1.44-2.58,5.85,5.85,0,0,1,3.48-1.75Zm4.69,11.84a3,3,0,0,0,3.05-.13,4.92,4.92,0,0,0,2-3.24,6.52,6.52,0,0,1-1.62,2.26,5,5,0,0,1-1.62,1A4.37,4.37,0,0,1,694.06,531.66Z"/><path class="cls-7" d="M768.63,567.17a1.4,1.4,0,0,0-.67,0c-.18,0-.38.11-.6.18a1.15,1.15,0,0,0-.59.5l-3.17,12c-.16.61-.3,1.18-.41,1.71a4,4,0,0,0-.07,1.4,1.86,1.86,0,0,0,.54,1.08,2.88,2.88,0,0,0,1.47.64l-.45,1.65a9.44,9.44,0,0,1-3.35-.95,4,4,0,0,1-1.58-2,7.8,7.8,0,0,1-1.25,1,4.7,4.7,0,0,1-1.3.48,7.45,7.45,0,0,1-1.55.12,17.47,17.47,0,0,1-2-.2l.45-1.64a4.25,4.25,0,0,0,2-.35,2.63,2.63,0,0,0,1.06-1,5.46,5.46,0,0,0,.56-1.5q.21-.89.51-1.86l2.92-11a1,1,0,0,0-.2-.78,1.81,1.81,0,0,0-.51-.4,3,3,0,0,0-.75-.21l.33-1.19a5.3,5.3,0,0,0,.77.06,2.32,2.32,0,0,0,.69-.25,1.3,1.3,0,0,0,.58-.58l2.24-8.47a9,9,0,0,0,.28-1.78,4.57,4.57,0,0,0-.16-1.55,2.71,2.71,0,0,0-.71-1.2,3.4,3.4,0,0,0-1.44-.8l.25-1.68a9,9,0,0,1,3.67,1.21,3.32,3.32,0,0,1,1.44,2.59,3.26,3.26,0,0,1,2.43-2,11.33,11.33,0,0,1,4.18-.06l-.25,1.68a3,3,0,0,0-2,.56,4.77,4.77,0,0,0-1.25,1.53q.17,1.05.36,2.73c.13,1.13.27,2.4.43,3.79s.33,2.9.51,4.5.37,3.19.57,4.78.41,3.14.62,4.67.42,2.94.65,4.23q1.33-2.65,2.8-6t2.87-6.58q1.39-3.25,2.55-6c.77-1.84,1.37-3.22,1.78-4.16a5,5,0,0,0-.71-1.88,3,3,0,0,0-1.76-1.11l.24-1.68a12,12,0,0,1,4,1.23,3.31,3.31,0,0,1,1.86,2.57,3.39,3.39,0,0,1,2.14-2,9.14,9.14,0,0,1,3.79-.08l-.25,1.68a3.4,3.4,0,0,0-1.59.35,2.79,2.79,0,0,0-1,.93,4.59,4.59,0,0,0-.57,1.42c-.13.55-.25,1.16-.35,1.83l-.3,8.75a1.92,1.92,0,0,0,.42.73,2.21,2.21,0,0,0,.56.43,5.07,5.07,0,0,0,.76.16l0,1.23a2.92,2.92,0,0,0-.78,0,1.77,1.77,0,0,0-.61.24,1,1,0,0,0-.41.69l-.38,11.41c0,.47,0,.92,0,1.37s-.05.91-.05,1.41a3.2,3.2,0,0,0,.58,1.69,4.06,4.06,0,0,0,2.11,1.22l0,1.71a14.66,14.66,0,0,1-2-.4,7.19,7.19,0,0,1-1.45-.56,4.14,4.14,0,0,1-1.1-.83,7.11,7.11,0,0,1-.94-1.26,4.05,4.05,0,0,1-1,1,3.13,3.13,0,0,1-1.11.51,6,6,0,0,1-1.48.13,17.23,17.23,0,0,1-2-.19l0-1.71a3.1,3.1,0,0,0,2-.48,2.49,2.49,0,0,0,.73-1.37l.49-14.72a1.24,1.24,0,0,0-.39-.65,4.62,4.62,0,0,0-.55-.35,1.43,1.43,0,0,0-.66-.15l0-1.23a1.74,1.74,0,0,0,.72.06,4.5,4.5,0,0,0,.55-.19.93.93,0,0,0,.44-.53l.24-7.68c-.27.64-.63,1.5-1.1,2.57s-1,2.27-1.57,3.58l-1.83,4.12-1.93,4.28c-.64,1.4-1.25,2.74-1.81,4s-1.07,2.34-1.52,3.24a23.48,23.48,0,0,0,.69,2.41,2.34,2.34,0,0,0,1.14,1.42,12.13,12.13,0,0,0,1.64.54l-.09,1.7a13.67,13.67,0,0,1-1.75-.36,4.31,4.31,0,0,1-1.26-.59,3.52,3.52,0,0,1-.95-1A7,7,0,0,1,773,584a4.71,4.71,0,0,1-2.26,1.89,7.64,7.64,0,0,1-3.18,0l.4-1.66a10.5,10.5,0,0,0,1.72,0,2.41,2.41,0,0,0,1.51-1,21.33,21.33,0,0,0,1.35-2.1c-.14-1-.3-2.16-.5-3.51s-.4-2.78-.59-4.29-.39-3-.58-4.59-.37-3-.55-4.43-.33-2.68-.47-3.85-.26-2.11-.36-2.84l-2,7.28a.93.93,0,0,0,.27.63,4.48,4.48,0,0,0,.47.33,1.63,1.63,0,0,0,.71.16ZM759.21,582c-.16.58.07.92.68,1a.87.87,0,0,0,1.05-.76q.24-.93-.57-1A1,1,0,0,0,759.21,582Zm7.23-26.18-6.13,24,.66.1,6.13-24Zm-.14-2.22a.78.78,0,0,0,.07.79.91.91,0,0,0,.64.39c.61.09,1-.21,1.23-.89s-.09-1-.73-1.07A1,1,0,0,0,766.3,553.64Zm20.48,32.45a1,1,0,0,0-.88-1.1c-.55-.08-.83.2-.86.84a.88.88,0,0,0,.79,1C786.44,587,786.76,586.69,786.78,586.09Zm.6-27.15-.66-.1-1,24.78.66.1Zm.78-2.08a1,1,0,0,0-.93-1.11c-.65-.09-1,.18-1,.82s.31,1.12.92,1.21a.92.92,0,0,0,.73-.19A.8.8,0,0,0,788.16,556.86Z"/><path class="cls-7" d="M804.35,583.82a5.62,5.62,0,0,0-.3,3.49c.3.93,1.25,1.53,2.86,1.79l-.06,1.75a6.77,6.77,0,0,1-3.28-.72,5,5,0,0,1-1.64-1.67,5.24,5.24,0,0,1-2,1.66,6.28,6.28,0,0,1-2.75.41l.06-1.74a5.54,5.54,0,0,0,2-.58,5.21,5.21,0,0,0,1.42-1.09,6.32,6.32,0,0,0,1-1.4,9.18,9.18,0,0,0,.61-1.49l4.1-11.65a.87.87,0,0,0-.64-.92,3.51,3.51,0,0,0-.67-.08l.23-.58.17-.68a2.79,2.79,0,0,0,.78-.08,2.57,2.57,0,0,0,.71-.3,1.75,1.75,0,0,0,.61-.67l3.3-9.28a4.36,4.36,0,0,0-.05-3.19c-.42-.82-1.35-1.26-2.8-1.31l.06-1.75a10.29,10.29,0,0,1,3.56.59,4.51,4.51,0,0,1,2,1.93,4.17,4.17,0,0,1,1.15-1.37,4.11,4.11,0,0,1,1.49-.67,8.27,8.27,0,0,1,1.76-.18q.93,0,2,.09l-.06,1.75A2.3,2.3,0,0,0,817.6,557a4.88,4.88,0,0,0-.1,3.15l2.47,9.53a2,2,0,0,0,.59.74,2.78,2.78,0,0,0,.66.37,1.78,1.78,0,0,0,.77.07l.13.7.19.59a2.56,2.56,0,0,0-.78.08,1.13,1.13,0,0,0-.47.33,1,1,0,0,0-.13.82l3,11.4a15.67,15.67,0,0,0,.68,2,5.63,5.63,0,0,0,.9,1.49,3.8,3.8,0,0,0,1.31,1,7.93,7.93,0,0,0,1.89.54l-.06,1.75a18.41,18.41,0,0,1-4.2-.59,4.46,4.46,0,0,1-2.77-1.92,4.4,4.4,0,0,1-2.41,1.75,12.59,12.59,0,0,1-3.74.33l0-1.75c1.62-.16,2.6-.68,2.94-1.55a5.87,5.87,0,0,0-.09-3.56L815.2,572l-6.59-.22Zm4.94-13.9,5.41.17-2.34-8.88ZM813.75,558a.82.82,0,0,0,.9.94c.55,0,.84-.28.85-.88s-.24-1-.79-1S813.78,557.38,813.75,558Zm.86,2.1,6.08,25.1.67,0-6.08-25.1Zm6,27a.81.81,0,0,0,.89.93c.55,0,.84-.27.86-.87s-.25-1-.8-1A.83.83,0,0,0,820.58,587.11Z"/><path class="cls-7" d="M851.67,580.1a10.68,10.68,0,0,0-2.6-4.49,33.64,33.64,0,0,0-3.82-3.3l.27.25a4.42,4.42,0,0,0-1.06-.54,2.21,2.21,0,0,0-.89-.13,2,2,0,0,0-.84.21,4.23,4.23,0,0,0-.52.35l-1.19-.93a1.27,1.27,0,0,0,.48-.62,1.65,1.65,0,0,0,0-.72,2.08,2.08,0,0,0-.5-1,15.81,15.81,0,0,1-2.57-2.74,10.31,10.31,0,0,1-1.64-3.54,6.86,6.86,0,0,1,0-3.21,7.82,7.82,0,0,1,1.66-3.27,9.69,9.69,0,0,1,3.32-2.52,11.6,11.6,0,0,1,5-1,9.77,9.77,0,0,1,4.18.74,6.62,6.62,0,0,1,2.77,2.28,7,7,0,0,1,2.87-2l.82,1.65a3.24,3.24,0,0,0-1.81,2,16.09,16.09,0,0,0-.58,2.69,5.74,5.74,0,0,1-.84,3.09,4.35,4.35,0,0,1-2.56,1.91,4.68,4.68,0,0,1-2,.13,3.52,3.52,0,0,1-1.62-.73A4.1,4.1,0,0,1,847,563.2a4.94,4.94,0,0,1-.48-1.91,3,3,0,0,0,1.62.37,2.61,2.61,0,0,0,1.39-.48,3.7,3.7,0,0,0,1-1.13,4.17,4.17,0,0,0,.49-1.6,4.71,4.71,0,0,0-.22-1.9,3.39,3.39,0,0,0-1.47-2,4.7,4.7,0,0,0-3.07-.44,5.67,5.67,0,0,0-2.38.78,5.62,5.62,0,0,0-1.78,1.68,5.32,5.32,0,0,0-.82,2.45,7.18,7.18,0,0,0,.42,3.08,7.52,7.52,0,0,0,1.14,2,15.18,15.18,0,0,0,1.85,2,3.93,3.93,0,0,0,1.15.65,2.54,2.54,0,0,0,.91.12,1.28,1.28,0,0,0,.61-.17,3.26,3.26,0,0,0,.39-.26l1.2.93a1.46,1.46,0,0,0-.32.66,1.37,1.37,0,0,0,0,.72,2.59,2.59,0,0,0,.55,1c.9.69,1.79,1.39,2.66,2.12a27.37,27.37,0,0,1,2.41,2.24,14.27,14.27,0,0,1,1.91,2.46,9.24,9.24,0,0,1,1.15,2.72,8.85,8.85,0,0,1,0,4,8.5,8.5,0,0,1-1.79,3.62,10.5,10.5,0,0,1-3.54,2.72,13.64,13.64,0,0,1-5.24,1.29,17.34,17.34,0,0,1-4.77-.42,9.35,9.35,0,0,1-4.26-2.1,5.69,5.69,0,0,1-1.28,1.36,5.34,5.34,0,0,1-1.83.86l-.83-1.65a2.4,2.4,0,0,0,1.22-1.14,4,4,0,0,0,.34-1.57,11.44,11.44,0,0,0-.08-1.74,9.9,9.9,0,0,1-.06-1.7,6.63,6.63,0,0,1,.92-3.49,4.58,4.58,0,0,1,2.76-2.11,3.76,3.76,0,0,1,1.92-.15,3.66,3.66,0,0,1,1.62.75,4,4,0,0,1,1.12,1.42,5.08,5.08,0,0,1,.49,1.91,3.09,3.09,0,0,0-1.57-.33,3.24,3.24,0,0,0-3,3.7,5.1,5.1,0,0,0,2.29,4,6.86,6.86,0,0,0,4.47.94,6.22,6.22,0,0,0,2.53-.87,6.49,6.49,0,0,0,2.07-2,7.25,7.25,0,0,0,1.11-2.91A8,8,0,0,0,851.67,580.1Zm-11.4-1.68a3,3,0,0,0-2.73,1.37,4.83,4.83,0,0,0-.51,3.78,6.66,6.66,0,0,1,.55-2.72,4.71,4.71,0,0,1,1.14-1.54A4.16,4.16,0,0,1,840.27,578.42Zm1.18-23.09a5.64,5.64,0,0,0-2.53,2.82,6.74,6.74,0,0,0-.51,3.06,6,6,0,0,0,.91,2.55,14.59,14.59,0,0,0,1.82,2.3,24,24,0,0,0,2.19,2c.76.61,1.42,1.18,2,1.71l2.18,1.94c.84.72,1.68,1.53,2.53,2.42a24.42,24.42,0,0,1,2.34,2.83,11.94,11.94,0,0,1,1.64,3.11,9.52,9.52,0,0,1,.42,3.8,5.4,5.4,0,0,1-1.91,3.63l.4-.14a4.94,4.94,0,0,0,1.24-1.62,6.74,6.74,0,0,0,.63-2,8.59,8.59,0,0,0,.1-2,10.15,10.15,0,0,0-.27-1.85,9.93,9.93,0,0,0-1.44-3.25,21.93,21.93,0,0,0-2.3-2.89,33.53,33.53,0,0,0-2.58-2.5l-2.34-2c-.55-.49-1.2-1-1.94-1.63a23.77,23.77,0,0,1-2.11-1.91,14.84,14.84,0,0,1-1.76-2.21,6.15,6.15,0,0,1-1-2.49,7.21,7.21,0,0,1,.26-2.94,6,6,0,0,1,2.47-3Zm9.13,8.89a3,3,0,0,0,2.72-1.37,4.83,4.83,0,0,0,.51-3.78,6.47,6.47,0,0,1-.55,2.72,4.94,4.94,0,0,1-1.09,1.53A4.53,4.53,0,0,1,850.58,564.22Z"/><path class="cls-7" d="M873.82,550.39a15.73,15.73,0,0,1,4.69,0,14.6,14.6,0,0,1,4.44,1.51,2.3,2.3,0,0,0,.88.3,3.29,3.29,0,0,0,.83,0,2.94,2.94,0,0,0,1-.37l.42-.28.34,2.26-.54.21a2.94,2.94,0,0,1-.7.19,2.26,2.26,0,0,1-1-.07,6.7,6.7,0,0,1,.91,2.79,7.5,7.5,0,0,1-.21,2.77,6.08,6.08,0,0,1-1.18,2.32,4.47,4.47,0,0,1-2.13,1.42,3.68,3.68,0,0,1-3.69-.47,4.91,4.91,0,0,1-1.67-3.29,2.39,2.39,0,0,0,1.79.49,2.34,2.34,0,0,0,1.5-1,5,5,0,0,0,.89-1.91,5.7,5.7,0,0,0,.05-2.26,4.15,4.15,0,0,0-1-2,4.47,4.47,0,0,0-2.22-1.27,7.63,7.63,0,0,0-3.66.09,6.66,6.66,0,0,0-3.32,1.84A10.65,10.65,0,0,0,868.1,557a18.76,18.76,0,0,0-1.2,4.53,26.55,26.55,0,0,0-.21,5.15,1.5,1.5,0,0,0,.37.75,1.23,1.23,0,0,0,.51.3,1.94,1.94,0,0,0,.68,0l.18,1.21a5.18,5.18,0,0,0-.75.17,1.84,1.84,0,0,0-.47.39.82.82,0,0,0-.15.72,30.9,30.9,0,0,0,1.56,6.07,22.25,22.25,0,0,0,2.67,5.12,12.11,12.11,0,0,0,3.64,3.42,7.16,7.16,0,0,0,4.57.95,4.81,4.81,0,0,0,3.1-1.56,7.53,7.53,0,0,0,1.68-3,7.66,7.66,0,0,0,.16-3.43A4.61,4.61,0,0,0,883,575a7,7,0,0,1,1.89-.61,3.2,3.2,0,0,1,2,.26,3.16,3.16,0,0,1,1.28,1.23,4.66,4.66,0,0,1,.58,1.79,7,7,0,0,1,0,2,6.43,6.43,0,0,1-1.17,2.94,10.48,10.48,0,0,1-2.27,2.24,12.54,12.54,0,0,1-2.87,1.53,19,19,0,0,1-3,.86,13.49,13.49,0,0,1-7-.43,14.41,14.41,0,0,1-5.41-3.4,18.08,18.08,0,0,1-3.73-5.47,24.94,24.94,0,0,1-2-6.65,1.44,1.44,0,0,0-.3-.79,1,1,0,0,0-.49-.27,1.63,1.63,0,0,0-.63,0l-.18-1.2a1.84,1.84,0,0,0,.69-.27,1.09,1.09,0,0,0,.42-.52,2.54,2.54,0,0,0,.19-1,21.3,21.3,0,0,1,.71-5.82,15.87,15.87,0,0,1,2.36-5.1,14.5,14.5,0,0,1,4.06-3.85A14.22,14.22,0,0,1,873.82,550.39Zm-10.17,19a28.08,28.08,0,0,0,1,4.38,30.4,30.4,0,0,0,1.85,4.5,21.48,21.48,0,0,0,2.57,3.93,11.51,11.51,0,0,0,3.17,2.74l.69.06a7.1,7.1,0,0,1-2.83-2.18,18.93,18.93,0,0,1-2.41-3.77,33.69,33.69,0,0,1-3-9.6,23.26,23.26,0,0,1-.24-4.71,21.87,21.87,0,0,1,.66-4.42,16.33,16.33,0,0,1,1.46-3.68,8.6,8.6,0,0,1,2.16-2.6l-.64.26a14.89,14.89,0,0,0-2.34,3.16,18,18,0,0,0-1.54,3.75,19.52,19.52,0,0,0-.72,4.05A17.8,17.8,0,0,0,863.65,569.34Zm16.76-7a3,3,0,0,0,2.76-1.27,4.8,4.8,0,0,0,.61-3.74,6.2,6.2,0,0,1-.59,2.66,5,5,0,0,1-1.18,1.52A4.08,4.08,0,0,1,880.41,562.38Z"/><path class="cls-7" d="M890.25,565.67l-.29-1.18a3,3,0,0,0,.77-.3,1.67,1.67,0,0,0,.54-.52,1.39,1.39,0,0,0,.19-.81,25.74,25.74,0,0,1-.06-6.55,16.43,16.43,0,0,1,1.59-5.45,12.56,12.56,0,0,1,3.13-4,11,11,0,0,1,4.53-2.28,11.58,11.58,0,0,1,5.06-.16,12.14,12.14,0,0,1,4.61,2,17.24,17.24,0,0,1,3.93,4,23.18,23.18,0,0,1,3,5.77v0a1.52,1.52,0,0,0,2.18,1.09l.3,1.19a1.91,1.91,0,0,0-.76.35,1.25,1.25,0,0,0-.44.57,1.75,1.75,0,0,0,0,1.07,27.86,27.86,0,0,1,.79,7.54,18,18,0,0,1-1.32,6.23,12.76,12.76,0,0,1-3.21,4.57,12,12,0,0,1-10.55,2.63,12.46,12.46,0,0,1-5-2.59,18.23,18.23,0,0,1-4.08-4.94,29.58,29.58,0,0,1-2.86-7,1.56,1.56,0,0,0-.49-.92,1.25,1.25,0,0,0-.65-.27A1.77,1.77,0,0,0,890.25,565.67Zm3.51-1a31.84,31.84,0,0,0,1.54,4.56,32.7,32.7,0,0,0,2.34,4.61,23.14,23.14,0,0,0,3,4,12,12,0,0,0,3.46,2.61h.69a7.45,7.45,0,0,1-3.07-2.08,21.68,21.68,0,0,1-2.83-3.81,38.34,38.34,0,0,1-4.08-9.89,26.22,26.22,0,0,1-.75-5,23.23,23.23,0,0,1,.18-4.69,18.69,18.69,0,0,1,1-4,8.05,8.05,0,0,1,1.88-2.93l-.62.32a16.54,16.54,0,0,0-2,3.55,19.16,19.16,0,0,0-1.13,4.09,23.07,23.07,0,0,0-.28,4.33A20.91,20.91,0,0,0,893.76,564.64Zm5.19-1.13a1.91,1.91,0,0,0-.76.35,1.19,1.19,0,0,0-.45.55,1.76,1.76,0,0,0-.06,1.05,43.11,43.11,0,0,0,2.31,6.7,20.89,20.89,0,0,0,2.86,4.78,9.51,9.51,0,0,0,3.24,2.67,5,5,0,0,0,6.24-1.56,9.16,9.16,0,0,0,1.59-3.86,21.79,21.79,0,0,0,.26-5.56,44.25,44.25,0,0,0-1.1-7,1.53,1.53,0,0,0-.52-.91,1.47,1.47,0,0,0-.68-.27,2,2,0,0,0-.84,0l-.29-1.19a1.87,1.87,0,0,0,.71-.34,1.45,1.45,0,0,0,.4-.62,1.7,1.7,0,0,0,0-1q-2-6.06-4.91-9.06T901,546.05q-3,.74-4.14,4.8a24.43,24.43,0,0,0-.1,10.36,1.37,1.37,0,0,0,1.09,1.15,2.06,2.06,0,0,0,.78,0Zm17.19-4.5a20.39,20.39,0,0,0-1.51-4.13,22.1,22.1,0,0,0-2.27-3.7,18.12,18.12,0,0,0-2.92-3.07,16.34,16.34,0,0,0-3.41-2.22h-.69a7.92,7.92,0,0,1,3,1.71,18.23,18.23,0,0,1,2.81,3.07,23.41,23.41,0,0,1,2.37,4.06,26.72,26.72,0,0,1,1.65,4.73,35.94,35.94,0,0,1,.89,5.27,36.33,36.33,0,0,1,.14,5.38,20.69,20.69,0,0,1-.72,4.68,7.35,7.35,0,0,1-1.73,3.28l.61-.32a11.73,11.73,0,0,0,1.84-3.93,23.88,23.88,0,0,0,.8-4.9,33.09,33.09,0,0,0-.1-5.17A31.82,31.82,0,0,0,916.14,559Z"/><path class="cls-7" d="M937.36,533.31a13.32,13.32,0,0,1,4.57-1.36,13.71,13.71,0,0,1,4.73.57,4.41,4.41,0,0,0,1.29.15,3.15,3.15,0,0,0,.95-.18,2.34,2.34,0,0,0,.77-.44l.78,2.14a5.66,5.66,0,0,1-.56.29,2.43,2.43,0,0,1-.75.19,8,8,0,0,1,1.46,2.57A7.43,7.43,0,0,1,951,540a5.49,5.49,0,0,1-.64,2.44,3.68,3.68,0,0,1-1.72,1.61,4.09,4.09,0,0,1-3.76.21,4.65,4.65,0,0,1-2.23-2.83,2.25,2.25,0,0,0,2,0,3.16,3.16,0,0,0,1.62-1.95,5,5,0,0,0,.07-2.73,5.39,5.39,0,0,0-1.36-2.47,3.63,3.63,0,0,0-2.63-1.11,5.5,5.5,0,0,0-2.06.36,5.16,5.16,0,0,0-1.79,1.1,5.66,5.66,0,0,0-1.22,1.69,5.53,5.53,0,0,0-.51,2.07,6,6,0,0,0,.38,2.32l2.8,7.68a1.53,1.53,0,0,0,.57.83,1.23,1.23,0,0,0,.74.22,2.1,2.1,0,0,0,.83-.14l.4,1.1a2.12,2.12,0,0,0-.72.43,1.26,1.26,0,0,0-.44.61,1.65,1.65,0,0,0,.1,1l3.74,10.27a10.4,10.4,0,0,0,.79,1.71,4.23,4.23,0,0,0,1.06,1.25,3.22,3.22,0,0,0,1.52.64,5.45,5.45,0,0,0,2.12-.13l.58,1.6a16.13,16.13,0,0,1-4,1,4.34,4.34,0,0,1-3.09-.82,4.42,4.42,0,0,1-1.84,2.62,16.94,16.94,0,0,1-3.72,1.84l-.58-1.6a4.1,4.1,0,0,0,2.4-2.74,6.84,6.84,0,0,0-.44-3.45l-3.73-10.27a1.64,1.64,0,0,0-.59-.86,1.21,1.21,0,0,0-.68-.2,2.22,2.22,0,0,0-.87.15l-.4-1.1a2.69,2.69,0,0,0,.77-.45,1.26,1.26,0,0,0,.37-.62,1.6,1.6,0,0,0-.09-1l-2.79-7.67a6,6,0,0,0-1.2-2,5.68,5.68,0,0,0-1.73-1.27,5.56,5.56,0,0,0-2-.5,5.11,5.11,0,0,0-2.08.3,5.48,5.48,0,0,0-1.81,1.06,3.56,3.56,0,0,0-1.29,2.53,5.28,5.28,0,0,0,.54,2.77,4.9,4.9,0,0,0,1.81,2,3.09,3.09,0,0,0,2.49.45,2.24,2.24,0,0,0,1.53-1.23,4.7,4.7,0,0,1,.1,3.6,4.1,4.1,0,0,1-3,2.26,3.78,3.78,0,0,1-2.39-.15,5.46,5.46,0,0,1-2.07-1.48,7.85,7.85,0,0,1-1.42-2.39,8.12,8.12,0,0,1-.53-2.91,2.29,2.29,0,0,1-.7.43,2.2,2.2,0,0,1-.69.13l-.78-2.14a2.27,2.27,0,0,0,.88-.15,4.05,4.05,0,0,0,.86-.48,3.45,3.45,0,0,0,.87-.94,12.86,12.86,0,0,1,3.32-3.52,14,14,0,0,1,4.41-1.89,16.09,16.09,0,0,1,2.85-.53,5.49,5.49,0,0,1,3.09.74,5.42,5.42,0,0,1,1.89-2.55A16.24,16.24,0,0,1,937.36,533.31ZM926,550.81a4,4,0,0,1-1.79,0,4.72,4.72,0,0,1-1.74-.78,7,7,0,0,1-1.81-2.05,4.73,4.73,0,0,0,2.32,3A3,3,0,0,0,926,550.81ZM932.46,539c.25.66.67.88,1.28.66a.9.9,0,0,0,.56-1.33,1,1,0,1,0-1.84.67Zm1.39,1.86,8.64,23.73.63-.23-8.64-23.73ZM942.76,567a.81.81,0,0,0,1.18.54.77.77,0,0,0,.46-1.13c-.22-.6-.58-.81-1.1-.62A.83.83,0,0,0,942.76,567Zm4.46-23.86a3,3,0,0,0,2.45-1.8,4.74,4.74,0,0,0-.15-3.78,6.12,6.12,0,0,1,0,2.73,4.94,4.94,0,0,1-.85,1.72A4.09,4.09,0,0,1,947.22,543.1Z"/><path class="cls-7" d="M975.55,546a10.73,10.73,0,0,0-4.08-3.2,31.85,31.85,0,0,0-4.76-1.65l.34.13a4.41,4.41,0,0,0-1.19-.11,2.14,2.14,0,0,0-.87.2,2.08,2.08,0,0,0-.7.51,2.63,2.63,0,0,0-.35.52l-1.46-.43a1.2,1.2,0,0,0,.22-.75,1.64,1.64,0,0,0-.24-.68,2.1,2.1,0,0,0-.84-.75,15.76,15.76,0,0,1-3.4-1.59,10.51,10.51,0,0,1-2.83-2.68,6.92,6.92,0,0,1-1.14-3,7.93,7.93,0,0,1,.33-3.65,9.78,9.78,0,0,1,2.16-3.57,11.77,11.77,0,0,1,4.28-2.81,9.56,9.56,0,0,1,4.16-.85,6.59,6.59,0,0,1,3.41,1.08,7.17,7.17,0,0,1,1.94-2.9l1.37,1.22a3.26,3.26,0,0,0-.95,2.51,15.06,15.06,0,0,0,.46,2.71,5.84,5.84,0,0,1,.36,3.18,4.4,4.4,0,0,1-1.68,2.73,4.77,4.77,0,0,1-1.79.84,3.43,3.43,0,0,1-1.77-.07,4.2,4.2,0,0,1-1.57-.9,5.17,5.17,0,0,1-1.15-1.6,3,3,0,0,0,1.65-.25,2.67,2.67,0,0,0,1.11-1,3.42,3.42,0,0,0,.52-1.42,4,4,0,0,0-.13-1.66,4.59,4.59,0,0,0-.91-1.69,3.37,3.37,0,0,0-2.09-1.29,4.66,4.66,0,0,0-3,.72,5.74,5.74,0,0,0-1.92,1.61,5.39,5.39,0,0,0-1,2.21,5.31,5.31,0,0,0,.13,2.58,7.35,7.35,0,0,0,1.54,2.71,7.51,7.51,0,0,0,1.8,1.46,15.23,15.23,0,0,0,2.46,1.16,4.26,4.26,0,0,0,1.3.18,2.59,2.59,0,0,0,.9-.22,1.32,1.32,0,0,0,.5-.39,2.8,2.8,0,0,0,.27-.39l1.46.43a1.5,1.5,0,0,0-.06.73,1.42,1.42,0,0,0,.29.66,2.48,2.48,0,0,0,.88.72c1.09.31,2.18.64,3.26,1a29.05,29.05,0,0,1,3.06,1.19,14.62,14.62,0,0,1,2.69,1.58,9.36,9.36,0,0,1,2.07,2.1,8.85,8.85,0,0,1,1.54,3.73,8.47,8.47,0,0,1-.33,4,10.68,10.68,0,0,1-2.28,3.84,13.61,13.61,0,0,1-4.39,3.13,16.86,16.86,0,0,1-4.59,1.38,9.39,9.39,0,0,1-4.74-.38,5.65,5.65,0,0,1-.69,1.74,5,5,0,0,1-1.38,1.47l-1.38-1.22a2.39,2.39,0,0,0,.72-1.51,4,4,0,0,0-.27-1.58,10.78,10.78,0,0,0-.72-1.6,9,9,0,0,1-.68-1.55,6.51,6.51,0,0,1-.43-3.58,4.58,4.58,0,0,1,1.78-3,3.66,3.66,0,0,1,3.51-.75,4,4,0,0,1,1.57.9,5,5,0,0,1,1.15,1.59,3.07,3.07,0,0,0-1.58.28,3.26,3.26,0,0,0-1.63,1.8,3.18,3.18,0,0,0,.24,2.73,5.14,5.14,0,0,0,3.63,2.92,6.83,6.83,0,0,0,4.5-.78,6.06,6.06,0,0,0,2-1.74,6.59,6.59,0,0,0,1.19-2.59,7.32,7.32,0,0,0,0-3.12A8.07,8.07,0,0,0,975.55,546ZM956.9,526.81a5.67,5.67,0,0,0-1.31,3.55,6.73,6.73,0,0,0,.66,3,5.84,5.84,0,0,0,1.79,2,13.21,13.21,0,0,0,2.54,1.46,22.69,22.69,0,0,0,2.77,1q1.39.44,2.46.87l2.74,1a34.93,34.93,0,0,1,3.24,1.31,26.56,26.56,0,0,1,3.23,1.76,12.44,12.44,0,0,1,2.67,2.29,9.7,9.7,0,0,1,1.8,3.38,5.37,5.37,0,0,1-.44,4.07l.33-.27a5.18,5.18,0,0,0,.55-2,6.73,6.73,0,0,0-.14-2,9,9,0,0,0-.65-1.92,11,11,0,0,0-.93-1.61,10.07,10.07,0,0,0-2.55-2.49,22.5,22.5,0,0,0-3.2-1.84c-1.12-.52-2.23-1-3.32-1.36l-2.93-1c-.69-.26-1.5-.53-2.4-.8a23.17,23.17,0,0,1-2.67-1,14.79,14.79,0,0,1-2.45-1.4,5.93,5.93,0,0,1-1.81-2,7,7,0,0,1-.85-2.82,6,6,0,0,1,1.18-3.73Zm7.43,21.89a3,3,0,0,0-2,2.28,4.81,4.81,0,0,0,.92,3.7,6.47,6.47,0,0,1-.49-2.73,4.51,4.51,0,0,1,.49-1.85A4.2,4.2,0,0,1,964.33,548.7Zm4.33-17a3,3,0,0,0,2-2.28,4.89,4.89,0,0,0-.92-3.7,6.64,6.64,0,0,1,.49,2.73,4.8,4.8,0,0,1-.45,1.82A4.4,4.4,0,0,1,968.66,531.7Z"/><path class="cls-8" d="M765.88,567.17a1.4,1.4,0,0,0-.67,0,4.86,4.86,0,0,0-.6.18,1.23,1.23,0,0,0-.59.5l-3.17,12c-.16.62-.29,1.19-.4,1.71a3.84,3.84,0,0,0-.08,1.41,1.82,1.82,0,0,0,.55,1.08,2.88,2.88,0,0,0,1.46.64l-.45,1.65a9.72,9.72,0,0,1-3.35-.95,4,4,0,0,1-1.57-2,7.19,7.19,0,0,1-1.26.94,4.18,4.18,0,0,1-1.29.48,6.42,6.42,0,0,1-1.56.12,15.32,15.32,0,0,1-2-.19l.45-1.65a4.16,4.16,0,0,0,2-.34,2.7,2.7,0,0,0,1.06-1,5.47,5.47,0,0,0,.55-1.5q.21-.89.51-1.86l2.93-11a1.09,1.09,0,0,0-.2-.78,1.68,1.68,0,0,0-.52-.4,2.45,2.45,0,0,0-.74-.21l.33-1.19a5.3,5.3,0,0,0,.77.06,2.53,2.53,0,0,0,.69-.25,1.41,1.41,0,0,0,.58-.58l2.23-8.47a9,9,0,0,0,.29-1.78,4.83,4.83,0,0,0-.16-1.55,2.91,2.91,0,0,0-.71-1.2,3.63,3.63,0,0,0-1.45-.81l.25-1.67a8.76,8.76,0,0,1,3.67,1.21,2,2,0,1,0,3.88.57,11.06,11.06,0,0,1,4.17-.06l-.25,1.68a3.07,3.07,0,0,0-2,.56,4.74,4.74,0,0,0-1.24,1.53c.1.7.22,1.61.35,2.73s.27,2.39.43,3.79.33,2.9.51,4.5.37,3.19.58,4.78.4,3.14.61,4.67.43,2.94.65,4.23c.89-1.77,1.82-3.76,2.81-6s1.94-4.41,2.87-6.58,1.77-4.17,2.54-6,1.37-3.22,1.79-4.16a5.13,5.13,0,0,0-.72-1.88,3,3,0,0,0-1.76-1.12l.25-1.67a12,12,0,0,1,4,1.23,3.27,3.27,0,0,1,1.86,2.57,3.39,3.39,0,0,1,2.14-2,9.14,9.14,0,0,1,3.79-.08l-.25,1.68a3.29,3.29,0,0,0-1.59.35,2.76,2.76,0,0,0-1,.93,4.85,4.85,0,0,0-.58,1.42c-.13.55-.25,1.16-.34,1.83l-.3,8.74a1.83,1.83,0,0,0,.41.74,2.4,2.4,0,0,0,.56.43,5.35,5.35,0,0,0,.76.16l0,1.23a2.92,2.92,0,0,0-.78,0,1.91,1.91,0,0,0-.6.23,1.11,1.11,0,0,0-.42.69l-.37,11.42c0,.47,0,.92,0,1.37s-.05.91-.05,1.41a3.2,3.2,0,0,0,.58,1.69,4.06,4.06,0,0,0,2.12,1.22l-.05,1.71a14.48,14.48,0,0,1-2-.4,7.06,7.06,0,0,1-1.46-.56,4.3,4.3,0,0,1-1.1-.83,7.1,7.1,0,0,1-.93-1.26,4.69,4.69,0,0,1-1,1,3.17,3.17,0,0,1-1.12.51,5.94,5.94,0,0,1-1.48.13,17.42,17.42,0,0,1-2-.19l0-1.71a3.2,3.2,0,0,0,2.05-.48,2.42,2.42,0,0,0,.72-1.37l.5-14.72a1.32,1.32,0,0,0-.4-.65,3.94,3.94,0,0,0-.55-.35,1.38,1.38,0,0,0-.65-.15l0-1.23a1.58,1.58,0,0,0,.72.05,3.2,3.2,0,0,0,.55-.18.89.89,0,0,0,.44-.53l.25-7.68c-.27.64-.64,1.5-1.11,2.57s-1,2.27-1.57,3.58-1.18,2.68-1.83,4.12-1.29,2.87-1.93,4.28-1.24,2.74-1.81,4-1.07,2.34-1.52,3.24a23.48,23.48,0,0,0,.69,2.41,2.42,2.42,0,0,0,1.15,1.42,11.51,11.51,0,0,0,1.63.54l-.09,1.7a13.14,13.14,0,0,1-1.74-.36,4.65,4.65,0,0,1-1.27-.59,3.66,3.66,0,0,1-.95-1,6.85,6.85,0,0,1-.74-1.51,4.64,4.64,0,0,1-2.26,1.9,7.64,7.64,0,0,1-3.18,0l.4-1.66a11.71,11.71,0,0,0,1.72,0,2.38,2.38,0,0,0,1.51-1,19.63,19.63,0,0,0,1.35-2.1c-.13-1-.3-2.16-.5-3.51s-.4-2.78-.59-4.3-.39-3-.57-4.58-.38-3-.55-4.43-.34-2.68-.48-3.85-.26-2.11-.36-2.84l-2,7.27a.81.81,0,0,0,.27.63,2.94,2.94,0,0,0,.47.34,1.59,1.59,0,0,0,.7.16ZM756.46,582a.73.73,0,0,0,.69,1,.88.88,0,0,0,1.05-.76c.16-.62,0-1-.58-1A.94.94,0,0,0,756.46,582Zm7.24-26.17-6.14,24,.66.1,6.14-24Zm-.15-2.22a.81.81,0,0,0,.07.79.93.93,0,0,0,.64.39c.62.09,1-.21,1.23-.89s-.08-1-.73-1.08A1,1,0,0,0,763.55,553.64ZM784,586.09a1,1,0,0,0-.88-1.1c-.54-.08-.83.2-.85.84a.87.87,0,0,0,.78,1C783.69,587,784,586.69,784,586.09Zm.61-27.15-.66-.1-1,24.78.66.1Zm.77-2.08a1,1,0,0,0-.93-1.11c-.64-.09-1,.18-1,.82s.3,1.12.91,1.21a1,1,0,0,0,.73-.19A.78.78,0,0,0,785.41,556.86Z"/><path class="cls-8" d="M801.6,583.82a5.54,5.54,0,0,0-.29,3.49c.29.93,1.24,1.53,2.85,1.79l-.06,1.75a6.7,6.7,0,0,1-3.27-.72,5.16,5.16,0,0,1-1.65-1.67,5.24,5.24,0,0,1-2,1.66,6.26,6.26,0,0,1-2.74.41l0-1.75a5.34,5.34,0,0,0,2-.57,5.26,5.26,0,0,0,1.43-1.09,6.62,6.62,0,0,0,1-1.4,9.92,9.92,0,0,0,.62-1.5l4.09-11.64a.88.88,0,0,0-.64-.93,4.31,4.31,0,0,0-.66-.07l.22-.58.18-.68a2.76,2.76,0,0,0,.77-.08,2.45,2.45,0,0,0,.71-.3,1.68,1.68,0,0,0,.61-.67l3.3-9.28a4.26,4.26,0,0,0-.05-3.19c-.42-.83-1.35-1.26-2.79-1.31l.06-1.75a10.34,10.34,0,0,1,3.56.59,4.49,4.49,0,0,1,2,1.93,4.17,4.17,0,0,1,1.15-1.37,4.09,4.09,0,0,1,1.5-.67,8.24,8.24,0,0,1,1.75-.18c.62,0,1.29,0,2,.09l-.06,1.75c-1.23,0-2,.33-2.4,1.12a4.87,4.87,0,0,0-.11,3.15l2.47,9.53a2,2,0,0,0,.59.74,3.79,3.79,0,0,0,.66.37,2,2,0,0,0,.77.07l.13.7.19.59a2.56,2.56,0,0,0-.78.08,1.13,1.13,0,0,0-.47.33,1,1,0,0,0-.13.82l3,11.4a17.34,17.34,0,0,0,.68,2,5.4,5.4,0,0,0,.91,1.49,3.76,3.76,0,0,0,1.3,1,7.93,7.93,0,0,0,1.89.54l0,1.75a18.42,18.42,0,0,1-4.21-.59,4.48,4.48,0,0,1-2.77-1.92,4.41,4.41,0,0,1-2.4,1.75,12.7,12.7,0,0,1-3.75.33l.06-1.75c1.62-.16,2.6-.68,2.93-1.55a5.94,5.94,0,0,0-.08-3.56L812.46,572l-6.59-.22Zm4.94-13.91,5.41.18-2.33-8.88ZM811,558c0,.61.28.91.9.94s.83-.28.85-.88-.24-1-.79-1A.83.83,0,0,0,811,558Zm.86,2.1,6.07,25.09.67,0-6.07-25.1Zm6,27a.81.81,0,0,0,.9.93c.55,0,.83-.27.85-.87s-.24-1-.79-1A.83.83,0,0,0,817.83,587.11Z"/><path class="cls-8" d="M849,580.1a10.69,10.69,0,0,0-2.61-4.49,33.78,33.78,0,0,0-3.82-3.3l.28.25a4.47,4.47,0,0,0-1.07-.54,2.17,2.17,0,0,0-.88-.13,1.92,1.92,0,0,0-.84.21,3.1,3.1,0,0,0-.52.35l-1.2-.93a1.22,1.22,0,0,0,.48-.62,1.65,1.65,0,0,0,0-.72,2,2,0,0,0-.5-1,15.81,15.81,0,0,1-2.57-2.74,10.5,10.5,0,0,1-1.64-3.54,7,7,0,0,1,.06-3.22,7.94,7.94,0,0,1,1.65-3.26,9.69,9.69,0,0,1,3.32-2.52,11.6,11.6,0,0,1,5-1,9.48,9.48,0,0,1,4.18.74,6.61,6.61,0,0,1,2.77,2.27,7.1,7.1,0,0,1,2.87-2l.83,1.64a3.27,3.27,0,0,0-1.82,2,15.13,15.13,0,0,0-.57,2.69,5.77,5.77,0,0,1-.84,3.08,4.34,4.34,0,0,1-2.57,1.92,4.52,4.52,0,0,1-2,.12,3.5,3.5,0,0,1-1.62-.72,4.1,4.1,0,0,1-1.12-1.41,5.32,5.32,0,0,1-.48-1.91,3,3,0,0,0,1.63.37,2.67,2.67,0,0,0,1.39-.48,3.67,3.67,0,0,0,1-1.13,4,4,0,0,0,.49-1.6,4.52,4.52,0,0,0-.22-1.9,3.39,3.39,0,0,0-1.47-2,4.75,4.75,0,0,0-3.07-.45,5.88,5.88,0,0,0-2.38.79,5.48,5.48,0,0,0-1.77,1.68,5.22,5.22,0,0,0-.83,2.45,7.34,7.34,0,0,0,.42,3.08,7.52,7.52,0,0,0,1.14,2,14.57,14.57,0,0,0,1.85,2,3.89,3.89,0,0,0,1.15.64,2.36,2.36,0,0,0,.91.13,1.25,1.25,0,0,0,.61-.17c.17-.1.3-.19.4-.26l1.19.93a1.46,1.46,0,0,0-.32.66,1.37,1.37,0,0,0,0,.72,2.66,2.66,0,0,0,.55,1c.91.69,1.79,1.39,2.67,2.12a28.86,28.86,0,0,1,2.41,2.24,15.33,15.33,0,0,1,1.91,2.46,9.87,9.87,0,0,1,1.15,2.71,8.9,8.9,0,0,1,0,4,8.48,8.48,0,0,1-1.78,3.62,10.78,10.78,0,0,1-3.55,2.72,13.59,13.59,0,0,1-5.23,1.29,17.38,17.38,0,0,1-4.78-.42,9.4,9.4,0,0,1-4.26-2.1,5.5,5.5,0,0,1-1.28,1.36,5.34,5.34,0,0,1-1.83.86l-.82-1.65a2.38,2.38,0,0,0,1.21-1.14,4.05,4.05,0,0,0,.35-1.57,12.93,12.93,0,0,0-.09-1.74,9,9,0,0,1-.05-1.7,6.53,6.53,0,0,1,.91-3.49,4.58,4.58,0,0,1,2.76-2.11,3.79,3.79,0,0,1,1.93-.15,3.66,3.66,0,0,1,1.62.75,4.14,4.14,0,0,1,1.12,1.42,5.27,5.27,0,0,1,.48,1.91,3.07,3.07,0,0,0-1.57-.33,3.23,3.23,0,0,0-2.18,1.07,3.19,3.19,0,0,0-.79,2.63,5.11,5.11,0,0,0,2.3,4,6.89,6.89,0,0,0,4.47.94,6.23,6.23,0,0,0,2.52-.87,6.49,6.49,0,0,0,2.07-2,7.25,7.25,0,0,0,1.11-2.91A7.9,7.9,0,0,0,849,580.1Zm-11.41-1.68a3,3,0,0,0-2.73,1.37,4.91,4.91,0,0,0-.51,3.78,6.63,6.63,0,0,1,.55-2.72,4.59,4.59,0,0,1,1.15-1.54A4.12,4.12,0,0,1,837.54,578.42Zm1.18-23.09a5.64,5.64,0,0,0-2.53,2.82,6.59,6.59,0,0,0-.5,3.06,5.93,5.93,0,0,0,.9,2.55,14.66,14.66,0,0,0,1.83,2.3,21.61,21.61,0,0,0,2.19,2c.76.61,1.41,1.18,2,1.71s1.35,1.21,2.19,1.94,1.67,1.53,2.52,2.41a26.52,26.52,0,0,1,2.35,2.83,12.63,12.63,0,0,1,1.64,3.12,9.89,9.89,0,0,1,.42,3.8,5.45,5.45,0,0,1-1.92,3.63l.41-.14a5.19,5.19,0,0,0,1.24-1.62,7,7,0,0,0,.62-2,9.23,9.23,0,0,0,.11-2,10,10,0,0,0-1.72-5.1,22.61,22.61,0,0,0-2.29-2.88,35.55,35.55,0,0,0-2.59-2.5l-2.34-2c-.55-.5-1.19-1-1.94-1.63a21.14,21.14,0,0,1-2.1-1.92,14.34,14.34,0,0,1-1.77-2.2,6,6,0,0,1-.95-2.49,7.2,7.2,0,0,1,.25-2.94,6,6,0,0,1,2.47-3Zm9.13,8.89a3,3,0,0,0,2.72-1.37,4.83,4.83,0,0,0,.51-3.78,6.47,6.47,0,0,1-.55,2.72,4.78,4.78,0,0,1-1.09,1.53A4.53,4.53,0,0,1,847.85,564.22Z"/><path class="cls-8" d="M871.08,550.39a15.33,15.33,0,0,1,4.68,0,14.63,14.63,0,0,1,4.45,1.5,2.26,2.26,0,0,0,.87.3,3.27,3.27,0,0,0,.83,0,2.87,2.87,0,0,0,1-.37c.16-.09.3-.19.43-.28l.34,2.26-.54.21a2.64,2.64,0,0,1-.7.19,2.24,2.24,0,0,1-1-.07,7,7,0,0,1,.91,2.79,8,8,0,0,1-.21,2.77A6,6,0,0,1,881,562a4.47,4.47,0,0,1-2.13,1.42,3.68,3.68,0,0,1-3.69-.46,4.94,4.94,0,0,1-1.66-3.3,2.38,2.38,0,0,0,1.79.49,2.34,2.34,0,0,0,1.49-1,4.81,4.81,0,0,0,.89-1.91,5.52,5.52,0,0,0,.05-2.26,4,4,0,0,0-1-2,4.47,4.47,0,0,0-2.22-1.27,7.63,7.63,0,0,0-3.66.09,6.62,6.62,0,0,0-3.32,1.84,10.67,10.67,0,0,0-2.2,3.41,18.31,18.31,0,0,0-1.19,4.53,26.54,26.54,0,0,0-.22,5.15,1.54,1.54,0,0,0,.37.75,1.26,1.26,0,0,0,.52.3,1.88,1.88,0,0,0,.67,0l.19,1.21a5,5,0,0,0-.76.17,1.8,1.8,0,0,0-.46.39.82.82,0,0,0-.15.72,29.56,29.56,0,0,0,1.56,6.07,21.31,21.31,0,0,0,2.67,5.12,12.13,12.13,0,0,0,3.63,3.43,7.25,7.25,0,0,0,4.57.95,4.84,4.84,0,0,0,3.1-1.57,7.42,7.42,0,0,0,1.68-3,7.52,7.52,0,0,0,.16-3.43,4.55,4.55,0,0,0-1.45-2.73,7,7,0,0,1,1.89-.61,3.18,3.18,0,0,1,2,.26,3.1,3.1,0,0,1,1.28,1.23,4.5,4.5,0,0,1,.58,1.79,6.64,6.64,0,0,1,0,2,6.38,6.38,0,0,1-1.17,2.94,10.05,10.05,0,0,1-2.27,2.24,12,12,0,0,1-2.87,1.53,17.48,17.48,0,0,1-3,.86,13.51,13.51,0,0,1-7-.43,14.48,14.48,0,0,1-5.4-3.39A18.28,18.28,0,0,1,860.5,578a25.31,25.31,0,0,1-2-6.65,1.44,1.44,0,0,0-.3-.79,1,1,0,0,0-.48-.27,1.63,1.63,0,0,0-.63,0L857,569a1.91,1.91,0,0,0,.69-.27,1,1,0,0,0,.41-.52,2.54,2.54,0,0,0,.19-1,21.75,21.75,0,0,1,.72-5.82,15.66,15.66,0,0,1,2.36-5.1,14.46,14.46,0,0,1,4-3.85A14.27,14.27,0,0,1,871.08,550.39Zm-10.18,19a29.54,29.54,0,0,0,1.05,4.37,30.35,30.35,0,0,0,1.84,4.5,22,22,0,0,0,2.57,3.93,11.68,11.68,0,0,0,3.18,2.74l.68.06a7.17,7.17,0,0,1-2.83-2.18A19.6,19.6,0,0,1,865,579a32.33,32.33,0,0,1-1.88-4.71,32.86,32.86,0,0,1-1.15-4.9,24.8,24.8,0,0,1-.24-4.71,21.18,21.18,0,0,1,.67-4.42,16.05,16.05,0,0,1,1.45-3.67A8.82,8.82,0,0,1,866,554l-.63.26a14.07,14.07,0,0,0-2.34,3.17,17.77,17.77,0,0,0-1.55,3.74,19.52,19.52,0,0,0-.72,4.05A19.09,19.09,0,0,0,860.9,569.35Zm16.77-7a3,3,0,0,0,2.75-1.27,4.76,4.76,0,0,0,.61-3.74,6.2,6.2,0,0,1-.59,2.66,4.75,4.75,0,0,1-1.18,1.52A4,4,0,0,1,877.67,562.38Z"/><path class="cls-8" d="M887.51,565.67l-.3-1.18a3.09,3.09,0,0,0,.78-.3,1.64,1.64,0,0,0,.53-.52,1.37,1.37,0,0,0,.19-.81,26.69,26.69,0,0,1-.06-6.55,17,17,0,0,1,1.59-5.45,12.45,12.45,0,0,1,3.14-4,10.91,10.91,0,0,1,4.53-2.28,11.53,11.53,0,0,1,5.05-.16,12.07,12.07,0,0,1,4.61,2,16.85,16.85,0,0,1,3.93,4,23.2,23.2,0,0,1,3,5.77l0,0a1.53,1.53,0,0,0,2.19,1.09l.29,1.19a2,2,0,0,0-.76.35,1.25,1.25,0,0,0-.44.57,1.75,1.75,0,0,0,0,1.07,27.47,27.47,0,0,1,.79,7.54,18,18,0,0,1-1.32,6.23,12.64,12.64,0,0,1-3.21,4.57,12.07,12.07,0,0,1-10.55,2.63,12.52,12.52,0,0,1-5-2.59,18,18,0,0,1-4.07-4.94,29.17,29.17,0,0,1-2.86-7,1.57,1.57,0,0,0-.5-.92,1.21,1.21,0,0,0-.65-.27A1.74,1.74,0,0,0,887.51,565.67Zm3.51-1a33,33,0,0,0,1.53,4.56,33.81,33.81,0,0,0,2.34,4.61,24.21,24.21,0,0,0,3,4,11.85,11.85,0,0,0,3.47,2.6H902a7.49,7.49,0,0,1-3.06-2.08,21.19,21.19,0,0,1-2.83-3.81,37.42,37.42,0,0,1-4.08-9.89,26.24,26.24,0,0,1-.76-5,23.21,23.21,0,0,1,.19-4.69,17.6,17.6,0,0,1,1-4,8,8,0,0,1,1.87-2.93l-.61.32a15.72,15.72,0,0,0-2,3.55,18.68,18.68,0,0,0-1.14,4.08,22.41,22.41,0,0,0-.27,4.34A20.36,20.36,0,0,0,891,564.64Zm5.18-1.13a2,2,0,0,0-.76.35,1.33,1.33,0,0,0-.45.55,1.85,1.85,0,0,0,0,1.05,42.12,42.12,0,0,0,2.3,6.7,21,21,0,0,0,2.86,4.78,9.51,9.51,0,0,0,3.24,2.67,5,5,0,0,0,6.25-1.56,9.29,9.29,0,0,0,1.58-3.86,21.79,21.79,0,0,0,.26-5.56,42.06,42.06,0,0,0-1.1-7,1.48,1.48,0,0,0-.52-.91,1.43,1.43,0,0,0-.68-.27,2,2,0,0,0-.83,0l-.3-1.19a1.74,1.74,0,0,0,.71-.34,1.47,1.47,0,0,0,.41-.62,1.71,1.71,0,0,0,0-1,24.15,24.15,0,0,0-4.9-9.06q-2.88-3-5.92-2.24t-4.14,4.8a24.26,24.26,0,0,0-.1,10.36,1.45,1.45,0,0,0,.48.86,1.38,1.38,0,0,0,.6.29,2.11,2.11,0,0,0,.79,0Zm17.19-4.5a21,21,0,0,0-1.5-4.13,22.82,22.82,0,0,0-2.28-3.7,18.93,18.93,0,0,0-2.91-3.08,16.76,16.76,0,0,0-3.42-2.21h-.69a8,8,0,0,1,3,1.71,18.66,18.66,0,0,1,2.81,3.07,23.38,23.38,0,0,1,2.36,4.06,26.74,26.74,0,0,1,1.66,4.73,36,36,0,0,1,.88,5.27,37.69,37.69,0,0,1,.15,5.37,21.87,21.87,0,0,1-.72,4.69,7.45,7.45,0,0,1-1.73,3.28l.61-.32a11.91,11.91,0,0,0,1.83-3.93,23.22,23.22,0,0,0,.8-4.9,34.35,34.35,0,0,0-.09-5.17A33.12,33.12,0,0,0,913.39,559Z"/><path class="cls-8" d="M934.61,533.31a13.37,13.37,0,0,1,4.58-1.36,13.71,13.71,0,0,1,4.73.57,4.39,4.39,0,0,0,1.28.15,3,3,0,0,0,.95-.18,2.2,2.2,0,0,0,.77-.45l.78,2.15a4,4,0,0,1-.55.28,2.18,2.18,0,0,1-.75.19,8.24,8.24,0,0,1,1.45,2.58,7.22,7.22,0,0,1,.43,2.75,5.5,5.5,0,0,1-.65,2.44,3.66,3.66,0,0,1-1.71,1.61,4.15,4.15,0,0,1-3.76.21,4.69,4.69,0,0,1-2.24-2.83,2.25,2.25,0,0,0,2,0,3.13,3.13,0,0,0,1.62-1.95,5,5,0,0,0,.08-2.73,5.36,5.36,0,0,0-1.37-2.47,3.61,3.61,0,0,0-2.62-1.11,5.5,5.5,0,0,0-2.06.36,4.93,4.93,0,0,0-1.79,1.1,5.52,5.52,0,0,0-1.23,1.69,5.62,5.62,0,0,0-.5,2.07,5.85,5.85,0,0,0,.38,2.32l2.79,7.68a1.64,1.64,0,0,0,.58.83,1.13,1.13,0,0,0,.73.21,1.9,1.9,0,0,0,.83-.13l.4,1.1a2,2,0,0,0-.72.43,1.24,1.24,0,0,0-.43.61,1.58,1.58,0,0,0,.1,1l3.74,10.26a10.51,10.51,0,0,0,.79,1.72,4.19,4.19,0,0,0,1,1.25,3.22,3.22,0,0,0,1.52.64,5.45,5.45,0,0,0,2.12-.13l.58,1.6a16,16,0,0,1-4,1,2.8,2.8,0,0,0-4.94,1.8,16.1,16.1,0,0,1-3.72,1.83l-.58-1.59a4.14,4.14,0,0,0,2.41-2.74,7,7,0,0,0-.44-3.45l-3.74-10.27a1.58,1.58,0,0,0-.58-.86,1.34,1.34,0,0,0-.68-.21,2.67,2.67,0,0,0-.88.15l-.4-1.09a2.56,2.56,0,0,0,.77-.45,1.27,1.27,0,0,0,.38-.62,1.61,1.61,0,0,0-.1-1l-2.79-7.68a5.81,5.81,0,0,0-1.2-2,5.53,5.53,0,0,0-1.72-1.27,5.84,5.84,0,0,0-2-.51,5.09,5.09,0,0,0-2.08.31,5.53,5.53,0,0,0-1.81,1,3.6,3.6,0,0,0-1.3,2.54,5.43,5.43,0,0,0,.54,2.76,5,5,0,0,0,1.82,2,3.07,3.07,0,0,0,2.49.45,2.23,2.23,0,0,0,1.52-1.23,4.71,4.71,0,0,1,.11,3.6,4.11,4.11,0,0,1-3,2.25,3.68,3.68,0,0,1-2.38-.14,5.46,5.46,0,0,1-2.07-1.48,7.65,7.65,0,0,1-1.42-2.39,7.91,7.91,0,0,1-.54-2.91,1.9,1.9,0,0,1-.7.42,2,2,0,0,1-.68.14l-.78-2.14a2.65,2.65,0,0,0,.87-.15,4,4,0,0,0,.87-.49,3.38,3.38,0,0,0,.86-.93,13.22,13.22,0,0,1,3.32-3.53,13.79,13.79,0,0,1,4.41-1.88,16.09,16.09,0,0,1,2.85-.53,5.42,5.42,0,0,1,3.1.74,5.5,5.5,0,0,1,1.89-2.56A15.64,15.64,0,0,1,934.61,533.31Zm-11.33,17.5a3.91,3.91,0,0,1-1.8,0,4.58,4.58,0,0,1-1.73-.77,7.09,7.09,0,0,1-1.82-2.05,4.79,4.79,0,0,0,2.32,3A3,3,0,0,0,923.28,550.81ZM929.72,539c.24.67.67.89,1.28.67a.92.92,0,0,0,.56-1.34,1,1,0,1,0-1.84.67Zm1.39,1.87,8.64,23.73.62-.23-8.63-23.73ZM940,567a.8.8,0,0,0,1.18.53c.52-.19.67-.56.47-1.13s-.59-.8-1.11-.61A.83.83,0,0,0,940,567Zm4.47-23.86a3,3,0,0,0,2.44-1.8,4.77,4.77,0,0,0-.14-3.78,6.22,6.22,0,0,1,0,2.72,5.08,5.08,0,0,1-.85,1.73A4.29,4.29,0,0,1,944.48,543.1Z"/><path class="cls-8" d="M972.81,546a10.73,10.73,0,0,0-4.08-3.2,32,32,0,0,0-4.77-1.65l.35.13a4.07,4.07,0,0,0-1.19-.11,2.15,2.15,0,0,0-.88.2,2.08,2.08,0,0,0-.7.51,3.16,3.16,0,0,0-.35.52l-1.45-.43a1.26,1.26,0,0,0,.21-.75,1.75,1.75,0,0,0-.23-.68,2.25,2.25,0,0,0-.84-.75,15.33,15.33,0,0,1-3.4-1.59,10.36,10.36,0,0,1-2.83-2.68,7,7,0,0,1-1.14-3,7.93,7.93,0,0,1,.33-3.65,9.88,9.88,0,0,1,2.15-3.57,11.73,11.73,0,0,1,4.29-2.81,9.49,9.49,0,0,1,4.15-.85,6.65,6.65,0,0,1,3.42,1.08,7,7,0,0,1,1.93-2.9l1.38,1.22a3.23,3.23,0,0,0-1,2.51,15.06,15.06,0,0,0,.46,2.71,5.84,5.84,0,0,1,.36,3.18,4.38,4.38,0,0,1-1.67,2.72,4.68,4.68,0,0,1-1.8.85,3.43,3.43,0,0,1-1.77-.07,4.16,4.16,0,0,1-1.56-.9,5.19,5.19,0,0,1-1.16-1.6,3,3,0,0,0,1.65-.25,2.55,2.55,0,0,0,1.11-1,3.43,3.43,0,0,0,.53-1.42,4,4,0,0,0-.14-1.66,4.45,4.45,0,0,0-.91-1.69,3.43,3.43,0,0,0-2.09-1.3,4.75,4.75,0,0,0-3,.73,5.74,5.74,0,0,0-1.92,1.61,5.53,5.53,0,0,0-1,2.21,5.32,5.32,0,0,0,.14,2.58,7.24,7.24,0,0,0,3.34,4.17,14.31,14.31,0,0,0,2.45,1.16,4,4,0,0,0,1.31.17,2.33,2.33,0,0,0,.89-.21,1.18,1.18,0,0,0,.5-.39,2.8,2.8,0,0,0,.27-.39l1.46.43a1.39,1.39,0,0,0-.05.73,1.29,1.29,0,0,0,.28.66,2.57,2.57,0,0,0,.88.72c1.09.31,2.18.64,3.26,1a29.24,29.24,0,0,1,3.07,1.19,14.87,14.87,0,0,1,2.68,1.58,9.36,9.36,0,0,1,2.07,2.1,8.85,8.85,0,0,1,1.54,3.73,8.47,8.47,0,0,1-.32,4,10.71,10.71,0,0,1-2.29,3.84,13.5,13.5,0,0,1-4.39,3.13,16.75,16.75,0,0,1-4.59,1.38,9.35,9.35,0,0,1-4.73-.38,5.65,5.65,0,0,1-.69,1.74,4.94,4.94,0,0,1-1.39,1.47l-1.37-1.22a2.4,2.4,0,0,0,.71-1.51,4.19,4.19,0,0,0-.26-1.58,12.6,12.6,0,0,0-.73-1.6,9.89,9.89,0,0,1-.68-1.55,6.62,6.62,0,0,1-.43-3.58,4.58,4.58,0,0,1,1.78-3,3.65,3.65,0,0,1,1.73-.85,3.86,3.86,0,0,1,1.79.09,4.06,4.06,0,0,1,1.56.91,5.15,5.15,0,0,1,1.16,1.59,3.14,3.14,0,0,0-1.58.28,3.24,3.24,0,0,0-1.4,4.53,5.14,5.14,0,0,0,3.63,2.92,6.91,6.91,0,0,0,4.51-.78,6.12,6.12,0,0,0,2-1.74,6.48,6.48,0,0,0,1.2-2.59,7.33,7.33,0,0,0-.05-3.12A7.92,7.92,0,0,0,972.81,546Zm-18.66-19.23a5.67,5.67,0,0,0-1.31,3.56,6.85,6.85,0,0,0,.66,3,5.94,5.94,0,0,0,1.79,2,13.52,13.52,0,0,0,2.54,1.46,23.33,23.33,0,0,0,2.77,1c.93.29,1.75.57,2.46.87l2.75,1c1,.36,2.12.8,3.24,1.31a26.44,26.44,0,0,1,3.22,1.76,12.5,12.5,0,0,1,2.68,2.29,9.68,9.68,0,0,1,1.79,3.38,5.37,5.37,0,0,1-.44,4.07l.33-.27a5,5,0,0,0,.55-2,6.73,6.73,0,0,0-.14-2,8.52,8.52,0,0,0-.65-1.92,10.17,10.17,0,0,0-.93-1.61,9.87,9.87,0,0,0-2.54-2.49,22.61,22.61,0,0,0-3.21-1.84,35.19,35.19,0,0,0-3.32-1.36l-2.93-1c-.69-.26-1.49-.53-2.4-.8a22.35,22.35,0,0,1-2.66-1,14.88,14.88,0,0,1-2.46-1.4,6,6,0,0,1-1.81-2,7.35,7.35,0,0,1-.85-2.82,6,6,0,0,1,1.18-3.73Zm7.44,21.89a3,3,0,0,0-2,2.28,4.89,4.89,0,0,0,.92,3.7A6.64,6.64,0,0,1,960,552a4.67,4.67,0,0,1,.49-1.85A4.11,4.11,0,0,1,961.59,548.7Zm4.33-17a3,3,0,0,0,2-2.28,4.85,4.85,0,0,0-.92-3.7,6.47,6.47,0,0,1,.49,2.73,5.12,5.12,0,0,1-.44,1.83A4.61,4.61,0,0,1,965.92,531.7Z"/><path class="cls-7" d="M196.29,521.56a13.37,13.37,0,0,1,4.49-1.61,13.71,13.71,0,0,1,4.76.3,4.21,4.21,0,0,0,1.29.08,3.59,3.59,0,0,0,.94-.23,2.36,2.36,0,0,0,.74-.5l.9,2.1a4.6,4.6,0,0,1-.53.32,2.44,2.44,0,0,1-.75.23,7.86,7.86,0,0,1,1.6,2.49,7.45,7.45,0,0,1,.59,2.72,5.61,5.61,0,0,1-.51,2.47,3.63,3.63,0,0,1-1.62,1.71,4.09,4.09,0,0,1-3.74.42,4.7,4.7,0,0,1-2.4-2.69,2.26,2.26,0,0,0,2-.15,3.13,3.13,0,0,0,1.51-2,4.89,4.89,0,0,0-.09-2.73,5.4,5.4,0,0,0-1.5-2.39,3.57,3.57,0,0,0-2.68-.95,5.38,5.38,0,0,0-2,.47,5.08,5.08,0,0,0-1.72,1.2,5.58,5.58,0,0,0-1.13,1.76,5.41,5.41,0,0,0-.38,2.1,5.85,5.85,0,0,0,.5,2.29l3.23,7.51a1.71,1.71,0,0,0,.62.8,1.22,1.22,0,0,0,.75.17,2.1,2.1,0,0,0,.82-.18l.46,1.07a2.05,2.05,0,0,0-.69.47,1.17,1.17,0,0,0-.4.63,1.57,1.57,0,0,0,.16,1l4.31,10a10.47,10.47,0,0,0,.89,1.67,4.28,4.28,0,0,0,1.12,1.19,3.34,3.34,0,0,0,1.56.55,5.7,5.7,0,0,0,2.11-.25l.67,1.56a16.73,16.73,0,0,1-4,1.22,4.4,4.4,0,0,1-3.13-.65,4.43,4.43,0,0,1-1.69,2.72,16.8,16.8,0,0,1-3.61,2L199,559a4.1,4.1,0,0,0,2.24-2.87,6.84,6.84,0,0,0-.63-3.42l-4.31-10a1.64,1.64,0,0,0-.64-.83,1.28,1.28,0,0,0-.68-.16,2.21,2.21,0,0,0-.87.2l-.46-1.08a2.33,2.33,0,0,0,.74-.49,1.23,1.23,0,0,0,.34-.64,1.57,1.57,0,0,0-.15-1l-3.23-7.5a5.82,5.82,0,0,0-1.31-2,5.54,5.54,0,0,0-1.79-1.17,5.65,5.65,0,0,0-2-.39,5.12,5.12,0,0,0-2.07.43,5.39,5.39,0,0,0-1.74,1.15,3.56,3.56,0,0,0-1.15,2.6,5.33,5.33,0,0,0,.69,2.73,5,5,0,0,0,1.93,2,3.11,3.11,0,0,0,2.52.3,2.25,2.25,0,0,0,1.45-1.31,4.71,4.71,0,0,1,.31,3.59,4.14,4.14,0,0,1-2.89,2.42,3.66,3.66,0,0,1-2.38,0,5.39,5.39,0,0,1-2.16-1.36,7.86,7.86,0,0,1-1.55-2.31,8,8,0,0,1-.7-2.87,2.06,2.06,0,0,1-.67.46,2.29,2.29,0,0,1-.68.18l-.9-2.1a2.29,2.29,0,0,0,.87-.2,3.54,3.54,0,0,0,.83-.53,3.32,3.32,0,0,0,.81-1,13.13,13.13,0,0,1,3.12-3.71,13.6,13.6,0,0,1,4.3-2.13,14.79,14.79,0,0,1,2.81-.69,5.42,5.42,0,0,1,3.13.56,5.44,5.44,0,0,1,1.74-2.66A16.59,16.59,0,0,1,196.29,521.56ZM186,539.68a4,4,0,0,1-1.79.14,4.6,4.6,0,0,1-1.78-.68,7.06,7.06,0,0,1-1.93-1.94,4.79,4.79,0,0,0,2.49,2.85A3,3,0,0,0,186,539.68Zm5.76-12.17c.28.65.72.85,1.31.59a.91.91,0,0,0,.49-1.36,1,1,0,1,0-1.8.77Zm1.49,1.78,10,23.2.62-.26-10-23.2Zm10.37,25.57a.81.81,0,0,0,1.21.46.76.76,0,0,0,.4-1.15c-.25-.59-.63-.77-1.13-.55A.83.83,0,0,0,203.59,554.86Zm3.11-24.08a2.93,2.93,0,0,0,2.33-1.93,4.75,4.75,0,0,0-.35-3.77,6.24,6.24,0,0,1,.1,2.72,4.82,4.82,0,0,1-.75,1.77A4.07,4.07,0,0,1,206.7,530.78Z"/><path class="cls-7" d="M217.19,520.69c-.23-.67-.46-1.28-.68-1.82a5.1,5.1,0,0,0-.83-1.37,3,3,0,0,0-1.15-.81,3.18,3.18,0,0,0-1.68-.06l-.56-1.61a16.71,16.71,0,0,1,2-.56,6,6,0,0,1,1.5-.15,3.69,3.69,0,0,1,1.27.26,5.71,5.71,0,0,1,1.26.75,5.44,5.44,0,0,1,.54-1.37,3.61,3.61,0,0,1,.85-1,6.91,6.91,0,0,1,1.3-.81,17.81,17.81,0,0,1,1.89-.77l.55,1.61a3.26,3.26,0,0,0-1.26,1.08,2.79,2.79,0,0,0-.43,1.35,4.74,4.74,0,0,0,.19,1.59c.16.57.35,1.18.58,1.85l3,8.68,11.79-4.06-3-8.68c-.23-.67-.46-1.27-.68-1.81a4.72,4.72,0,0,0-.83-1.37,2.88,2.88,0,0,0-1.15-.81,3.16,3.16,0,0,0-1.68-.07l-.55-1.6a14.54,14.54,0,0,1,2-.56,6.39,6.39,0,0,1,1.5-.16,3.84,3.84,0,0,1,1.26.27,5.64,5.64,0,0,1,1.26.74,5.75,5.75,0,0,1,.54-1.36,3.69,3.69,0,0,1,.86-1,6.31,6.31,0,0,1,1.3-.81,17.13,17.13,0,0,1,1.89-.76l.55,1.6a3.44,3.44,0,0,0-1.26,1.08,2.81,2.81,0,0,0-.44,1.36,4.76,4.76,0,0,0,.2,1.59c.15.56.35,1.18.58,1.85l2.59,7.52a1.52,1.52,0,0,0,.59.84,1.34,1.34,0,0,0,.75.21,1.78,1.78,0,0,0,.86-.18l.4,1.15a1.68,1.68,0,0,0-.79.39,1.28,1.28,0,0,0-.47.63,1.62,1.62,0,0,0,.07,1.07l4.51,13.09a2.63,2.63,0,0,0,1.13,1.22,3.53,3.53,0,0,0,2.26.09l.55,1.6a16.71,16.71,0,0,1-2,.56,5.9,5.9,0,0,1-1.5.15,3.59,3.59,0,0,1-1.26-.26,5.34,5.34,0,0,1-1.26-.75,5.84,5.84,0,0,1-.54,1.37,3.65,3.65,0,0,1-.86,1,6.78,6.78,0,0,1-1.3.82,17.13,17.13,0,0,1-1.89.76l-.55-1.61a3.49,3.49,0,0,0,1.73-1.46,2.57,2.57,0,0,0,.14-1.65l-4.92-14.29-11.78,4,4.92,14.3a2.59,2.59,0,0,0,1.12,1.21,3.57,3.57,0,0,0,2.27.09l.55,1.6a17,17,0,0,1-2,.57,7,7,0,0,1-1.5.15,3.84,3.84,0,0,1-1.26-.27,5.91,5.91,0,0,1-1.27-.74,5.36,5.36,0,0,1-.54,1.36,3.51,3.51,0,0,1-.85,1,6.6,6.6,0,0,1-1.3.81,15.36,15.36,0,0,1-1.89.76l-.55-1.6a3.55,3.55,0,0,0,1.73-1.47,2.6,2.6,0,0,0,.14-1.64l-4.51-13.1a1.7,1.7,0,0,0-.58-.89,1.21,1.21,0,0,0-.73-.23,1.8,1.8,0,0,0-.86.19l-.4-1.16a1.58,1.58,0,0,0,.79-.38,1.13,1.13,0,0,0,.44-.63,1.64,1.64,0,0,0-.07-1Zm.63-3.7c.23.67.65.9,1.27.69a.91.91,0,0,0,.58-1.33,1,1,0,1,0-1.85.64Zm1.36,1.89,8.22,23.87.63-.21-8.22-23.88Zm8.44,26.27a.82.82,0,0,0,1.17.55c.52-.18.68-.55.49-1.12s-.57-.82-1.09-.64A.83.83,0,0,0,227.62,545.15Zm7.29-34a1,1,0,1,0,1.85-.64.88.88,0,0,0-1.25-.64A.89.89,0,0,0,234.91,511.11Zm1.36,1.89,8.22,23.87.63-.22-8.22-23.87Zm8.44,26.26a.81.81,0,0,0,1.17.55.76.76,0,0,0,.49-1.12c-.21-.6-.57-.81-1.09-.63A.84.84,0,0,0,244.71,539.26Z"/><path class="cls-7" d="M268.06,511.9a4,4,0,0,1-2,.52,3.49,3.49,0,0,1-1.69-.5,4.06,4.06,0,0,1-1.26-1.28,6.71,6.71,0,0,1-.79-1.85,3.41,3.41,0,0,0,1.87,0,2.78,2.78,0,0,0,1.61-1.15,4.33,4.33,0,0,0,.75-1.94,4.52,4.52,0,0,0-.24-2.16,3.71,3.71,0,0,0-1.35-1.83,5.22,5.22,0,0,0-2.54-.9,9.17,9.17,0,0,0-3.87.61,9.32,9.32,0,0,0-1.79.85,6.33,6.33,0,0,0-1.57,1.31,4.79,4.79,0,0,0-.95,1.71,3.81,3.81,0,0,0,0,2.14l2.43,8.91a1.6,1.6,0,0,0,.51.88,1.23,1.23,0,0,0,.71.27,1.9,1.9,0,0,0,.84-.07l.3,1.13a2,2,0,0,0-.75.37,1.23,1.23,0,0,0-.48.57,1.59,1.59,0,0,0,0,1l3.11,11.36a3.7,3.7,0,0,0,1.06,1.86,4.74,4.74,0,0,0,1.69,1,6.05,6.05,0,0,0,2,.33,8.89,8.89,0,0,0,2-.18,8.76,8.76,0,0,0,3.59-1.42,5,5,0,0,0,1.71-2.06,4,4,0,0,0,.21-2.26,5,5,0,0,0-.9-2,4.58,4.58,0,0,0-1.59-1.32,2.62,2.62,0,0,0-1.92-.19,3.16,3.16,0,0,0-1.58,1,7.05,7.05,0,0,1-.26-2,4,4,0,0,1,.44-1.74,3.57,3.57,0,0,1,1.19-1.29,4,4,0,0,1,2-.57,4.64,4.64,0,0,1,2.41.52,6.42,6.42,0,0,1,2,1.6,7.74,7.74,0,0,1,1.29,2.37,7.46,7.46,0,0,1,.36,2.82,2.37,2.37,0,0,1,.93-.61,2.94,2.94,0,0,1,.89-.16l.6,2.2a2.39,2.39,0,0,0-.88.07,3.58,3.58,0,0,0-.88.41,4.45,4.45,0,0,0-1,.87,14.23,14.23,0,0,1-3.39,3.12,15.3,15.3,0,0,1-4.23,1.82,28.44,28.44,0,0,1-5,.93,6.87,6.87,0,0,1-4.32-1l0,.11a6.52,6.52,0,0,1-.62,1.35,3.33,3.33,0,0,1-.91,1,6.54,6.54,0,0,1-1.35.73,17,17,0,0,1-1.94.64l-.44-1.64a2.88,2.88,0,0,0,1.63-1.46,4.08,4.08,0,0,0,.18-2.06L252.46,522a1.55,1.55,0,0,0-.52-.91,1.31,1.31,0,0,0-.65-.26,2.45,2.45,0,0,0-.89.08l-.31-1.13a2.37,2.37,0,0,0,.8-.38,1.14,1.14,0,0,0,.43-.58,1.61,1.61,0,0,0,0-1l-2.64-9.67a4.78,4.78,0,0,0-1.2-1.95,2.68,2.68,0,0,0-2.25-.52l-.44-1.64a17.81,17.81,0,0,1,2-.43,6.74,6.74,0,0,1,1.53-.06,3.27,3.27,0,0,1,1.27.37,5.76,5.76,0,0,1,1.22.85,6.85,6.85,0,0,1,3.19-3.1,26.33,26.33,0,0,1,4.82-1.78,15.11,15.11,0,0,1,4.57-.59,14.2,14.2,0,0,1,4.51,1,4.35,4.35,0,0,0,1.27.26,3.88,3.88,0,0,0,1-.1,2.29,2.29,0,0,0,.8-.39l.6,2.2a2.78,2.78,0,0,1-.85.32,2.38,2.38,0,0,1-1.11-.06,7.54,7.54,0,0,1,1.12,2.61,7.27,7.27,0,0,1,.09,2.7,6.34,6.34,0,0,1-.89,2.39A4.71,4.71,0,0,1,268.06,511.9Zm-17.9-5.51c.19.68.59.94,1.22.76s.86-.59.67-1.28a1,1,0,1,0-1.89.52Zm1.23,2L258,532.72l.65-.18L252,508.18Zm6.72,26.76a.81.81,0,0,0,1.13.63.77.77,0,0,0,.56-1.09c-.17-.61-.52-.85-1.05-.7A.83.83,0,0,0,258.11,535.12Zm2-23.69a3.38,3.38,0,0,1,1.9.59,4.83,4.83,0,0,1,1.46,1.55,6.66,6.66,0,0,1,.82,2.14,6.09,6.09,0,0,1,0,2.33,5.67,5.67,0,0,0-.08,2.08,5.27,5.27,0,0,0,.53,1.64,2.51,2.51,0,0,0,.91,1,1.38,1.38,0,0,0,1.09.17,4.44,4.44,0,0,1-2.22.36,3.68,3.68,0,0,1-1.9-.77,4.75,4.75,0,0,1-1.32-1.81,7.66,7.66,0,0,1-.56-2.74,9.1,9.1,0,0,1,.21-2,15.08,15.08,0,0,0,.31-1.82,4.25,4.25,0,0,0-.11-1.57A2,2,0,0,0,260.08,511.43Zm6.84-.38a3,3,0,0,0,2.39-1.89,4.9,4.9,0,0,0-.26-3.8,6.58,6.58,0,0,1,0,2.77,5.21,5.21,0,0,1-.76,1.72A4.6,4.6,0,0,1,266.92,511.05ZM270,522.91a4.53,4.53,0,0,1,1.8.34,4.91,4.91,0,0,1,1.53,1.09,6.63,6.63,0,0,1,1.4,2.4,4.88,4.88,0,0,0-1.7-3.41A3,3,0,0,0,270,522.91Z"/><path class="cls-8" d="M193.86,521.56a13.37,13.37,0,0,1,4.49-1.61,13.65,13.65,0,0,1,4.75.3,4.26,4.26,0,0,0,1.3.08,3.69,3.69,0,0,0,.94-.23,2.51,2.51,0,0,0,.74-.49l.9,2.09a4.82,4.82,0,0,1-.54.32,2.3,2.3,0,0,1-.74.23,8,8,0,0,1,1.6,2.49,7.23,7.23,0,0,1,.58,2.72,5.47,5.47,0,0,1-.5,2.47,3.7,3.7,0,0,1-1.63,1.71,4.12,4.12,0,0,1-3.74.42,4.69,4.69,0,0,1-2.39-2.69,2.26,2.26,0,0,0,2-.15,3.12,3.12,0,0,0,1.5-2,5,5,0,0,0-.08-2.73,5.4,5.4,0,0,0-1.5-2.39,3.57,3.57,0,0,0-2.68-.95,5.3,5.3,0,0,0-2,.47,5.08,5.08,0,0,0-1.72,1.2,5.49,5.49,0,0,0-1.52,3.86,6.05,6.05,0,0,0,.51,2.29l3.23,7.51a1.59,1.59,0,0,0,.62.8,1.22,1.22,0,0,0,.75.17,2.14,2.14,0,0,0,.82-.18l.46,1.07a2,2,0,0,0-.7.47,1.29,1.29,0,0,0-.4.63,1.63,1.63,0,0,0,.16,1l4.32,10a10.46,10.46,0,0,0,.88,1.67,4.3,4.3,0,0,0,1.13,1.19,3.34,3.34,0,0,0,1.55.55,5.68,5.68,0,0,0,2.11-.25l.67,1.56a16.53,16.53,0,0,1-4,1.22,4.44,4.44,0,0,1-3.14-.65,4.34,4.34,0,0,1-1.69,2.72,16.47,16.47,0,0,1-3.6,2l-.67-1.56a4.1,4.1,0,0,0,2.24-2.87,6.84,6.84,0,0,0-.63-3.42l-4.32-10a1.63,1.63,0,0,0-.63-.83,1.29,1.29,0,0,0-.69-.16,2.29,2.29,0,0,0-.87.2l-.46-1.08a2.38,2.38,0,0,0,.75-.49,1.23,1.23,0,0,0,.34-.64,1.72,1.72,0,0,0-.15-1l-3.23-7.5a5.82,5.82,0,0,0-1.31-2,5.54,5.54,0,0,0-1.79-1.17,5.7,5.7,0,0,0-2.05-.39,5.07,5.07,0,0,0-2.06.43A5.39,5.39,0,0,0,180,529.2a3.58,3.58,0,0,0-1.16,2.6,5.44,5.44,0,0,0,.7,2.73,5,5,0,0,0,1.93,2,3.09,3.09,0,0,0,2.51.3,2.23,2.23,0,0,0,1.45-1.31,4.67,4.67,0,0,1,.31,3.59,4.1,4.1,0,0,1-2.88,2.42,3.69,3.69,0,0,1-2.39,0,5.42,5.42,0,0,1-2.15-1.36,7.67,7.67,0,0,1-1.55-2.31,8,8,0,0,1-.7-2.87,2.17,2.17,0,0,1-.67.46,2.37,2.37,0,0,1-.68.18l-.91-2.1a2.21,2.21,0,0,0,.87-.2,3.79,3.79,0,0,0,.84-.53,3.66,3.66,0,0,0,.81-1,12.81,12.81,0,0,1,3.12-3.71,13.65,13.65,0,0,1,4.29-2.13,14.89,14.89,0,0,1,2.82-.69,5.39,5.39,0,0,1,3.12.56,5.52,5.52,0,0,1,1.75-2.66A16.08,16.08,0,0,1,193.86,521.56Zm-10.32,18.12a4.05,4.05,0,0,1-1.79.14,4.6,4.6,0,0,1-1.78-.68A6.93,6.93,0,0,1,178,537.2a4.79,4.79,0,0,0,2.49,2.85A3,3,0,0,0,183.54,539.68Zm5.75-12.17c.28.65.72.85,1.32.59a.9.9,0,0,0,.48-1.36.87.87,0,0,0-1.29-.54A.88.88,0,0,0,189.29,527.51Zm1.5,1.78,10,23.2.61-.26-10-23.2Zm10.37,25.57a.81.81,0,0,0,1.21.46c.5-.21.63-.6.4-1.15s-.63-.77-1.14-.55A.83.83,0,0,0,201.16,554.86Zm3.1-24.08a3,3,0,0,0,2.34-1.93,4.76,4.76,0,0,0-.36-3.77,6.11,6.11,0,0,1,.11,2.72,5,5,0,0,1-.75,1.77A4.1,4.1,0,0,1,204.26,530.78Z"/><path class="cls-8" d="M214.75,520.69c-.23-.67-.45-1.28-.68-1.82a4.84,4.84,0,0,0-.82-1.37,3,3,0,0,0-1.15-.81,3.21,3.21,0,0,0-1.69-.06l-.55-1.61a16.71,16.71,0,0,1,2-.56,6,6,0,0,1,1.5-.15,3.59,3.59,0,0,1,1.26.26,6,6,0,0,1,1.27.75,5.85,5.85,0,0,1,.53-1.37,3.65,3.65,0,0,1,.86-1,6.6,6.6,0,0,1,1.3-.81,17,17,0,0,1,1.89-.77L221,513a3.26,3.26,0,0,0-1.26,1.08,2.79,2.79,0,0,0-.43,1.35,4.74,4.74,0,0,0,.19,1.59c.16.57.35,1.18.58,1.85l3,8.68,11.78-4.06-3-8.68c-.23-.67-.46-1.27-.68-1.81a5,5,0,0,0-.83-1.37,3,3,0,0,0-1.15-.81,3.17,3.17,0,0,0-1.68-.07l-.56-1.6a15,15,0,0,1,2-.56,6.5,6.5,0,0,1,1.5-.16,4,4,0,0,1,1.27.27,5.64,5.64,0,0,1,1.26.74,5.36,5.36,0,0,1,.54-1.36,3.65,3.65,0,0,1,.85-1,6.91,6.91,0,0,1,1.3-.81,18,18,0,0,1,1.89-.76l.56,1.6a3.4,3.4,0,0,0-1.27,1.08,2.8,2.8,0,0,0-.43,1.36,5,5,0,0,0,.19,1.59c.16.56.35,1.18.58,1.85l2.59,7.52a1.5,1.5,0,0,0,.59.83,1.31,1.31,0,0,0,.76.22,1.78,1.78,0,0,0,.86-.18l.4,1.15a1.77,1.77,0,0,0-.8.39,1.27,1.27,0,0,0-.46.63,1.62,1.62,0,0,0,.07,1.07l4.51,13.09a2.61,2.61,0,0,0,1.12,1.22,3.57,3.57,0,0,0,2.27.09l.55,1.6a15,15,0,0,1-2,.56,6,6,0,0,1-1.5.15,3.59,3.59,0,0,1-1.26-.26,5.59,5.59,0,0,1-1.27-.75,5.85,5.85,0,0,1-.53,1.37,3.83,3.83,0,0,1-.86,1,7.11,7.11,0,0,1-1.3.82,17.13,17.13,0,0,1-1.89.76l-.55-1.61a3.54,3.54,0,0,0,1.73-1.46,2.64,2.64,0,0,0,.14-1.65l-4.92-14.29-11.79,4,4.92,14.3a2.61,2.61,0,0,0,1.13,1.21,3.54,3.54,0,0,0,2.26.09l.56,1.61a18.92,18.92,0,0,1-2,.56,7,7,0,0,1-1.5.15,3.9,3.9,0,0,1-1.27-.27,5.64,5.64,0,0,1-1.26-.74,5.36,5.36,0,0,1-.54,1.36,3.51,3.51,0,0,1-.85,1,6.91,6.91,0,0,1-1.3.81,16.77,16.77,0,0,1-1.89.76l-.55-1.6a3.51,3.51,0,0,0,1.72-1.47,2.47,2.47,0,0,0,.14-1.64l-4.5-13.1a1.7,1.7,0,0,0-.58-.89,1.21,1.21,0,0,0-.73-.23,1.74,1.74,0,0,0-.87.19l-.39-1.15a1.73,1.73,0,0,0,.79-.39,1.13,1.13,0,0,0,.44-.63,1.59,1.59,0,0,0-.08-1Zm.64-3.7c.23.67.65.9,1.27.69a.92.92,0,0,0,.58-1.33,1,1,0,1,0-1.85.64Zm1.36,1.89L225,542.75l.64-.21-8.22-23.88Zm8.44,26.27a.81.81,0,0,0,1.17.55c.52-.18.68-.55.48-1.12s-.57-.82-1.09-.64A.83.83,0,0,0,225.19,545.15Zm7.29-34a.9.9,0,0,0,1.27.68c.62-.21.81-.65.58-1.32a1,1,0,1,0-1.85.64Zm1.36,1.88,8.22,23.88.63-.22-8.22-23.87Zm8.44,26.27a.81.81,0,0,0,1.17.55c.52-.18.68-.55.49-1.12s-.57-.81-1.09-.63A.83.83,0,0,0,242.28,539.26Z"/><path class="cls-8" d="M265.62,511.9a3.9,3.9,0,0,1-2,.52,3.48,3.48,0,0,1-1.68-.5,4,4,0,0,1-1.26-1.28,7,7,0,0,1-.8-1.85,3.45,3.45,0,0,0,1.88,0,2.81,2.81,0,0,0,1.61-1.15,4.33,4.33,0,0,0,.75-1.94,4.78,4.78,0,0,0-.24-2.16,3.79,3.79,0,0,0-1.36-1.83,5.14,5.14,0,0,0-2.54-.9,10.41,10.41,0,0,0-5.66,1.46,6.46,6.46,0,0,0-1.56,1.31,4.79,4.79,0,0,0-1,1.71,3.72,3.72,0,0,0,0,2.14l2.43,8.91a1.59,1.59,0,0,0,.5.88,1.28,1.28,0,0,0,.72.27,1.84,1.84,0,0,0,.83-.07l.31,1.13a1.89,1.89,0,0,0-.75.37,1.2,1.2,0,0,0-.49.57,1.61,1.61,0,0,0,0,1l3.1,11.36a3.79,3.79,0,0,0,1.07,1.86,4.74,4.74,0,0,0,1.69,1,6,6,0,0,0,2,.33,10.27,10.27,0,0,0,5.57-1.6,4.88,4.88,0,0,0,1.7-2.06,3.81,3.81,0,0,0,.21-2.26,4.83,4.83,0,0,0-.89-2,4.58,4.58,0,0,0-1.59-1.32,2.62,2.62,0,0,0-1.92-.19,3.18,3.18,0,0,0-1.59,1,7,7,0,0,1-.25-2,4.1,4.1,0,0,1,.43-1.74,3.51,3.51,0,0,1,1.2-1.29,4,4,0,0,1,2-.57,4.64,4.64,0,0,1,2.41.52,6.27,6.27,0,0,1,2,1.6,7.34,7.34,0,0,1,1.29,2.37,7.46,7.46,0,0,1,.37,2.82,2.37,2.37,0,0,1,.93-.61,2.89,2.89,0,0,1,.89-.16l.6,2.2a2.44,2.44,0,0,0-.89.07,3.76,3.76,0,0,0-.88.41,4.42,4.42,0,0,0-1,.87,14.23,14.23,0,0,1-3.39,3.12,15.43,15.43,0,0,1-4.23,1.82,28.6,28.6,0,0,1-5,.93,6.87,6.87,0,0,1-4.32-1l0,.11a7.08,7.08,0,0,1-.62,1.35,3.24,3.24,0,0,1-.92,1,6.71,6.71,0,0,1-1.34.73,17,17,0,0,1-1.94.64l-.45-1.64a2.84,2.84,0,0,0,1.63-1.46,4.19,4.19,0,0,0,.19-2.06L250,522a1.59,1.59,0,0,0-.51-.91,1.31,1.31,0,0,0-.66-.26,2.4,2.4,0,0,0-.88.08l-.31-1.13a2.46,2.46,0,0,0,.8-.38,1.25,1.25,0,0,0,.43-.59,1.65,1.65,0,0,0,0-1l-2.64-9.67a4.78,4.78,0,0,0-1.2-1.95,2.68,2.68,0,0,0-2.25-.52l-.45-1.64a18.3,18.3,0,0,1,2-.43,6.78,6.78,0,0,1,1.53-.06,3.32,3.32,0,0,1,1.28.37,6,6,0,0,1,1.22.85,6.83,6.83,0,0,1,3.18-3.1,26.71,26.71,0,0,1,4.83-1.78,15,15,0,0,1,4.56-.59,14.14,14.14,0,0,1,4.51,1,4.11,4.11,0,0,0,1.27.25,3.4,3.4,0,0,0,1-.09,2.34,2.34,0,0,0,.81-.39l.6,2.2a2.78,2.78,0,0,1-.85.32,2.38,2.38,0,0,1-1.11-.06,7.52,7.52,0,0,1,1.11,2.61,7.08,7.08,0,0,1,.1,2.7,6.36,6.36,0,0,1-.9,2.39A4.64,4.64,0,0,1,265.62,511.9Zm-17.89-5.51c.18.68.59.94,1.22.76s.85-.6.67-1.28a1,1,0,1,0-1.89.52Zm1.23,2,6.65,24.36.65-.18-6.65-24.36Zm6.72,26.76a.81.81,0,0,0,1.13.63.77.77,0,0,0,.56-1.09c-.17-.61-.52-.85-1.05-.7A.82.82,0,0,0,255.68,535.12Zm2-23.69a3.37,3.37,0,0,1,1.89.59,4.75,4.75,0,0,1,1.47,1.55,6.66,6.66,0,0,1,.82,2.14,5.9,5.9,0,0,1,0,2.33,5.66,5.66,0,0,0-.07,2.08,5,5,0,0,0,.53,1.64,2.51,2.51,0,0,0,.91,1,1.34,1.34,0,0,0,1.09.17,4.46,4.46,0,0,1-2.23.36,3.68,3.68,0,0,1-1.89-.77,4.56,4.56,0,0,1-1.32-1.81,7.49,7.49,0,0,1-.56-2.74,9.1,9.1,0,0,1,.21-2,15.08,15.08,0,0,0,.31-1.82,4.18,4.18,0,0,0-.11-1.56A2,2,0,0,0,257.65,511.43Zm6.83-.38a3,3,0,0,0,2.4-1.89,4.86,4.86,0,0,0-.27-3.8,6.58,6.58,0,0,1,0,2.77,4.83,4.83,0,0,1-.76,1.72A4.37,4.37,0,0,1,264.48,511.05Zm3.08,11.86a4.6,4.6,0,0,1,1.8.34,5,5,0,0,1,1.53,1.09,6.78,6.78,0,0,1,1.4,2.4,4.84,4.84,0,0,0-1.71-3.41A3,3,0,0,0,267.56,522.91Z"/></svg>