<?xml version="1.0" encoding="UTF-8"?>
<svg id="Layer_2" data-name="Layer 2" xmlns="http://www.w3.org/2000/svg" xmlns:xlink="http://www.w3.org/1999/xlink" viewBox="0 0 1772.81 354.54">
  <defs>
    <style>
      .cls-1 {
        fill: url(#linear-gradient-2);
      }

      .cls-2 {
        fill: #2d2c56;
      }

      .cls-3 {
        fill: #c09df1;
        stroke: #c09df1;
      }

      .cls-3, .cls-4, .cls-5, .cls-6 {
        stroke-miterlimit: 10;
      }

      .cls-7 {
        filter: url(#drop-shadow-1);
      }

      .cls-4 {
        filter: url(#drop-shadow-2);
      }

      .cls-4, .cls-5, .cls-6 {
        fill: #e8dbc3;
        stroke: #98423b;
        stroke-width: 9.67px;
      }

      .cls-6 {
        filter: url(#drop-shadow-3);
      }

      .cls-8 {
        fill: url(#linear-gradient);
      }
    </style>
    <filter id="drop-shadow-1" filterUnits="userSpaceOnUse">
      <feOffset dx="7.35" dy="7.35"/>
      <feGaussianBlur result="blur" stdDeviation="5.25"/>
      <feFlood flood-color="#000" flood-opacity=".58"/>
      <feComposite in2="blur" operator="in"/>
      <feComposite in="SourceGraphic"/>
    </filter>
    <linearGradient id="linear-gradient" x1="478.15" y1="65.6" x2="597.32" y2="65.6" gradientUnits="userSpaceOnUse">
      <stop offset=".54" stop-color="#7f3b37"/>
      <stop offset="1" stop-color="#98423b"/>
    </linearGradient>
    <linearGradient id="linear-gradient-2" x1="1161.42" y1="241.25" x2="1221.92" y2="301.75" gradientUnits="userSpaceOnUse">
      <stop offset=".26" stop-color="#7f3b37"/>
      <stop offset=".69" stop-color="#98423b"/>
    </linearGradient>
    <filter id="drop-shadow-2" filterUnits="userSpaceOnUse">
      <feOffset dx="-7" dy="-7"/>
      <feGaussianBlur result="blur-2" stdDeviation="5"/>
      <feFlood flood-color="#000" flood-opacity=".23"/>
      <feComposite in2="blur-2" operator="in"/>
      <feComposite in="SourceGraphic"/>
    </filter>
    <filter id="drop-shadow-3" filterUnits="userSpaceOnUse">
      <feOffset dx="7" dy="7"/>
      <feGaussianBlur result="blur-3" stdDeviation="5"/>
      <feFlood flood-color="#000" flood-opacity=".23"/>
      <feComposite in2="blur-3" operator="in"/>
      <feComposite in="SourceGraphic"/>
    </filter>
  </defs>
  <g id="BANNER">
    <g class="cls-7">
      <path class="cls-8" d="M591.2,19.9c2.04,27.29,4.08,54.59,6.12,81.88-92.05,16.02-114.9,8.95-118.58-.59-5.69-14.75,30.97-44.45,53.54-58.33,22.93-14.11,44.68-20.13,58.93-22.96Z"/>
      <path class="cls-1" d="M1190.03,325.45c1.7-4,4.66-10.08,9.63-16.51,19.67-25.45,47.35-26.12,48.15-34.39,.63-6.46-15.17-16.88-85.3-34.39,6.47,6.65,18.53,20.86,24.76,42.65,5.21,18.23,4.07,33.82,2.75,42.65Z"/>
      <path class="cls-5" d="M11.61,135.01c22.51,1.1,45.01,2.21,67.52,3.31,33.53-10.77,81.04-25.78,138.34-43.02,113.79-34.25,92.28-24.98,156.1-44.75,77.17-23.91,183.27-60.6,206.64-39.31,1.93,1.76,7.36,6.71,7.28,13.24-.06,5.34-3.35,13.42-25.15,25.15-41.68,22.43-69.44,14.51-80.83,35.06-1.31,2.37-5.93,10.66-2.75,16.51,8.48,15.59,64.34-.76,106.39-11.46,0,0,96.43-24.54,245.81-40.36,36.43-3.86,91.22-7.69,159.59-4.59,33.07,3.3,164.87,17.27,245.81,47.69,35.33,13.28,57.37,28.34,62.37,49.99,2.29,9.95,.44,18.92-1.38,24.76,22.35-.38,53.5-1.95,90.28-7.28,49.11-7.11,114.83-16.7,185.81-54.86,53.07-28.53,90.89-61.97,115.02-86.71,3.35,42.22,6.7,84.45,10.05,126.67,22.21,24.1,44.41,48.19,66.62,72.29-215.36,121.86-310.26,139.48-356.42,130.28-8.58-1.71-112.94-23.77-149.89-22.18-10.69,.46-19.96-.61-38.52-2.75-20.33-2.34-23.8-4.18-24.76-6.88-2.65-7.39,13.35-21.45,28.89-28.89,17.22-8.24,28.5-5.78,29.35-9.17,1.97-7.82-54.64-33.91-131.16-54.11-44.23-11.68-120.85-31.3-226.55-29.35-26.74,.49-108.91,3.35-211.87,29.35-104.8,26.46-179.41,63.84-202.7,35.77-6.72-8.09-7.07-19.1-6.19-27.52-7.72-.68-19.26-1.41-33.24-1.09-14.56,.33-71.9,2.71-143.95,36.85-58.78,27.85-74.43,51.14-108.83,45.49-11.18-1.84-28.62-7.43-56.43-6.91-11.32,.21-23.59,.53-38,5.18-23.47,7.57-39.46,22.38-48.94,33.4,10.86-15.77,24.18-38.94,33.4-69.1,6.57-21.5,9.32-40.89,10.36-56.43-26.02-28.09-52.04-56.18-78.06-84.28Z"/>
    </g>
    <g>
      <g>
        <path class="cls-3" d="M177.47,212.93s-2.56,.69-2.71,3.19l7.23,25.29c1.51,5.1,2.45,9.1,8.04,7.16l.97,3.5c-6.27,2.58-8.74,2.63-12.22-.08-1.57,4.79-3.46,6.54-9.73,9.13l-.97-3.5c6.39-3.73,3.75-7.27,2.42-13.06l-6.66-23.33c-1.28-2.52-4.18-.96-4.18-.96l-.68-2.52s2.96-.85,2.88-3.62l-5.12-17.87c-1.7-5.27-4.14-8.89-9.5-7.54l-1.37-3.33c6.27-2.58,10.55-2.52,13.47,1.39-.69-4.83,3.52-8.39,9.79-10.98l1.37,3.33c-3.17,1.79-3.87,4.4-3.7,7.38,5.49,7,21.79,29.04,32.55,41.66-1.26-16.54-5.32-43.62-6.42-52.31-2.03-2.33-4.26-3.73-7.77-2.77l-1.37-3.33c6.17-2.54,11.83-3.17,14.8,.6-.55-4.77,2.39-7.69,8.56-10.23l1.37,3.33c-4.76,2.81-3.57,6.83-1.43,12.04l8.96,16.29c1.9,2.02,4.6,.54,4.6,.54l1.29,2.27s-3.16,.94-2.29,3.62l11.72,21.25c.93,1.69,1.87,3.37,2.84,5.17,1.54,2.29,3.58,3.52,8.09,2.39l1.78,3.17c-6.27,2.58-8.84,2.67-13.33,.38-.56,4.38-2.34,6.08-8.61,8.67l-1.78-3.17c3.63-2.1,3.89-4.04,3.05-6.37l-15.09-27.41c-1.87-1.67-4.17-.35-4.17-.35l-1.29-2.27s2.76-.77,2.41-3.06l-7.9-14.29c1.18,8.89,4.67,37.43,5.85,50.35,1.48,1.58,2.83,2.85,3.87,3.64,2.78,2.15,4.56,1.29,7.21,.56l1.68,3.21c-5.36,2.21-8.07,2.23-12.3-1.14-.52,5.33-2.46,7.23-7.82,9.44l-1.07-3.46c2.4-1.35,4.26-2,4.72-5.48,.18-1.29,.24-3.14,.18-5.31-8.12-9.94-25.49-32.26-31.1-39.57l4.33,15.39c1.36,1.87,3.87,.48,3.87,.48l.68,2.52Zm-16.38-20.79c1.11-.46,1.58-1.62,1.26-2.96-.37-1.19-1.38-1.62-2.49-1.17-1.11,.46-1.72,1.56-1.35,2.75,.31,1.33,1.47,1.83,2.58,1.37Zm.09,2.52l14.91,50.51,1.31-.54-14.91-50.51-1.31,.54Zm17.58,56.72c.91-.38,1.42-1.44,1.09-2.52-.37-1.19-1.28-1.67-2.19-1.29-1.11,.46-1.62,1.52-1.25,2.71,.33,1.08,1.24,1.56,2.35,1.1Zm20.23-79.5c-1.11,.46-1.52,1.48-.95,2.58,.72,1.17,1.87,1.67,2.98,1.21,1.11-.46,1.58-1.62,.86-2.79-.57-1.1-1.78-1.46-2.9-1Zm3.75,5.65l-1.31,.54,25.02,46.34,1.31-.54-25.02-46.34Zm25.59,49.16c-.91,.38-1.22,1.35-.64,2.46,.53,1,1.64,1.4,2.55,1.02,1.11-.46,1.42-1.44,.89-2.44-.57-1.1-1.68-1.5-2.8-1.04Z"/>
        <path class="cls-3" d="M263.45,162.56c1.49,.37,2.84,.31,3.99-.04,8.47-2.59,6.65-22.41-12.45-15.28-5.03,1.89-10.72,6.46-8.71,13.03l5.73,18.75c1.09,3.55,4.44,2.18,4.44,2.18l.72,2.37s-3.55,.73-2.46,4.29l7.31,23.92c2.01,6.57,9.28,7.18,14.51,5.93,19.71-4.73,9.91-22.23,1.75-19.74-1.15,.35-2.31,1.06-3.3,2.3-1.85-5.68,.02-11.55,6.83-12.1,7.12-.64,13.56,6.93,13.32,15.13,1.31-1.34,2.7-1.65,3.81-1.75l1.42,4.63s-3.19-.32-5.71,3.04c-4.33,5.68-9.06,8.89-15.86,10.97-7.32,2.24-14.32,3.67-19.85,.53l.07,.21c-1.46,4.57-3.5,6.13-9.99,8.12l-1.05-3.45c3.6-1.69,4.17-4.33,3.63-7.59l-8.16-26.72c-1.09-3.55-4.44-2.18-4.44-2.18l-.72-2.37s3.55-.73,2.46-4.29l-6.22-20.36c-1.4-3.46-3.24-5.73-7.48-5.02l-1.05-3.45c6.49-1.98,9.05-1.82,12.82,1.15,2.77-5.91,9.16-8.57,16.69-10.87,6.8-2.08,12.52-2.06,19.29,.23,3.97,1.38,6.43-.67,6.43-.67l1.42,4.63c-.98,.54-2.31,1.06-4.14,.68,4.78,6.67,3.68,16.54-2.58,19.99-5.95,3.35-10.78-.48-12.42-6.22Zm-23.27-2.79c1.15-.35,1.72-1.47,1.33-2.76-.36-1.19-1.46-1.79-2.61-1.44-1.15,.35-1.72,1.47-1.36,2.65,.4,1.29,1.5,1.9,2.65,1.55Zm.1,2.56l15.67,51.29,1.36-.42-15.67-51.29-1.36,.42Zm18.41,57.63c.94-.29,1.44-1.27,1.11-2.34-.36-1.19-1.32-1.72-2.27-1.43-1.15,.35-1.65,1.33-1.29,2.51,.33,1.08,1.29,1.61,2.44,1.26Zm9.58-37.91c-1.11,6.47,2.49,11.14,5.52,10.21-6.54,2.94-12.58-1.11-13.05-10.15-.22-5.59,3.17-11.34-1.82-13.82,5.76-.23,10.43,7.18,9.35,13.75Zm9.3-27.23c1.96,9.42-4.16,12.23-4.16,12.23,4.84-1.01,6.97-6.02,4.16-12.23Zm13.41,45.03c-1.14-6.72-5.7-9.69-10.28-7.82,0,0,6.64-1.09,10.28,7.82Z"/>
        <path class="cls-3" d="M327.12,146.25c1.45,.49,2.81,.53,3.98,.27,8.65-1.92,8.39-21.82-11.21-16.21-5.16,1.49-11.2,5.59-9.71,12.3l4.24,19.14c.8,3.63,4.25,2.52,4.25,2.52l.54,2.42s-3.6,.45-2.79,4.08l5.41,24.42c1.48,6.71,8.69,7.88,14,7.05,20.02-3.17,11.62-21.38,3.29-19.54-1.17,.26-2.38,.87-3.47,2.04-1.4-5.81,.92-11.51,7.76-11.53,7.15-.08,12.97,7.98,12.09,16.13,1.41-1.24,2.82-1.43,3.94-1.45l1.05,4.73s-3.15-.57-5.93,2.58c-4.76,5.32-9.73,8.16-16.67,9.69-7.48,1.66-14.56,2.53-19.83-1.03l.05,.22c-1.82,4.44-3.97,5.84-10.59,7.31l-.78-3.52c3.72-1.4,4.49-3.99,4.21-7.28l-6.04-27.28c-.8-3.63-4.25-2.52-4.25-2.52l-.53-2.42s3.6-.45,2.79-4.08l-4.6-20.79c-1.12-3.56-2.78-5.96-7.06-5.59l-.78-3.52c6.62-1.47,9.16-1.11,12.69,2.15,3.22-5.68,9.81-7.83,17.5-9.53,6.94-1.54,12.65-1.07,19.21,1.75,3.85,1.69,6.46-.16,6.46-.16l1.05,4.73c-1.02,.46-2.38,.88-4.18,.35,4.24,7.02,2.37,16.78-4.15,19.73-6.2,2.87-10.71-1.32-11.89-7.17Zm-22.98-4.61c1.17-.26,1.83-1.33,1.54-2.65-.27-1.21-1.32-1.9-2.49-1.64-1.17,.26-1.83,1.33-1.57,2.54,.29,1.32,1.34,2.01,2.52,1.75Zm-.1,2.56l11.59,52.36,1.39-.31-11.59-52.36-1.39,.31Zm13.82,58.9c.96-.21,1.54-1.15,1.29-2.25-.27-1.21-1.19-1.81-2.15-1.6-1.17,.26-1.75,1.2-1.48,2.4,.24,1.1,1.16,1.7,2.34,1.44Zm12.52-37.04c-1.62,6.36,1.61,11.3,4.7,10.61-6.75,2.42-12.45-2.09-12.21-11.14,.22-5.59,4.05-11.05-.73-13.92,5.76,.22,9.83,7.98,8.24,14.44Zm11.41-26.41c1.22,9.54-5.1,11.86-5.1,11.86,4.9-.62,7.42-5.45,5.1-11.86Zm9.83,45.94c-.61-6.79-4.93-10.1-9.63-8.6,0,0,6.71-.56,9.63,8.6Z"/>
        <path class="cls-3" d="M425.22,116.28c3.68,2.03,6.45,.42,6.45,.42l.62,4.8c-.75,.21-1.8,.57-2.93,.38,3.96,7.67,1.61,17.74-5.37,19.2-6.65,1.42-10.55-2.28-11.2-8.22,1.21,.87,2.68,1.13,4.08,.84,7.49-1.76,8-15.91-.9-18.17-1.48-.38-3.03-.41-4.44-.23-6.08,.78-10.76,6.38-9.86,13.42l2.21,17.21c.47,3.69,4.01,2.89,4.01,2.89l.32,2.46s-3.62,.12-3.15,3.81l2.95,23.02c.73,5.7,2.56,9.67,9.74,9.77l.46,3.57c-6.73,.86-11.72,.6-14.83-2.98-2.1,4.25-6.87,5.77-13.6,6.63l-.46-3.58c6.6-1.87,7.69-6.21,6.96-11.91l-2.95-23.02c-.47-3.69-4.01-2.89-4.01-2.89l-.31-2.46s3.62-.12,3.15-3.81l-2.21-17.21c-.9-7.04-6.85-11.27-12.93-10.5-1.41,.18-2.9,.6-4.24,1.34-8.03,4.44-3.98,18,3.72,17.81,1.42-.07,2.78-.7,3.73-1.84,.87,5.91-1.96,10.48-8.76,10.78-7.14,.23-12.06-8.9-10.05-17.34-1.14,.6-2.23,.63-3.13,.52l-.62-4.81s3.09,.85,6.13-2.04c5.71-5.39,10.86-7.3,18.54-7.6,4.06-.18,8.25-.15,12.21,3.21,2.98-4.25,7.04-5.33,11.01-6.18,7.62-1.66,12.89-.97,19.65,2.71Zm-61.07,19.99c.75,6.72,5.13,9.91,9.77,8.29,0,0-6.74,.75-9.77-8.29Zm30.98-11.24c1.19-.15,1.95-1.16,1.77-2.5-.16-1.23-1.14-2.01-2.33-1.86-1.19,.15-1.95,1.16-1.79,2.39,.17,1.34,1.15,2.12,2.35,1.97Zm-.34,2.54l6.82,53.19,1.41-.18-6.82-53.19-1.41,.18Zm8.46,59.91c.98-.13,1.64-1,1.49-2.12-.16-1.23-1.02-1.91-1.99-1.79-1.19,.15-1.85,1.03-1.69,2.26,.14,1.12,1,1.8,2.2,1.65Zm25.56-59.51c-.65,9.51-7.37,10.49-7.37,10.49,4.9,.39,8.34-3.79,7.37-10.49Z"/>
      </g>
      <g>
        <path class="cls-2" d="M172.81,213.11s-2.56,.69-2.71,3.19l7.23,25.29c1.51,5.1,2.45,9.1,8.04,7.16l.97,3.5c-6.27,2.58-8.74,2.63-12.22-.08-1.57,4.79-3.46,6.54-9.73,9.13l-.97-3.5c6.39-3.73,3.75-7.27,2.42-13.06l-6.66-23.33c-1.28-2.52-4.18-.96-4.18-.96l-.68-2.52s2.96-.85,2.88-3.62l-5.12-17.87c-1.7-5.27-4.14-8.89-9.5-7.54l-1.37-3.33c6.27-2.59,10.55-2.52,13.47,1.39-.69-4.83,3.52-8.4,9.79-10.98l1.37,3.33c-3.17,1.79-3.87,4.4-3.7,7.38,5.49,7,21.79,29.04,32.55,41.66-1.26-16.54-5.32-43.62-6.42-52.31-2.03-2.33-4.26-3.73-7.77-2.77l-1.37-3.33c6.17-2.54,11.83-3.17,14.8,.6-.55-4.77,2.39-7.69,8.56-10.23l1.37,3.33c-4.76,2.81-3.57,6.83-1.43,12.04l8.96,16.29c1.9,2.02,4.6,.54,4.6,.54l1.29,2.27s-3.16,.94-2.29,3.62l11.72,21.25c.93,1.69,1.86,3.37,2.84,5.17,1.54,2.29,3.58,3.52,8.09,2.39l1.78,3.17c-6.27,2.58-8.84,2.67-13.33,.38-.56,4.38-2.34,6.08-8.61,8.67l-1.78-3.17c3.63-2.1,3.89-4.04,3.05-6.38l-15.09-27.41c-1.87-1.67-4.17-.35-4.17-.35l-1.29-2.27s2.76-.77,2.41-3.06l-7.9-14.29c1.18,8.89,4.66,37.43,5.85,50.35,1.48,1.58,2.83,2.85,3.87,3.64,2.78,2.14,4.55,1.29,7.21,.56l1.68,3.21c-5.36,2.21-8.07,2.23-12.3-1.14-.52,5.33-2.46,7.23-7.82,9.44l-1.07-3.46c2.4-1.35,4.26-2,4.72-5.48,.18-1.29,.24-3.14,.18-5.31-8.12-9.94-25.49-32.26-31.1-39.57l4.33,15.39c1.36,1.87,3.86,.48,3.86,.48l.68,2.52Zm-16.38-20.79c1.11-.46,1.58-1.62,1.27-2.96-.37-1.19-1.38-1.62-2.49-1.17-1.11,.46-1.72,1.56-1.35,2.75,.31,1.33,1.47,1.83,2.58,1.37Zm.09,2.52l14.91,50.51,1.31-.54-14.91-50.51-1.31,.54Zm17.58,56.72c.91-.37,1.42-1.44,1.09-2.52-.37-1.19-1.28-1.67-2.19-1.29-1.11,.46-1.62,1.52-1.25,2.71,.33,1.08,1.24,1.56,2.35,1.1Zm20.23-79.49c-1.11,.46-1.52,1.48-.95,2.58,.72,1.17,1.87,1.67,2.98,1.21,1.11-.46,1.58-1.62,.86-2.79-.57-1.1-1.78-1.46-2.9-1Zm3.75,5.65l-1.31,.54,25.02,46.34,1.32-.54-25.02-46.34Zm25.59,49.16c-.91,.38-1.22,1.35-.64,2.46,.53,1,1.64,1.4,2.55,1.02,1.11-.46,1.42-1.44,.89-2.44-.57-1.1-1.68-1.5-2.8-1.04Z"/>
        <path class="cls-2" d="M258.79,162.75c1.49,.37,2.84,.31,3.99-.04,8.47-2.59,6.65-22.41-12.45-15.28-5.03,1.89-10.72,6.46-8.71,13.03l5.73,18.75c1.09,3.55,4.44,2.18,4.44,2.18l.72,2.37s-3.55,.73-2.46,4.29l7.31,23.92c2.01,6.57,9.28,7.18,14.51,5.93,19.72-4.73,9.91-22.23,1.75-19.74-1.15,.35-2.31,1.06-3.3,2.3-1.85-5.68,.02-11.55,6.83-12.1,7.12-.64,13.55,6.93,13.32,15.13,1.31-1.34,2.7-1.65,3.81-1.75l1.42,4.63s-3.19-.32-5.71,3.04c-4.33,5.68-9.06,8.9-15.86,10.97-7.32,2.24-14.32,3.67-19.85,.53l.07,.22c-1.46,4.57-3.5,6.13-9.99,8.12l-1.05-3.45c3.6-1.69,4.17-4.33,3.63-7.59l-8.16-26.72c-1.09-3.56-4.44-2.18-4.44-2.18l-.72-2.37s3.55-.73,2.46-4.29l-6.22-20.36c-1.4-3.46-3.24-5.73-7.48-5.02l-1.05-3.45c6.49-1.98,9.05-1.82,12.82,1.15,2.77-5.91,9.16-8.57,16.69-10.87,6.8-2.08,12.52-2.06,19.29,.23,3.97,1.38,6.43-.67,6.43-.67l1.42,4.63c-.98,.53-2.31,1.06-4.14,.68,4.78,6.67,3.68,16.54-2.59,19.99-5.95,3.35-10.78-.48-12.42-6.22Zm-23.27-2.79c1.15-.35,1.72-1.47,1.33-2.76-.36-1.19-1.46-1.79-2.61-1.44s-1.72,1.47-1.36,2.65c.4,1.29,1.5,1.9,2.65,1.55Zm.1,2.56l15.67,51.29,1.36-.42-15.67-51.29-1.36,.42Zm18.41,57.63c.94-.29,1.44-1.27,1.11-2.34-.36-1.19-1.32-1.72-2.27-1.43-1.15,.35-1.65,1.33-1.29,2.52,.33,1.08,1.29,1.61,2.44,1.25Zm9.58-37.91c-1.11,6.47,2.49,11.14,5.52,10.21-6.54,2.94-12.58-1.11-13.05-10.15-.22-5.59,3.17-11.33-1.82-13.82,5.76-.23,10.43,7.18,9.35,13.75Zm9.3-27.23c1.96,9.41-4.16,12.23-4.16,12.23,4.84-1.01,6.97-6.02,4.16-12.23Zm13.41,45.03c-1.14-6.72-5.7-9.68-10.28-7.82,0,0,6.65-1.09,10.28,7.82Z"/>
        <path class="cls-2" d="M322.46,146.44c1.45,.49,2.81,.53,3.98,.27,8.65-1.92,8.39-21.82-11.21-16.21-5.16,1.49-11.2,5.59-9.71,12.3l4.24,19.14c.8,3.63,4.25,2.52,4.25,2.52l.54,2.42s-3.6,.45-2.79,4.08l5.41,24.42c1.48,6.71,8.69,7.88,14,7.05,20.02-3.16,11.62-21.38,3.29-19.54-1.17,.26-2.38,.87-3.47,2.04-1.4-5.81,.92-11.51,7.75-11.53,7.15-.08,12.97,7.97,12.08,16.13,1.41-1.24,2.82-1.43,3.94-1.45l1.05,4.73s-3.15-.57-5.93,2.58c-4.76,5.32-9.73,8.16-16.67,9.69-7.48,1.66-14.56,2.53-19.83-1.03l.05,.22c-1.82,4.44-3.97,5.84-10.59,7.31l-.78-3.52c3.72-1.4,4.49-3.99,4.21-7.28l-6.04-27.28c-.8-3.63-4.25-2.52-4.25-2.52l-.54-2.42s3.6-.45,2.79-4.08l-4.6-20.79c-1.12-3.56-2.78-5.96-7.06-5.59l-.78-3.52c6.62-1.47,9.17-1.11,12.69,2.15,3.22-5.67,9.81-7.82,17.49-9.53,6.94-1.54,12.65-1.07,19.21,1.75,3.85,1.69,6.46-.16,6.46-.16l1.05,4.73c-1.02,.46-2.38,.87-4.18,.35,4.24,7.02,2.37,16.78-4.15,19.73-6.2,2.87-10.71-1.32-11.89-7.17Zm-22.98-4.6c1.18-.26,1.83-1.33,1.54-2.65-.27-1.21-1.32-1.9-2.49-1.64-1.18,.26-1.83,1.33-1.57,2.54,.29,1.32,1.34,2.01,2.52,1.75Zm-.1,2.56l11.59,52.36,1.39-.31-11.59-52.36-1.39,.31Zm13.82,58.9c.96-.21,1.54-1.15,1.29-2.25-.27-1.21-1.19-1.81-2.15-1.6-1.17,.26-1.75,1.2-1.48,2.41,.24,1.1,1.16,1.7,2.34,1.44Zm12.52-37.04c-1.62,6.36,1.6,11.3,4.7,10.61-6.75,2.42-12.45-2.09-12.21-11.14,.22-5.59,4.05-11.05-.73-13.92,5.76,.22,9.83,7.98,8.24,14.44Zm11.4-26.41c1.22,9.54-5.1,11.86-5.1,11.86,4.9-.62,7.42-5.45,5.1-11.86Zm9.83,45.94c-.61-6.79-4.93-10.1-9.63-8.6,0,0,6.71-.56,9.63,8.6Z"/>
        <path class="cls-2" d="M420.56,116.47c3.68,2.03,6.45,.42,6.45,.42l.62,4.81c-.74,.21-1.8,.57-2.93,.38,3.96,7.67,1.61,17.74-5.37,19.2-6.65,1.42-10.55-2.28-11.2-8.22,1.21,.87,2.68,1.13,4.08,.84,7.49-1.76,8-15.91-.9-18.17-1.48-.38-3.03-.41-4.44-.22-6.08,.78-10.76,6.38-9.86,13.42l2.21,17.21c.47,3.69,4.01,2.89,4.01,2.89l.32,2.46s-3.62,.12-3.15,3.81l2.95,23.02c.73,5.7,2.56,9.67,9.74,9.77l.46,3.57c-6.73,.86-11.72,.6-14.83-2.98-2.1,4.25-6.87,5.77-13.6,6.63l-.46-3.58c6.6-1.87,7.69-6.21,6.96-11.91l-2.95-23.02c-.47-3.69-4.01-2.89-4.01-2.89l-.32-2.46s3.62-.12,3.15-3.81l-2.21-17.21c-.9-7.04-6.85-11.27-12.93-10.5-1.41,.18-2.9,.6-4.24,1.34-8.03,4.44-3.98,18,3.72,17.81,1.42-.07,2.78-.7,3.73-1.84,.87,5.91-1.96,10.48-8.76,10.78-7.14,.23-12.06-8.9-10.05-17.34-1.14,.6-2.23,.63-3.13,.52l-.62-4.81s3.09,.85,6.14-2.04c5.71-5.39,10.86-7.3,18.54-7.6,4.06-.18,8.25-.15,12.21,3.2,2.98-4.25,7.04-5.33,11.01-6.18,7.62-1.66,12.89-.97,19.65,2.71Zm-61.07,19.99c.75,6.72,5.13,9.91,9.78,8.29,0,0-6.74,.75-9.78-8.29Zm30.98-11.24c1.19-.15,1.95-1.16,1.77-2.5-.16-1.23-1.14-2.01-2.33-1.86-1.19,.15-1.95,1.16-1.79,2.39,.17,1.34,1.15,2.12,2.35,1.97Zm-.34,2.54l6.82,53.19,1.41-.18-6.82-53.19-1.41,.18Zm8.46,59.91c.98-.13,1.64-1.01,1.49-2.12-.16-1.23-1.02-1.91-1.99-1.79-1.19,.15-1.85,1.03-1.69,2.26,.14,1.12,1,1.8,2.2,1.65Zm25.56-59.51c-.65,9.51-7.37,10.49-7.37,10.49,4.9,.39,8.34-3.8,7.37-10.49Z"/>
      </g>
    </g>
    <path class="cls-4" d="M478.74,101.2c-1.13,48.78-2.26,97.56-3.39,146.34"/>
    <path class="cls-6" d="M1299.25,156.42c-15.01,39.99-30.01,79.98-45.02,119.96"/>
    <g>
      <g>
        <path class="cls-3" d="M1313.93,248.78s-2.21-.58-3.4,1.23l-5.43,22.08c-1.06,4.48-2.07,7.88,2.96,8.83l-.78,3.04c-5.81-.75-7.68-1.78-9.13-5.31-3.24,2.92-5.4,3.43-11.22,2.67l.78-3.04c6.4-.06,5.93-3.85,7.43-8.76l5.02-20.37c.12-2.44-2.73-2.51-2.73-2.51l.57-2.19s2.59,.63,3.72-1.48l3.83-15.61c.99-4.69,.71-8.45-3.89-9.74l.4-3.09c5.81,.75,9,2.64,9.51,6.83,1.56-3.92,6.25-4.79,12.06-4.04l-.4,3.09c-3.15-.02-4.79,1.64-5.95,3.94,1.11,7.61,3.88,31.14,6.54,45.23,6.16-12.95,14.73-35.02,17.64-42.01-.52-2.62-1.59-4.63-4.64-5.41l.4-3.09c5.72,.74,10.23,2.7,10.85,6.8,1.64-3.81,5.09-4.74,10.82-4l-.4,3.09c-4.78,.07-5.61,3.59-6.24,8.42l-.27,16.07c.56,2.33,3.22,2.38,3.22,2.38v2.26s-2.78-.65-3.28,1.74l-.33,20.97c-.02,1.67-.05,3.33-.09,5.1,.17,2.38,1.17,4.18,5.04,5.27l-.02,3.14c-5.82-.75-7.78-1.79-10.17-5.44-2.3,3.04-4.37,3.56-10.18,2.81l.03-3.14c3.63-.02,4.66-1.36,5.03-3.47l.45-27.04c-.69-2.05-2.98-2.06-2.98-2.06v-2.26s2.41,.61,3.12-1.27l.21-14.11c-2.93,7.18-12.57,30.09-17.23,40.29,.43,1.83,.9,3.36,1.34,4.4,1.16,2.8,2.86,2.92,5.17,3.52l-.12,3.13c-4.97-.64-7.01-1.79-8.74-6.14-2.68,3.78-4.95,4.37-9.92,3.72l.68-3.05c2.38,.01,4.06,.33,5.9-2.09,.69-.89,1.53-2.26,2.41-3.91-1.83-10.94-5.27-35.15-6.35-43.05l-3.36,13.41c.22,1.99,2.7,2.02,2.7,2.02l-.57,2.19Zm-15.53,29.42c.84,.11,1.68-.47,1.9-1.42,.23-1.05-.24-1.8-1.09-1.91-1.03-.13-1.87,.45-2.1,1.5-.22,.95,.26,1.7,1.29,1.84Zm11.16-50.11l-10.5,44.3,1.22,.16,10.5-44.31-1.22-.16Zm1.01-1.93c1.03,.13,1.88-.54,2.22-1.68,.23-1.05-.34-1.81-1.37-1.95-1.03-.13-1.96,.43-2.19,1.49-.34,1.13,.31,2,1.34,2.14Zm35.62,54.79c-.84-.11-1.49,.49-1.54,1.57-.03,.98,.63,1.75,1.48,1.86,1.03,.13,1.68-.47,1.71-1.45,.04-1.08-.62-1.85-1.65-1.98Zm1.9-47.87l-1.22-.16-1.12,45.52,1.22,.16,1.12-45.52Zm-.39-5.84c-1.03-.13-1.78,.46-1.82,1.53,.04,1.18,.69,2.05,1.72,2.19,1.03,.13,1.88-.54,1.84-1.72,.04-1.08-.71-1.86-1.74-1.99Z"/>
        <path class="cls-3" d="M1381.72,277.19c-1.5,5.22-.61,8.79,5.37,9.35l.12,3.21c-5.57,.21-7.62-1.37-9.32-3.74-1.97,3-4.19,4.25-8.35,4.41l-.12-3.21c5.55-.89,7.55-5.36,8.55-9l5.98-21.87c-.07-1.95-2.52-1.66-2.52-1.66l.34-1.08,.24-1.28s2.56,.19,3.7-2.19l4.82-17.44c1.05-4.82-.59-8.07-5.79-7.87l-.12-3.21c5.76-.22,8.25,.56,10.56,3.89,2.1-4.56,6.25-4.72,11.46-4.73l.12,3.21c-4.54,.17-5.45,3.42-4.04,8.15l5.76,17.13c1.32,2.38,3.86,1.9,3.86,1.9l.33,1.25,.42,1.06s-2.94-.18-2.37,2.43l6.93,20.5c1.92,5.68,3.9,8.14,9.41,8.61l.12,3.21c-5.67,.22-10.71-.37-13.1-3.69-2.14,3.49-5.41,4.4-10.99,4.61l-.12-3.21c5.92-1.01,6.36-4.34,4.55-9.73l-7.47-22.13-12.09,.46-6.23,22.66Zm7.24-26.1l9.92-.38-5.43-15.97-4.49,16.35Zm8.39-20.79c.85-.03,1.49-.74,1.45-1.71-.04-1.07-.73-1.73-1.58-1.69-1.04,.04-1.67,.75-1.63,1.82,.04,.97,.72,1.63,1.76,1.59Zm.08,2.14l14.4,45.16,1.23-.05-14.4-45.16-1.23,.05Zm16.2,50.26c.85-.03,1.49-.74,1.45-1.71-.04-1.07-.73-1.73-1.58-1.7-1.04,.04-1.67,.75-1.63,1.82,.04,.97,.72,1.63,1.76,1.59Z"/>
        <path class="cls-3" d="M1455.22,249.54l.54,.41c-1.47-.85-2.75-1.04-3.68-.9-1.21,.19-1.98,.81-2.39,1.26l-2.34-1.5s2.12-1.71-.39-4.28c-3.86-2.64-7.05-5.88-8.78-10.74-2.45-7.01,2.33-18.6,16.64-20.08,5.84-.63,10.4,1.02,13.22,4.32,1.09-1.55,2.69-2.99,4.9-4.13l1.79,2.87c-3.32,2-3.52,5.58-3.57,8.94,.37,4.18-1.31,8.09-5.36,9.72-4.95,1.97-9.47-1.17-10.18-6.28,1.03,.43,2.1,.56,3.03,.41,3.64-.58,5.99-5.09,4-9.8-1.25-3.06-3.89-4.61-8.71-3.65-6.21,1.28-10.59,7.49-6.95,15.39,1.16,2.48,3.33,4.7,6.15,6.82,1.69,1.01,2.97,1.21,3.9,1.06,.84-.13,1.43-.62,1.76-.97l2.34,1.5s-1.53,1.82,.87,4.3c7.01,4.42,14.18,9.2,16.51,16.03,3.34,9.63-2.65,20.82-17.22,23.12-5.51,.87-12.31,.27-16.94-3.04-1.03,1.94-2.77,3.69-5.31,4.58l-1.79-2.87c4.19-2.54,1.69-7.46,1.54-11.48-.45-4.66,1.42-9.2,5.75-10.86,4.86-1.95,9.38,1.18,10.09,6.29-.92-.35-1.9-.49-2.92-.33-2.99,.47-5.6,3.35-4.79,7.26,1.47,6.87,7.2,9.21,13.22,7.97,6.21-1.28,12.15-8.52,8.13-18.24-2.64-6.39-7.69-9.93-13.08-13.12Zm-9.87-30.38c-4.38,3.16-5.15,8.01-4.54,11.26,1.31,6.5,9.59,11.01,14.05,14.44,4.79,3.68,14.26,9.68,17.67,17.32,1.8,4.15,2.47,9.57-1.45,13.83l.72-.31c3.51-3.81,3.34-9.79,1.83-13.89-2.91-8.12-12.28-14.13-17.68-18.01-4.44-3.24-12.31-7.62-13.78-13.89-.8-3.23-.69-7.38,3.95-11.37l-.76,.61Zm-3.22,52.36c-.54-8.29,5.03-9.96,5.03-9.96-4.26,.28-6.69,4.31-5.03,9.96Zm26.46-47.65c.54,8.29-5.03,9.96-5.03,9.96,4.26-.28,6.69-4.31,5.03-9.96Z"/>
        <path class="cls-3" d="M1521.53,207.07c1.18,.54,2.24,.51,3.16,.31,1.57-.34,2.61-1.36,2.61-1.36l.89,4.09c-.53,.21-1.3,.68-2.23,.88-.55,.12-1.13,.14-1.84,0,4.05,6.2,2.46,14.91-3.69,17.34-5.52,2.19-9.25-1.18-10.26-6.25,1.22,.73,2.32,.89,3.34,.67,6.38-1.38,6.91-19.43-9.1-14.77-9.37,2.73-12.37,15.24-10.92,28.17,.72,2.44,2.99,1.74,2.99,1.74l.47,2.19s-2.83,.32-2.36,2.51c3.39,15.21,12.52,29.17,24.63,27.04,9.12-1.68,11.04-15.55,5.11-20.14,1.21-.66,2.37-1.11,3.39-1.33,6.01-1.3,8.12,4.42,7.7,9.19-.55,8.19-9.22,13.26-16.2,14.97-18.84,4.58-31.46-10.32-35.09-27.07-.56-2.57-2.71-1.8-2.71-1.8l-.47-2.19s2.46-.24,2.15-3.46c-1.25-14.68,5.63-28.92,21.52-32.37,6.01-1.3,11.23-.84,16.9,1.62Zm-15.63,61.78l1.26,.02c-7.37-2.29-14.5-15.99-17-27.5-2.5-11.52-.18-23.58,5.58-28.71l-1.14,.54c-6.25,7.33-8.52,18.29-6.37,28.19,2.15,9.9,8.94,23.37,17.66,27.46Zm17.79-51.79c.14,8.24-5.57,9.58-5.57,9.58,4.25-.03,6.9-3.89,5.57-9.58Z"/>
        <path class="cls-3" d="M1536.37,229.71s2.8-.88,2.37-3.32c-4.39-16.57,.28-30.7,12.53-35.45,12.26-4.75,24.93,2.04,32.84,17.25l-.04-.09c.92,1.84,2.45,2.39,4.23,1.5l.81,2.09s-2.93,.82-1.73,3.91c6.96,19.02,2.54,34.83-11.04,40.09s-27.57-3.63-35.24-22.38c-1.2-3.09-3.93-1.51-3.93-1.51l-.81-2.09Zm29.42,25.68l1.25-.17c-7.74-1.39-17.26-14.72-21.8-26.44-4.5-11.62-4.37-24.62,.45-30.77l-1.04,.72c-4.89,8.58-5.22,20.3-1.32,30.38,3.9,10.08,13.06,23.24,22.45,26.29Zm-13.26-29.53s-2.93,.82-1.85,3.85c7.14,17.91,16.78,26.82,24.8,23.71,8.11-3.14,9.15-16.18,2.36-34.23-1.25-2.96-3.96-1.6-3.96-1.6l-.81-2.09s2.72-.84,1.55-3.84c-6.74-14-15.18-20.86-22.32-18.09-7.05,2.73-8.72,13.61-4.24,28.58,1.12,2.91,3.67,1.61,3.67,1.61l.81,2.09Zm8.85-33.71l-1.25,.17c7.7,1.3,16.56,10.82,21.06,22.44,4.54,11.72,6.48,27.99,1.7,34.22l1.04-.72c4.89-8.58,2.79-24.47-1.11-34.55-3.9-10.08-12.04-18.52-21.43-21.57Z"/>
        <path class="cls-3" d="M1626.98,153.8c3.63,.15,5.15-2.16,5.15-2.16l2.33,3.48c-.5,.45-1.17,1.14-2.12,1.42,6.02,4.41,8.09,13.1,3.25,16.92-4.6,3.67-9.04,2.3-11.83-2.04,1.27,.2,2.51-.16,3.48-.92,5.12-4.25,.05-15.39-7.7-13.71-1.29,.28-2.5,.85-3.52,1.54-4.4,2.95-5.87,9.08-2.45,14.18l8.35,12.46c1.79,2.67,4.22,.69,4.22,.69l1.19,1.78s-2.76,1.49-.97,4.16l11.16,16.67c2.76,4.13,5.71,6.49,11.31,3.8l1.73,2.59c-4.87,3.26-8.84,4.98-12.62,3.41,.01,4.1-3.09,7.11-7.96,10.37l-1.73-2.59c4.38-3.99,3.56-7.77,.79-11.9l-11.16-16.67c-1.79-2.67-4.22-.69-4.22-.69l-1.19-1.78s2.76-1.49,.97-4.16l-8.34-12.46c-3.41-5.1-9.65-6.08-14.05-3.13-1.02,.68-2.01,1.58-2.76,2.67-4.5,6.53,3.87,15.46,9.75,12.34,1.08-.6,1.88-1.61,2.18-2.87,2.95,4.24,2.52,8.86-2.62,11.72-5.43,2.93-12.76-2.24-14.47-9.54-.65,.9-1.49,1.35-2.22,1.61l-2.33-3.48s2.72-.53,3.96-3.94c2.33-6.37,5.59-9.84,11.41-13.03,3.07-1.7,6.33-3.3,10.68-2.23,.67-4.43,3.39-6.84,6.13-9.03,5.25-4.22,9.6-5.72,16.24-5.48Zm-39.54,39.01c3.17,4.91,7.79,5.68,10.76,2.64,0,0-4.93,3.18-10.76-2.64Zm19.63-20.64c.87-.58,1.06-1.65,.41-2.62-.6-.89-1.66-1.12-2.52-.54-.86,.58-1.06,1.65-.46,2.54,.65,.97,1.71,1.2,2.58,.62Zm.72,2.09l25.79,38.52,1.02-.68-25.79-38.52-1.02,.68Zm26.48-12.8c3.16,7.61-1.66,10.95-1.66,10.95,3.95-1.58,4.99-6.15,1.66-10.95Zm3.17,55.89c.71-.47,.88-1.41,.34-2.22-.6-.89-1.53-1.09-2.23-.61-.86,.58-1.04,1.51-.44,2.4,.54,.81,1.47,1.01,2.34,.43Z"/>
        <path class="cls-3" d="M1665.53,157.87l.68,.02c-1.69,.16-2.85,.75-3.52,1.41-.88,.86-1.14,1.8-1.21,2.41l-2.78,.13s.73-2.63-2.8-3.26c-4.68,.09-9.16-.7-13.38-3.66-6.06-4.29-8.9-16.51,1.91-26.01,4.39-3.9,9.07-5.21,13.28-4.15,0-1.9,.46-3.99,1.6-6.2l3.13,1.3c-1.54,3.56,.37,6.59,2.28,9.35,2.73,3.19,3.63,7.35,1.27,11.03-2.9,4.47-8.39,4.54-11.94,.79,1.08-.24,2.03-.76,2.71-1.43,2.63-2.58,1.93-7.62-2.42-10.31-2.79-1.77-5.84-1.5-9.22,2.08-4.32,4.64-4.28,12.24,3.27,16.57,2.38,1.35,5.44,1.9,8.96,1.99,1.97-.16,3.12-.74,3.79-1.4,.61-.59,.81-1.34,.87-1.81l2.78-.14s-.19,2.37,3.2,3c8.27-.47,16.89-.74,22.74,3.48,8.3,5.91,9.93,18.5-.61,28.83-3.98,3.9-9.87,7.36-15.57,7.35,.28,2.18-.11,4.61-1.66,6.81l-3.13-1.3c1.95-4.5-2.95-7.06-5.41-10.25-3.07-3.54-4.18-8.31-1.62-12.19,2.83-4.41,8.32-4.48,11.87-.72-.95,.25-1.83,.7-2.57,1.43-2.16,2.12-2.62,5.97,.31,8.69,5.18,4.74,11.21,3.33,15.39-1.18,4.32-4.64,4.95-13.99-3.96-19.57-5.85-3.67-12.02-3.62-18.26-3.1Zm-25.67-19.03c-1.74,5.12,.45,9.51,2.84,11.81,4.84,4.53,14.2,3.4,19.83,3.61,6.04,.22,17.23-.39,24.44,3.86,3.88,2.33,7.56,6.36,6.84,12.11l.4-.67c.65-5.14-2.96-9.91-6.57-12.38-7.08-4.92-18.2-4.39-24.85-4.42-5.5-.07-14.45,.93-19.28-3.33-2.52-2.17-4.84-5.62-3.38-11.55l-.27,.94Zm21.66-9.64c5.25,6.44,1.68,11.04,1.68,11.04,3.31-2.7,2.95-7.39-1.68-11.04Zm6.09,54.17c-5.25-6.44-1.68-11.04-1.68-11.04-3.31,2.7-2.95,7.39,1.68,11.04Z"/>
      </g>
      <g>
        <path class="cls-2" d="M1309.43,247.4s-2.21-.58-3.4,1.23l-5.43,22.08c-1.06,4.48-2.07,7.88,2.96,8.83l-.77,3.04c-5.81-.75-7.68-1.78-9.13-5.31-3.24,2.92-5.4,3.43-11.22,2.67l.78-3.04c6.4-.06,5.93-3.85,7.43-8.76l5.02-20.37c.12-2.44-2.73-2.51-2.73-2.51l.57-2.19s2.59,.63,3.72-1.48l3.83-15.61c.99-4.68,.71-8.45-3.89-9.73l.4-3.09c5.81,.75,9,2.64,9.51,6.83,1.56-3.92,6.25-4.79,12.06-4.04l-.4,3.09c-3.14-.02-4.79,1.64-5.95,3.94,1.11,7.61,3.88,31.14,6.54,45.23,6.16-12.95,14.73-35.02,17.64-42.01-.52-2.62-1.59-4.62-4.64-5.41l.4-3.09c5.72,.74,10.23,2.7,10.85,6.8,1.64-3.81,5.09-4.74,10.82-4l-.4,3.09c-4.78,.07-5.61,3.59-6.24,8.42l-.27,16.07c.56,2.33,3.22,2.38,3.22,2.38v2.26s-2.78-.65-3.28,1.74l-.33,20.97c-.03,1.67-.05,3.33-.09,5.1,.17,2.38,1.18,4.18,5.04,5.27l-.02,3.14c-5.81-.75-7.78-1.79-10.17-5.44-2.3,3.04-4.37,3.56-10.18,2.81l.02-3.14c3.63-.02,4.66-1.36,5.03-3.47l.45-27.05c-.69-2.05-2.98-2.05-2.98-2.05v-2.26s2.41,.6,3.13-1.27l.21-14.12c-2.93,7.18-12.57,30.09-17.23,40.29,.43,1.82,.9,3.36,1.34,4.4,1.16,2.8,2.86,2.92,5.17,3.52l-.12,3.13c-4.97-.64-7.01-1.79-8.74-6.14-2.68,3.78-4.95,4.37-9.92,3.72l.68-3.05c2.38,.01,4.06,.33,5.9-2.08,.69-.89,1.53-2.26,2.41-3.91-1.83-10.94-5.27-35.15-6.35-43.05l-3.36,13.41c.22,1.99,2.7,2.02,2.7,2.02l-.57,2.18Zm-15.53,29.41c.84,.11,1.68-.47,1.9-1.42,.23-1.05-.24-1.8-1.09-1.91-1.03-.13-1.87,.45-2.1,1.5-.22,.95,.26,1.7,1.29,1.83Zm11.16-50.11l-10.5,44.3,1.22,.16,10.5-44.31-1.22-.16Zm1.01-1.93c1.03,.13,1.88-.54,2.22-1.68,.23-1.05-.34-1.81-1.37-1.94-1.03-.13-1.96,.43-2.19,1.48-.34,1.13,.31,2,1.34,2.14Zm35.62,54.79c-.84-.11-1.49,.49-1.54,1.57-.03,.98,.63,1.75,1.48,1.86,1.03,.13,1.68-.47,1.71-1.45,.04-1.08-.62-1.85-1.65-1.98Zm1.9-47.87l-1.22-.16-1.12,45.52,1.22,.16,1.12-45.52Zm-.39-5.84c-1.03-.13-1.78,.46-1.82,1.53,.04,1.18,.69,2.05,1.72,2.19,1.03,.13,1.88-.54,1.84-1.73,.04-1.07-.71-1.86-1.74-1.99Z"/>
        <path class="cls-2" d="M1377.23,275.82c-1.5,5.22-.61,8.8,5.37,9.35l.12,3.21c-5.57,.21-7.62-1.37-9.32-3.74-1.97,3-4.19,4.25-8.35,4.41l-.12-3.21c5.55-.89,7.55-5.36,8.55-9l5.98-21.87c-.07-1.95-2.52-1.66-2.52-1.66l.34-1.08,.24-1.28s2.56,.19,3.7-2.19l4.82-17.44c1.05-4.82-.59-8.07-5.79-7.87l-.12-3.21c5.76-.22,8.25,.56,10.56,3.89,2.1-4.56,6.25-4.72,11.46-4.73l.12,3.21c-4.54,.17-5.45,3.42-4.04,8.15l5.76,17.13c1.32,2.39,3.86,1.9,3.86,1.9l.33,1.25,.42,1.06s-2.94-.18-2.37,2.43l6.93,20.5c1.92,5.68,3.91,8.14,9.41,8.61l.12,3.21c-5.67,.22-10.71-.37-13.1-3.69-2.14,3.49-5.42,4.4-10.99,4.61l-.12-3.21c5.92-1.01,6.36-4.34,4.55-9.73l-7.47-22.13-12.09,.46-6.23,22.66Zm7.24-26.1l9.92-.38-5.43-15.97-4.49,16.35Zm8.39-20.79c.85-.03,1.49-.74,1.45-1.71-.04-1.07-.73-1.73-1.58-1.69-1.04,.04-1.67,.75-1.63,1.82,.04,.97,.72,1.63,1.76,1.59Zm.08,2.14l14.4,45.16,1.23-.05-14.4-45.16-1.23,.05Zm16.2,50.26c.85-.03,1.49-.74,1.45-1.71-.04-1.07-.73-1.73-1.58-1.69-1.04,.04-1.67,.75-1.63,1.82,.04,.97,.72,1.63,1.76,1.59Z"/>
        <path class="cls-2" d="M1450.73,248.17l.54,.41c-1.47-.85-2.75-1.04-3.68-.9-1.21,.19-1.98,.81-2.38,1.26l-2.34-1.5s2.12-1.71-.39-4.28c-3.86-2.64-7.06-5.88-8.78-10.74-2.45-7.01,2.33-18.61,16.64-20.08,5.83-.63,10.4,1.02,13.22,4.32,1.09-1.55,2.69-2.99,4.9-4.12l1.79,2.87c-3.32,2-3.52,5.58-3.57,8.94,.37,4.18-1.31,8.09-5.36,9.72-4.95,1.97-9.47-1.17-10.18-6.28,1.03,.43,2.1,.56,3.03,.41,3.64-.58,5.99-5.09,4-9.8-1.25-3.06-3.89-4.61-8.71-3.65-6.21,1.28-10.59,7.49-6.95,15.39,1.16,2.48,3.33,4.7,6.15,6.82,1.69,1.01,2.97,1.21,3.9,1.06,.84-.13,1.43-.62,1.76-.97l2.34,1.5s-1.53,1.82,.87,4.3c7.01,4.42,14.18,9.2,16.5,16.03,3.34,9.63-2.65,20.82-17.22,23.12-5.51,.87-12.31,.27-16.94-3.04-1.03,1.94-2.77,3.69-5.31,4.58l-1.79-2.87c4.19-2.54,1.69-7.46,1.54-11.48-.45-4.66,1.42-9.2,5.75-10.86,4.86-1.95,9.38,1.18,10.09,6.29-.92-.35-1.9-.49-2.92-.33-2.99,.47-5.6,3.35-4.79,7.26,1.47,6.87,7.2,9.21,13.22,7.97,6.21-1.28,12.15-8.52,8.13-18.24-2.64-6.39-7.69-9.93-13.08-13.12Zm-9.87-30.38c-4.38,3.16-5.15,8.01-4.54,11.26,1.31,6.5,9.59,11.01,14.05,14.44,4.79,3.68,14.26,9.68,17.67,17.32,1.8,4.15,2.47,9.57-1.45,13.83l.72-.31c3.51-3.81,3.34-9.79,1.83-13.89-2.91-8.12-12.28-14.13-17.68-18.01-4.44-3.24-12.31-7.62-13.78-13.89-.8-3.23-.69-7.38,3.95-11.37l-.76,.61Zm-3.22,52.36c-.54-8.29,5.03-9.96,5.03-9.96-4.26,.28-6.69,4.31-5.03,9.96Zm26.46-47.65c.54,8.29-5.03,9.96-5.03,9.96,4.26-.28,6.69-4.31,5.03-9.96Z"/>
        <path class="cls-2" d="M1517.04,205.7c1.18,.54,2.24,.51,3.16,.31,1.57-.34,2.61-1.36,2.61-1.36l.89,4.09c-.53,.21-1.3,.68-2.23,.88-.55,.12-1.13,.14-1.84,0,4.05,6.2,2.46,14.91-3.69,17.34-5.52,2.19-9.25-1.18-10.26-6.25,1.22,.73,2.32,.89,3.34,.67,6.38-1.38,6.91-19.43-9.11-14.77-9.37,2.73-12.37,15.24-10.92,28.17,.72,2.43,2.99,1.74,2.99,1.74l.48,2.19s-2.83,.32-2.36,2.5c3.39,15.21,12.52,29.17,24.63,27.04,9.12-1.68,11.04-15.55,5.12-20.14,1.21-.66,2.37-1.11,3.39-1.33,6.01-1.3,8.12,4.42,7.7,9.19-.55,8.19-9.22,13.26-16.2,14.97-18.84,4.58-31.46-10.32-35.09-27.07-.56-2.57-2.71-1.8-2.71-1.8l-.47-2.19s2.46-.24,2.15-3.46c-1.25-14.68,5.63-28.92,21.52-32.37,6.01-1.3,11.23-.84,16.9,1.62Zm-15.63,61.78l1.26,.02c-7.37-2.29-14.5-15.99-16.99-27.5-2.5-11.52-.18-23.58,5.58-28.71l-1.14,.54c-6.25,7.33-8.51,18.29-6.37,28.19,2.15,9.9,8.94,23.37,17.66,27.46Zm17.8-51.79c.14,8.24-5.57,9.58-5.57,9.58,4.25-.02,6.9-3.89,5.57-9.58Z"/>
        <path class="cls-2" d="M1531.88,228.34s2.8-.88,2.37-3.32c-4.39-16.57,.28-30.7,12.53-35.45,12.26-4.75,24.93,2.04,32.84,17.25l-.04-.09c.92,1.84,2.45,2.39,4.23,1.5l.81,2.09s-2.93,.82-1.73,3.91c6.96,19.02,2.54,34.83-11.04,40.09-13.58,5.26-27.57-3.63-35.24-22.38-1.2-3.09-3.93-1.51-3.93-1.51l-.81-2.09Zm29.42,25.68l1.25-.17c-7.74-1.39-17.26-14.72-21.8-26.44-4.5-11.62-4.37-24.62,.45-30.77l-1.04,.72c-4.89,8.58-5.22,20.3-1.31,30.38,3.9,10.08,13.06,23.24,22.45,26.29Zm-13.26-29.54s-2.93,.82-1.85,3.85c7.14,17.91,16.78,26.82,24.8,23.71,8.11-3.14,9.15-16.18,2.36-34.23-1.25-2.96-3.96-1.6-3.96-1.6l-.81-2.09s2.72-.84,1.56-3.84c-6.74-14-15.18-20.86-22.32-18.09-7.05,2.73-8.72,13.61-4.24,28.58,1.13,2.91,3.67,1.61,3.67,1.61l.81,2.09Zm8.85-33.71l-1.25,.17c7.7,1.3,16.56,10.82,21.06,22.44,4.54,11.71,6.48,27.98,1.7,34.22l1.04-.72c4.89-8.58,2.79-24.47-1.11-34.55s-12.04-18.52-21.43-21.57Z"/>
        <path class="cls-2" d="M1622.5,152.42c3.63,.15,5.15-2.16,5.15-2.16l2.33,3.48c-.5,.45-1.17,1.14-2.12,1.42,6.02,4.41,8.09,13.1,3.25,16.92-4.6,3.67-9.04,2.3-11.83-2.04,1.27,.2,2.51-.16,3.48-.92,5.12-4.25,.05-15.39-7.7-13.71-1.29,.28-2.5,.85-3.52,1.54-4.4,2.95-5.87,9.08-2.45,14.18l8.34,12.46c1.79,2.67,4.22,.69,4.22,.69l1.19,1.78s-2.75,1.49-.97,4.16l11.16,16.67c2.76,4.13,5.71,6.49,11.31,3.8l1.73,2.59c-4.87,3.26-8.84,4.98-12.62,3.41,.01,4.09-3.09,7.11-7.96,10.37l-1.73-2.59c4.38-3.99,3.56-7.77,.8-11.9l-11.16-16.67c-1.79-2.67-4.22-.69-4.22-.69l-1.19-1.78s2.75-1.49,.97-4.16l-8.34-12.46c-3.41-5.1-9.65-6.08-14.05-3.14-1.02,.68-2.01,1.58-2.76,2.67-4.5,6.53,3.86,15.46,9.74,12.35,1.08-.6,1.88-1.61,2.18-2.87,2.95,4.24,2.52,8.86-2.62,11.72-5.43,2.93-12.76-2.24-14.46-9.54-.65,.9-1.49,1.35-2.22,1.61l-2.33-3.48s2.72-.53,3.96-3.94c2.34-6.37,5.59-9.84,11.42-13.03,3.07-1.7,6.33-3.3,10.68-2.23,.67-4.43,3.39-6.84,6.13-9.03,5.25-4.22,9.6-5.72,16.24-5.48Zm-39.54,39.01c3.17,4.91,7.79,5.68,10.76,2.64,0,0-4.93,3.18-10.76-2.64Zm19.63-20.65c.87-.58,1.06-1.65,.41-2.62-.6-.89-1.66-1.12-2.52-.54-.86,.58-1.06,1.65-.46,2.54,.65,.97,1.71,1.2,2.58,.62Zm.72,2.1l25.79,38.52,1.02-.68-25.79-38.52-1.02,.68Zm26.48-12.8c3.16,7.61-1.66,10.95-1.66,10.95,3.94-1.58,4.99-6.15,1.66-10.95Zm3.17,55.89c.71-.47,.88-1.41,.34-2.22-.6-.89-1.53-1.09-2.23-.61-.87,.58-1.04,1.51-.44,2.4,.54,.81,1.47,1.01,2.33,.43Z"/>
        <path class="cls-2" d="M1661.04,156.5l.68,.02c-1.7,.16-2.85,.74-3.52,1.41-.88,.86-1.14,1.8-1.21,2.41l-2.78,.13s.73-2.63-2.8-3.26c-4.68,.09-9.16-.7-13.38-3.66-6.06-4.29-8.9-16.51,1.91-26.01,4.39-3.9,9.07-5.21,13.28-4.15,0-1.9,.46-3.99,1.6-6.2l3.13,1.3c-1.54,3.56,.37,6.59,2.28,9.35,2.73,3.19,3.63,7.35,1.27,11.03-2.9,4.47-8.39,4.54-11.94,.79,1.08-.24,2.03-.76,2.71-1.43,2.63-2.58,1.93-7.62-2.42-10.31-2.79-1.77-5.84-1.5-9.22,2.08-4.32,4.64-4.28,12.25,3.27,16.57,2.38,1.35,5.44,1.9,8.96,1.99,1.97-.15,3.12-.74,3.79-1.4,.61-.6,.81-1.34,.87-1.81l2.78-.14s-.19,2.37,3.2,3c8.27-.47,16.89-.74,22.74,3.48,8.3,5.91,9.93,18.5-.61,28.83-3.98,3.9-9.87,7.36-15.57,7.35,.28,2.18-.11,4.61-1.66,6.81l-3.13-1.3c1.95-4.5-2.95-7.06-5.41-10.24-3.07-3.54-4.18-8.31-1.62-12.19,2.83-4.41,8.32-4.48,11.87-.72-.95,.25-1.83,.7-2.57,1.43-2.16,2.12-2.62,5.97,.31,8.69,5.18,4.74,11.21,3.33,15.39-1.18,4.32-4.64,4.95-13.99-3.96-19.57-5.85-3.67-12.03-3.62-18.26-3.1Zm-25.67-19.03c-1.74,5.11,.45,9.51,2.84,11.81,4.84,4.53,14.2,3.41,19.83,3.61,6.04,.22,17.23-.39,24.44,3.86,3.88,2.34,7.56,6.36,6.84,12.11l.4-.67c.65-5.14-2.96-9.91-6.57-12.38-7.08-4.92-18.2-4.39-24.85-4.41-5.5-.07-14.45,.93-19.28-3.33-2.52-2.17-4.84-5.62-3.38-11.55l-.27,.94Zm21.66-9.64c5.26,6.44,1.68,11.04,1.68,11.04,3.31-2.7,2.95-7.39-1.68-11.04Zm6.09,54.17c-5.25-6.44-1.68-11.03-1.68-11.03-3.31,2.7-2.95,7.39,1.68,11.03Z"/>
      </g>
    </g>
    <g>
      <g>
        <path class="cls-3" d="M553.08,170.36c.65,2.15,3.59,.82,3.59,.82v2.38s-2.93,.71-3.59,3.43v11.29c-.67,7.87,2.02,22.95,13.82,18.04,11.09-4.62,17.2-16.7,16.61-28.72v-9.84c0-3.52-3.72-1.92-3.72-1.92v-2.38s3.72-.77,3.72-4.19v-16.99c-.66-4.45-4.82-6.66-9.95-5.6v-3.31c6.77-2.22,9.08-2.1,11.82,.56,2.74-4.38,5.15-5.98,11.96-8.03v3.31c-5.71,2.44-9.99,7.93-9.99,13.31,0,6.21,0,9.32,0,15.54,0,3.42,3.73,1.85,3.73,1.85v2.38s-3.73,.74-3.73,4.26c0,3.94,0,5.9,0,9.84,.2,14.72-6.86,27.9-20.88,33.07-14.83,5.47-27.66,.69-25.64-17.2,.04-4.61,.07-6.92,.11-11.54-.87-1.55-3.35-.32-3.35-.32v-2.38s2.6-.65,3.46-2.93c.09-7.61,.13-11.42,.22-19.03-.11-4.31-.98-7.22-5.84-6.02v-3.31c6.7-2.5,8.98-2.48,11.69,.07,2.71-4.49,5.09-6.19,11.84-8.52v3.31c-5.66,2.68-5.87,6.91-5.87,12.3v16.47Zm-6.08-22.7c-1.19,.43-2.06,1.57-2.06,2.71,0,1.24,.87,1.76,2.06,1.33,1.19-.43,2.06-1.57,2.06-2.81,0-1.14-.87-1.66-2.06-1.23Zm.65,6.08c-.56,.2-.85,.3-1.41,.51v43.19c0,4.66,3.9,9.58,6.95,9.54-6.95-3.46-5.54-10.88-5.54-21.24,0-10.67,0-21.34,0-32Z"/>
        <path class="cls-3" d="M610.1,135.73c0-5.39-.22-9.48-5.95-8.53,0-1.33,0-1.99,0-3.31,6.82-2,9.14-1.8,11.9,.95,2.76-4.29,5.18-5.81,12.04-7.63,0,1.33,0,1.99,0,3.31-3.32,1.3-4.76,3.24-5.42,5.6,9.13,14.42,18.21,28.87,27.26,43.33,0-8.08,0-12.12,0-20.2,0-3.52-3.89-2.16-3.89-2.16v-2.38s3.89-.53,3.89-3.95c0-7.66,0-11.5,0-19.16-.33-3.44-1.45-5.77-5.89-5.19v-3.31c6.77-1.68,9.22-1.42,12,1.45,2.78-4.18,5.23-5.59,12.03-7.1,0,1.33,0,1.99,0,3.31-5.8,2.01-6.02,6.23-6.02,11.61,0,6.21,0,9.32,0,15.54,0,3.42,3.9,2.12,3.9,2.12v2.38s-3.9,.47-3.9,3.99c0,10.81,0,16.22,0,27.03,.33,2.31,1.56,3.67,6.02,3.2,0,1.33,0,1.99,0,3.31-6.91,1.54-9.36,1.29-12.14-1.68-2.78,4.28-5.23,5.67-12.11,7.39,0-1.33,0-1.99,0-3.31,3.66-1.32,5.22-2.94,5.77-4.84-9.13-14.58-18.29-29.14-27.48-43.68,0,5.63,0,8.45,0,14.09,0,3.42,3.87,1.96,3.87,1.96v2.38s-3.87,.63-3.87,4.15c0,10.81,0,16.22,0,27.03,.33,2.29,1.55,3.61,5.97,2.95,0,1.33,0,1.99,0,3.31-6.86,1.82-9.17,1.65-11.93-1.1-2.76,4.29-5.19,5.79-12.01,7.79,0-1.33,0-1.99,0-3.31,4.4-1.81,5.62-3.8,5.95-6.28,0-10.81,0-16.22,0-27.03,0-3.52-3.86-2-3.86-2v-2.38s3.86-.7,3.86-4.11v-15.54Zm5.96-6.03c1.21-.34,2.1-1.41,2.1-2.65,0-1.14-.88-1.72-2.1-1.39-1.21,.34-2.1,1.42-2.1,2.56,0,1.24,.88,1.82,2.1,1.48Zm.11,57.87c.99-.28,1.77-1.22,1.77-2.25,0-1.14-.77-1.65-1.77-1.37-1.21,.34-1.99,1.28-1.99,2.42,0,1.04,.77,1.54,1.99,1.2Zm-.77-55.4c0,16.43,0,32.87,0,49.3,.57-.16,.86-.24,1.43-.4,0-16.43,0-32.87,0-49.3-.57,.16-.86,.24-1.43,.4Zm40.44-12.7c1.22-.29,2.11-1.32,2.11-2.57,0-1.14-.89-1.76-2.11-1.47-1.22,.29-2.11,1.33-2.11,2.47,0,1.24,.89,1.86,2.11,1.57Zm.11,57.87c1-.24,1.78-1.14,1.78-2.18,0-1.14-.78-1.68-1.78-1.45-1.22,.29-2,1.2-2,2.34,0,1.04,.78,1.58,2,1.29Zm-.78-55.44c0,16.43,0,32.87,0,49.3,.58-.14,.87-.2,1.45-.34,0-16.43,0-32.87,0-49.3-.58,.14-.87,.2-1.45,.34Z"/>
        <path class="cls-3" d="M681.02,118.21c0-5.39-.23-9.5-6.03-8.98,0-1.33,0-1.99,0-3.31,6.92-1.49,9.27-1.12,12.07,1.84,2.8-4.09,5.25-5.42,12.2-6.74v3.31c-5.83,1.83-6.05,6.03-6.05,11.42,0,6.21,0,9.32,0,15.54,0,3.42,3.92,2.25,3.92,2.25,0,.95,0,1.43,0,2.38,0,0-3.92,.34-3.92,3.87,0,10.81,0,16.22,0,27.03,.34,2.32,1.57,3.72,6.05,3.39v3.31c-6.95,1.31-9.29,.97-12.09-1.99-2.8,4.09-5.26,5.4-12.18,6.89v-3.31c4.46-1.48,5.7-3.38,6.03-5.83,0-10.81,0-16.22,0-27.03,0-3.52-3.91-2.28-3.91-2.28v-2.38s3.91-.41,3.91-3.83v-15.54Zm6.04-5.59c1.23-.25,2.13-1.26,2.13-2.5,0-1.14-.9-1.79-2.13-1.54s-2.12,1.26-2.12,2.4c0,1.24,.89,1.89,2.12,1.64Zm.11,57.88c1.01-.2,1.79-1.09,1.79-2.12,0-1.14-.78-1.71-1.79-1.5-1.23,.25-2.01,1.13-2.01,2.27,0,1.04,.78,1.6,2.01,1.35Zm-.78-55.46c0,16.43,0,32.87,0,49.3,.58-.12,.87-.18,1.45-.29,0-16.43,0-32.87,0-49.3-.58,.12-.87,.18-1.45,.29Z"/>
        <path class="cls-3" d="M758.53,105.01c1.92-5.84,1.13-9.49-5.98-9.37,0-1.37,0-2.05,0-3.42,6.65-.89,9.03,.59,10.95,2.95,2.48-3.41,5.19-4.99,10.17-5.54,0,1.37,0,2.05,0,3.42-6.67,1.47-9.26,6.47-10.62,10.47-2.53,7.48-3.79,11.22-6.32,18.72,0,2.17,2.93,1.59,2.93,1.59-.18,.48-.27,.72-.45,1.2-.14,.56-.2,.83-.34,1.39,0,0-3.27,.11-4.63,2.98-3.29,9.67-4.94,14.52-8.23,24.22-1.8,5.22,.34,8.53,6.54,7.7,0,1.37,0,2.05,0,3.42-6.88,.92-9.81,.42-12.4-2.82-2.7,5.16-7.66,5.9-13.84,6.68,0-1.37,0-2.05,0-3.42,5.4-.87,6.63-4.47,5.17-9.31-2.26-7.51-5.17-14.62-7.65-21.98-1.46-2.56-4.61-1.62-4.61-1.62-.13-.52-.2-.77-.34-1.29-.18-.43-.27-.64-.45-1.06,0,0,4.04-.16,2.81-3.37-2.52-7.16-3.78-10.74-6.29-17.89-1.46-4.31-3.15-6.1-8.75-5.7,0-1.37,0-2.05,0-3.42,6.73-1.22,11.45-1.19,14.14,1.88,2.7-3.97,6.63-5.46,13.27-6.48v3.42c-7.09,1.92-7.76,5.57-5.85,11.06,2.11,6.13,3.17,9.19,5.29,15.33,1.35,2.9,4.73,1.98,4.73,1.98,.14,.52,.2,.78,.34,1.3,.18,.43,.27,.64,.45,1.07,0,0-3.6,.23-2.81,3.11,2.75,7.83,4.12,11.75,6.87,19.6,3.02-8.93,4.53-13.39,7.55-22.29,.11-2.29-2.93-1.67-2.93-1.67,.18-.48,.27-.72,.45-1.2,.14-.56,.2-.84,.34-1.39,0,0,3.49-.06,4.74-3.23,2.3-6.81,3.45-10.21,5.75-17.01Zm-37.73,2.23c1.01-.17,1.8-1.02,1.8-2.06,0-1.14-.79-1.73-1.8-1.57-1.24,.21-2.02,1.06-2.02,2.2,0,1.04,.79,1.63,2.02,1.42Zm1.8,2.81c-.58,.1-.88,.14-1.46,.24,5.26,14.67,10.51,29.34,15.75,44.02,.59-.09,.88-.13,1.46-.22-5.24-14.68-10.49-29.36-15.75-44.04Zm13.16,22.26c0,.1,.11,.19,.11,.29-.05-.12-.07-.18-.11-.29Zm2.93,27.32c1.01-.15,1.8-.99,1.8-2.03,0-1.14-.79-1.75-1.8-1.6-1.24,.18-2.03,1.03-2.03,2.17,0,1.04,.79,1.64,2.03,1.46Z"/>
        <path class="cls-3" d="M815.08,103.98c1.36,.63,2.83,.93,3.97,.77,13.22-1.97,4.46-18.75-7.71-16.24-5.08,1.05-12.57,3.81-12.57,10.12,0,7.21,0,10.81,0,18.02,0,3.42,3.74,2.79,3.74,2.79v2.28s-3.74,0-3.74,3.42c0,9.2,0,13.8,0,22.99,0,6.32,7.4,7.85,12.57,8.1,10.94,.54,21.02-16.95,7.71-17.42-1.12-.04-2.61,.49-3.97,1.41-.11-5.48,3.54-10.38,10.43-9.48,7.22,.94,11.34,9.12,8.62,16.41,1.7-.92,3.18-.88,4.31-.73,0,1.78,0,2.67,0,4.45,0,0-3.06-1-6.58,1.47-6.01,4.15-11.68,6.05-19.05,6.58-7.93,.58-15.29,.6-19.82-3.23v.21c-2.83,3.89-5.32,4.94-12.33,5.67,0-1.33,0-1.99,0-3.31,4.07-.95,5.43-3.25,5.88-6.3,0-10.27,0-15.41,0-25.69,0-3.42-3.73-2.73-3.73-2.73v-2.28s3.73-.07,3.73-3.48c0-7.83,0-11.75,0-19.58-.34-3.38-1.47-5.77-5.88-5.82,0-1.33,0-1.99,0-3.31,7.01-.74,9.5-.13,12.33,3.24,4.53-4.87,11.66-6.12,19.82-6.71,7.37-.53,13.04,.68,19.05,4.19,3.52,2.09,6.58,.81,6.58,.81v4.45c-1.13,.26-2.61,.44-4.31-.31,2.72,7.01-1.4,15.56-8.62,17.36-6.89,1.72-10.54-2.63-10.43-8.13Zm-22.2-6.89c1.24-.12,2.15-1.03,2.15-2.27,0-1.14-.91-1.89-2.15-1.77-1.24,.12-2.15,1.03-2.15,2.17,0,1.24,.91,1.99,2.15,1.87Zm.11,57.89c1.02-.09,1.81-.89,1.81-1.93,0-1.14-.79-1.79-1.81-1.7-1.24,.12-2.04,.92-2.04,2.05,0,1.04,.79,1.69,2.04,1.57Zm-.79-55.55c0,16.43,0,32.87,0,49.3,.59-.05,.88-.08,1.47-.14,0-16.43,0-32.87,0-49.3-.59,.05-.88,.08-1.47,.14Zm21.74,23.07c-3.03,5.59-.91,10.52,2.38,10.29-7.37,1.34-12.16-3.52-9.86-11.7,1.43-5.06,6.57-9.62,2.38-12.82,5.78,.9,8.17,8.55,5.1,14.23Zm17.12,20.68c.91-6.26-2.72-9.91-7.82-9.18,0,0,6.92,.42,7.82,9.18Zm.34-43.21c-.91,8.85-7.82,10.08-7.82,10.08,5.1,.1,8.73-3.92,7.82-10.08Z"/>
        <path class="cls-3" d="M901.33,145.25c1.82,4.79,3.41,6.98,9.2,7.75v3.42c-6.81-.17-11.81-1.06-14.53-4.72-2.73,3.6-6.7,4.38-13.4,4.4,0-1.37,0-2.05,0-3.42,7.15-.85,7.15-4.45,5.9-10.15-1.5-4.52-2.25-6.78-3.75-11.3-2.38-5.8-4.89-9.13-10.45-11.23-3.74-1.41-4.2-2.13-.79-3.2,11.13-3.44,17.62-10.01,18.17-17.14,.59-7.74-4.93-14.83-14.99-14.8-5.87,.02-12.83,4.44-12.83,11.38,0,7.33,0,11,0,18.33,.8,2.05,3.63,1.69,3.63,1.69v2.38s-2.84-.15-3.63,1.94c0,10.4,0,15.6,0,26,.11,3.52,1.02,5.87,6.13,6.31v3.31c-7.04,.11-9.42-.64-12.26-4.19-2.84,3.7-5.22,4.59-12.26,4.87v-3.31c5.11-.72,6.01-3.22,6.13-6.65,0-9.9,0-14.85,0-24.75,0-3.42-3.86-2.97-3.86-2.97v-2.38s3.86,.28,3.86-3.14c0-7.25,0-10.88,0-18.13,0-4.45-.57-7.76-6.13-7.85v-3.31c3.52-.14,8.97-.32,12.26,3.11,5.11-3.66,12.38-4.84,20.43-5.01,10.46-.23,25.6,4.88,26,17.14,.46,14.1-18.88,18.86-30.09,18.42,0,0,3.76,1.6,9.54,3.46,6.69,2.15,12.15,5.54,14.76,14.69,1.18,3.62,1.77,5.43,2.95,9.05Zm-43.6-52.06c1.25-.03,2.16-.89,2.16-2.13,0-1.14-.91-1.95-2.16-1.91-1.25,.03-2.16,.89-2.16,2.03,0,1.24,.91,2.04,2.16,2.01Zm.11,57.9c1.02-.03,1.82-.77,1.82-1.81,0-1.14-.8-1.84-1.82-1.82-1.25,.03-2.04,.78-2.04,1.92,0,1.04,.79,1.74,2.04,1.7Zm-.79-55.6c0,16.43,0,32.87,0,49.3,.59-.02,.89-.02,1.47-.04,0-16.43,0-32.87,0-49.3-.59,.02-.89,.02-1.47,.04Zm32.24,35.87c2.04,5.93,3.07,8.9,5.11,14.85,.59,0,.89,0,1.48,.01-2.04-5.95-3.07-8.92-5.11-14.85-1.82-4.46-5.45-7.79-8.74-8.5,4.2,1.33,6.36,6.01,7.27,8.5Zm.57-44.43c8.35,5.16,8.59,20.23,0,25.38,.23-.04,.34-.06,.57-.1,10.92-4.01,8.79-20.21,0-25.17-.23-.04-.34-.06-.57-.11Zm5.68,63.85c1.02,.01,1.82-.71,1.82-1.74,0-1.14-.79-1.87-1.82-1.88-1.25-.01-2.04,.71-2.04,1.85,0,1.04,.79,1.77,2.04,1.78Z"/>
        <path class="cls-3" d="M944.9,122.15c.23,.22,.34,.33,.57,.55-1.59-1.24-3.06-1.73-4.2-1.8-1.47-.08-2.5,.38-3.06,.76-1-.84-1.5-1.26-2.5-2.1,0,0,2.87-1.83,.34-4.54-3.38-3.62-7.56-7.91-8.4-13.13-1.86-11.61,13.32-18.6,23.48-17.06,6.71,1.02,12.13,3.67,14.84,7.82,1.59-1.32,3.74-2.39,6.57-2.97,.63,1.38,.95,2.07,1.58,3.45-4.3,1.17-5.44,5-5.89,8.3-.56,4.14-3.07,8.03-8.16,8.68-6.22,.78-10.99-3.56-10.88-9.04,1.13,.69,2.38,1.09,3.51,1.16,4.42,.3,8-3.8,6.57-9.17-.92-3.46-3.76-5.79-9.63-5.95-7.57-.2-13.95,5.3-11.11,14.36,.91,2.85,3.06,5.65,6.01,8.52,1.81,1.45,3.29,1.96,4.42,2.03,1.02,.07,1.81-.3,2.27-.58,1,.85,1.5,1.28,2.49,2.14,0,0-2.15,1.51,.23,4.68,7.48,6.32,15.25,13.3,16.54,20.85,2.4,14.07-12.67,20.31-24.7,19.63-6.66-.38-14.63-2.55-19.51-7-1.59,1.8-3.97,3.26-7.15,3.67-.64-1.35-.95-2.02-1.59-3.37,5.45-1.79,3.56-7.57,3.97-11.67,.49-4.78,3.44-9.28,8.85-10.1,6.09-.92,10.89,3.35,10.78,8.83-1.02-.58-2.16-.95-3.4-1.01-3.63-.19-7.27,2.25-7.03,6.49,.42,7.45,6.81,11.18,14.18,11.31,7.59,.14,15.97-5.86,13.04-16.95-1.93-7.28-7.25-12.22-13.04-16.82Zm-19.62,19.94c.91-8.77,7.83-9.29,7.83-9.29-5.1-.66-8.74,3.04-7.83,9.29Zm13.61-53.84c-5.78,2.28-7.63,7.21-7.49,10.71,.28,7.01,9.31,13.9,13.95,18.25,6.39,5.99,14.55,13.68,17.68,22.35,1.36,4.77,1.13,10.54-4.31,13.97,.36-.06,.54-.08,.91-.14,4.87-3.05,5.87-9.43,4.76-13.93-2.18-8.83-11.02-17.27-17.56-23.09-4.63-4.13-13.11-10.82-13.72-17.64-.31-3.52,.57-7.86,6.81-10.94-.41,.18-.61,.28-1.02,.46Zm26.64,10.59c-.91,8.73-7.82,9.03-7.82,9.03,5.1,.79,8.72-2.75,7.82-9.03Z"/>
        <path class="cls-3" d="M987.25,102.39c0-5.39-.23-9.57-6.11-10.86v-3.31c7.02,.68,9.39,1.77,12.21,5.6,2.83-3.21,5.31-3.78,12.31-2.93v3.31c-5.87,.01-6.1,4.15-6.1,9.53v15.54c0,3.42,3.95,3.47,3.95,3.47v2.38s-3.95-.88-3.95,2.64v27.03c.34,2.42,1.58,4.21,6.1,5.28v3.31c-7-.85-9.37-1.92-12.2-5.75-2.83,3.21-5.31,3.76-12.33,3.09v-3.31c4.53-.08,5.77-1.6,6.11-3.95v-27.03c0-3.52-3.96-3.51-3.96-3.51v-2.38s3.96,.81,3.96-2.61v-15.54Zm6.1-3.7c1.24,.14,2.15-.59,2.15-1.84,0-1.14-.9-2.07-2.15-2.2s-2.15,.6-2.15,1.74c0,1.24,.9,2.17,2.15,2.3Zm.11,57.91c1.02,.11,1.81-.53,1.81-1.56,0-1.14-.79-1.95-1.81-2.06-1.24-.14-2.04,.51-2.04,1.64,0,1.04,.79,1.84,2.04,1.98Zm-.79-55.71v49.3c.59,.06,.88,.1,1.47,.16v-49.3c-.59-.06-.88-.1-1.47-.16Z"/>
        <path class="cls-3" d="M1081.67,107.85c3.47,2.97,6.48,2.46,6.48,2.46v4.45c-.78-.06-1.9-.08-3.02-.62,3.02,8.07-.68,16.19-7.94,15.3-6.93-.85-10.42-5.29-10.31-10.76,1.12,1.14,2.58,1.83,4.03,2,7.84,.76,10.19-11.63,1.46-16.4-1.46-.79-3.02-1.3-4.48-1.57-6.28-1.17-11.78,2.44-11.78,8.97v15.95c0,3.42,3.7,3.76,3.7,3.76v2.28s-3.7-.96-3.7,2.46v21.34c0,5.28,1.35,9.32,8.64,11.58,0,1.33,0,1.99,0,3.31-6.95-1.27-12.01-2.95-14.7-7.02-2.7,3.18-7.75,3.16-14.73,2.11v-3.31c6.98,.13,8.66-3.41,8.66-8.69v-21.34c0-3.42-3.71-3.7-3.71-3.7v-2.28s3.71,.9,3.71-2.52v-15.95c0-6.53-5.51-11.97-11.81-12.91-1.46-.22-3.04-.24-4.51,.07-8.79,1.84-6.42,15.02,1.46,16.89,1.46,.32,2.93,.12,4.05-.65,.11,5.51-3.42,8.83-10.36,7.31-7.3-1.59-11.17-11.02-8.01-18.07-1.24,.25-2.37,0-3.27-.32v-4.45s3.05,1.53,6.54-.28c6.54-3.37,12.07-3.71,19.94-1.89,4.15,.96,8.44,2.16,12.03,6.29,3.59-2.92,7.87-2.7,12.01-2.27,7.95,.82,13.23,3.07,19.6,8.49Zm-64.83,.3c-.11,6.2,3.95,10.15,8.91,9.92,0,0-6.99-1.07-8.91-9.92Zm33.1-1.67c1.24,.21,2.13-.47,2.13-1.71,0-1.14-.9-2.12-2.13-2.33-1.23-.21-2.13,.48-2.13,1.61,0,1.24,.9,2.22,2.13,2.43Zm.11,57.92c1.01,.17,1.8-.42,1.8-1.46,0-1.14-.79-2-1.8-2.17-1.24-.21-2.02,.39-2.02,1.53,0,1.04,.79,1.89,2.02,2.1Zm-.79-55.75v49.3c.58,.1,.88,.15,1.46,.24v-49.3c-.58-.1-.88-.15-1.46-.24Zm34.53,10.72c-1.9,8.21-8.84,6.95-8.84,6.95,4.93,1.88,8.95-.71,8.84-6.95Z"/>
        <path class="cls-3" d="M1137.33,129.26c2.99-4.92,3.77-8.98-2.88-10.9v-3.42c6.09,1.15,9.3,4.2,10.41,7.09,3.32-2.11,6.3-2.65,11.15-1.28,0,1.49,0,2.24,0,3.73-6.95-1.95-10.71,1.3-13.26,4.24-5,6.46-7.5,9.7-12.52,16.22,1,1.7,3.33,2.09,3.33,2.09v2.38s-3.77-1.37-3.77,2.15v27.03c.33,2.47,1.55,4.42,5.99,6.09v3.31c-6.87-1.78-9.2-3.17-11.98-7.37-2.78,2.84-5.22,3.06-12.12,1.45v-3.31c4.45,.52,5.67-.84,6.01-3.14v-27.97c-.67-2.64-3.67-3.04-3.67-3.04v-2.38s1.78,.63,2.89-.04c-4.95-8.72-9.92-17.42-14.92-26.11-2.45-3.96-4.68-6.11-9.15-7.27v-3.62c6.81,1.13,9.71,2.93,13.61,7.44,1.45-3.3,6.68-3.55,12.68-1.49,.09,1.43,.13,2.14,.22,3.57-6.67-1.5-6.23,2.56-2.67,8.99,4.27,7.35,6.4,11.04,10.66,18.45,4-5.18,5.99-7.75,9.98-12.89Zm-29.66-11.59c1,.23,1.78-.32,1.78-1.35,0-1.14-.78-2.04-1.78-2.27-1.23-.28-2.01,.27-2.01,1.41,0,1.04,.78,1.94,2.01,2.22Zm.67,1.08c5.21,8.86,7.81,13.3,13.01,22.23,.53,.13,.8,.19,1.33,.32-5.2-8.94-7.8-13.39-13.01-22.25-.53-.12-.8-.18-1.34-.31Zm15.9,28.84c1,.25,1.78-.29,1.78-1.32,0-1.14-.78-2.06-1.78-2.3-1.22-.3-2,.24-2,1.37,0,1.04,.78,1.95,2,2.25Zm0,32.11c1,.25,1.78-.29,1.78-1.32,0-1.14-.78-2.06-1.78-2.3-1.22-.3-2,.23-2,1.37,0,1.04,.78,1.95,2,2.25Zm-.78-30.64c0,9.65,0,14.48,0,24.13,.58,.14,.87,.21,1.44,.35v-24.13c-.58-.14-.87-.21-1.44-.36Z"/>
        <path class="cls-3" d="M1168.23,124.9c7.15,3.1,13.66,20.96,1.87,18.58-8.8-1.78-9.46-16.07,0-13.26,1.32,.39,2.42,1.03,3.41,1.74-.55-1.93-2.86-4.38-6.27-4.87,.4-.88,.59-1.32,.99-2.19Zm-2.64,8.86c-1.21,3.48,.77,6.74,4.29,8,0,0-4.62-2.5-4.29-8Z"/>
        <path class="cls-3" d="M1210.15,174.63c.22,.28,.33,.42,.54,.71-1.52-1.66-2.94-2.56-4.03-2.93-1.42-.48-2.4-.29-2.94-.06-.96-1.11-1.44-1.66-2.4-2.77,0,0,2.81-.99,.33-4.45-3.33-4.64-7.14-9.76-8.08-15.4-2.07-12.38,13.99-14.67,22.56-10.72,6.23,2.87,11.61,6.94,14.21,11.83,1.52-.89,3.57-1.38,6.27-1.19,.6,1.55,.91,2.33,1.51,3.88-4.1,0-5.2,3.59-5.62,6.7-.55,4.05-2.93,7.2-7.8,6.47-5.95-.9-10.53-6.53-10.42-11.98,1.09,1,2.28,1.73,3.37,2.11,4.24,1.49,7.67-1.62,6.29-7.39-.88-3.71-3.59-6.81-9.23-8.55-7.26-2.24-13.4,1.54-10.67,11.36,.87,3.09,2.94,6.48,5.77,10.14,1.74,1.94,3.16,2.85,4.24,3.23,.98,.34,1.74,.19,2.17,.04,.96,1.12,1.43,1.68,2.39,2.81,0,0-2.06,.93,.22,4.74,6.28,6.66,14,16.27,15.82,25.32,2.9,14.43-13.01,16.67-23.64,12.96-6.39-2.23-14.06-6.5-18.76-12.26-1.53,1.37-3.83,2.19-6.9,1.74-.61-1.52-.92-2.28-1.53-3.8,5.26-.32,3.44-6.65,3.83-10.6,.47-4.69,3.32-8.35,8.53-7.71,5.86,.72,10.47,6.29,10.36,11.74-.98-.85-2.07-1.53-3.27-1.93-3.49-1.17-7,.29-6.77,4.59,.41,7.58,6.56,13.02,13.63,15.14,7.29,2.19,15.31-1.55,12.5-13.43-1.85-7.8-6.94-14.18-12.5-20.34Zm-18.88,14.65c.88-8.52,7.54-7.18,7.54-7.18-4.91-2.04-8.42,.68-7.54,7.18Zm13.11-50.17c-5.56,.72-7.34,5.16-7.2,8.69,.27,7.1,8.93,16.25,13.41,22.01,6.45,8.31,13.63,16.84,16.94,27.13,1.3,5.13,1.09,10.84-4.12,12.8,.35,.04,.52,.06,.87,.11,4.66-1.74,5.63-7.89,4.55-12.64-2.37-10.46-10.14-19.54-16.82-27.84-4.47-5.56-12.6-14.37-13.19-21.34-.3-3.61,.55-7.71,6.55-9.1-.39,.07-.59,.11-.98,.19Zm25.53,17.79c-.87,8.49-7.48,6.92-7.48,6.92,4.88,2.16,8.34-.39,7.48-6.92Z"/>
      </g>
      <g>
        <path class="cls-2" d="M549.19,169.74c.65,2.15,3.58,.8,3.58,.8v2.38s-2.93,.73-3.58,3.44v11.29c-.67,7.85,2.02,22.95,13.81,17.98,11.07-4.67,17.18-16.76,16.59-28.79v-9.84c0-3.52-3.72-1.91-3.72-1.91v-2.38s3.72-.79,3.72-4.2v-16.99c-.66-4.45-4.81-6.64-9.94-5.56v-3.31c6.77-2.25,9.07-2.14,11.8,.51,2.74-4.39,5.14-6,11.95-8.08v3.31c-5.71,2.47-9.98,7.97-9.98,13.35v15.54c0,3.42,3.73,1.83,3.73,1.83v2.38s-3.73,.76-3.73,4.28v9.84c.2,14.73-6.86,27.93-20.86,33.16-14.8,5.53-27.64,.81-25.61-17.09,.04-4.61,.06-6.92,.11-11.54-.87-1.54-3.35-.3-3.35-.3v-2.38s2.59-.66,3.46-2.95c.09-7.61,.13-11.42,.22-19.04-.11-4.31-.98-7.21-5.83-6v-3.31c6.69-2.53,8.97-2.52,11.68,.02,2.71-4.51,5.09-6.21,11.83-8.57v3.31c-5.65,2.7-5.86,6.94-5.86,12.32v16.47Zm-6.07-22.67c-1.19,.43-2.06,1.58-2.06,2.72,0,1.24,.87,1.75,2.06,1.32,1.19-.43,2.06-1.58,2.06-2.82,0-1.14-.87-1.66-2.06-1.22Zm.65,6.08c-.56,.2-.85,.31-1.41,.51v43.19c0,4.66,3.9,9.56,6.94,9.51-6.95-3.43-5.53-10.85-5.53-21.21s0-21.34,0-32Z"/>
        <path class="cls-2" d="M606.15,134.86c0-5.39-.22-9.48-5.94-8.51v-3.31c6.82-2.03,9.14-1.84,11.89,.9,2.76-4.3,5.18-5.83,12.03-7.68v3.31c-3.32,1.31-4.75,3.26-5.41,5.62,9.12,14.38,18.19,28.79,27.24,43.22v-20.2c0-3.52-3.88-2.14-3.88-2.14v-2.38s3.88-.55,3.88-3.97c0-7.66,0-11.5,0-19.16-.33-3.44-1.45-5.76-5.88-5.16v-3.31c6.77-1.71,9.21-1.46,11.99,1.4,2.78-4.19,5.22-5.61,12.02-7.15v3.31c-5.79,2.04-6.01,6.25-6.01,11.64,0,6.21,0,9.32,0,15.54,0,3.42,3.9,2.1,3.9,2.1v2.38s-3.9,.49-3.9,4.01c0,10.81,0,16.22,0,27.03,.33,2.31,1.56,3.67,6.01,3.18,0,1.33,0,1.99,0,3.31-6.91,1.57-9.35,1.33-12.13-1.63-2.78,4.29-5.23,5.7-12.1,7.44v-3.31c3.66-1.34,5.22-2.96,5.77-4.86-9.12-14.54-18.27-29.06-27.46-43.57v14.09c0,3.42,3.87,1.94,3.87,1.94v2.38s-3.87,.65-3.87,4.17c0,10.81,0,16.22,0,27.03,.33,2.29,1.54,3.6,5.97,2.93v3.31c-6.85,1.85-9.17,1.69-11.92-1.05-2.76,4.3-5.18,5.81-12,7.84v-3.31c4.4-1.82,5.61-3.82,5.94-6.3,0-10.81,0-16.22,0-27.03,0-3.52-3.85-1.98-3.85-1.98v-2.38s3.85-.71,3.85-4.13c0-6.21,0-9.32,0-15.54Zm5.95-6.06c1.21-.34,2.1-1.42,2.1-2.66,0-1.14-.88-1.72-2.1-1.38-1.21,.34-2.09,1.43-2.09,2.57,0,1.24,.88,1.82,2.09,1.47Zm.11,57.87c.99-.28,1.76-1.22,1.76-2.26,0-1.14-.77-1.65-1.76-1.37-1.21,.34-1.98,1.29-1.98,2.43,0,1.04,.77,1.54,1.98,1.2Zm-.77-55.4c0,16.43,0,32.87,0,49.3,.57-.16,.86-.24,1.43-.41,0-16.43,0-32.87,0-49.3-.57,.16-.86,.24-1.43,.41Zm40.41-12.87c1.22-.29,2.11-1.33,2.11-2.58,0-1.14-.89-1.76-2.11-1.46-1.22,.29-2.11,1.34-2.11,2.48,0,1.24,.89,1.86,2.11,1.56Zm.11,57.87c1-.24,1.78-1.15,1.78-2.19,0-1.14-.78-1.68-1.78-1.44-1.22,.29-2,1.21-2,2.35,0,1.04,.78,1.57,2,1.28Zm-.78-55.43c0,16.43,0,32.87,0,49.3,.58-.14,.87-.21,1.44-.35,0-16.43,0-32.87,0-49.3-.58,.14-.87,.21-1.44,.35Z"/>
        <path class="cls-2" d="M677.02,117.06c0-5.39-.23-9.5-6.03-8.95,0-1.33,0-1.99,0-3.31,6.92-1.52,9.26-1.16,12.06,1.79,2.79-4.1,5.25-5.44,12.19-6.79v3.31c-5.82,1.85-6.04,6.06-6.04,11.44,0,6.21,0,9.32,0,15.54,0,3.42,3.92,2.23,3.92,2.23v2.38s-3.92,.36-3.92,3.88c0,10.81,0,16.22,0,27.03,.34,2.32,1.56,3.72,6.04,3.37,0,1.33,0,1.99,0,3.31-6.94,1.34-9.29,1.01-12.08-1.94-2.79,4.1-5.25,5.42-12.17,6.94v-3.31c4.46-1.5,5.69-3.4,6.03-5.86,0-10.81,0-16.22,0-27.03,0-3.52-3.91-2.27-3.91-2.27v-2.38s3.91-.43,3.91-3.84c0-6.21,0-9.32,0-15.54Zm6.03-5.61c1.23-.25,2.12-1.26,2.12-2.51,0-1.14-.89-1.79-2.12-1.53s-2.12,1.27-2.12,2.41c0,1.24,.89,1.88,2.12,1.63Zm.11,57.88c1.01-.21,1.79-1.09,1.79-2.13,0-1.14-.78-1.7-1.79-1.5-1.23,.25-2.01,1.14-2.01,2.28,0,1.04,.78,1.6,2.01,1.34Zm-.78-55.46c0,16.43,0,32.87,0,49.3,.58-.12,.87-.18,1.45-.3,0-16.43,0-32.87,0-49.3-.58,.12-.87,.18-1.45,.3Z"/>
        <path class="cls-2" d="M754.49,103.53c1.92-5.85,1.13-9.49-5.98-9.34v-3.42c6.65-.92,9.02,.56,10.94,2.9,2.48-3.42,5.19-5.01,10.16-5.58,0,1.37,0,2.05,0,3.42-6.67,1.5-9.26,6.51-10.61,10.51-2.53,7.49-3.79,11.24-6.32,18.74,0,2.17,2.93,1.58,2.93,1.58-.18,.48-.27,.72-.45,1.2-.14,.56-.2,.83-.34,1.39,0,0-3.27,.12-4.62,3-3.29,9.69-4.94,14.54-8.23,24.25-1.8,5.23,.34,8.53,6.54,7.67,0,1.37,0,2.05,0,3.42-6.88,.95-9.8,.46-12.39-2.77-2.7,5.17-7.65,5.93-13.84,6.74,0-1.37,0-2.05,0-3.42,5.39-.89,6.63-4.49,5.17-9.33-2.26-7.5-5.17-14.6-7.64-21.95-1.46-2.55-4.6-1.6-4.6-1.6-.13-.52-.2-.77-.34-1.29-.18-.42-.27-.64-.45-1.06,0,0,4.04-.17,2.81-3.38-2.52-7.15-3.77-10.73-6.29-17.86-1.46-4.3-3.14-6.08-8.75-5.66v-3.42c6.73-1.25,11.44-1.23,14.14,1.83,2.7-3.98,6.63-5.48,13.26-6.53,0,1.37,0,2.05,0,3.42-7.09,1.94-7.76,5.6-5.85,11.09,2.11,6.12,3.17,9.18,5.29,15.31,1.35,2.89,4.73,1.96,4.73,1.96,.14,.52,.2,.78,.34,1.29,.18,.43,.27,.64,.45,1.07,0,0-3.6,.24-2.81,3.13,2.75,7.82,4.12,11.73,6.87,19.57,3.02-8.94,4.53-13.4,7.55-22.32,.11-2.29-2.93-1.66-2.93-1.66,.18-.48,.27-.72,.45-1.2,.14-.56,.2-.84,.34-1.39,0,0,3.49-.08,4.73-3.25,2.3-6.82,3.45-10.23,5.75-17.04Zm-37.71,2.39c1.01-.17,1.8-1.03,1.8-2.07,0-1.14-.79-1.73-1.8-1.56-1.24,.21-2.02,1.07-2.02,2.21,0,1.04,.79,1.62,2.02,1.41Zm1.8,2.8c-.58,.1-.88,.15-1.46,.25,5.25,14.65,10.5,29.3,15.74,43.95,.59-.09,.88-.13,1.46-.22-5.24-14.66-10.49-29.32-15.74-43.98Zm13.15,22.21c0,.1,.11,.19,.11,.29-.05-.12-.07-.18-.11-.29Zm2.93,27.31c1.01-.15,1.8-1,1.8-2.03,0-1.14-.79-1.75-1.8-1.59-1.24,.19-2.03,1.04-2.03,2.18,0,1.04,.79,1.64,2.03,1.45Z"/>
        <path class="cls-2" d="M811.02,102.27c1.36,.62,2.83,.92,3.97,.75,13.2-2.02,4.49-18.78-7.7-16.21-5.07,1.07-12.57,3.86-12.57,10.18,0,7.21,0,10.81,0,18.02,0,3.42,3.74,2.78,3.74,2.78v2.28s-3.74,.02-3.74,3.44c0,9.2,0,13.8,0,22.99,0,6.32,7.39,7.82,12.57,8.05,10.9,.49,21.03-17.03,7.7-17.45-1.12-.04-2.61,.5-3.97,1.43-.11-5.48,3.54-10.39,10.43-9.52,7.22,.91,11.34,9.07,8.62,16.37,1.7-.92,3.18-.9,4.31-.75,0,1.78,0,2.67,0,4.45,0,0-3.06-.98-6.58,1.5-6.01,4.18-11.68,6.1-19.04,6.66-7.93,.61-15.29,.66-19.81-3.15v.21c-2.83,3.9-5.32,4.96-12.33,5.72,0-1.33,0-1.99,0-3.31,4.07-.96,5.43-3.27,5.88-6.32,0-10.27,0-15.41,0-25.69,0-3.42-3.73-2.72-3.73-2.72v-2.28s3.73-.08,3.73-3.5c0-7.83,0-11.75,0-19.58-.34-3.38-1.47-5.76-5.88-5.8,0-1.33,0-1.99,0-3.31,7.01-.76,9.5-.17,12.33,3.19,4.53-4.89,11.66-6.17,19.81-6.79,7.36-.56,13.03,.62,19.04,4.11,3.52,2.08,6.58,.78,6.58,.78v4.45c-1.13,.27-2.61,.45-4.31-.29,2.72,7-1.4,15.56-8.62,17.4-6.89,1.75-10.54-2.59-10.43-8.08Zm-22.19-6.8c1.24-.12,2.15-1.03,2.15-2.28,0-1.14-.91-1.88-2.15-1.76-1.24,.12-2.15,1.04-2.15,2.18,0,1.24,.91,1.98,2.15,1.86Zm.11,57.89c1.02-.1,1.81-.9,1.81-1.93,0-1.14-.79-1.79-1.81-1.69-1.24,.12-2.04,.92-2.04,2.06,0,1.04,.79,1.68,2.04,1.56Zm-.79-55.54c0,16.43,0,32.87,0,49.3,.59-.06,.88-.09,1.47-.14,0-16.43,0-32.87,0-49.3-.59,.06-.88,.08-1.47,.14Zm21.74,22.98c-3.03,5.61-.91,10.52,2.38,10.28-7.37,1.37-12.16-3.47-9.86-11.66,1.43-5.07,6.57-9.65,2.38-12.83,5.78,.88,8.17,8.52,5.1,14.21Zm17.12,20.61c.91-6.27-2.72-9.9-7.82-9.15,0,0,6.92,.39,7.82,9.15Zm.34-43.21c-.91,8.86-7.82,10.12-7.82,10.12,5.1,.08,8.73-3.95,7.82-10.12Z"/>
        <path class="cls-2" d="M897.26,143.2c1.82,4.79,3.41,6.97,9.2,7.71v3.42c-6.81-.15-11.81-1.01-14.53-4.66-2.73,3.61-6.7,4.41-13.4,4.45,0-1.37,0-2.05,0-3.42,7.15-.88,7.15-4.48,5.9-10.17-1.5-4.51-2.25-6.77-3.75-11.28-2.38-5.79-4.89-9.11-10.45-11.19-3.74-1.4-4.2-2.11-.79-3.2,11.13-3.49,17.62-10.09,18.17-17.21,.59-7.74-4.93-14.81-14.99-14.74-5.87,.04-12.83,4.49-12.83,11.43,0,7.33,0,11,0,18.33,.8,2.05,3.63,1.68,3.63,1.68v2.38s-2.84-.14-3.63,1.95c0,10.4,0,15.6,0,26,.11,3.52,1.02,5.87,6.13,6.29,0,1.33,0,1.99,0,3.31-7.04,.14-9.42-.61-12.26-4.14-2.84,3.72-5.22,4.61-12.26,4.92,0-1.33,0-1.99,0-3.31,5.11-.74,6.01-3.25,6.13-6.67,0-9.9,0-14.85,0-24.75,0-3.42-3.86-2.95-3.86-2.95v-2.38s3.86,.26,3.86-3.16c0-7.25,0-10.88,0-18.13,0-4.45-.57-7.76-6.13-7.83v-3.31c3.52-.15,8.96-.36,12.26,3.06,5.11-3.68,12.38-4.89,20.43-5.09,10.44-.27,25.61,4.78,26,17.04,.45,14.09-18.86,18.93-30.09,18.54,0,0,3.76,1.59,9.54,3.42,6.69,2.13,12.15,5.49,14.76,14.63,1.18,3.61,1.77,5.42,2.95,9.04Zm-43.6-51.88c1.25-.04,2.16-.89,2.16-2.14,0-1.14-.91-1.94-2.16-1.9s-2.16,.9-2.16,2.04c0,1.24,.91,2.04,2.16,2Zm.11,57.9c1.02-.03,1.82-.78,1.82-1.82,0-1.14-.79-1.84-1.82-1.81-1.25,.04-2.04,.79-2.04,1.93,0,1.04,.79,1.73,2.04,1.69Zm-.79-55.6c0,16.43,0,32.87,0,49.3,.59-.02,.89-.03,1.48-.05,0-16.43,0-32.87,0-49.3-.59,.02-.89,.03-1.48,.05Zm32.24,35.73c2.04,5.92,3.07,8.89,5.11,14.82,.59,0,.89,0,1.48,0-2.04-5.94-3.07-8.9-5.11-14.83-1.82-4.46-5.45-7.77-8.74-8.47,4.2,1.32,6.36,5.98,7.27,8.47Zm.57-44.43c8.38,5.15,8.56,20.21,0,25.38,.23-.04,.34-.06,.57-.1,10.88-4.04,8.83-20.22,0-25.17-.23-.04-.34-.06-.57-.1Zm5.68,63.82c1.02,0,1.82-.71,1.82-1.75,0-1.14-.79-1.87-1.82-1.88-1.25,0-2.04,.71-2.04,1.85,0,1.04,.79,1.76,2.04,1.77Z"/>
        <path class="cls-2" d="M940.84,119.92c.23,.22,.34,.33,.57,.55-1.59-1.23-3.06-1.72-4.2-1.78-1.47-.08-2.5,.39-3.06,.78-1-.84-1.5-1.25-2.5-2.09,0,0,2.87-1.85,.34-4.54-3.38-3.6-7.56-7.88-8.4-13.1-1.86-11.6,13.31-18.65,23.48-17.15,6.71,.99,12.13,3.62,14.85,7.76,1.59-1.33,3.74-2.4,6.57-2.99,.63,1.38,.95,2.07,1.59,3.45-4.3,1.19-5.44,5.02-5.89,8.32-.56,4.14-3.07,8.05-8.16,8.71-6.22,.81-11-3.52-10.88-9,1.13,.69,2.38,1.08,3.51,1.15,4.42,.28,8.01-3.83,6.57-9.19-.92-3.45-3.76-5.78-9.63-5.91-7.57-.17-13.95,5.36-11.11,14.41,.91,2.84,3.06,5.64,6.01,8.5,1.81,1.45,3.29,1.95,4.42,2.02,1.02,.06,1.81-.3,2.27-.59,1,.85,1.5,1.27,2.49,2.13,0,0-2.15,1.52,.23,4.68,7.48,6.28,15.26,13.24,16.54,20.79,2.39,14.07-12.66,20.37-24.71,19.73-6.66-.35-14.63-2.49-19.51-6.92-1.59,1.81-3.97,3.27-7.15,3.7-.64-1.34-.95-2.02-1.59-3.36,5.45-1.81,3.56-7.58,3.97-11.69,.49-4.79,3.44-9.3,8.85-10.14,6.09-.95,10.89,3.3,10.78,8.79-1.02-.57-2.16-.94-3.4-1-3.63-.18-7.28,2.28-7.03,6.52,.42,7.45,6.81,11.15,14.18,11.25,7.59,.11,15.98-5.93,13.04-17-1.93-7.27-7.25-12.19-13.04-16.76Zm-19.63,20.02c.91-8.77,7.83-9.32,7.83-9.32-5.11-.64-8.74,3.07-7.83,9.32Zm13.62-53.9c-5.79,2.3-7.63,7.24-7.49,10.74,.28,7,9.31,13.86,13.95,18.19,6.39,5.96,14.55,13.63,17.68,22.28,1.36,4.76,1.13,10.53-4.31,13.98,.36-.06,.54-.09,.91-.14,4.87-3.07,5.87-9.46,4.76-13.95-2.18-8.82-11.03-17.23-17.57-23.02-4.63-4.11-13.12-10.77-13.73-17.58-.31-3.51,.57-7.87,6.81-10.97-.41,.19-.61,.28-1.02,.47Zm26.64,10.48c-.91,8.73-7.82,9.06-7.82,9.06,5.1,.76,8.73-2.78,7.82-9.06Z"/>
        <path class="cls-2" d="M983.2,99.98c0-5.39-.23-9.57-6.11-10.84v-3.31c7.02,.65,9.39,1.74,12.22,5.55,2.83-3.23,5.32-3.81,12.32-2.98v3.31c-5.87,.04-6.1,4.17-6.1,9.56v15.54c0,3.42,3.96,3.45,3.96,3.45v2.38s-3.96-.86-3.96,2.66v27.03c.34,2.42,1.58,4.21,6.1,5.25v3.31c-7-.82-9.38-1.89-12.2-5.7-2.83,3.23-5.31,3.78-12.33,3.14v-3.31c4.53-.1,5.77-1.63,6.11-3.97v-27.03c0-3.52-3.96-3.49-3.96-3.49v-2.38s3.96,.8,3.96-2.62v-15.54Zm6.11-3.73c1.24,.13,2.15-.6,2.15-1.84,0-1.14-.9-2.07-2.15-2.2-1.24-.13-2.15,.61-2.15,1.75,0,1.24,.9,2.16,2.15,2.29Zm.11,57.91c1.02,.11,1.81-.53,1.81-1.57,0-1.14-.79-1.95-1.81-2.06-1.24-.13-2.04,.51-2.04,1.65,0,1.04,.79,1.84,2.04,1.97Zm-.79-55.7v49.3c.59,.06,.88,.09,1.47,.15v-49.3c-.59-.06-.88-.09-1.47-.15Z"/>
        <path class="cls-2" d="M1077.66,105.06c3.47,2.96,6.49,2.43,6.49,2.43v4.45c-.78-.05-1.9-.07-3.02-.61,3.02,8.06-.68,16.19-7.95,15.33-6.93-.82-10.42-5.25-10.31-10.72,1.12,1.14,2.58,1.81,4.04,1.98,7.85,.73,10.2-11.67,1.46-16.41-1.46-.79-3.03-1.28-4.48-1.55-6.28-1.14-11.79,2.49-11.79,9.02v15.95c0,3.42,3.71,3.74,3.71,3.74v2.28s-3.71-.94-3.71,2.47v21.34c0,5.28,1.35,9.32,8.64,11.55v3.31c-6.96-1.24-12.02-2.9-14.71-6.96-2.7,3.19-7.76,3.2-14.74,2.17v-3.31c6.98,.1,8.67-3.45,8.67-8.73v-21.34c0-3.42-3.71-3.68-3.71-3.68v-2.28s3.71,.88,3.71-2.53v-15.95c0-6.53-5.51-11.95-11.82-12.86-1.46-.21-3.04-.23-4.51,.08-8.79,1.88-6.42,15.04,1.47,16.88,1.47,.31,2.93,.11,4.06-.66,.11,5.51-3.42,8.84-10.37,7.35-7.3-1.56-11.17-10.98-8.01-18.03-1.24,.26-2.37,.01-3.27-.31v-4.45s3.05,1.51,6.55-.31c6.54-3.4,12.08-3.76,19.95-1.97,4.16,.94,8.44,2.13,12.04,6.24,3.6-2.94,7.87-2.73,12.02-2.32,7.96,.79,13.24,3.01,19.61,8.41Zm-64.86,.56c-.11,6.2,3.95,10.14,8.91,9.89,0,0-6.99-1.04-8.91-9.89Zm33.11-1.81c1.24,.2,2.14-.48,2.14-1.72,0-1.14-.9-2.12-2.14-2.32-1.24-.2-2.14,.48-2.14,1.62,0,1.24,.9,2.22,2.14,2.42Zm.11,57.92c1.01,.16,1.8-.43,1.8-1.47,0-1.14-.79-1.99-1.8-2.16-1.24-.2-2.02,.4-2.02,1.54,0,1.04,.79,1.89,2.02,2.09Zm-.79-55.75v49.3c.58,.09,.88,.14,1.46,.24v-49.3c-.58-.1-.88-.14-1.46-.24Zm34.55,10.57c-1.9,8.22-8.84,6.99-8.84,6.99,4.93,1.86,8.96-.75,8.84-6.99Z"/>
        <path class="cls-2" d="M1133.36,126.24c2.99-4.93,3.77-8.99-2.88-10.88v-3.42c6.1,1.13,9.31,4.16,10.41,7.04,3.32-2.13,6.31-2.67,11.16-1.33v3.73c-6.95-1.93-10.72,1.34-13.27,4.3-5,6.48-7.51,9.73-12.53,16.28,1,1.7,3.33,2.08,3.33,2.08v2.38s-3.77-1.36-3.77,2.16v27.03c.33,2.47,1.56,4.42,5.99,6.06v3.31c-6.87-1.75-9.21-3.13-11.99-7.32-2.78,2.85-5.22,3.08-12.13,1.5v-3.31c4.45,.5,5.68-.86,6.01-3.17v-27.97c-.67-2.64-3.67-3.03-3.67-3.03v-2.38s1.78,.62,2.89-.05c-4.95-8.7-9.93-17.38-14.93-26.05-2.45-3.95-4.69-6.1-9.15-7.23v-3.62c6.82,1.11,9.71,2.89,13.62,7.38,1.45-3.3,6.69-3.58,12.69-1.54,.09,1.43,.13,2.14,.22,3.57-6.67-1.47-6.23,2.58-2.67,9.01,4.27,7.34,6.41,11.02,10.67,18.4,4-5.19,6-7.78,9.99-12.93Zm-29.68-11.47c1,.22,1.78-.32,1.78-1.36,0-1.14-.78-2.04-1.78-2.26-1.23-.27-2.01,.28-2.01,1.42,0,1.04,.78,1.93,2.01,2.21Zm.67,1.08c5.22,8.84,7.82,13.27,13.02,22.18,.53,.13,.8,.19,1.33,.32-5.2-8.91-7.81-13.35-13.02-22.2-.53-.12-.8-.18-1.34-.3Zm15.91,28.78c1,.24,1.78-.29,1.78-1.33,0-1.14-.78-2.05-1.78-2.3-1.22-.3-2,.24-2,1.38,0,1.04,.78,1.95,2,2.24Zm0,32.11c1,.24,1.78-.29,1.78-1.33,0-1.14-.78-2.05-1.78-2.3-1.22-.3-2,.24-2,1.38,0,1.04,.78,1.95,2,2.24Zm-.78-30.64c0,9.65,0,14.48,0,24.13,.58,.14,.87,.21,1.44,.35v-24.13c-.58-.14-.87-.21-1.44-.35Z"/>
        <path class="cls-2" d="M1164.29,121.74c7.19,3.08,13.66,20.9,1.87,18.57-8.81-1.74-9.47-16.03,0-13.26,1.32,.39,2.42,1.02,3.41,1.73-.55-1.92-2.86-4.37-6.27-4.84,.4-.88,.6-1.32,.99-2.2Zm-2.64,8.87c-1.21,3.48,.77,6.74,4.29,7.98,0,0-4.62-2.48-4.29-7.98Z"/>
        <path class="cls-2" d="M1206.25,171.29c.22,.28,.33,.42,.54,.7-1.53-1.66-2.94-2.55-4.03-2.91-1.42-.47-2.4-.28-2.95-.05-.96-1.11-1.44-1.66-2.4-2.76,0,0,2.81-1,.33-4.45-3.33-4.62-7.15-9.74-8.09-15.36-2.06-12.36,13.98-14.74,22.59-10.82,6.24,2.84,11.62,6.89,14.22,11.77,1.52-.9,3.57-1.39,6.28-1.22,.61,1.55,.91,2.33,1.51,3.88-4.11,.02-5.2,3.61-5.63,6.73-.55,4.05-2.93,7.22-7.81,6.51-5.96-.87-10.54-6.49-10.43-11.94,1.09,1,2.29,1.72,3.37,2.1,4.24,1.47,7.68-1.66,6.3-7.42-.88-3.7-3.59-6.79-9.24-8.51-7.27-2.21-13.41,1.6-10.68,11.41,.87,3.09,2.95,6.47,5.78,10.12,1.74,1.94,3.16,2.84,4.25,3.21,.98,.34,1.74,.19,2.18,.03,.96,1.12,1.44,1.68,2.39,2.8,0,0-2.07,.94,.22,4.74,6.29,6.63,14.02,16.22,15.84,25.26,2.89,14.41-13.01,16.73-23.67,13.06-6.4-2.2-14.08-6.44-18.78-12.19-1.53,1.38-3.83,2.2-6.9,1.77-.61-1.52-.92-2.27-1.54-3.79,5.27-.34,3.44-6.66,3.84-10.62,.47-4.69,3.32-8.37,8.54-7.75,5.86,.7,10.48,6.24,10.38,11.7-.98-.85-2.07-1.52-3.27-1.92-3.49-1.16-7.01,.32-6.77,4.62,.41,7.57,6.57,12.99,13.64,15.08,7.3,2.16,15.32-1.61,12.51-13.48-1.85-7.79-6.95-14.15-12.51-20.28Zm-18.9,14.73c.88-8.53,7.55-7.21,7.55-7.21-4.92-2.02-8.42,.72-7.55,7.21Zm13.12-50.22c-5.57,.74-7.35,5.19-7.21,8.72,.27,7.1,8.94,16.21,13.42,21.95,6.46,8.28,13.64,16.79,16.96,27.06,1.3,5.13,1.09,10.84-4.12,12.82,.35,.04,.52,.06,.87,.1,4.67-1.76,5.63-7.91,4.56-12.66-2.37-10.44-10.15-19.49-16.84-27.77-4.48-5.54-12.62-14.32-13.2-21.28-.3-3.61,.55-7.71,6.55-9.13-.39,.08-.59,.11-.98,.19Zm25.56,17.68c-.87,8.49-7.49,6.95-7.49,6.95,4.89,2.14,8.35-.42,7.49-6.95Z"/>
      </g>
    </g>
  </g>
</svg>